999
dxfrw 0.5.10
0
SECTION
2
HEADER
9
$ACADVER
1
AC1021
9
$HANDSEED
5
20000
9
$DWGCODEPAGE
3
ANSI_1252
9
$INSBASE
10
0
20
0
30
0
9
$EXTMIN
10
-4.83976305228
20
427.809187959
30
0
9
$EXTMAX
10
65.4945636478
20
492.032811033
30
0
9
$LIMMIN
10
0
20
0
9
$LIMMAX
10
420
20
297
9
$ORTHOMODE
70
0
9
$LTSCALE
40
1
9
$TEXTSTYLE
7
STANDARD
9
$DIMASZ
40
0.75
9
$DIMSCALE
40
1
9
$DIMEXO
40
0
9
$DIMEXE
40
1
9
$DIMTXT
40
3
9
$DIMTSZ
40
0
9
$DIMAUNIT
70
0
9
$DIMADEC
70
2
9
$DIMLUNIT
70
5
9
$DIMSTYLE
2
Standard
9
$DIMGAP
40
0.25
9
$DIMTIH
70
0
9
$LUNITS
70
5
9
$LUPREC
70
4
9
$AUNITS
70
0
9
$AUPREC
70
2
9
$SPLINESEGS
70
8
9
$GRIDMODE
70
1
9
$SNAPSTYLE
70
0
9
$GRIDUNIT
10
1
20
1
9
$PINSBASE
10
1.95094733801
20
-49.5720827219
30
0
9
$PLIMMIN
10
0
20
0
9
$PLIMMAX
10
11
20
8.5
9
$INSUNITS
70
1
9
$PSVPSCALE
40
0.117024625492
0
ENDSEC
0
SECTION
2
CLASSES
0
ENDSEC
0
SECTION
2
TABLES
0
TABLE
2
VPORT
5
8
330
0
100
AcDbSymbolTable
70
1
0
VPORT
5
31
330
2
100
AcDbSymbolTableRecord
100
AcDbViewportTableRecord
2
*ACTIVE
70
0
10
0
20
0
11
1
21
1
12
44.8812101513
22
249.136513493
13
0
23
0
14
10
24
10
15
1
25
1
16
0
26
0
36
1
17
0
27
0
37
0
40
93.0827139108
41
1.55965559656
42
50
43
0
44
0
50
0
51
0
71
0
72
100
73
1
74
3
75
0
76
1
77
0
78
0
281
0
65
1
110
0
120
0
130
0
111
1
121
0
131
0
112
0
122
1
132
0
79
0
146
0
348
10020
60
3
61
5
292
1
282
1
141
0
142
0
63
250
421
3358443
0
ENDTAB
0
TABLE
2
LTYPE
5
5
330
0
100
AcDbSymbolTable
70
4
0
LTYPE
5
14
330
5
100
AcDbSymbolTableRecord
100
AcDbLinetypeTableRecord
2
ByBlock
70
0
3

72
65
73
0
40
0
0
LTYPE
5
15
330
5
100
AcDbSymbolTableRecord
100
AcDbLinetypeTableRecord
2
ByLayer
70
0
3

72
65
73
0
40
0
0
LTYPE
5
16
330
5
100
AcDbSymbolTableRecord
100
AcDbLinetypeTableRecord
2
Continuous
70
0
3
Solid line
72
65
73
0
40
0
0
LTYPE
5
32
330
5
100
AcDbSymbolTableRecord
100
AcDbLinetypeTableRecord
2
DOT
70
0
3
Dot . . . . . . . . . . . . . . . . . . . . . .
72
65
73
2
40
6.35
49
0
74
0
49
-6.35
74
0
0
LTYPE
5
33
330
5
100
AcDbSymbolTableRecord
100
AcDbLinetypeTableRecord
2
DOT2
70
0
3
Dot (.5x) .....................................
72
65
73
2
40
3.175
49
0
74
0
49
-3.175
74
0
0
LTYPE
5
34
330
5
100
AcDbSymbolTableRecord
100
AcDbLinetypeTableRecord
2
DOTX2
70
0
3
Dot (2x) .  .  .  .  .  .  .  .  .  .  .  .  .
72
65
73
2
40
12.7
49
0
74
0
49
-12.7
74
0
0
LTYPE
5
35
330
5
100
AcDbSymbolTableRecord
100
AcDbLinetypeTableRecord
2
DASHED
70
0
3
Dot . . . . . . . . . . . . . . . . . . . . . .
72
65
73
2
40
19.05
49
12.7
74
0
49
-6.35
74
0
0
LTYPE
5
36
330
5
100
AcDbSymbolTableRecord
100
AcDbLinetypeTableRecord
2
DASHED2
70
0
3
Dashed (.5x) _ _ _ _ _ _ _ _ _ _ _ _ _ _ _ _ _
72
65
73
2
40
9.525
49
6.35
74
0
49
-3.175
74
0
0
LTYPE
5
37
330
5
100
AcDbSymbolTableRecord
100
AcDbLinetypeTableRecord
2
DASHEDX2
70
0
3
Dashed (2x) ____  ____  ____  ____  ____  ___
72
65
73
2
40
38.1
49
25.4
74
0
49
-12.7
74
0
0
LTYPE
5
38
330
5
100
AcDbSymbolTableRecord
100
AcDbLinetypeTableRecord
2
DASHDOT
70
0
3
Dash dot __ . __ . __ . __ . __ . __ . __ . __
72
65
73
4
40
25.4
49
12.7
74
0
49
-6.35
74
0
49
0
74
0
49
-6.35
74
0
0
LTYPE
5
39
330
5
100
AcDbSymbolTableRecord
100
AcDbLinetypeTableRecord
2
DASHDOT2
70
0
3
Dash dot (.5x) _._._._._._._._._._._._._._._.
72
65
73
4
40
12.7
49
6.35
74
0
49
-3.175
74
0
49
0
74
0
49
-3.175
74
0
0
LTYPE
5
3A
330
5
100
AcDbSymbolTableRecord
100
AcDbLinetypeTableRecord
2
DASHDOTX2
70
0
3
Dash dot (2x) ____  .  ____  .  ____  .  ___
72
65
73
4
40
50.8
49
25.4
74
0
49
-12.7
74
0
49
0
74
0
49
-12.7
74
0
0
LTYPE
5
3B
330
5
100
AcDbSymbolTableRecord
100
AcDbLinetypeTableRecord
2
DIVIDE
70
0
3
Divide ____ . . ____ . . ____ . . ____ . . ____
72
65
73
6
40
31.75
49
12.7
74
0
49
-6.35
74
0
49
0
74
0
49
-6.35
74
0
49
0
74
0
49
-6.35
74
0
0
LTYPE
5
3C
330
5
100
AcDbSymbolTableRecord
100
AcDbLinetypeTableRecord
2
DIVIDE2
70
0
3
Divide (.5x) __..__..__..__..__..__..__..__.._
72
65
73
6
40
15.875
49
6.35
74
0
49
-3.175
74
0
49
0
74
0
49
-3.175
74
0
49
0
74
0
49
-3.175
74
0
0
LTYPE
5
3D
330
5
100
AcDbSymbolTableRecord
100
AcDbLinetypeTableRecord
2
DIVIDEX2
70
0
3
Divide (2x) ________  .  .  ________  .  .  _
72
65
73
6
40
63.5
49
25.4
74
0
49
-12.7
74
0
49
0
74
0
49
-12.7
74
0
49
0
74
0
49
-12.7
74
0
0
LTYPE
5
3E
330
5
100
AcDbSymbolTableRecord
100
AcDbLinetypeTableRecord
2
BORDER
70
0
3
Border __ __ . __ __ . __ __ . __ __ . __ __ .
72
65
73
6
40
44.45
49
12.7
74
0
49
-6.35
74
0
49
12.7
74
0
49
-6.35
74
0
49
0
74
0
49
-6.35
74
0
0
LTYPE
5
3F
330
5
100
AcDbSymbolTableRecord
100
AcDbLinetypeTableRecord
2
BORDER2
70
0
3
Border (.5x) __.__.__.__.__.__.__.__.__.__.__.
72
65
73
6
40
22.225
49
6.35
74
0
49
-3.175
74
0
49
6.35
74
0
49
-3.175
74
0
49
0
74
0
49
-3.175
74
0
0
LTYPE
5
40
330
5
100
AcDbSymbolTableRecord
100
AcDbLinetypeTableRecord
2
BORDERX2
70
0
3
Border (2x) ____  ____  .  ____  ____  .  ___
72
65
73
6
40
88.9
49
25.4
74
0
49
-12.7
74
0
49
25.4
74
0
49
-12.7
74
0
49
0
74
0
49
-12.7
74
0
0
LTYPE
5
41
330
5
100
AcDbSymbolTableRecord
100
AcDbLinetypeTableRecord
2
CENTER
70
0
3
Center ____ _ ____ _ ____ _ ____ _ ____ _ ____
72
65
73
4
40
50.8
49
31.75
74
0
49
-6.35
74
0
49
6.35
74
0
49
-6.35
74
0
0
LTYPE
5
42
330
5
100
AcDbSymbolTableRecord
100
AcDbLinetypeTableRecord
2
CENTER2
70
0
3
Center (.5x) ___ _ ___ _ ___ _ ___ _ ___ _ ___
72
65
73
4
40
28.575
49
19.05
74
0
49
-3.175
74
0
49
3.175
74
0
49
-3.175
74
0
0
LTYPE
5
43
330
5
100
AcDbSymbolTableRecord
100
AcDbLinetypeTableRecord
2
CENTERX2
70
0
3
Center (2x) ________  __  ________  __  _____
72
65
73
4
40
101.6
49
63.5
74
0
49
-12.7
74
0
49
12.7
74
0
49
-12.7
74
0
0
ENDTAB
0
TABLE
2
LAYER
5
2
330
0
100
AcDbSymbolTable
70
1
0
LAYER
5
10
330
2
100
AcDbSymbolTableRecord
100
AcDbLayerTableRecord
2
0
70
0
62
7
6
CONTINUOUS
370
0
390
F
0
LAYER
5
44
330
2
100
AcDbSymbolTableRecord
100
AcDbLayerTableRecord
2
hidden
70
5
62
1
6
DASHED
370
0
390
F
0
LAYER
5
45
330
2
100
AcDbSymbolTableRecord
100
AcDbLayerTableRecord
2
false
70
1
62
3
6
CONTINUOUS
370
35
390
F
0
LAYER
5
46
330
2
100
AcDbSymbolTableRecord
100
AcDbLayerTableRecord
2
Centerlvl2
70
0
62
5
6
DASHDOT2
370
13
390
F
0
LAYER
5
47
330
2
100
AcDbSymbolTableRecord
100
AcDbLayerTableRecord
2
Measure
70
0
62
4
6
CONTINUOUS
370
18
390
F
0
LAYER
5
48
330
2
100
AcDbSymbolTableRecord
100
AcDbLayerTableRecord
2
PVC
70
0
62
8
6
CONTINUOUS
370
35
390
F
0
LAYER
5
49
330
2
100
AcDbSymbolTableRecord
100
AcDbLayerTableRecord
2
Strutlvl2
70
0
62
7
6
CONTINUOUS
370
35
390
F
0
LAYER
5
4A
330
2
100
AcDbSymbolTableRecord
100
AcDbLayerTableRecord
2
Strutlvl1
70
0
62
7
6
CONTINUOUS
370
35
390
F
0
LAYER
5
4B
330
2
100
AcDbSymbolTableRecord
100
AcDbLayerTableRecord
2
Strutlvl3
70
0
62
7
6
CONTINUOUS
370
35
390
F
0
LAYER
5
4C
330
2
100
AcDbSymbolTableRecord
100
AcDbLayerTableRecord
2
Centerlvl1
70
0
62
5
6
DASHDOT2
370
13
390
F
0
LAYER
5
4D
330
2
100
AcDbSymbolTableRecord
100
AcDbLayerTableRecord
2
Centerlvl3
70
0
62
5
6
DASHDOT2
370
13
390
F
0
LAYER
5
4E
330
2
100
AcDbSymbolTableRecord
100
AcDbLayerTableRecord
2
falseCenter
70
1
62
5
6
DASHDOT2
370
0
390
F
0
LAYER
5
4F
330
2
100
AcDbSymbolTableRecord
100
AcDbLayerTableRecord
2
falseStrut
70
1
62
7
6
CONTINUOUS
370
0
390
F
0
LAYER
5
50
330
2
100
AcDbSymbolTableRecord
100
AcDbLayerTableRecord
2
Symmetry
70
0
62
5
6
DASHDOTX2
370
13
390
F
0
LAYER
5
51
330
2
100
AcDbSymbolTableRecord
100
AcDbLayerTableRecord
2
PVCcenter
70
0
62
5
6
DASHDOT2
370
13
390
F
0
ENDTAB
0
TABLE
2
STYLE
5
3
330
0
100
AcDbSymbolTable
70
3
0
STYLE
5
52
330
2
100
AcDbSymbolTableRecord
100
AcDbTextStyleTableRecord
2
Standard
70
0
40
0
41
1
50
0
71
0
42
1
3
txt
4

0
ENDTAB
0
TABLE
2
VIEW
5
6
330
0
100
AcDbSymbolTable
70
0
0
ENDTAB
0
TABLE
2
UCS
5
7
330
0
100
AcDbSymbolTable
70
0
0
ENDTAB
0
TABLE
2
APPID
5
9
330
0
100
AcDbSymbolTable
70
1
0
APPID
5
12
330
9
100
AcDbSymbolTableRecord
100
AcDbRegAppTableRecord
2
ACAD
70
0
0
ENDTAB
0
TABLE
2
DIMSTYLE
5
A
330
0
100
AcDbSymbolTable
70
1
100
AcDbDimStyleTable
71
1
0
DIMSTYLE
105
53
330
A
100
AcDbSymbolTableRecord
100
AcDbDimStyleTableRecord
2
Standard
70
0
40
1
41
0.75
42
0
43
0.38
44
1
45
0
46
0
47
0
48
0
140
3
141
0.09
142
0
143
25.4
144
1
145
0
146
1
147
0.25
148
0
71
0
72
0
73
0
74
1
75
0
76
0
77
0
78
0
79
0
170
0
171
2
172
0
173
0
174
0
175
0
176
0
177
0
178
0
179
0
271
4
272
4
273
2
274
2
275
0
276
0
277
2
278
46
279
0
280
0
281
0
282
0
283
1
284
0
285
0
286
0
288
0
289
3
340
Standard
341

371
-2
372
-2
0
ENDTAB
0
TABLE
2
BLOCK_RECORD
5
1
330
0
100
AcDbSymbolTable
70
2
0
BLOCK_RECORD
5
1F
330
1
100
AcDbSymbolTableRecord
100
AcDbBlockTableRecord
2
*Model_Space
70
0
280
1
281
0
0
BLOCK_RECORD
5
1E
330
1
100
AcDbSymbolTableRecord
100
AcDbBlockTableRecord
2
*Paper_Space
70
0
280
1
281
0
0
ENDTAB
0
ENDSEC
0
SECTION
2
BLOCKS
0
BLOCK
5
20
330
1F
100
AcDbEntity
8
0
100
AcDbBlockBegin
2
*Model_Space
70
0
10
0
20
0
30
0
3
*Model_Space
1

0
ENDBLK
5
21
330
1F
100
AcDbEntity
8
0
100
AcDbBlockEnd
0
BLOCK
5
1C
330
1B
100
AcDbEntity
8
0
100
AcDbBlockBegin
2
*Paper_Space
70
0
10
0
20
0
30
0
3
*Paper_Space
1

0
ENDBLK
5
1D
330
1F
100
AcDbEntity
8
0
100
AcDbBlockEnd
0
ENDSEC
0
SECTION
2
ENTITIES
0
LINE
5
54
100
AcDbEntity
8
Strutlvl2
6
ByLayer
62
256
370
-1
100
AcDbLine
10
10.9945636478
20
439.430210776
11
9.58727236669
21
440.242710776
0
LINE
5
55
100
AcDbEntity
8
Strutlvl2
6
ByLayer
62
256
370
-1
100
AcDbLine
10
10.9945636478
20
437.805210776
11
10.9945636478
21
439.430210776
0
LINE
5
56
100
AcDbEntity
8
Strutlvl2
6
ByLayer
62
256
370
-1
100
AcDbLine
10
12.9945636478
20
437.805210776
11
10.9945636478
21
437.805210776
0
LINE
5
57
100
AcDbEntity
8
Strutlvl2
6
ByLayer
62
256
370
-1
100
AcDbLine
10
12.9945636478
20
439.430210776
11
10.9945636478
21
439.430210776
0
LINE
5
58
100
AcDbEntity
8
Strutlvl2
6
ByLayer
62
256
370
-1
100
AcDbLine
10
11.4945636478
20
438.367710776
11
12.4945636478
21
438.367710776
0
LINE
5
59
100
AcDbEntity
8
Strutlvl2
6
ByLayer
62
256
370
-1
100
AcDbLine
10
12.4945636478
20
438.867710776
11
11.4945636478
21
438.867710776
0
ARC
5
5A
100
AcDbEntity
8
Strutlvl2
6
ByLayer
62
256
370
-1
100
AcDbCircle
10
12.4945636478
20
438.617710776
40
0.25
100
AcDbArc
50
270
51
90
0
ARC
5
5B
100
AcDbEntity
8
Strutlvl2
6
ByLayer
62
256
370
-1
100
AcDbCircle
10
11.4945636478
20
438.617710776
40
0.25
100
AcDbArc
50
90
51
270
0
LINE
5
5C
100
AcDbEntity
8
Strutlvl2
6
ByLayer
62
256
370
-1
100
AcDbLine
10
14.9945636478
20
437.805210776
11
12.9945636478
21
437.805210776
0
LINE
5
5D
100
AcDbEntity
8
Strutlvl2
6
ByLayer
62
256
370
-1
100
AcDbLine
10
14.9945636478
20
439.430210776
11
12.9945636478
21
439.430210776
0
LINE
5
5E
100
AcDbEntity
8
Strutlvl2
6
ByLayer
62
256
370
-1
100
AcDbLine
10
13.4945636478
20
438.367710776
11
14.4945636478
21
438.367710776
0
LINE
5
5F
100
AcDbEntity
8
Strutlvl2
6
ByLayer
62
256
370
-1
100
AcDbLine
10
14.4945636478
20
438.867710776
11
13.4945636478
21
438.867710776
0
ARC
5
60
100
AcDbEntity
8
Strutlvl2
6
ByLayer
62
256
370
-1
100
AcDbCircle
10
14.4945636478
20
438.617710776
40
0.25
100
AcDbArc
50
270
51
90
0
ARC
5
61
100
AcDbEntity
8
Strutlvl2
6
ByLayer
62
256
370
-1
100
AcDbCircle
10
13.4945636478
20
438.617710776
40
0.25
100
AcDbArc
50
90
51
270
0
LINE
5
62
100
AcDbEntity
8
Strutlvl2
6
ByLayer
62
256
370
-1
100
AcDbLine
10
16.9945636478
20
437.805210776
11
14.9945636478
21
437.805210776
0
LINE
5
63
100
AcDbEntity
8
Strutlvl2
6
ByLayer
62
256
370
-1
100
AcDbLine
10
16.9945636478
20
439.430210776
11
14.9945636478
21
439.430210776
0
LINE
5
64
100
AcDbEntity
8
Strutlvl2
6
ByLayer
62
256
370
-1
100
AcDbLine
10
15.4945636478
20
438.367710776
11
16.4945636478
21
438.367710776
0
LINE
5
65
100
AcDbEntity
8
Strutlvl2
6
ByLayer
62
256
370
-1
100
AcDbLine
10
16.4945636478
20
438.867710776
11
15.4945636478
21
438.867710776
0
ARC
5
66
100
AcDbEntity
8
Strutlvl2
6
ByLayer
62
256
370
-1
100
AcDbCircle
10
16.4945636478
20
438.617710776
40
0.25
100
AcDbArc
50
270
51
90
0
ARC
5
67
100
AcDbEntity
8
Strutlvl2
6
ByLayer
62
256
370
-1
100
AcDbCircle
10
15.4945636478
20
438.617710776
40
0.25
100
AcDbArc
50
90
51
270
0
LINE
5
68
100
AcDbEntity
8
Strutlvl2
6
ByLayer
62
256
370
-1
100
AcDbLine
10
18.9945636478
20
437.805210776
11
16.9945636478
21
437.805210776
0
LINE
5
69
100
AcDbEntity
8
Strutlvl2
6
ByLayer
62
256
370
-1
100
AcDbLine
10
18.9945636478
20
439.430210776
11
16.9945636478
21
439.430210776
0
LINE
5
6A
100
AcDbEntity
8
Strutlvl2
6
ByLayer
62
256
370
-1
100
AcDbLine
10
17.4945636478
20
438.367710776
11
18.4945636478
21
438.367710776
0
LINE
5
6B
100
AcDbEntity
8
Strutlvl2
6
ByLayer
62
256
370
-1
100
AcDbLine
10
18.4945636478
20
438.867710776
11
17.4945636478
21
438.867710776
0
ARC
5
6C
100
AcDbEntity
8
Strutlvl2
6
ByLayer
62
256
370
-1
100
AcDbCircle
10
18.4945636478
20
438.617710776
40
0.25
100
AcDbArc
50
270
51
90
0
ARC
5
6D
100
AcDbEntity
8
Strutlvl2
6
ByLayer
62
256
370
-1
100
AcDbCircle
10
17.4945636478
20
438.617710776
40
0.25
100
AcDbArc
50
90
51
270
0
LINE
5
6E
100
AcDbEntity
8
Strutlvl2
6
ByLayer
62
256
370
-1
100
AcDbLine
10
20.9945636478
20
437.805210776
11
18.9945636478
21
437.805210776
0
LINE
5
6F
100
AcDbEntity
8
Strutlvl2
6
ByLayer
62
256
370
-1
100
AcDbLine
10
20.9945636478
20
439.430210776
11
18.9945636478
21
439.430210776
0
LINE
5
70
100
AcDbEntity
8
Strutlvl2
6
ByLayer
62
256
370
-1
100
AcDbLine
10
19.4945636478
20
438.367710776
11
20.4945636478
21
438.367710776
0
LINE
5
71
100
AcDbEntity
8
Strutlvl2
6
ByLayer
62
256
370
-1
100
AcDbLine
10
20.4945636478
20
438.867710776
11
19.4945636478
21
438.867710776
0
ARC
5
72
100
AcDbEntity
8
Strutlvl2
6
ByLayer
62
256
370
-1
100
AcDbCircle
10
20.4945636478
20
438.617710776
40
0.25
100
AcDbArc
50
270
51
90
0
ARC
5
73
100
AcDbEntity
8
Strutlvl2
6
ByLayer
62
256
370
-1
100
AcDbCircle
10
19.4945636478
20
438.617710776
40
0.25
100
AcDbArc
50
90
51
270
0
LINE
5
74
100
AcDbEntity
8
Strutlvl2
6
ByLayer
62
256
370
-1
100
AcDbLine
10
22.9945636478
20
437.805210776
11
20.9945636478
21
437.805210776
0
LINE
5
75
100
AcDbEntity
8
Strutlvl2
6
ByLayer
62
256
370
-1
100
AcDbLine
10
22.9945636478
20
439.430210776
11
20.9945636478
21
439.430210776
0
LINE
5
76
100
AcDbEntity
8
Strutlvl2
6
ByLayer
62
256
370
-1
100
AcDbLine
10
21.4945636478
20
438.367710776
11
22.4945636478
21
438.367710776
0
LINE
5
77
100
AcDbEntity
8
Strutlvl2
6
ByLayer
62
256
370
-1
100
AcDbLine
10
22.4945636478
20
438.867710776
11
21.4945636478
21
438.867710776
0
ARC
5
78
100
AcDbEntity
8
Strutlvl2
6
ByLayer
62
256
370
-1
100
AcDbCircle
10
22.4945636478
20
438.617710776
40
0.25
100
AcDbArc
50
270
51
90
0
ARC
5
79
100
AcDbEntity
8
Strutlvl2
6
ByLayer
62
256
370
-1
100
AcDbCircle
10
21.4945636478
20
438.617710776
40
0.25
100
AcDbArc
50
90
51
270
0
LINE
5
7A
100
AcDbEntity
8
Strutlvl2
6
ByLayer
62
256
370
-1
100
AcDbLine
10
24.9945636478
20
437.805210776
11
22.9945636478
21
437.805210776
0
LINE
5
7B
100
AcDbEntity
8
Strutlvl2
6
ByLayer
62
256
370
-1
100
AcDbLine
10
24.9945636478
20
439.430210776
11
22.9945636478
21
439.430210776
0
LINE
5
7C
100
AcDbEntity
8
Strutlvl2
6
ByLayer
62
256
370
-1
100
AcDbLine
10
23.4945636478
20
438.367710776
11
24.4945636478
21
438.367710776
0
LINE
5
7D
100
AcDbEntity
8
Strutlvl2
6
ByLayer
62
256
370
-1
100
AcDbLine
10
24.4945636478
20
438.867710776
11
23.4945636478
21
438.867710776
0
ARC
5
7E
100
AcDbEntity
8
Strutlvl2
6
ByLayer
62
256
370
-1
100
AcDbCircle
10
24.4945636478
20
438.617710776
40
0.25
100
AcDbArc
50
270
51
90
0
ARC
5
7F
100
AcDbEntity
8
Strutlvl2
6
ByLayer
62
256
370
-1
100
AcDbCircle
10
23.4945636478
20
438.617710776
40
0.25
100
AcDbArc
50
90
51
270
0
LINE
5
80
100
AcDbEntity
8
Strutlvl3
6
ByLayer
62
256
370
-1
100
AcDbLine
10
10.064095187
20
441.202405637
11
11.4713864681
21
442.014905637
0
LINE
5
81
100
AcDbEntity
8
Strutlvl3
6
ByLayer
62
256
370
-1
100
AcDbLine
10
11.4713864681
20
442.014905637
11
12.4713864681
21
440.282854829
0
LINE
5
82
100
AcDbEntity
8
Strutlvl3
6
ByLayer
62
256
370
-1
100
AcDbLine
10
10.064095187
20
441.202405637
11
11.064095187
21
439.470354829
0
LINE
5
83
100
AcDbEntity
8
Strutlvl3
6
ByLayer
62
256
370
-1
100
AcDbLine
10
11.7342471785
20
440.434617531
11
11.2342471785
21
441.300642935
0
LINE
5
84
100
AcDbEntity
8
Strutlvl3
6
ByLayer
62
256
370
-1
100
AcDbLine
10
10.8012344766
20
441.050642935
11
11.3012344766
21
440.184617531
0
ARC
5
85
100
AcDbEntity
8
Strutlvl3
6
ByLayer
62
256
370
-1
100
AcDbCircle
10
11.0177408276
20
441.175642935
40
0.25
100
AcDbArc
50
30
51
210
0
ARC
5
86
100
AcDbEntity
8
Strutlvl3
6
ByLayer
62
256
370
-1
100
AcDbCircle
10
11.5177408276
20
440.309617531
40
0.25
100
AcDbArc
50
210
51
30
0
LINE
5
87
100
AcDbEntity
8
Strutlvl3
6
ByLayer
62
256
370
-1
100
AcDbLine
10
12.4713864681
20
440.282854829
11
13.4713864681
21
438.550804021
0
LINE
5
88
100
AcDbEntity
8
Strutlvl3
6
ByLayer
62
256
370
-1
100
AcDbLine
10
11.064095187
20
439.470354829
11
12.064095187
21
437.738304021
0
LINE
5
89
100
AcDbEntity
8
Strutlvl3
6
ByLayer
62
256
370
-1
100
AcDbLine
10
12.7342471785
20
438.702566723
11
12.2342471785
21
439.568592127
0
LINE
5
8A
100
AcDbEntity
8
Strutlvl3
6
ByLayer
62
256
370
-1
100
AcDbLine
10
11.8012344766
20
439.318592127
11
12.3012344766
21
438.452566723
0
ARC
5
8B
100
AcDbEntity
8
Strutlvl3
6
ByLayer
62
256
370
-1
100
AcDbCircle
10
12.0177408276
20
439.443592127
40
0.25
100
AcDbArc
50
30
51
210
0
ARC
5
8C
100
AcDbEntity
8
Strutlvl3
6
ByLayer
62
256
370
-1
100
AcDbCircle
10
12.5177408276
20
438.577566723
40
0.25
100
AcDbArc
50
210
51
30
0
LINE
5
8D
100
AcDbEntity
8
Strutlvl1
6
ByLayer
62
256
370
-1
100
AcDbLine
10
12.064095187
20
444.666507252
11
13.4713864681
21
445.479007252
0
LINE
5
8E
100
AcDbEntity
8
Strutlvl1
6
ByLayer
62
256
370
-1
100
AcDbLine
10
13.4713864681
20
445.479007252
11
14.4713864681
21
443.746956444
0
LINE
5
8F
100
AcDbEntity
8
Strutlvl1
6
ByLayer
62
256
370
-1
100
AcDbLine
10
12.064095187
20
444.666507252
11
13.064095187
21
442.934456444
0
LINE
5
90
100
AcDbEntity
8
Strutlvl1
6
ByLayer
62
256
370
-1
100
AcDbLine
10
13.7342471785
20
443.898719146
11
13.2342471785
21
444.76474455
0
LINE
5
91
100
AcDbEntity
8
Strutlvl1
6
ByLayer
62
256
370
-1
100
AcDbLine
10
12.8012344766
20
444.51474455
11
13.3012344766
21
443.648719146
0
ARC
5
92
100
AcDbEntity
8
Strutlvl1
6
ByLayer
62
256
370
-1
100
AcDbCircle
10
13.0177408276
20
444.63974455
40
0.25
100
AcDbArc
50
30
51
210
0
ARC
5
93
100
AcDbEntity
8
Strutlvl1
6
ByLayer
62
256
370
-1
100
AcDbCircle
10
13.5177408276
20
443.773719146
40
0.25
100
AcDbArc
50
210
51
30
0
LINE
5
94
100
AcDbEntity
8
Strutlvl1
6
ByLayer
62
256
370
-1
100
AcDbLine
10
14.4713864681
20
443.746956444
11
15.4713864681
21
442.014905637
0
LINE
5
95
100
AcDbEntity
8
Strutlvl1
6
ByLayer
62
256
370
-1
100
AcDbLine
10
13.064095187
20
442.934456444
11
14.064095187
21
441.202405637
0
LINE
5
96
100
AcDbEntity
8
Strutlvl1
6
ByLayer
62
256
370
-1
100
AcDbLine
10
14.7342471785
20
442.166668338
11
14.2342471785
21
443.032693742
0
LINE
5
97
100
AcDbEntity
8
Strutlvl1
6
ByLayer
62
256
370
-1
100
AcDbLine
10
13.8012344766
20
442.782693742
11
14.3012344766
21
441.916668338
0
ARC
5
98
100
AcDbEntity
8
Strutlvl1
6
ByLayer
62
256
370
-1
100
AcDbCircle
10
14.0177408276
20
442.907693742
40
0.25
100
AcDbArc
50
30
51
210
0
ARC
5
99
100
AcDbEntity
8
Strutlvl1
6
ByLayer
62
256
370
-1
100
AcDbCircle
10
14.5177408276
20
442.041668338
40
0.25
100
AcDbArc
50
210
51
30
0
LINE
5
9A
100
AcDbEntity
8
Strutlvl1
6
ByLayer
62
256
370
-1
100
AcDbLine
10
15.4713864681
20
442.014905637
11
16.4713864681
21
440.282854829
0
LINE
5
9B
100
AcDbEntity
8
Strutlvl1
6
ByLayer
62
256
370
-1
100
AcDbLine
10
14.064095187
20
441.202405637
11
15.064095187
21
439.470354829
0
LINE
5
9C
100
AcDbEntity
8
Strutlvl1
6
ByLayer
62
256
370
-1
100
AcDbLine
10
15.7342471785
20
440.434617531
11
15.2342471785
21
441.300642935
0
LINE
5
9D
100
AcDbEntity
8
Strutlvl1
6
ByLayer
62
256
370
-1
100
AcDbLine
10
14.8012344766
20
441.050642935
11
15.3012344766
21
440.184617531
0
ARC
5
9E
100
AcDbEntity
8
Strutlvl1
6
ByLayer
62
256
370
-1
100
AcDbCircle
10
15.0177408276
20
441.175642935
40
0.25
100
AcDbArc
50
30
51
210
0
ARC
5
9F
100
AcDbEntity
8
Strutlvl1
6
ByLayer
62
256
370
-1
100
AcDbCircle
10
15.5177408276
20
440.309617531
40
0.25
100
AcDbArc
50
210
51
30
0
LINE
5
A0
100
AcDbEntity
8
Strutlvl1
6
ByLayer
62
256
370
-1
100
AcDbLine
10
16.4713864681
20
440.282854829
11
17.4713864681
21
438.550804021
0
LINE
5
A1
100
AcDbEntity
8
Strutlvl1
6
ByLayer
62
256
370
-1
100
AcDbLine
10
15.064095187
20
439.470354829
11
16.064095187
21
437.738304021
0
LINE
5
A2
100
AcDbEntity
8
Strutlvl1
6
ByLayer
62
256
370
-1
100
AcDbLine
10
16.7342471785
20
438.702566723
11
16.2342471785
21
439.568592127
0
LINE
5
A3
100
AcDbEntity
8
Strutlvl1
6
ByLayer
62
256
370
-1
100
AcDbLine
10
15.8012344766
20
439.318592127
11
16.3012344766
21
438.452566723
0
ARC
5
A4
100
AcDbEntity
8
Strutlvl1
6
ByLayer
62
256
370
-1
100
AcDbCircle
10
16.0177408276
20
439.443592127
40
0.25
100
AcDbArc
50
30
51
210
0
ARC
5
A5
100
AcDbEntity
8
Strutlvl1
6
ByLayer
62
256
370
-1
100
AcDbCircle
10
16.5177408276
20
438.577566723
40
0.25
100
AcDbArc
50
210
51
30
0
LINE
5
A6
100
AcDbEntity
8
Strutlvl2
6
ByLayer
62
256
370
-1
100
AcDbLine
10
11.9945636478
20
441.162261584
11
10.9945636478
21
439.430210776
0
LINE
5
A7
100
AcDbEntity
8
Strutlvl2
6
ByLayer
62
256
370
-1
100
AcDbLine
10
10.5872723667
20
441.974761584
11
9.58727236669
21
440.242710776
0
LINE
5
A8
100
AcDbEntity
8
Strutlvl2
6
ByLayer
62
256
370
-1
100
AcDbLine
10
10.7574243582
20
440.144473478
11
11.2574243582
21
441.010498882
0
LINE
5
A9
100
AcDbEntity
8
Strutlvl2
6
ByLayer
62
256
370
-1
100
AcDbLine
10
10.8244116563
20
441.260498882
11
10.3244116563
21
440.394473478
0
ARC
5
AA
100
AcDbEntity
8
Strutlvl2
6
ByLayer
62
256
370
-1
100
AcDbCircle
10
11.0409180073
20
441.135498882
40
0.25
100
AcDbArc
50
330
51
150
0
ARC
5
AB
100
AcDbEntity
8
Strutlvl2
6
ByLayer
62
256
370
-1
100
AcDbCircle
10
10.5409180073
20
440.269473478
40
0.25
100
AcDbArc
50
150
51
330
0
LINE
5
AC
100
AcDbEntity
8
Strutlvl2
6
ByLayer
62
256
370
-1
100
AcDbLine
10
12.9945636478
20
442.894312391
11
11.9945636478
21
441.162261584
0
LINE
5
AD
100
AcDbEntity
8
Strutlvl2
6
ByLayer
62
256
370
-1
100
AcDbLine
10
11.5872723667
20
443.706812391
11
10.5872723667
21
441.974761584
0
LINE
5
AE
100
AcDbEntity
8
Strutlvl2
6
ByLayer
62
256
370
-1
100
AcDbLine
10
11.7574243582
20
441.876524286
11
12.2574243582
21
442.742549689
0
LINE
5
AF
100
AcDbEntity
8
Strutlvl2
6
ByLayer
62
256
370
-1
100
AcDbLine
10
11.8244116563
20
442.992549689
11
11.3244116563
21
442.126524286
0
ARC
5
B0
100
AcDbEntity
8
Strutlvl2
6
ByLayer
62
256
370
-1
100
AcDbCircle
10
12.0409180073
20
442.867549689
40
0.25
100
AcDbArc
50
330
51
150
0
ARC
5
B1
100
AcDbEntity
8
Strutlvl2
6
ByLayer
62
256
370
-1
100
AcDbCircle
10
11.5409180073
20
442.001524286
40
0.25
100
AcDbArc
50
150
51
330
0
LINE
5
B2
100
AcDbEntity
8
Strutlvl2
6
ByLayer
62
256
370
-1
100
AcDbLine
10
13.9945636478
20
444.626363199
11
12.9945636478
21
442.894312391
0
LINE
5
B3
100
AcDbEntity
8
Strutlvl2
6
ByLayer
62
256
370
-1
100
AcDbLine
10
12.5872723667
20
445.438863199
11
11.5872723667
21
443.706812391
0
LINE
5
B4
100
AcDbEntity
8
Strutlvl2
6
ByLayer
62
256
370
-1
100
AcDbLine
10
12.7574243582
20
443.608575093
11
13.2574243582
21
444.474600497
0
LINE
5
B5
100
AcDbEntity
8
Strutlvl2
6
ByLayer
62
256
370
-1
100
AcDbLine
10
12.8244116563
20
444.724600497
11
12.3244116563
21
443.858575093
0
ARC
5
B6
100
AcDbEntity
8
Strutlvl2
6
ByLayer
62
256
370
-1
100
AcDbCircle
10
13.0409180073
20
444.599600497
40
0.25
100
AcDbArc
50
330
51
150
0
ARC
5
B7
100
AcDbEntity
8
Strutlvl2
6
ByLayer
62
256
370
-1
100
AcDbCircle
10
12.5409180073
20
443.733575093
40
0.25
100
AcDbArc
50
150
51
330
0
LINE
5
B8
100
AcDbEntity
8
Strutlvl2
6
ByLayer
62
256
370
-1
100
AcDbLine
10
14.9945636478
20
446.358414006
11
13.9945636478
21
444.626363199
0
LINE
5
B9
100
AcDbEntity
8
Strutlvl2
6
ByLayer
62
256
370
-1
100
AcDbLine
10
13.5872723667
20
447.170914006
11
12.5872723667
21
445.438863199
0
LINE
5
BA
100
AcDbEntity
8
Strutlvl2
6
ByLayer
62
256
370
-1
100
AcDbLine
10
13.7574243582
20
445.340625901
11
14.2574243582
21
446.206651305
0
LINE
5
BB
100
AcDbEntity
8
Strutlvl2
6
ByLayer
62
256
370
-1
100
AcDbLine
10
13.8244116563
20
446.456651305
11
13.3244116563
21
445.590625901
0
ARC
5
BC
100
AcDbEntity
8
Strutlvl2
6
ByLayer
62
256
370
-1
100
AcDbCircle
10
14.0409180073
20
446.331651305
40
0.25
100
AcDbArc
50
330
51
150
0
ARC
5
BD
100
AcDbEntity
8
Strutlvl2
6
ByLayer
62
256
370
-1
100
AcDbCircle
10
13.5409180073
20
445.465625901
40
0.25
100
AcDbArc
50
150
51
330
0
LINE
5
BE
100
AcDbEntity
8
Strutlvl2
6
ByLayer
62
256
370
-1
100
AcDbLine
10
15.9945636478
20
448.090464814
11
14.9945636478
21
446.358414006
0
LINE
5
BF
100
AcDbEntity
8
Strutlvl2
6
ByLayer
62
256
370
-1
100
AcDbLine
10
14.5872723667
20
448.902964814
11
13.5872723667
21
447.170914006
0
LINE
5
C0
100
AcDbEntity
8
Strutlvl2
6
ByLayer
62
256
370
-1
100
AcDbLine
10
14.7574243582
20
447.072676708
11
15.2574243582
21
447.938702112
0
LINE
5
C1
100
AcDbEntity
8
Strutlvl2
6
ByLayer
62
256
370
-1
100
AcDbLine
10
14.8244116563
20
448.188702112
11
14.3244116563
21
447.322676708
0
ARC
5
C2
100
AcDbEntity
8
Strutlvl2
6
ByLayer
62
256
370
-1
100
AcDbCircle
10
15.0409180073
20
448.063702112
40
0.25
100
AcDbArc
50
330
51
150
0
ARC
5
C3
100
AcDbEntity
8
Strutlvl2
6
ByLayer
62
256
370
-1
100
AcDbCircle
10
14.5409180073
20
447.197676708
40
0.25
100
AcDbArc
50
150
51
330
0
LINE
5
C4
100
AcDbEntity
8
Strutlvl2
6
ByLayer
62
256
370
-1
100
AcDbLine
10
16.9945636478
20
449.822515622
11
15.9945636478
21
448.090464814
0
LINE
5
C5
100
AcDbEntity
8
Strutlvl2
6
ByLayer
62
256
370
-1
100
AcDbLine
10
15.5872723667
20
450.635015622
11
14.5872723667
21
448.902964814
0
LINE
5
C6
100
AcDbEntity
8
Strutlvl2
6
ByLayer
62
256
370
-1
100
AcDbLine
10
15.7574243582
20
448.804727516
11
16.2574243582
21
449.67075292
0
LINE
5
C7
100
AcDbEntity
8
Strutlvl2
6
ByLayer
62
256
370
-1
100
AcDbLine
10
15.8244116563
20
449.92075292
11
15.3244116563
21
449.054727516
0
ARC
5
C8
100
AcDbEntity
8
Strutlvl2
6
ByLayer
62
256
370
-1
100
AcDbCircle
10
16.0409180073
20
449.79575292
40
0.25
100
AcDbArc
50
330
51
150
0
ARC
5
C9
100
AcDbEntity
8
Strutlvl2
6
ByLayer
62
256
370
-1
100
AcDbCircle
10
15.5409180073
20
448.929727516
40
0.25
100
AcDbArc
50
150
51
330
0
LINE
5
CA
100
AcDbEntity
8
Strutlvl2
6
ByLayer
62
256
370
-1
100
AcDbLine
10
17.9945636478
20
451.554566429
11
16.9945636478
21
449.822515622
0
LINE
5
CB
100
AcDbEntity
8
Strutlvl2
6
ByLayer
62
256
370
-1
100
AcDbLine
10
16.5872723667
20
452.367066429
11
15.5872723667
21
450.635015622
0
LINE
5
CC
100
AcDbEntity
8
Strutlvl2
6
ByLayer
62
256
370
-1
100
AcDbLine
10
16.7574243582
20
450.536778323
11
17.2574243582
21
451.402803727
0
LINE
5
CD
100
AcDbEntity
8
Strutlvl2
6
ByLayer
62
256
370
-1
100
AcDbLine
10
16.8244116563
20
451.652803727
11
16.3244116563
21
450.786778323
0
ARC
5
CE
100
AcDbEntity
8
Strutlvl2
6
ByLayer
62
256
370
-1
100
AcDbCircle
10
17.0409180073
20
451.527803727
40
0.25
100
AcDbArc
50
330
51
150
0
ARC
5
CF
100
AcDbEntity
8
Strutlvl2
6
ByLayer
62
256
370
-1
100
AcDbCircle
10
16.5409180073
20
450.661778323
40
0.25
100
AcDbArc
50
150
51
330
0
LINE
5
D0
100
AcDbEntity
8
Strutlvl3
6
ByLayer
62
256
370
-1
100
AcDbLine
10
12.064095187
20
437.738304021
11
13.4713864681
21
438.550804021
0
LINE
5
D1
100
AcDbEntity
8
Strutlvl1
6
ByLayer
62
256
370
-1
100
AcDbLine
10
16.064095187
20
437.738304021
11
17.4713864681
21
438.550804021
0
LINE
5
D2
100
AcDbEntity
8
falseCenter
6
ByLayer
62
256
370
-1
100
AcDbLine
10
4.31613612072
20
442.597281725
11
2.90884483957
21
443.409781725
0
LINE
5
D3
100
AcDbEntity
8
falseCenter
6
ByLayer
62
256
370
-1
100
AcDbLine
10
4.56613612072
20
443.030294427
11
3.15884483957
21
443.842794427
0
LINE
5
D4
100
AcDbEntity
8
falseCenter
6
ByLayer
62
256
370
-1
100
AcDbLine
10
4.81613612072
20
443.463307129
11
3.40884483957
21
444.275807129
0
LINE
5
D5
100
AcDbEntity
8
falseCenter
6
ByLayer
62
256
370
-1
100
AcDbLine
10
3.36249048014
20
442.570519023
11
4.36249048014
21
444.302569831
0
LINE
5
D6
100
AcDbEntity
8
falseCenter
6
ByLayer
62
256
370
-1
100
AcDbLine
10
4.60786518575
20
447.61885973
11
3.2005739046
21
446.80635973
0
LINE
5
D7
100
AcDbEntity
8
falseCenter
6
ByLayer
62
256
370
-1
100
AcDbLine
10
4.35786518575
20
448.051872432
11
2.9505739046
21
447.239372432
0
LINE
5
D8
100
AcDbEntity
8
falseCenter
6
ByLayer
62
256
370
-1
100
AcDbLine
10
4.10786518575
20
448.484885134
11
2.7005739046
21
447.672385134
0
LINE
5
D9
100
AcDbEntity
8
falseCenter
6
ByLayer
62
256
370
-1
100
AcDbLine
10
4.15421954518
20
446.779597028
11
3.15421954518
21
448.511647836
0
LINE
5
DA
100
AcDbEntity
8
falseCenter
6
ByLayer
62
256
370
-1
100
AcDbLine
10
0.404915599251
20
450.382293513
11
0.404915599251
21
448.757293513
0
LINE
5
DB
100
AcDbEntity
8
falseCenter
6
ByLayer
62
256
370
-1
100
AcDbLine
10
-0.0950844007493
20
450.382293513
11
-0.0950844007493
21
448.757293513
0
LINE
5
DC
100
AcDbEntity
8
falseCenter
6
ByLayer
62
256
370
-1
100
AcDbLine
10
-0.595084400749
20
450.382293513
11
-0.595084400749
21
448.757293513
0
LINE
5
DD
100
AcDbEntity
8
falseCenter
6
ByLayer
62
256
370
-1
100
AcDbLine
10
0.904915599251
20
449.569793513
11
-1.09508440075
21
449.569793513
0
LINE
5
DE
100
AcDbEntity
8
falseCenter
6
ByLayer
62
256
370
-1
100
AcDbLine
10
-4.08976305228
20
448.124149293
11
-2.68247177113
21
447.311649293
0
LINE
5
DF
100
AcDbEntity
8
falseCenter
6
ByLayer
62
256
370
-1
100
AcDbLine
10
-4.33976305228
20
447.691136591
11
-2.93247177113
21
446.878636591
0
LINE
5
E0
100
AcDbEntity
8
falseCenter
6
ByLayer
62
256
370
-1
100
AcDbLine
10
-4.58976305228
20
447.258123889
11
-3.18247177113
21
446.445623889
0
LINE
5
E1
100
AcDbEntity
8
falseCenter
6
ByLayer
62
256
370
-1
100
AcDbLine
10
-3.13611741171
20
448.150911994
11
-4.13611741171
21
446.418861187
0
LINE
5
E2
100
AcDbEntity
8
falseCenter
6
ByLayer
62
256
370
-1
100
AcDbLine
10
-4.38149211732
20
443.102571288
11
-2.97420083617
21
443.915071288
0
LINE
5
E3
100
AcDbEntity
8
falseCenter
6
ByLayer
62
256
370
-1
100
AcDbLine
10
-4.13149211732
20
442.669558586
11
-2.72420083617
21
443.482058586
0
LINE
5
E4
100
AcDbEntity
8
falseCenter
6
ByLayer
62
256
370
-1
100
AcDbLine
10
-3.88149211732
20
442.236545884
11
-2.47420083617
21
443.049045884
0
LINE
5
E5
100
AcDbEntity
8
falseCenter
6
ByLayer
62
256
370
-1
100
AcDbLine
10
-3.92784647674
20
443.94183399
11
-2.92784647674
21
442.209783182
0
LINE
5
E6
100
AcDbEntity
8
falseCenter
6
ByLayer
62
256
370
-1
100
AcDbLine
10
-0.178542530817
20
440.339137504
11
-0.178542530817
21
441.964137504
0
LINE
5
E7
100
AcDbEntity
8
falseCenter
6
ByLayer
62
256
370
-1
100
AcDbLine
10
0.321457469183
20
440.339137504
11
0.321457469183
21
441.964137504
0
LINE
5
E8
100
AcDbEntity
8
falseCenter
6
ByLayer
62
256
370
-1
100
AcDbLine
10
0.821457469183
20
440.339137504
11
0.821457469183
21
441.964137504
0
LINE
5
E9
100
AcDbEntity
8
falseCenter
6
ByLayer
62
256
370
-1
100
AcDbLine
10
-0.678542530817
20
441.151637504
11
1.32145746918
21
441.151637504
0
LINE
5
EA
100
AcDbEntity
8
falseCenter
6
ByLayer
62
256
370
-1
100
AcDbLine
10
6.09040422981
20
433.361819419
11
7.49769551096
21
434.174319419
0
LINE
5
EB
100
AcDbEntity
8
falseCenter
6
ByLayer
62
256
370
-1
100
AcDbLine
10
6.34040422981
20
432.928806718
11
7.74769551096
21
433.741306718
0
LINE
5
EC
100
AcDbEntity
8
falseCenter
6
ByLayer
62
256
370
-1
100
AcDbLine
10
6.59040422981
20
432.495794016
11
7.99769551096
21
433.308294016
0
LINE
5
ED
100
AcDbEntity
8
falseCenter
6
ByLayer
62
256
370
-1
100
AcDbLine
10
6.54404987038
20
434.201082121
11
7.54404987038
21
432.469031314
0
LINE
5
EE
100
AcDbEntity
8
falseCenter
6
ByLayer
62
256
370
-1
100
AcDbLine
10
7.09040422981
20
431.629768612
11
8.49769551096
21
432.442268612
0
LINE
5
EF
100
AcDbEntity
8
falseCenter
6
ByLayer
62
256
370
-1
100
AcDbLine
10
7.34040422981
20
431.19675591
11
8.74769551096
21
432.00925591
0
LINE
5
F0
100
AcDbEntity
8
falseCenter
6
ByLayer
62
256
370
-1
100
AcDbLine
10
7.59040422981
20
430.763743208
11
8.99769551096
21
431.576243208
0
LINE
5
F1
100
AcDbEntity
8
falseCenter
6
ByLayer
62
256
370
-1
100
AcDbLine
10
7.54404987038
20
432.469031314
11
8.54404987038
21
430.736980506
0
LINE
5
F2
100
AcDbEntity
8
falseCenter
6
ByLayer
62
256
370
-1
100
AcDbLine
10
13.5288705493
20
434.304378487
11
14.9361618304
21
435.116878487
0
LINE
5
F3
100
AcDbEntity
8
falseCenter
6
ByLayer
62
256
370
-1
100
AcDbLine
10
13.7788705493
20
433.871365785
11
15.1861618304
21
434.683865785
0
LINE
5
F4
100
AcDbEntity
8
falseCenter
6
ByLayer
62
256
370
-1
100
AcDbLine
10
14.0288705493
20
433.438353083
11
15.4361618304
21
434.250853083
0
LINE
5
F5
100
AcDbEntity
8
falseCenter
6
ByLayer
62
256
370
-1
100
AcDbLine
10
13.9825161899
20
435.143641189
11
14.9825161899
21
433.411590381
0
LINE
5
F6
100
AcDbEntity
8
falseCenter
6
ByLayer
62
256
370
-1
100
AcDbLine
10
14.5288705493
20
432.572327679
11
15.9361618304
21
433.384827679
0
LINE
5
F7
100
AcDbEntity
8
falseCenter
6
ByLayer
62
256
370
-1
100
AcDbLine
10
14.7788705493
20
432.139314978
11
16.1861618304
21
432.951814978
0
LINE
5
F8
100
AcDbEntity
8
falseCenter
6
ByLayer
62
256
370
-1
100
AcDbLine
10
15.0288705493
20
431.706302276
11
16.4361618304
21
432.518802276
0
LINE
5
F9
100
AcDbEntity
8
falseCenter
6
ByLayer
62
256
370
-1
100
AcDbLine
10
14.9825161899
20
433.411590381
11
15.9825161899
21
431.679539574
0
LINE
5
FA
100
AcDbEntity
8
falseCenter
6
ByLayer
62
256
370
-1
100
AcDbLine
10
15.5288705493
20
430.840276872
11
16.9361618304
21
431.652776872
0
LINE
5
FB
100
AcDbEntity
8
falseCenter
6
ByLayer
62
256
370
-1
100
AcDbLine
10
15.7788705493
20
430.40726417
11
17.1861618304
21
431.21976417
0
LINE
5
FC
100
AcDbEntity
8
falseCenter
6
ByLayer
62
256
370
-1
100
AcDbLine
10
16.0288705493
20
429.974251468
11
17.4361618304
21
430.786751468
0
LINE
5
FD
100
AcDbEntity
8
falseCenter
6
ByLayer
62
256
370
-1
100
AcDbLine
10
15.9825161899
20
431.679539574
11
16.9825161899
21
429.947488766
0
LINE
5
FE
100
AcDbEntity
8
falseCenter
6
ByLayer
62
256
370
-1
100
AcDbLine
10
16.5288705493
20
429.108226064
11
17.9361618304
21
429.920726064
0
LINE
5
FF
100
AcDbEntity
8
falseCenter
6
ByLayer
62
256
370
-1
100
AcDbLine
10
16.7788705493
20
428.675213362
11
18.1861618304
21
429.487713362
0
LINE
5
100
100
AcDbEntity
8
falseCenter
6
ByLayer
62
256
370
-1
100
AcDbLine
10
17.0288705493
20
428.24220066
11
18.4361618304
21
429.05470066
0
LINE
5
101
100
AcDbEntity
8
falseCenter
6
ByLayer
62
256
370
-1
100
AcDbLine
10
16.9825161899
20
429.947488766
11
17.9825161899
21
428.215437959
0
LINE
5
102
100
AcDbEntity
8
falseStrut
6
ByLayer
62
256
370
-1
100
AcDbLine
10
4.06613612072
20
442.164269023
11
2.65884483957
21
442.976769023
0
LINE
5
103
100
AcDbEntity
8
falseStrut
6
ByLayer
62
256
370
-1
100
AcDbLine
10
2.65884483957
20
442.976769023
11
3.65884483957
21
444.708819831
0
LINE
5
104
100
AcDbEntity
8
falseStrut
6
ByLayer
62
256
370
-1
100
AcDbLine
10
4.06613612072
20
442.164269023
11
5.06613612072
21
443.896319831
0
LINE
5
105
100
AcDbEntity
8
falseStrut
6
ByLayer
62
256
370
-1
100
AcDbLine
10
3.8959841292
20
443.994557129
11
3.3959841292
21
443.128531725
0
LINE
5
106
100
AcDbEntity
8
falseStrut
6
ByLayer
62
256
370
-1
100
AcDbLine
10
3.82899683109
20
442.878531725
11
4.32899683109
21
443.744557129
0
ARC
5
107
100
AcDbEntity
8
falseStrut
6
ByLayer
62
256
370
-1
100
AcDbCircle
10
3.61249048014
20
443.003531725
40
0.25
100
AcDbArc
50
150
51
330
0
ARC
5
108
100
AcDbEntity
8
falseStrut
6
ByLayer
62
256
370
-1
100
AcDbCircle
10
4.11249048014
20
443.869557129
40
0.25
100
AcDbArc
50
330
51
150
0
LINE
5
109
100
AcDbEntity
8
falseStrut
6
ByLayer
62
256
370
-1
100
AcDbLine
10
4.85786518575
20
447.185847028
11
3.4505739046
21
446.373347028
0
LINE
5
10A
100
AcDbEntity
8
falseStrut
6
ByLayer
62
256
370
-1
100
AcDbLine
10
3.4505739046
20
446.373347028
11
2.4505739046
21
448.105397836
0
LINE
5
10B
100
AcDbEntity
8
falseStrut
6
ByLayer
62
256
370
-1
100
AcDbLine
10
4.85786518575
20
447.185847028
11
3.85786518575
21
448.917897836
0
LINE
5
10C
100
AcDbEntity
8
falseStrut
6
ByLayer
62
256
370
-1
100
AcDbLine
10
3.18771319423
20
447.953635134
11
3.68771319423
21
447.08760973
0
LINE
5
10D
100
AcDbEntity
8
falseStrut
6
ByLayer
62
256
370
-1
100
AcDbLine
10
4.12072589612
20
447.33760973
11
3.62072589612
21
448.203635134
0
ARC
5
10E
100
AcDbEntity
8
falseStrut
6
ByLayer
62
256
370
-1
100
AcDbCircle
10
3.90421954518
20
447.21260973
40
0.25
100
AcDbArc
50
210
51
30
0
ARC
5
10F
100
AcDbEntity
8
falseStrut
6
ByLayer
62
256
370
-1
100
AcDbCircle
10
3.40421954518
20
448.078635134
40
0.25
100
AcDbArc
50
30
51
210
0
LINE
5
110
100
AcDbEntity
8
falseStrut
6
ByLayer
62
256
370
-1
100
AcDbLine
10
0.904915599251
20
450.382293513
11
0.904915599251
21
448.757293513
0
LINE
5
111
100
AcDbEntity
8
falseStrut
6
ByLayer
62
256
370
-1
100
AcDbLine
10
0.904915599251
20
448.757293513
11
-1.09508440075
21
448.757293513
0
LINE
5
112
100
AcDbEntity
8
falseStrut
6
ByLayer
62
256
370
-1
100
AcDbLine
10
0.904915599251
20
450.382293513
11
-1.09508440075
21
450.382293513
0
LINE
5
113
100
AcDbEntity
8
falseStrut
6
ByLayer
62
256
370
-1
100
AcDbLine
10
-0.595084400749
20
449.319793513
11
0.404915599251
21
449.319793513
0
LINE
5
114
100
AcDbEntity
8
falseStrut
6
ByLayer
62
256
370
-1
100
AcDbLine
10
0.404915599251
20
449.819793513
11
-0.595084400749
21
449.819793513
0
ARC
5
115
100
AcDbEntity
8
falseStrut
6
ByLayer
62
256
370
-1
100
AcDbCircle
10
0.404915599251
20
449.569793513
40
0.25
100
AcDbArc
50
270
51
90
0
ARC
5
116
100
AcDbEntity
8
falseStrut
6
ByLayer
62
256
370
-1
100
AcDbCircle
10
-0.595084400749
20
449.569793513
40
0.25
100
AcDbArc
50
90
51
270
0
LINE
5
117
100
AcDbEntity
8
falseStrut
6
ByLayer
62
256
370
-1
100
AcDbLine
10
-3.83976305228
20
448.557161994
11
-2.43247177113
21
447.744661994
0
LINE
5
118
100
AcDbEntity
8
falseStrut
6
ByLayer
62
256
370
-1
100
AcDbLine
10
-2.43247177113
20
447.744661994
11
-3.43247177113
21
446.012611187
0
LINE
5
119
100
AcDbEntity
8
falseStrut
6
ByLayer
62
256
370
-1
100
AcDbLine
10
-3.83976305228
20
448.557161994
11
-4.83976305228
21
446.825111187
0
LINE
5
11A
100
AcDbEntity
8
falseStrut
6
ByLayer
62
256
370
-1
100
AcDbLine
10
-3.66961106076
20
446.726873889
11
-3.16961106076
21
447.592899293
0
LINE
5
11B
100
AcDbEntity
8
falseStrut
6
ByLayer
62
256
370
-1
100
AcDbLine
10
-3.60262376266
20
447.842899293
11
-4.10262376266
21
446.976873889
0
ARC
5
11C
100
AcDbEntity
8
falseStrut
6
ByLayer
62
256
370
-1
100
AcDbCircle
10
-3.38611741171
20
447.717899293
40
0.25
100
AcDbArc
50
330
51
150
0
ARC
5
11D
100
AcDbEntity
8
falseStrut
6
ByLayer
62
256
370
-1
100
AcDbCircle
10
-3.88611741171
20
446.851873889
40
0.25
100
AcDbArc
50
150
51
330
0
LINE
5
11E
100
AcDbEntity
8
falseStrut
6
ByLayer
62
256
370
-1
100
AcDbLine
10
-4.63149211732
20
443.53558399
11
-3.22420083617
21
444.34808399
0
LINE
5
11F
100
AcDbEntity
8
falseStrut
6
ByLayer
62
256
370
-1
100
AcDbLine
10
-3.22420083617
20
444.34808399
11
-2.22420083617
21
442.616033182
0
LINE
5
120
100
AcDbEntity
8
falseStrut
6
ByLayer
62
256
370
-1
100
AcDbLine
10
-4.63149211732
20
443.53558399
11
-3.63149211732
21
441.803533182
0
LINE
5
121
100
AcDbEntity
8
falseStrut
6
ByLayer
62
256
370
-1
100
AcDbLine
10
-2.9613401258
20
442.767795884
11
-3.4613401258
21
443.633821288
0
LINE
5
122
100
AcDbEntity
8
falseStrut
6
ByLayer
62
256
370
-1
100
AcDbLine
10
-3.89435282769
20
443.383821288
11
-3.39435282769
21
442.517795884
0
ARC
5
123
100
AcDbEntity
8
falseStrut
6
ByLayer
62
256
370
-1
100
AcDbCircle
10
-3.67784647674
20
443.508821288
40
0.25
100
AcDbArc
50
30
51
210
0
ARC
5
124
100
AcDbEntity
8
falseStrut
6
ByLayer
62
256
370
-1
100
AcDbCircle
10
-3.17784647674
20
442.642795884
40
0.25
100
AcDbArc
50
210
51
30
0
LINE
5
125
100
AcDbEntity
8
falseStrut
6
ByLayer
62
256
370
-1
100
AcDbLine
10
-0.678542530817
20
440.339137504
11
-0.678542530817
21
441.964137504
0
LINE
5
126
100
AcDbEntity
8
falseStrut
6
ByLayer
62
256
370
-1
100
AcDbLine
10
-0.678542530817
20
441.964137504
11
1.32145746918
21
441.964137504
0
LINE
5
127
100
AcDbEntity
8
falseStrut
6
ByLayer
62
256
370
-1
100
AcDbLine
10
-0.678542530817
20
440.339137504
11
1.32145746918
21
440.339137504
0
LINE
5
128
100
AcDbEntity
8
falseStrut
6
ByLayer
62
256
370
-1
100
AcDbLine
10
0.821457469183
20
441.401637504
11
-0.178542530817
21
441.401637504
0
LINE
5
129
100
AcDbEntity
8
falseStrut
6
ByLayer
62
256
370
-1
100
AcDbLine
10
-0.178542530817
20
440.901637504
11
0.821457469183
21
440.901637504
0
ARC
5
12A
100
AcDbEntity
8
falseStrut
6
ByLayer
62
256
370
-1
100
AcDbCircle
10
-0.178542530817
20
441.151637504
40
0.25
100
AcDbArc
50
90
51
270
0
ARC
5
12B
100
AcDbEntity
8
falseStrut
6
ByLayer
62
256
370
-1
100
AcDbCircle
10
0.821457469183
20
441.151637504
40
0.25
100
AcDbArc
50
270
51
90
0
LINE
5
12C
100
AcDbEntity
8
falseStrut
6
ByLayer
62
256
370
-1
100
AcDbLine
10
5.84040422981
20
433.794832121
11
7.24769551096
21
434.607332121
0
LINE
5
12D
100
AcDbEntity
8
falseStrut
6
ByLayer
62
256
370
-1
100
AcDbLine
10
7.24769551096
20
434.607332121
11
8.24769551096
21
432.875281314
0
LINE
5
12E
100
AcDbEntity
8
falseStrut
6
ByLayer
62
256
370
-1
100
AcDbLine
10
5.84040422981
20
433.794832121
11
6.84040422981
21
432.062781314
0
LINE
5
12F
100
AcDbEntity
8
falseStrut
6
ByLayer
62
256
370
-1
100
AcDbLine
10
7.51055622133
20
433.027044016
11
7.01055622133
21
433.893069419
0
LINE
5
130
100
AcDbEntity
8
falseStrut
6
ByLayer
62
256
370
-1
100
AcDbLine
10
6.57754351943
20
433.643069419
11
7.07754351943
21
432.777044016
0
ARC
5
131
100
AcDbEntity
8
falseStrut
6
ByLayer
62
256
370
-1
100
AcDbCircle
10
6.79404987038
20
433.768069419
40
0.25
100
AcDbArc
50
30
51
210
0
ARC
5
132
100
AcDbEntity
8
falseStrut
6
ByLayer
62
256
370
-1
100
AcDbCircle
10
7.29404987038
20
432.902044016
40
0.25
100
AcDbArc
50
210
51
30
0
LINE
5
133
100
AcDbEntity
8
falseStrut
6
ByLayer
62
256
370
-1
100
AcDbLine
10
6.84040422981
20
432.062781314
11
8.24769551096
21
432.875281314
0
LINE
5
134
100
AcDbEntity
8
falseStrut
6
ByLayer
62
256
370
-1
100
AcDbLine
10
8.24769551096
20
432.875281314
11
9.24769551096
21
431.143230506
0
LINE
5
135
100
AcDbEntity
8
falseStrut
6
ByLayer
62
256
370
-1
100
AcDbLine
10
6.84040422981
20
432.062781314
11
7.84040422981
21
430.330730506
0
LINE
5
136
100
AcDbEntity
8
falseStrut
6
ByLayer
62
256
370
-1
100
AcDbLine
10
8.51055622133
20
431.294993208
11
8.01055622133
21
432.161018612
0
LINE
5
137
100
AcDbEntity
8
falseStrut
6
ByLayer
62
256
370
-1
100
AcDbLine
10
7.57754351943
20
431.911018612
11
8.07754351943
21
431.044993208
0
ARC
5
138
100
AcDbEntity
8
falseStrut
6
ByLayer
62
256
370
-1
100
AcDbCircle
10
7.79404987038
20
432.036018612
40
0.25
100
AcDbArc
50
30
51
210
0
ARC
5
139
100
AcDbEntity
8
falseStrut
6
ByLayer
62
256
370
-1
100
AcDbCircle
10
8.29404987038
20
431.169993208
40
0.25
100
AcDbArc
50
210
51
30
0
LINE
5
13A
100
AcDbEntity
8
falseStrut
6
ByLayer
62
256
370
-1
100
AcDbLine
10
13.2788705493
20
434.737391189
11
14.6861618304
21
435.549891189
0
LINE
5
13B
100
AcDbEntity
8
falseStrut
6
ByLayer
62
256
370
-1
100
AcDbLine
10
14.6861618304
20
435.549891189
11
15.6861618304
21
433.817840381
0
LINE
5
13C
100
AcDbEntity
8
falseStrut
6
ByLayer
62
256
370
-1
100
AcDbLine
10
13.2788705493
20
434.737391189
11
14.2788705493
21
433.005340381
0
LINE
5
13D
100
AcDbEntity
8
falseStrut
6
ByLayer
62
256
370
-1
100
AcDbLine
10
14.9490225408
20
433.969603083
11
14.4490225408
21
434.835628487
0
LINE
5
13E
100
AcDbEntity
8
falseStrut
6
ByLayer
62
256
370
-1
100
AcDbLine
10
14.0160098389
20
434.585628487
11
14.5160098389
21
433.719603083
0
ARC
5
13F
100
AcDbEntity
8
falseStrut
6
ByLayer
62
256
370
-1
100
AcDbCircle
10
14.2325161899
20
434.710628487
40
0.25
100
AcDbArc
50
30
51
210
0
ARC
5
140
100
AcDbEntity
8
falseStrut
6
ByLayer
62
256
370
-1
100
AcDbCircle
10
14.7325161899
20
433.844603083
40
0.25
100
AcDbArc
50
210
51
30
0
LINE
5
141
100
AcDbEntity
8
falseStrut
6
ByLayer
62
256
370
-1
100
AcDbLine
10
14.2788705493
20
433.005340381
11
15.6861618304
21
433.817840381
0
LINE
5
142
100
AcDbEntity
8
falseStrut
6
ByLayer
62
256
370
-1
100
AcDbLine
10
15.6861618304
20
433.817840381
11
16.6861618304
21
432.085789574
0
LINE
5
143
100
AcDbEntity
8
falseStrut
6
ByLayer
62
256
370
-1
100
AcDbLine
10
14.2788705493
20
433.005340381
11
15.2788705493
21
431.273289574
0
LINE
5
144
100
AcDbEntity
8
falseStrut
6
ByLayer
62
256
370
-1
100
AcDbLine
10
15.9490225408
20
432.237552276
11
15.4490225408
21
433.103577679
0
LINE
5
145
100
AcDbEntity
8
falseStrut
6
ByLayer
62
256
370
-1
100
AcDbLine
10
15.0160098389
20
432.853577679
11
15.5160098389
21
431.987552276
0
ARC
5
146
100
AcDbEntity
8
falseStrut
6
ByLayer
62
256
370
-1
100
AcDbCircle
10
15.2325161899
20
432.978577679
40
0.25
100
AcDbArc
50
30
51
210
0
ARC
5
147
100
AcDbEntity
8
falseStrut
6
ByLayer
62
256
370
-1
100
AcDbCircle
10
15.7325161899
20
432.112552276
40
0.25
100
AcDbArc
50
210
51
30
0
LINE
5
148
100
AcDbEntity
8
falseStrut
6
ByLayer
62
256
370
-1
100
AcDbLine
10
15.2788705493
20
431.273289574
11
16.6861618304
21
432.085789574
0
LINE
5
149
100
AcDbEntity
8
falseStrut
6
ByLayer
62
256
370
-1
100
AcDbLine
10
16.6861618304
20
432.085789574
11
17.6861618304
21
430.353738766
0
LINE
5
14A
100
AcDbEntity
8
falseStrut
6
ByLayer
62
256
370
-1
100
AcDbLine
10
15.2788705493
20
431.273289574
11
16.2788705493
21
429.541238766
0
LINE
5
14B
100
AcDbEntity
8
falseStrut
6
ByLayer
62
256
370
-1
100
AcDbLine
10
16.9490225408
20
430.505501468
11
16.4490225408
21
431.371526872
0
LINE
5
14C
100
AcDbEntity
8
falseStrut
6
ByLayer
62
256
370
-1
100
AcDbLine
10
16.0160098389
20
431.121526872
11
16.5160098389
21
430.255501468
0
ARC
5
14D
100
AcDbEntity
8
falseStrut
6
ByLayer
62
256
370
-1
100
AcDbCircle
10
16.2325161899
20
431.246526872
40
0.25
100
AcDbArc
50
30
51
210
0
ARC
5
14E
100
AcDbEntity
8
falseStrut
6
ByLayer
62
256
370
-1
100
AcDbCircle
10
16.7325161899
20
430.380501468
40
0.25
100
AcDbArc
50
210
51
30
0
LINE
5
14F
100
AcDbEntity
8
falseStrut
6
ByLayer
62
256
370
-1
100
AcDbLine
10
16.2788705493
20
429.541238766
11
17.6861618304
21
430.353738766
0
LINE
5
150
100
AcDbEntity
8
falseStrut
6
ByLayer
62
256
370
-1
100
AcDbLine
10
17.6861618304
20
430.353738766
11
18.6861618304
21
428.621687959
0
LINE
5
151
100
AcDbEntity
8
falseStrut
6
ByLayer
62
256
370
-1
100
AcDbLine
10
16.2788705493
20
429.541238766
11
17.2788705493
21
427.809187959
0
LINE
5
152
100
AcDbEntity
8
falseStrut
6
ByLayer
62
256
370
-1
100
AcDbLine
10
17.9490225408
20
428.77345066
11
17.4490225408
21
429.639476064
0
LINE
5
153
100
AcDbEntity
8
falseStrut
6
ByLayer
62
256
370
-1
100
AcDbLine
10
17.0160098389
20
429.389476064
11
17.5160098389
21
428.52345066
0
ARC
5
154
100
AcDbEntity
8
falseStrut
6
ByLayer
62
256
370
-1
100
AcDbCircle
10
17.2325161899
20
429.514476064
40
0.25
100
AcDbArc
50
30
51
210
0
ARC
5
155
100
AcDbEntity
8
falseStrut
6
ByLayer
62
256
370
-1
100
AcDbCircle
10
17.7325161899
20
428.64845066
40
0.25
100
AcDbArc
50
210
51
30
0
LINE
5
156
100
AcDbEntity
8
PVC
6
ByLayer
62
256
370
-1
100
AcDbLine
10
16.0874118719
20
442.947918338
11
16.5874118719
21
442.081892935
0
CIRCLE
5
157
100
AcDbEntity
8
PVC
6
ByLayer
62
256
370
-1
100
AcDbCircle
10
12.4713864681
20
440.282854829
40
0.5
0
CIRCLE
5
158
100
AcDbEntity
8
PVC
6
ByLayer
62
256
370
-1
100
AcDbCircle
10
12.4713864681
20
440.282854829
40
0.6
0
LINE
5
159
100
AcDbEntity
8
PVC
6
ByLayer
62
256
370
-1
100
AcDbLine
10
11.5210893912
20
440.427020879
11
12.1210893912
21
439.387790394
0
LINE
5
15A
100
AcDbEntity
8
PVC
6
ByLayer
62
256
370
-1
100
AcDbLine
10
12.820905521
20
441.177470071
11
13.420905521
21
440.138239587
0
LINE
5
15B
100
AcDbEntity
8
PVC
6
ByLayer
62
256
370
-1
100
AcDbLine
10
13.6869309248
20
441.677470071
11
14.2869309248
21
440.638239587
0
LINE
5
15C
100
AcDbEntity
8
PVC
6
ByLayer
62
256
370
-1
100
AcDbLine
10
11.5210893912
20
440.427020879
11
13.6869309248
21
441.677470071
0
LINE
5
15D
100
AcDbEntity
8
PVC
6
ByLayer
62
256
370
-1
100
AcDbLine
10
12.1210893912
20
439.387790394
11
14.2869309248
21
440.638239587
0
LINE
5
15E
100
AcDbEntity
8
PVC
6
ByLayer
62
256
370
-1
100
AcDbLine
10
12.870905521
20
441.090867531
11
16.0874118719
21
442.947918338
0
LINE
5
15F
100
AcDbEntity
8
PVC
6
ByLayer
62
256
370
-1
100
AcDbLine
10
13.370905521
20
440.224842127
11
16.5874118719
21
442.081892935
0
LINE
5
160
100
AcDbEntity
8
PVC
6
ByLayer
62
256
370
-1
100
AcDbLine
10
12.933405521
20
440.982614355
11
16.1499118719
21
442.839665163
0
LINE
5
161
100
AcDbEntity
8
PVC
6
ByLayer
62
256
370
-1
100
AcDbLine
10
13.308405521
20
440.333095303
11
16.5249118719
21
442.19014611
0
CIRCLE
5
162
100
AcDbEntity
8
PVC
6
ByLayer
62
256
370
-1
100
AcDbCircle
10
12.4713864681
20
440.282854829
40
0.375
0
LINE
5
163
100
AcDbEntity
8
PVCcenter
6
ByLayer
62
256
370
-1
100
AcDbLine
10
12.9713864681
20
439.416829425
11
11.9713864681
21
441.148880233
0
DIMENSION
5
164
100
AcDbEntity
8
Measure
6
ByLayer
62
256
370
-1
100
AcDbDimension
10
19.23444198
20
439.568704596
30
0
11
19.7499864366
21
442.175755403
31
0
70
33
71
5
3
Standard
53
0
210
0
220
0
230
1
100
AcDbAlignedDimension
13
15.4713864681
23
442.014905637
33
0
14
17.4713864681
24
438.550804021
34
0
0
DIMENSION
5
165
100
AcDbEntity
8
Measure
6
ByLayer
62
256
370
-1
100
AcDbDimension
10
10.6504332942
20
436.922125947
30
0
11
11.6659777509
21
438.663151351
31
0
70
33
71
5
3
Standard
53
0
210
0
220
0
230
1
100
AcDbAlignedDimension
13
11.064095187
23
439.470354829
33
0
14
12.064095187
24
437.738304021
34
0
0
LINE
5
166
100
AcDbEntity
8
Symmetry
6
ByLayer
62
256
370
-1
100
AcDbLine
10
8.17998108554
20
437.805210776
11
65.4945636478
21
470.895800447
0
LINE
5
167
100
AcDbEntity
8
PVCcenter
6
ByLayer
62
256
370
-1
100
AcDbLine
10
36.5872723667
20
487.00808258
11
64.9945636478
21
470.607125312
0
LINE
5
168
100
AcDbEntity
8
PVCcenter
6
ByLayer
62
256
370
-1
100
AcDbLine
10
64.9945636478
20
437.805210776
11
64.9945636478
21
470.607125312
0
LINE
5
169
100
AcDbEntity
8
Strutlvl2
6
ByLayer
62
256
370
-1
100
AcDbLine
10
16.5872723667
20
452.367066429
11
17.5872723667
21
454.099117237
0
LINE
5
16A
100
AcDbEntity
8
Strutlvl2
6
ByLayer
62
256
370
-1
100
AcDbLine
10
17.9945636478
20
451.554566429
11
18.9945636478
21
453.286617237
0
LINE
5
16B
100
AcDbEntity
8
Strutlvl2
6
ByLayer
62
256
370
-1
100
AcDbLine
10
17.8244116563
20
453.384854535
11
17.3244116563
21
452.518829131
0
LINE
5
16C
100
AcDbEntity
8
Strutlvl2
6
ByLayer
62
256
370
-1
100
AcDbLine
10
17.7574243582
20
452.268829131
11
18.2574243582
21
453.134854535
0
ARC
5
16D
100
AcDbEntity
8
Strutlvl2
6
ByLayer
62
256
370
-1
100
AcDbCircle
10
17.5409180073
20
452.393829131
40
0.25
100
AcDbArc
50
150
51
330
0
ARC
5
16E
100
AcDbEntity
8
Strutlvl2
6
ByLayer
62
256
370
-1
100
AcDbCircle
10
18.0409180073
20
453.259854535
40
0.25
100
AcDbArc
50
330
51
150
0
LINE
5
16F
100
AcDbEntity
8
Strutlvl2
6
ByLayer
62
256
370
-1
100
AcDbLine
10
17.5872723667
20
454.099117237
11
18.5872723667
21
455.831168044
0
LINE
5
170
100
AcDbEntity
8
Strutlvl2
6
ByLayer
62
256
370
-1
100
AcDbLine
10
18.9945636478
20
453.286617237
11
19.9945636478
21
455.018668044
0
LINE
5
171
100
AcDbEntity
8
Strutlvl2
6
ByLayer
62
256
370
-1
100
AcDbLine
10
18.8244116563
20
455.116905342
11
18.3244116563
21
454.250879939
0
LINE
5
172
100
AcDbEntity
8
Strutlvl2
6
ByLayer
62
256
370
-1
100
AcDbLine
10
18.7574243582
20
454.000879939
11
19.2574243582
21
454.866905342
0
ARC
5
173
100
AcDbEntity
8
Strutlvl2
6
ByLayer
62
256
370
-1
100
AcDbCircle
10
18.5409180073
20
454.125879939
40
0.25
100
AcDbArc
50
150
51
330
0
ARC
5
174
100
AcDbEntity
8
Strutlvl2
6
ByLayer
62
256
370
-1
100
AcDbCircle
10
19.0409180073
20
454.991905342
40
0.25
100
AcDbArc
50
330
51
150
0
LINE
5
175
100
AcDbEntity
8
Strutlvl2
6
ByLayer
62
256
370
-1
100
AcDbLine
10
18.5872723667
20
455.831168044
11
19.5872723667
21
457.563218852
0
LINE
5
176
100
AcDbEntity
8
Strutlvl2
6
ByLayer
62
256
370
-1
100
AcDbLine
10
19.9945636478
20
455.018668044
11
20.9945636478
21
456.750718852
0
LINE
5
177
100
AcDbEntity
8
Strutlvl2
6
ByLayer
62
256
370
-1
100
AcDbLine
10
19.8244116563
20
456.84895615
11
19.3244116563
21
455.982930746
0
LINE
5
178
100
AcDbEntity
8
Strutlvl2
6
ByLayer
62
256
370
-1
100
AcDbLine
10
19.7574243582
20
455.732930746
11
20.2574243582
21
456.59895615
0
ARC
5
179
100
AcDbEntity
8
Strutlvl2
6
ByLayer
62
256
370
-1
100
AcDbCircle
10
19.5409180073
20
455.857930746
40
0.25
100
AcDbArc
50
150
51
330
0
ARC
5
17A
100
AcDbEntity
8
Strutlvl2
6
ByLayer
62
256
370
-1
100
AcDbCircle
10
20.0409180073
20
456.72395615
40
0.25
100
AcDbArc
50
330
51
150
0
LINE
5
17B
100
AcDbEntity
8
Strutlvl2
6
ByLayer
62
256
370
-1
100
AcDbLine
10
19.5872723667
20
457.563218852
11
20.5872723667
21
459.295269659
0
LINE
5
17C
100
AcDbEntity
8
Strutlvl2
6
ByLayer
62
256
370
-1
100
AcDbLine
10
20.9945636478
20
456.750718852
11
21.9945636478
21
458.482769659
0
LINE
5
17D
100
AcDbEntity
8
Strutlvl2
6
ByLayer
62
256
370
-1
100
AcDbLine
10
20.8244116563
20
458.581006957
11
20.3244116563
21
457.714981554
0
LINE
5
17E
100
AcDbEntity
8
Strutlvl2
6
ByLayer
62
256
370
-1
100
AcDbLine
10
20.7574243582
20
457.464981554
11
21.2574243582
21
458.331006957
0
ARC
5
17F
100
AcDbEntity
8
Strutlvl2
6
ByLayer
62
256
370
-1
100
AcDbCircle
10
20.5409180073
20
457.589981554
40
0.25
100
AcDbArc
50
150
51
330
0
ARC
5
180
100
AcDbEntity
8
Strutlvl2
6
ByLayer
62
256
370
-1
100
AcDbCircle
10
21.0409180073
20
458.456006957
40
0.25
100
AcDbArc
50
330
51
150
0
LINE
5
181
100
AcDbEntity
8
Strutlvl2
6
ByLayer
62
256
370
-1
100
AcDbLine
10
20.5872723667
20
459.295269659
11
21.5872723667
21
461.027320467
0
LINE
5
182
100
AcDbEntity
8
Strutlvl2
6
ByLayer
62
256
370
-1
100
AcDbLine
10
21.9945636478
20
458.482769659
11
22.9945636478
21
460.214820467
0
LINE
5
183
100
AcDbEntity
8
Strutlvl2
6
ByLayer
62
256
370
-1
100
AcDbLine
10
21.8244116563
20
460.313057765
11
21.3244116563
21
459.447032361
0
LINE
5
184
100
AcDbEntity
8
Strutlvl2
6
ByLayer
62
256
370
-1
100
AcDbLine
10
21.7574243582
20
459.197032361
11
22.2574243582
21
460.063057765
0
ARC
5
185
100
AcDbEntity
8
Strutlvl2
6
ByLayer
62
256
370
-1
100
AcDbCircle
10
21.5409180073
20
459.322032361
40
0.25
100
AcDbArc
50
150
51
330
0
ARC
5
186
100
AcDbEntity
8
Strutlvl2
6
ByLayer
62
256
370
-1
100
AcDbCircle
10
22.0409180073
20
460.188057765
40
0.25
100
AcDbArc
50
330
51
150
0
LINE
5
187
100
AcDbEntity
8
Strutlvl2
6
ByLayer
62
256
370
-1
100
AcDbLine
10
21.5872723667
20
461.027320467
11
22.5872723667
21
462.759371275
0
LINE
5
188
100
AcDbEntity
8
Strutlvl2
6
ByLayer
62
256
370
-1
100
AcDbLine
10
22.9945636478
20
460.214820467
11
23.9945636478
21
461.946871275
0
LINE
5
189
100
AcDbEntity
8
Strutlvl2
6
ByLayer
62
256
370
-1
100
AcDbLine
10
22.8244116563
20
462.045108573
11
22.3244116563
21
461.179083169
0
LINE
5
18A
100
AcDbEntity
8
Strutlvl2
6
ByLayer
62
256
370
-1
100
AcDbLine
10
22.7574243582
20
460.929083169
11
23.2574243582
21
461.795108573
0
ARC
5
18B
100
AcDbEntity
8
Strutlvl2
6
ByLayer
62
256
370
-1
100
AcDbCircle
10
22.5409180073
20
461.054083169
40
0.25
100
AcDbArc
50
150
51
330
0
ARC
5
18C
100
AcDbEntity
8
Strutlvl2
6
ByLayer
62
256
370
-1
100
AcDbCircle
10
23.0409180073
20
461.920108573
40
0.25
100
AcDbArc
50
330
51
150
0
LINE
5
18D
100
AcDbEntity
8
Strutlvl2
6
ByLayer
62
256
370
-1
100
AcDbLine
10
22.5872723667
20
462.759371275
11
23.5872723667
21
464.491422082
0
LINE
5
18E
100
AcDbEntity
8
Strutlvl2
6
ByLayer
62
256
370
-1
100
AcDbLine
10
23.9945636478
20
461.946871275
11
24.9945636478
21
463.678922082
0
LINE
5
18F
100
AcDbEntity
8
Strutlvl2
6
ByLayer
62
256
370
-1
100
AcDbLine
10
23.8244116563
20
463.77715938
11
23.3244116563
21
462.911133976
0
LINE
5
190
100
AcDbEntity
8
Strutlvl2
6
ByLayer
62
256
370
-1
100
AcDbLine
10
23.7574243582
20
462.661133976
11
24.2574243582
21
463.52715938
0
ARC
5
191
100
AcDbEntity
8
Strutlvl2
6
ByLayer
62
256
370
-1
100
AcDbCircle
10
23.5409180073
20
462.786133976
40
0.25
100
AcDbArc
50
150
51
330
0
ARC
5
192
100
AcDbEntity
8
Strutlvl2
6
ByLayer
62
256
370
-1
100
AcDbCircle
10
24.0409180073
20
463.65215938
40
0.25
100
AcDbArc
50
330
51
150
0
LINE
5
193
100
AcDbEntity
8
Strutlvl2
6
ByLayer
62
256
370
-1
100
AcDbLine
10
23.5872723667
20
464.491422082
11
24.5872723667
21
466.22347289
0
LINE
5
194
100
AcDbEntity
8
Strutlvl2
6
ByLayer
62
256
370
-1
100
AcDbLine
10
24.9945636478
20
463.678922082
11
25.9945636478
21
465.41097289
0
LINE
5
195
100
AcDbEntity
8
Strutlvl2
6
ByLayer
62
256
370
-1
100
AcDbLine
10
24.8244116563
20
465.509210188
11
24.3244116563
21
464.643184784
0
LINE
5
196
100
AcDbEntity
8
Strutlvl2
6
ByLayer
62
256
370
-1
100
AcDbLine
10
24.7574243582
20
464.393184784
11
25.2574243582
21
465.259210188
0
ARC
5
197
100
AcDbEntity
8
Strutlvl2
6
ByLayer
62
256
370
-1
100
AcDbCircle
10
24.5409180073
20
464.518184784
40
0.25
100
AcDbArc
50
150
51
330
0
ARC
5
198
100
AcDbEntity
8
Strutlvl2
6
ByLayer
62
256
370
-1
100
AcDbCircle
10
25.0409180073
20
465.384210188
40
0.25
100
AcDbArc
50
330
51
150
0
LINE
5
199
100
AcDbEntity
8
Strutlvl2
6
ByLayer
62
256
370
-1
100
AcDbLine
10
24.5872723667
20
466.22347289
11
25.5872723667
21
467.955523697
0
LINE
5
19A
100
AcDbEntity
8
Strutlvl2
6
ByLayer
62
256
370
-1
100
AcDbLine
10
25.9945636478
20
465.41097289
11
26.9945636478
21
467.143023697
0
LINE
5
19B
100
AcDbEntity
8
Strutlvl2
6
ByLayer
62
256
370
-1
100
AcDbLine
10
25.8244116563
20
467.241260995
11
25.3244116563
21
466.375235592
0
LINE
5
19C
100
AcDbEntity
8
Strutlvl2
6
ByLayer
62
256
370
-1
100
AcDbLine
10
25.7574243582
20
466.125235592
11
26.2574243582
21
466.991260995
0
ARC
5
19D
100
AcDbEntity
8
Strutlvl2
6
ByLayer
62
256
370
-1
100
AcDbCircle
10
25.5409180073
20
466.250235592
40
0.25
100
AcDbArc
50
150
51
330
0
ARC
5
19E
100
AcDbEntity
8
Strutlvl2
6
ByLayer
62
256
370
-1
100
AcDbCircle
10
26.0409180073
20
467.116260995
40
0.25
100
AcDbArc
50
330
51
150
0
LINE
5
19F
100
AcDbEntity
8
Strutlvl2
6
ByLayer
62
256
370
-1
100
AcDbLine
10
25.5872723667
20
467.955523697
11
26.5872723667
21
469.687574505
0
LINE
5
1A0
100
AcDbEntity
8
Strutlvl2
6
ByLayer
62
256
370
-1
100
AcDbLine
10
26.9945636478
20
467.143023697
11
27.9945636478
21
468.875074505
0
LINE
5
1A1
100
AcDbEntity
8
Strutlvl2
6
ByLayer
62
256
370
-1
100
AcDbLine
10
26.8244116563
20
468.973311803
11
26.3244116563
21
468.107286399
0
LINE
5
1A2
100
AcDbEntity
8
Strutlvl2
6
ByLayer
62
256
370
-1
100
AcDbLine
10
26.7574243582
20
467.857286399
11
27.2574243582
21
468.723311803
0
ARC
5
1A3
100
AcDbEntity
8
Strutlvl2
6
ByLayer
62
256
370
-1
100
AcDbCircle
10
26.5409180073
20
467.982286399
40
0.25
100
AcDbArc
50
150
51
330
0
ARC
5
1A4
100
AcDbEntity
8
Strutlvl2
6
ByLayer
62
256
370
-1
100
AcDbCircle
10
27.0409180073
20
468.848311803
40
0.25
100
AcDbArc
50
330
51
150
0
LINE
5
1A5
100
AcDbEntity
8
Strutlvl2
6
ByLayer
62
256
370
-1
100
AcDbLine
10
26.5872723667
20
469.687574505
11
27.5872723667
21
471.419625312
0
LINE
5
1A6
100
AcDbEntity
8
Strutlvl2
6
ByLayer
62
256
370
-1
100
AcDbLine
10
27.9945636478
20
468.875074505
11
28.9945636478
21
470.607125312
0
LINE
5
1A7
100
AcDbEntity
8
Strutlvl2
6
ByLayer
62
256
370
-1
100
AcDbLine
10
27.8244116563
20
470.70536261
11
27.3244116563
21
469.839337207
0
LINE
5
1A8
100
AcDbEntity
8
Strutlvl2
6
ByLayer
62
256
370
-1
100
AcDbLine
10
27.7574243582
20
469.589337207
11
28.2574243582
21
470.45536261
0
ARC
5
1A9
100
AcDbEntity
8
Strutlvl2
6
ByLayer
62
256
370
-1
100
AcDbCircle
10
27.5409180073
20
469.714337207
40
0.25
100
AcDbArc
50
150
51
330
0
ARC
5
1AA
100
AcDbEntity
8
Strutlvl2
6
ByLayer
62
256
370
-1
100
AcDbCircle
10
28.0409180073
20
470.58036261
40
0.25
100
AcDbArc
50
330
51
150
0
LINE
5
1AB
100
AcDbEntity
8
Strutlvl2
6
ByLayer
62
256
370
-1
100
AcDbLine
10
27.5872723667
20
471.419625312
11
28.5872723667
21
473.15167612
0
LINE
5
1AC
100
AcDbEntity
8
Strutlvl2
6
ByLayer
62
256
370
-1
100
AcDbLine
10
28.9945636478
20
470.607125312
11
29.9945636478
21
472.33917612
0
LINE
5
1AD
100
AcDbEntity
8
Strutlvl2
6
ByLayer
62
256
370
-1
100
AcDbLine
10
28.8244116563
20
472.437413418
11
28.3244116563
21
471.571388014
0
LINE
5
1AE
100
AcDbEntity
8
Strutlvl2
6
ByLayer
62
256
370
-1
100
AcDbLine
10
28.7574243582
20
471.321388014
11
29.2574243582
21
472.187413418
0
ARC
5
1AF
100
AcDbEntity
8
Strutlvl2
6
ByLayer
62
256
370
-1
100
AcDbCircle
10
28.5409180073
20
471.446388014
40
0.25
100
AcDbArc
50
150
51
330
0
ARC
5
1B0
100
AcDbEntity
8
Strutlvl2
6
ByLayer
62
256
370
-1
100
AcDbCircle
10
29.0409180073
20
472.312413418
40
0.25
100
AcDbArc
50
330
51
150
0
LINE
5
1B1
100
AcDbEntity
8
Strutlvl2
6
ByLayer
62
256
370
-1
100
AcDbLine
10
28.5872723667
20
473.15167612
11
29.5872723667
21
474.883726928
0
LINE
5
1B2
100
AcDbEntity
8
Strutlvl2
6
ByLayer
62
256
370
-1
100
AcDbLine
10
29.9945636478
20
472.33917612
11
30.9945636478
21
474.071226928
0
LINE
5
1B3
100
AcDbEntity
8
Strutlvl2
6
ByLayer
62
256
370
-1
100
AcDbLine
10
29.8244116563
20
474.169464226
11
29.3244116563
21
473.303438822
0
LINE
5
1B4
100
AcDbEntity
8
Strutlvl2
6
ByLayer
62
256
370
-1
100
AcDbLine
10
29.7574243582
20
473.053438822
11
30.2574243582
21
473.919464226
0
ARC
5
1B5
100
AcDbEntity
8
Strutlvl2
6
ByLayer
62
256
370
-1
100
AcDbCircle
10
29.5409180073
20
473.178438822
40
0.25
100
AcDbArc
50
150
51
330
0
ARC
5
1B6
100
AcDbEntity
8
Strutlvl2
6
ByLayer
62
256
370
-1
100
AcDbCircle
10
30.0409180073
20
474.044464226
40
0.25
100
AcDbArc
50
330
51
150
0
LINE
5
1B7
100
AcDbEntity
8
Strutlvl2
6
ByLayer
62
256
370
-1
100
AcDbLine
10
29.5872723667
20
474.883726928
11
30.5872723667
21
476.615777735
0
LINE
5
1B8
100
AcDbEntity
8
Strutlvl2
6
ByLayer
62
256
370
-1
100
AcDbLine
10
30.9945636478
20
474.071226928
11
31.9945636478
21
475.803277735
0
LINE
5
1B9
100
AcDbEntity
8
Strutlvl2
6
ByLayer
62
256
370
-1
100
AcDbLine
10
30.8244116563
20
475.901515033
11
30.3244116563
21
475.035489629
0
LINE
5
1BA
100
AcDbEntity
8
Strutlvl2
6
ByLayer
62
256
370
-1
100
AcDbLine
10
30.7574243582
20
474.785489629
11
31.2574243582
21
475.651515033
0
ARC
5
1BB
100
AcDbEntity
8
Strutlvl2
6
ByLayer
62
256
370
-1
100
AcDbCircle
10
30.5409180073
20
474.910489629
40
0.25
100
AcDbArc
50
150
51
330
0
ARC
5
1BC
100
AcDbEntity
8
Strutlvl2
6
ByLayer
62
256
370
-1
100
AcDbCircle
10
31.0409180073
20
475.776515033
40
0.25
100
AcDbArc
50
330
51
150
0
LINE
5
1BD
100
AcDbEntity
8
Strutlvl2
6
ByLayer
62
256
370
-1
100
AcDbLine
10
30.5872723667
20
476.615777735
11
31.5872723667
21
478.347828543
0
LINE
5
1BE
100
AcDbEntity
8
Strutlvl2
6
ByLayer
62
256
370
-1
100
AcDbLine
10
31.9945636478
20
475.803277735
11
32.9945636478
21
477.535328543
0
LINE
5
1BF
100
AcDbEntity
8
Strutlvl2
6
ByLayer
62
256
370
-1
100
AcDbLine
10
31.8244116563
20
477.633565841
11
31.3244116563
21
476.767540437
0
LINE
5
1C0
100
AcDbEntity
8
Strutlvl2
6
ByLayer
62
256
370
-1
100
AcDbLine
10
31.7574243582
20
476.517540437
11
32.2574243582
21
477.383565841
0
ARC
5
1C1
100
AcDbEntity
8
Strutlvl2
6
ByLayer
62
256
370
-1
100
AcDbCircle
10
31.5409180073
20
476.642540437
40
0.25
100
AcDbArc
50
150
51
330
0
ARC
5
1C2
100
AcDbEntity
8
Strutlvl2
6
ByLayer
62
256
370
-1
100
AcDbCircle
10
32.0409180073
20
477.508565841
40
0.25
100
AcDbArc
50
330
51
150
0
LINE
5
1C3
100
AcDbEntity
8
Strutlvl2
6
ByLayer
62
256
370
-1
100
AcDbLine
10
31.5872723667
20
478.347828543
11
32.5872723667
21
480.07987935
0
LINE
5
1C4
100
AcDbEntity
8
Strutlvl2
6
ByLayer
62
256
370
-1
100
AcDbLine
10
32.9945636478
20
477.535328543
11
33.9945636478
21
479.26737935
0
LINE
5
1C5
100
AcDbEntity
8
Strutlvl2
6
ByLayer
62
256
370
-1
100
AcDbLine
10
32.8244116563
20
479.365616648
11
32.3244116563
21
478.499591245
0
LINE
5
1C6
100
AcDbEntity
8
Strutlvl2
6
ByLayer
62
256
370
-1
100
AcDbLine
10
32.7574243582
20
478.249591245
11
33.2574243582
21
479.115616648
0
ARC
5
1C7
100
AcDbEntity
8
Strutlvl2
6
ByLayer
62
256
370
-1
100
AcDbCircle
10
32.5409180073
20
478.374591245
40
0.25
100
AcDbArc
50
150
51
330
0
ARC
5
1C8
100
AcDbEntity
8
Strutlvl2
6
ByLayer
62
256
370
-1
100
AcDbCircle
10
33.0409180073
20
479.240616648
40
0.25
100
AcDbArc
50
330
51
150
0
LINE
5
1C9
100
AcDbEntity
8
Strutlvl2
6
ByLayer
62
256
370
-1
100
AcDbLine
10
32.5872723667
20
480.07987935
11
33.5872723667
21
481.811930158
0
LINE
5
1CA
100
AcDbEntity
8
Strutlvl2
6
ByLayer
62
256
370
-1
100
AcDbLine
10
33.9945636478
20
479.26737935
11
34.9945636478
21
480.999430158
0
LINE
5
1CB
100
AcDbEntity
8
Strutlvl2
6
ByLayer
62
256
370
-1
100
AcDbLine
10
33.8244116563
20
481.097667456
11
33.3244116563
21
480.231642052
0
LINE
5
1CC
100
AcDbEntity
8
Strutlvl2
6
ByLayer
62
256
370
-1
100
AcDbLine
10
33.7574243582
20
479.981642052
11
34.2574243582
21
480.847667456
0
ARC
5
1CD
100
AcDbEntity
8
Strutlvl2
6
ByLayer
62
256
370
-1
100
AcDbCircle
10
33.5409180073
20
480.106642052
40
0.25
100
AcDbArc
50
150
51
330
0
ARC
5
1CE
100
AcDbEntity
8
Strutlvl2
6
ByLayer
62
256
370
-1
100
AcDbCircle
10
34.0409180073
20
480.972667456
40
0.25
100
AcDbArc
50
330
51
150
0
LINE
5
1CF
100
AcDbEntity
8
Strutlvl2
6
ByLayer
62
256
370
-1
100
AcDbLine
10
33.5872723667
20
481.811930158
11
34.5872723667
21
483.543980965
0
LINE
5
1D0
100
AcDbEntity
8
Strutlvl2
6
ByLayer
62
256
370
-1
100
AcDbLine
10
34.9945636478
20
480.999430158
11
35.9945636478
21
482.731480965
0
LINE
5
1D1
100
AcDbEntity
8
Strutlvl2
6
ByLayer
62
256
370
-1
100
AcDbLine
10
34.8244116563
20
482.829718263
11
34.3244116563
21
481.96369286
0
LINE
5
1D2
100
AcDbEntity
8
Strutlvl2
6
ByLayer
62
256
370
-1
100
AcDbLine
10
34.7574243582
20
481.71369286
11
35.2574243582
21
482.579718263
0
ARC
5
1D3
100
AcDbEntity
8
Strutlvl2
6
ByLayer
62
256
370
-1
100
AcDbCircle
10
34.5409180073
20
481.83869286
40
0.25
100
AcDbArc
50
150
51
330
0
ARC
5
1D4
100
AcDbEntity
8
Strutlvl2
6
ByLayer
62
256
370
-1
100
AcDbCircle
10
35.0409180073
20
482.704718263
40
0.25
100
AcDbArc
50
330
51
150
0
LINE
5
1D5
100
AcDbEntity
8
Strutlvl2
6
ByLayer
62
256
370
-1
100
AcDbLine
10
34.5872723667
20
483.543980965
11
35.5872723667
21
485.276031773
0
LINE
5
1D6
100
AcDbEntity
8
Strutlvl2
6
ByLayer
62
256
370
-1
100
AcDbLine
10
35.9945636478
20
482.731480965
11
36.9945636478
21
484.463531773
0
LINE
5
1D7
100
AcDbEntity
8
Strutlvl2
6
ByLayer
62
256
370
-1
100
AcDbLine
10
35.8244116563
20
484.561769071
11
35.3244116563
21
483.695743667
0
LINE
5
1D8
100
AcDbEntity
8
Strutlvl2
6
ByLayer
62
256
370
-1
100
AcDbLine
10
35.7574243582
20
483.445743667
11
36.2574243582
21
484.311769071
0
ARC
5
1D9
100
AcDbEntity
8
Strutlvl2
6
ByLayer
62
256
370
-1
100
AcDbCircle
10
35.5409180073
20
483.570743667
40
0.25
100
AcDbArc
50
150
51
330
0
ARC
5
1DA
100
AcDbEntity
8
Strutlvl2
6
ByLayer
62
256
370
-1
100
AcDbCircle
10
36.0409180073
20
484.436769071
40
0.25
100
AcDbArc
50
330
51
150
0
LINE
5
1DB
100
AcDbEntity
8
Strutlvl2
6
ByLayer
62
256
370
-1
100
AcDbLine
10
35.5872723667
20
485.276031773
11
36.5872723667
21
487.00808258
0
LINE
5
1DC
100
AcDbEntity
8
Strutlvl2
6
ByLayer
62
256
370
-1
100
AcDbLine
10
36.9945636478
20
484.463531773
11
37.9945636478
21
486.19558258
0
LINE
5
1DD
100
AcDbEntity
8
Strutlvl2
6
ByLayer
62
256
370
-1
100
AcDbLine
10
36.8244116563
20
486.293819879
11
36.3244116563
21
485.427794475
0
LINE
5
1DE
100
AcDbEntity
8
Strutlvl2
6
ByLayer
62
256
370
-1
100
AcDbLine
10
36.7574243582
20
485.177794475
11
37.2574243582
21
486.043819879
0
ARC
5
1DF
100
AcDbEntity
8
Strutlvl2
6
ByLayer
62
256
370
-1
100
AcDbCircle
10
36.5409180073
20
485.302794475
40
0.25
100
AcDbArc
50
150
51
330
0
ARC
5
1E0
100
AcDbEntity
8
Strutlvl2
6
ByLayer
62
256
370
-1
100
AcDbCircle
10
37.0409180073
20
486.168819879
40
0.25
100
AcDbArc
50
330
51
150
0
LINE
5
1E1
100
AcDbEntity
8
Strutlvl2
6
ByLayer
62
256
370
-1
100
AcDbLine
10
24.9945636478
20
439.430210776
11
26.9945636478
21
439.430210776
0
LINE
5
1E2
100
AcDbEntity
8
Strutlvl2
6
ByLayer
62
256
370
-1
100
AcDbLine
10
24.9945636478
20
437.805210776
11
26.9945636478
21
437.805210776
0
LINE
5
1E3
100
AcDbEntity
8
Strutlvl2
6
ByLayer
62
256
370
-1
100
AcDbLine
10
26.4945636478
20
438.867710776
11
25.4945636478
21
438.867710776
0
LINE
5
1E4
100
AcDbEntity
8
Strutlvl2
6
ByLayer
62
256
370
-1
100
AcDbLine
10
25.4945636478
20
438.367710776
11
26.4945636478
21
438.367710776
0
ARC
5
1E5
100
AcDbEntity
8
Strutlvl2
6
ByLayer
62
256
370
-1
100
AcDbCircle
10
25.4945636478
20
438.617710776
40
0.25
100
AcDbArc
50
90
51
270
0
ARC
5
1E6
100
AcDbEntity
8
Strutlvl2
6
ByLayer
62
256
370
-1
100
AcDbCircle
10
26.4945636478
20
438.617710776
40
0.25
100
AcDbArc
50
270
51
90
0
LINE
5
1E7
100
AcDbEntity
8
Strutlvl2
6
ByLayer
62
256
370
-1
100
AcDbLine
10
26.9945636478
20
439.430210776
11
28.9945636478
21
439.430210776
0
LINE
5
1E8
100
AcDbEntity
8
Strutlvl2
6
ByLayer
62
256
370
-1
100
AcDbLine
10
26.9945636478
20
437.805210776
11
28.9945636478
21
437.805210776
0
LINE
5
1E9
100
AcDbEntity
8
Strutlvl2
6
ByLayer
62
256
370
-1
100
AcDbLine
10
28.4945636478
20
438.867710776
11
27.4945636478
21
438.867710776
0
LINE
5
1EA
100
AcDbEntity
8
Strutlvl2
6
ByLayer
62
256
370
-1
100
AcDbLine
10
27.4945636478
20
438.367710776
11
28.4945636478
21
438.367710776
0
ARC
5
1EB
100
AcDbEntity
8
Strutlvl2
6
ByLayer
62
256
370
-1
100
AcDbCircle
10
27.4945636478
20
438.617710776
40
0.25
100
AcDbArc
50
90
51
270
0
ARC
5
1EC
100
AcDbEntity
8
Strutlvl2
6
ByLayer
62
256
370
-1
100
AcDbCircle
10
28.4945636478
20
438.617710776
40
0.25
100
AcDbArc
50
270
51
90
0
LINE
5
1ED
100
AcDbEntity
8
Strutlvl2
6
ByLayer
62
256
370
-1
100
AcDbLine
10
28.9945636478
20
439.430210776
11
30.9945636478
21
439.430210776
0
LINE
5
1EE
100
AcDbEntity
8
Strutlvl2
6
ByLayer
62
256
370
-1
100
AcDbLine
10
28.9945636478
20
437.805210776
11
30.9945636478
21
437.805210776
0
LINE
5
1EF
100
AcDbEntity
8
Strutlvl2
6
ByLayer
62
256
370
-1
100
AcDbLine
10
30.4945636478
20
438.867710776
11
29.4945636478
21
438.867710776
0
LINE
5
1F0
100
AcDbEntity
8
Strutlvl2
6
ByLayer
62
256
370
-1
100
AcDbLine
10
29.4945636478
20
438.367710776
11
30.4945636478
21
438.367710776
0
ARC
5
1F1
100
AcDbEntity
8
Strutlvl2
6
ByLayer
62
256
370
-1
100
AcDbCircle
10
29.4945636478
20
438.617710776
40
0.25
100
AcDbArc
50
90
51
270
0
ARC
5
1F2
100
AcDbEntity
8
Strutlvl2
6
ByLayer
62
256
370
-1
100
AcDbCircle
10
30.4945636478
20
438.617710776
40
0.25
100
AcDbArc
50
270
51
90
0
LINE
5
1F3
100
AcDbEntity
8
Strutlvl2
6
ByLayer
62
256
370
-1
100
AcDbLine
10
30.9945636478
20
439.430210776
11
32.9945636478
21
439.430210776
0
LINE
5
1F4
100
AcDbEntity
8
Strutlvl2
6
ByLayer
62
256
370
-1
100
AcDbLine
10
30.9945636478
20
437.805210776
11
32.9945636478
21
437.805210776
0
LINE
5
1F5
100
AcDbEntity
8
Strutlvl2
6
ByLayer
62
256
370
-1
100
AcDbLine
10
32.4945636478
20
438.867710776
11
31.4945636478
21
438.867710776
0
LINE
5
1F6
100
AcDbEntity
8
Strutlvl2
6
ByLayer
62
256
370
-1
100
AcDbLine
10
31.4945636478
20
438.367710776
11
32.4945636478
21
438.367710776
0
ARC
5
1F7
100
AcDbEntity
8
Strutlvl2
6
ByLayer
62
256
370
-1
100
AcDbCircle
10
31.4945636478
20
438.617710776
40
0.25
100
AcDbArc
50
90
51
270
0
ARC
5
1F8
100
AcDbEntity
8
Strutlvl2
6
ByLayer
62
256
370
-1
100
AcDbCircle
10
32.4945636478
20
438.617710776
40
0.25
100
AcDbArc
50
270
51
90
0
LINE
5
1F9
100
AcDbEntity
8
Strutlvl2
6
ByLayer
62
256
370
-1
100
AcDbLine
10
32.9945636478
20
439.430210776
11
34.9945636478
21
439.430210776
0
LINE
5
1FA
100
AcDbEntity
8
Strutlvl2
6
ByLayer
62
256
370
-1
100
AcDbLine
10
32.9945636478
20
437.805210776
11
34.9945636478
21
437.805210776
0
LINE
5
1FB
100
AcDbEntity
8
Strutlvl2
6
ByLayer
62
256
370
-1
100
AcDbLine
10
34.4945636478
20
438.867710776
11
33.4945636478
21
438.867710776
0
LINE
5
1FC
100
AcDbEntity
8
Strutlvl2
6
ByLayer
62
256
370
-1
100
AcDbLine
10
33.4945636478
20
438.367710776
11
34.4945636478
21
438.367710776
0
ARC
5
1FD
100
AcDbEntity
8
Strutlvl2
6
ByLayer
62
256
370
-1
100
AcDbCircle
10
33.4945636478
20
438.617710776
40
0.25
100
AcDbArc
50
90
51
270
0
ARC
5
1FE
100
AcDbEntity
8
Strutlvl2
6
ByLayer
62
256
370
-1
100
AcDbCircle
10
34.4945636478
20
438.617710776
40
0.25
100
AcDbArc
50
270
51
90
0
LINE
5
1FF
100
AcDbEntity
8
Strutlvl2
6
ByLayer
62
256
370
-1
100
AcDbLine
10
34.9945636478
20
439.430210776
11
36.9945636478
21
439.430210776
0
LINE
5
200
100
AcDbEntity
8
Strutlvl2
6
ByLayer
62
256
370
-1
100
AcDbLine
10
34.9945636478
20
437.805210776
11
36.9945636478
21
437.805210776
0
LINE
5
201
100
AcDbEntity
8
Strutlvl2
6
ByLayer
62
256
370
-1
100
AcDbLine
10
36.4945636478
20
438.867710776
11
35.4945636478
21
438.867710776
0
LINE
5
202
100
AcDbEntity
8
Strutlvl2
6
ByLayer
62
256
370
-1
100
AcDbLine
10
35.4945636478
20
438.367710776
11
36.4945636478
21
438.367710776
0
ARC
5
203
100
AcDbEntity
8
Strutlvl2
6
ByLayer
62
256
370
-1
100
AcDbCircle
10
35.4945636478
20
438.617710776
40
0.25
100
AcDbArc
50
90
51
270
0
ARC
5
204
100
AcDbEntity
8
Strutlvl2
6
ByLayer
62
256
370
-1
100
AcDbCircle
10
36.4945636478
20
438.617710776
40
0.25
100
AcDbArc
50
270
51
90
0
LINE
5
205
100
AcDbEntity
8
Strutlvl2
6
ByLayer
62
256
370
-1
100
AcDbLine
10
36.9945636478
20
439.430210776
11
38.9945636478
21
439.430210776
0
LINE
5
206
100
AcDbEntity
8
Strutlvl2
6
ByLayer
62
256
370
-1
100
AcDbLine
10
36.9945636478
20
437.805210776
11
38.9945636478
21
437.805210776
0
LINE
5
207
100
AcDbEntity
8
Strutlvl2
6
ByLayer
62
256
370
-1
100
AcDbLine
10
38.4945636478
20
438.867710776
11
37.4945636478
21
438.867710776
0
LINE
5
208
100
AcDbEntity
8
Strutlvl2
6
ByLayer
62
256
370
-1
100
AcDbLine
10
37.4945636478
20
438.367710776
11
38.4945636478
21
438.367710776
0
ARC
5
209
100
AcDbEntity
8
Strutlvl2
6
ByLayer
62
256
370
-1
100
AcDbCircle
10
37.4945636478
20
438.617710776
40
0.25
100
AcDbArc
50
90
51
270
0
ARC
5
20A
100
AcDbEntity
8
Strutlvl2
6
ByLayer
62
256
370
-1
100
AcDbCircle
10
38.4945636478
20
438.617710776
40
0.25
100
AcDbArc
50
270
51
90
0
LINE
5
20B
100
AcDbEntity
8
Strutlvl2
6
ByLayer
62
256
370
-1
100
AcDbLine
10
38.9945636478
20
439.430210776
11
40.9945636478
21
439.430210776
0
LINE
5
20C
100
AcDbEntity
8
Strutlvl2
6
ByLayer
62
256
370
-1
100
AcDbLine
10
38.9945636478
20
437.805210776
11
40.9945636478
21
437.805210776
0
LINE
5
20D
100
AcDbEntity
8
Strutlvl2
6
ByLayer
62
256
370
-1
100
AcDbLine
10
40.4945636478
20
438.867710776
11
39.4945636478
21
438.867710776
0
LINE
5
20E
100
AcDbEntity
8
Strutlvl2
6
ByLayer
62
256
370
-1
100
AcDbLine
10
39.4945636478
20
438.367710776
11
40.4945636478
21
438.367710776
0
ARC
5
20F
100
AcDbEntity
8
Strutlvl2
6
ByLayer
62
256
370
-1
100
AcDbCircle
10
39.4945636478
20
438.617710776
40
0.25
100
AcDbArc
50
90
51
270
0
ARC
5
210
100
AcDbEntity
8
Strutlvl2
6
ByLayer
62
256
370
-1
100
AcDbCircle
10
40.4945636478
20
438.617710776
40
0.25
100
AcDbArc
50
270
51
90
0
LINE
5
211
100
AcDbEntity
8
Strutlvl2
6
ByLayer
62
256
370
-1
100
AcDbLine
10
40.9945636478
20
439.430210776
11
42.9945636478
21
439.430210776
0
LINE
5
212
100
AcDbEntity
8
Strutlvl2
6
ByLayer
62
256
370
-1
100
AcDbLine
10
40.9945636478
20
437.805210776
11
42.9945636478
21
437.805210776
0
LINE
5
213
100
AcDbEntity
8
Strutlvl2
6
ByLayer
62
256
370
-1
100
AcDbLine
10
42.4945636478
20
438.867710776
11
41.4945636478
21
438.867710776
0
LINE
5
214
100
AcDbEntity
8
Strutlvl2
6
ByLayer
62
256
370
-1
100
AcDbLine
10
41.4945636478
20
438.367710776
11
42.4945636478
21
438.367710776
0
ARC
5
215
100
AcDbEntity
8
Strutlvl2
6
ByLayer
62
256
370
-1
100
AcDbCircle
10
41.4945636478
20
438.617710776
40
0.25
100
AcDbArc
50
90
51
270
0
ARC
5
216
100
AcDbEntity
8
Strutlvl2
6
ByLayer
62
256
370
-1
100
AcDbCircle
10
42.4945636478
20
438.617710776
40
0.25
100
AcDbArc
50
270
51
90
0
LINE
5
217
100
AcDbEntity
8
Strutlvl2
6
ByLayer
62
256
370
-1
100
AcDbLine
10
42.9945636478
20
439.430210776
11
44.9945636478
21
439.430210776
0
LINE
5
218
100
AcDbEntity
8
Strutlvl2
6
ByLayer
62
256
370
-1
100
AcDbLine
10
42.9945636478
20
437.805210776
11
44.9945636478
21
437.805210776
0
LINE
5
219
100
AcDbEntity
8
Strutlvl2
6
ByLayer
62
256
370
-1
100
AcDbLine
10
44.4945636478
20
438.867710776
11
43.4945636478
21
438.867710776
0
LINE
5
21A
100
AcDbEntity
8
Strutlvl2
6
ByLayer
62
256
370
-1
100
AcDbLine
10
43.4945636478
20
438.367710776
11
44.4945636478
21
438.367710776
0
ARC
5
21B
100
AcDbEntity
8
Strutlvl2
6
ByLayer
62
256
370
-1
100
AcDbCircle
10
43.4945636478
20
438.617710776
40
0.25
100
AcDbArc
50
90
51
270
0
ARC
5
21C
100
AcDbEntity
8
Strutlvl2
6
ByLayer
62
256
370
-1
100
AcDbCircle
10
44.4945636478
20
438.617710776
40
0.25
100
AcDbArc
50
270
51
90
0
LINE
5
21D
100
AcDbEntity
8
Strutlvl2
6
ByLayer
62
256
370
-1
100
AcDbLine
10
44.9945636478
20
439.430210776
11
46.9945636478
21
439.430210776
0
LINE
5
21E
100
AcDbEntity
8
Strutlvl2
6
ByLayer
62
256
370
-1
100
AcDbLine
10
44.9945636478
20
437.805210776
11
46.9945636478
21
437.805210776
0
LINE
5
21F
100
AcDbEntity
8
Strutlvl2
6
ByLayer
62
256
370
-1
100
AcDbLine
10
46.4945636478
20
438.867710776
11
45.4945636478
21
438.867710776
0
LINE
5
220
100
AcDbEntity
8
Strutlvl2
6
ByLayer
62
256
370
-1
100
AcDbLine
10
45.4945636478
20
438.367710776
11
46.4945636478
21
438.367710776
0
ARC
5
221
100
AcDbEntity
8
Strutlvl2
6
ByLayer
62
256
370
-1
100
AcDbCircle
10
45.4945636478
20
438.617710776
40
0.25
100
AcDbArc
50
90
51
270
0
ARC
5
222
100
AcDbEntity
8
Strutlvl2
6
ByLayer
62
256
370
-1
100
AcDbCircle
10
46.4945636478
20
438.617710776
40
0.25
100
AcDbArc
50
270
51
90
0
LINE
5
223
100
AcDbEntity
8
Strutlvl2
6
ByLayer
62
256
370
-1
100
AcDbLine
10
46.9945636478
20
439.430210776
11
48.9945636478
21
439.430210776
0
LINE
5
224
100
AcDbEntity
8
Strutlvl2
6
ByLayer
62
256
370
-1
100
AcDbLine
10
46.9945636478
20
437.805210776
11
48.9945636478
21
437.805210776
0
LINE
5
225
100
AcDbEntity
8
Strutlvl2
6
ByLayer
62
256
370
-1
100
AcDbLine
10
48.4945636478
20
438.867710776
11
47.4945636478
21
438.867710776
0
LINE
5
226
100
AcDbEntity
8
Strutlvl2
6
ByLayer
62
256
370
-1
100
AcDbLine
10
47.4945636478
20
438.367710776
11
48.4945636478
21
438.367710776
0
ARC
5
227
100
AcDbEntity
8
Strutlvl2
6
ByLayer
62
256
370
-1
100
AcDbCircle
10
47.4945636478
20
438.617710776
40
0.25
100
AcDbArc
50
90
51
270
0
ARC
5
228
100
AcDbEntity
8
Strutlvl2
6
ByLayer
62
256
370
-1
100
AcDbCircle
10
48.4945636478
20
438.617710776
40
0.25
100
AcDbArc
50
270
51
90
0
LINE
5
229
100
AcDbEntity
8
Strutlvl2
6
ByLayer
62
256
370
-1
100
AcDbLine
10
48.9945636478
20
439.430210776
11
50.9945636478
21
439.430210776
0
LINE
5
22A
100
AcDbEntity
8
Strutlvl2
6
ByLayer
62
256
370
-1
100
AcDbLine
10
48.9945636478
20
437.805210776
11
50.9945636478
21
437.805210776
0
LINE
5
22B
100
AcDbEntity
8
Strutlvl2
6
ByLayer
62
256
370
-1
100
AcDbLine
10
50.4945636478
20
438.867710776
11
49.4945636478
21
438.867710776
0
LINE
5
22C
100
AcDbEntity
8
Strutlvl2
6
ByLayer
62
256
370
-1
100
AcDbLine
10
49.4945636478
20
438.367710776
11
50.4945636478
21
438.367710776
0
ARC
5
22D
100
AcDbEntity
8
Strutlvl2
6
ByLayer
62
256
370
-1
100
AcDbCircle
10
49.4945636478
20
438.617710776
40
0.25
100
AcDbArc
50
90
51
270
0
ARC
5
22E
100
AcDbEntity
8
Strutlvl2
6
ByLayer
62
256
370
-1
100
AcDbCircle
10
50.4945636478
20
438.617710776
40
0.25
100
AcDbArc
50
270
51
90
0
LINE
5
22F
100
AcDbEntity
8
Strutlvl2
6
ByLayer
62
256
370
-1
100
AcDbLine
10
50.9945636478
20
439.430210776
11
52.9945636478
21
439.430210776
0
LINE
5
230
100
AcDbEntity
8
Strutlvl2
6
ByLayer
62
256
370
-1
100
AcDbLine
10
50.9945636478
20
437.805210776
11
52.9945636478
21
437.805210776
0
LINE
5
231
100
AcDbEntity
8
Strutlvl2
6
ByLayer
62
256
370
-1
100
AcDbLine
10
52.4945636478
20
438.867710776
11
51.4945636478
21
438.867710776
0
LINE
5
232
100
AcDbEntity
8
Strutlvl2
6
ByLayer
62
256
370
-1
100
AcDbLine
10
51.4945636478
20
438.367710776
11
52.4945636478
21
438.367710776
0
ARC
5
233
100
AcDbEntity
8
Strutlvl2
6
ByLayer
62
256
370
-1
100
AcDbCircle
10
51.4945636478
20
438.617710776
40
0.25
100
AcDbArc
50
90
51
270
0
ARC
5
234
100
AcDbEntity
8
Strutlvl2
6
ByLayer
62
256
370
-1
100
AcDbCircle
10
52.4945636478
20
438.617710776
40
0.25
100
AcDbArc
50
270
51
90
0
LINE
5
235
100
AcDbEntity
8
Strutlvl2
6
ByLayer
62
256
370
-1
100
AcDbLine
10
52.9945636478
20
439.430210776
11
54.9945636478
21
439.430210776
0
LINE
5
236
100
AcDbEntity
8
Strutlvl2
6
ByLayer
62
256
370
-1
100
AcDbLine
10
52.9945636478
20
437.805210776
11
54.9945636478
21
437.805210776
0
LINE
5
237
100
AcDbEntity
8
Strutlvl2
6
ByLayer
62
256
370
-1
100
AcDbLine
10
54.4945636478
20
438.867710776
11
53.4945636478
21
438.867710776
0
LINE
5
238
100
AcDbEntity
8
Strutlvl2
6
ByLayer
62
256
370
-1
100
AcDbLine
10
53.4945636478
20
438.367710776
11
54.4945636478
21
438.367710776
0
ARC
5
239
100
AcDbEntity
8
Strutlvl2
6
ByLayer
62
256
370
-1
100
AcDbCircle
10
53.4945636478
20
438.617710776
40
0.25
100
AcDbArc
50
90
51
270
0
ARC
5
23A
100
AcDbEntity
8
Strutlvl2
6
ByLayer
62
256
370
-1
100
AcDbCircle
10
54.4945636478
20
438.617710776
40
0.25
100
AcDbArc
50
270
51
90
0
LINE
5
23B
100
AcDbEntity
8
Strutlvl2
6
ByLayer
62
256
370
-1
100
AcDbLine
10
54.9945636478
20
439.430210776
11
56.9945636478
21
439.430210776
0
LINE
5
23C
100
AcDbEntity
8
Strutlvl2
6
ByLayer
62
256
370
-1
100
AcDbLine
10
54.9945636478
20
437.805210776
11
56.9945636478
21
437.805210776
0
LINE
5
23D
100
AcDbEntity
8
Strutlvl2
6
ByLayer
62
256
370
-1
100
AcDbLine
10
56.4945636478
20
438.867710776
11
55.4945636478
21
438.867710776
0
LINE
5
23E
100
AcDbEntity
8
Strutlvl2
6
ByLayer
62
256
370
-1
100
AcDbLine
10
55.4945636478
20
438.367710776
11
56.4945636478
21
438.367710776
0
ARC
5
23F
100
AcDbEntity
8
Strutlvl2
6
ByLayer
62
256
370
-1
100
AcDbCircle
10
55.4945636478
20
438.617710776
40
0.25
100
AcDbArc
50
90
51
270
0
ARC
5
240
100
AcDbEntity
8
Strutlvl2
6
ByLayer
62
256
370
-1
100
AcDbCircle
10
56.4945636478
20
438.617710776
40
0.25
100
AcDbArc
50
270
51
90
0
LINE
5
241
100
AcDbEntity
8
Strutlvl2
6
ByLayer
62
256
370
-1
100
AcDbLine
10
56.9945636478
20
439.430210776
11
58.9945636478
21
439.430210776
0
LINE
5
242
100
AcDbEntity
8
Strutlvl2
6
ByLayer
62
256
370
-1
100
AcDbLine
10
56.9945636478
20
437.805210776
11
58.9945636478
21
437.805210776
0
LINE
5
243
100
AcDbEntity
8
Strutlvl2
6
ByLayer
62
256
370
-1
100
AcDbLine
10
58.4945636478
20
438.867710776
11
57.4945636478
21
438.867710776
0
LINE
5
244
100
AcDbEntity
8
Strutlvl2
6
ByLayer
62
256
370
-1
100
AcDbLine
10
57.4945636478
20
438.367710776
11
58.4945636478
21
438.367710776
0
ARC
5
245
100
AcDbEntity
8
Strutlvl2
6
ByLayer
62
256
370
-1
100
AcDbCircle
10
57.4945636478
20
438.617710776
40
0.25
100
AcDbArc
50
90
51
270
0
ARC
5
246
100
AcDbEntity
8
Strutlvl2
6
ByLayer
62
256
370
-1
100
AcDbCircle
10
58.4945636478
20
438.617710776
40
0.25
100
AcDbArc
50
270
51
90
0
LINE
5
247
100
AcDbEntity
8
Strutlvl2
6
ByLayer
62
256
370
-1
100
AcDbLine
10
58.9945636478
20
439.430210776
11
60.9945636478
21
439.430210776
0
LINE
5
248
100
AcDbEntity
8
Strutlvl2
6
ByLayer
62
256
370
-1
100
AcDbLine
10
58.9945636478
20
437.805210776
11
60.9945636478
21
437.805210776
0
LINE
5
249
100
AcDbEntity
8
Strutlvl2
6
ByLayer
62
256
370
-1
100
AcDbLine
10
60.4945636478
20
438.867710776
11
59.4945636478
21
438.867710776
0
LINE
5
24A
100
AcDbEntity
8
Strutlvl2
6
ByLayer
62
256
370
-1
100
AcDbLine
10
59.4945636478
20
438.367710776
11
60.4945636478
21
438.367710776
0
ARC
5
24B
100
AcDbEntity
8
Strutlvl2
6
ByLayer
62
256
370
-1
100
AcDbCircle
10
59.4945636478
20
438.617710776
40
0.25
100
AcDbArc
50
90
51
270
0
ARC
5
24C
100
AcDbEntity
8
Strutlvl2
6
ByLayer
62
256
370
-1
100
AcDbCircle
10
60.4945636478
20
438.617710776
40
0.25
100
AcDbArc
50
270
51
90
0
LINE
5
24D
100
AcDbEntity
8
Strutlvl2
6
ByLayer
62
256
370
-1
100
AcDbLine
10
60.9945636478
20
439.430210776
11
62.9945636478
21
439.430210776
0
LINE
5
24E
100
AcDbEntity
8
Strutlvl2
6
ByLayer
62
256
370
-1
100
AcDbLine
10
60.9945636478
20
437.805210776
11
62.9945636478
21
437.805210776
0
LINE
5
24F
100
AcDbEntity
8
Strutlvl2
6
ByLayer
62
256
370
-1
100
AcDbLine
10
62.4945636478
20
438.867710776
11
61.4945636478
21
438.867710776
0
LINE
5
250
100
AcDbEntity
8
Strutlvl2
6
ByLayer
62
256
370
-1
100
AcDbLine
10
61.4945636478
20
438.367710776
11
62.4945636478
21
438.367710776
0
ARC
5
251
100
AcDbEntity
8
Strutlvl2
6
ByLayer
62
256
370
-1
100
AcDbCircle
10
61.4945636478
20
438.617710776
40
0.25
100
AcDbArc
50
90
51
270
0
ARC
5
252
100
AcDbEntity
8
Strutlvl2
6
ByLayer
62
256
370
-1
100
AcDbCircle
10
62.4945636478
20
438.617710776
40
0.25
100
AcDbArc
50
270
51
90
0
LINE
5
253
100
AcDbEntity
8
Strutlvl2
6
ByLayer
62
256
370
-1
100
AcDbLine
10
62.9945636478
20
439.430210776
11
64.9945636478
21
439.430210776
0
LINE
5
254
100
AcDbEntity
8
Strutlvl2
6
ByLayer
62
256
370
-1
100
AcDbLine
10
62.9945636478
20
437.805210776
11
64.9945636478
21
437.805210776
0
LINE
5
255
100
AcDbEntity
8
Strutlvl2
6
ByLayer
62
256
370
-1
100
AcDbLine
10
64.4945636478
20
438.867710776
11
63.4945636478
21
438.867710776
0
LINE
5
256
100
AcDbEntity
8
Strutlvl2
6
ByLayer
62
256
370
-1
100
AcDbLine
10
63.4945636478
20
438.367710776
11
64.4945636478
21
438.367710776
0
ARC
5
257
100
AcDbEntity
8
Strutlvl2
6
ByLayer
62
256
370
-1
100
AcDbCircle
10
63.4945636478
20
438.617710776
40
0.25
100
AcDbArc
50
90
51
270
0
ARC
5
258
100
AcDbEntity
8
Strutlvl2
6
ByLayer
62
256
370
-1
100
AcDbCircle
10
64.4945636478
20
438.617710776
40
0.25
100
AcDbArc
50
270
51
90
0
DIMENSION
5
259
100
AcDbEntity
8
PVCcenter
6
ByLayer
62
256
370
-1
100
AcDbDimension
10
27.9012351366
20
492.022968513
30
0
11
12.8856906799
21
469.515282611
31
0
70
33
71
5
72
0
3
Standard
53
0
210
0
220
0
230
1
100
AcDbAlignedDimension
13
9.58727236669
23
440.242710776
33
0
14
36.5872723667
24
487.00808258
34
0
0
ENDSEC
0
SECTION
2
OBJECTS
0
DICTIONARY
5
C
330
0
100
AcDbDictionary
281
1
3
ACAD_GROUP
350
D
0
DICTIONARY
5
D
330
C
100
AcDbDictionary
281
1
0
ENDSEC
0
EOF
