G04 MADE WITH FRITZING*
G04 WWW.FRITZING.ORG*
G04 DOUBLE SIDED*
G04 HOLES PLATED*
G04 CONTOUR ON CENTER OF CONTOUR VECTOR*
%ASAXBY*%
%FSLAX23Y23*%
%MOIN*%
%OFA0B0*%
%SFA1.0B1.0*%
%ADD10C,0.010000*%
%ADD11C,0.005000*%
%ADD12R,0.001000X0.001000*%
%LNSILK1*%
G90*
G70*
G54D10*
X1350Y570D02*
X1350Y670D01*
D02*
X1350Y670D02*
X1150Y670D01*
D02*
X1150Y670D02*
X1150Y570D01*
D02*
X1850Y470D02*
X1250Y470D01*
D02*
X1250Y470D02*
X1250Y270D01*
D02*
X1250Y270D02*
X1850Y270D01*
D02*
X1850Y270D02*
X1850Y470D01*
G54D11*
D02*
X1815Y470D02*
X1850Y435D01*
G54D10*
D02*
X1250Y770D02*
X1850Y770D01*
D02*
X1850Y770D02*
X1850Y970D01*
D02*
X1850Y970D02*
X1250Y970D01*
D02*
X1250Y970D02*
X1250Y770D01*
G54D11*
D02*
X1285Y770D02*
X1250Y805D01*
G54D10*
D02*
X1850Y570D02*
X1250Y570D01*
D02*
X1250Y570D02*
X1250Y470D01*
D02*
X1250Y470D02*
X1850Y470D01*
D02*
X1850Y470D02*
X1850Y570D01*
G54D11*
D02*
X1815Y570D02*
X1850Y535D01*
G54D10*
D02*
X1250Y670D02*
X1850Y670D01*
D02*
X1850Y670D02*
X1850Y770D01*
D02*
X1850Y770D02*
X1250Y770D01*
D02*
X1250Y770D02*
X1250Y670D01*
G54D11*
D02*
X1285Y670D02*
X1250Y705D01*
G54D10*
D02*
X950Y1070D02*
X950Y170D01*
D02*
X950Y170D02*
X1050Y170D01*
D02*
X1050Y170D02*
X1050Y1070D01*
D02*
X1050Y1070D02*
X950Y1070D01*
G54D11*
D02*
X950Y1035D02*
X985Y1070D01*
G54D10*
D02*
X1050Y1070D02*
X1050Y170D01*
D02*
X1050Y170D02*
X1150Y170D01*
D02*
X1150Y1070D02*
X1050Y1070D01*
G54D11*
D02*
X1050Y1035D02*
X1085Y1070D01*
G54D10*
D02*
X1147Y74D02*
X1247Y74D01*
G54D11*
D02*
X1247Y109D02*
X1212Y74D01*
G54D12*
X0Y1220D02*
X1967Y1220D01*
X0Y1219D02*
X1967Y1219D01*
X0Y1218D02*
X1967Y1218D01*
X0Y1217D02*
X1967Y1217D01*
X0Y1216D02*
X1967Y1216D01*
X0Y1215D02*
X1967Y1215D01*
X0Y1214D02*
X1967Y1214D01*
X0Y1213D02*
X1967Y1213D01*
X0Y1212D02*
X7Y1212D01*
X1960Y1212D02*
X1967Y1212D01*
X0Y1211D02*
X7Y1211D01*
X1960Y1211D02*
X1967Y1211D01*
X0Y1210D02*
X7Y1210D01*
X1960Y1210D02*
X1967Y1210D01*
X0Y1209D02*
X7Y1209D01*
X1960Y1209D02*
X1967Y1209D01*
X0Y1208D02*
X7Y1208D01*
X1960Y1208D02*
X1967Y1208D01*
X0Y1207D02*
X7Y1207D01*
X1960Y1207D02*
X1967Y1207D01*
X0Y1206D02*
X7Y1206D01*
X1960Y1206D02*
X1967Y1206D01*
X0Y1205D02*
X7Y1205D01*
X1960Y1205D02*
X1967Y1205D01*
X0Y1204D02*
X7Y1204D01*
X1960Y1204D02*
X1967Y1204D01*
X0Y1203D02*
X7Y1203D01*
X1960Y1203D02*
X1967Y1203D01*
X0Y1202D02*
X7Y1202D01*
X1960Y1202D02*
X1967Y1202D01*
X0Y1201D02*
X7Y1201D01*
X1960Y1201D02*
X1967Y1201D01*
X0Y1200D02*
X7Y1200D01*
X1960Y1200D02*
X1967Y1200D01*
X0Y1199D02*
X7Y1199D01*
X1960Y1199D02*
X1967Y1199D01*
X0Y1198D02*
X7Y1198D01*
X1960Y1198D02*
X1967Y1198D01*
X0Y1197D02*
X7Y1197D01*
X1960Y1197D02*
X1967Y1197D01*
X0Y1196D02*
X7Y1196D01*
X1960Y1196D02*
X1967Y1196D01*
X0Y1195D02*
X7Y1195D01*
X1960Y1195D02*
X1967Y1195D01*
X0Y1194D02*
X7Y1194D01*
X1960Y1194D02*
X1967Y1194D01*
X0Y1193D02*
X7Y1193D01*
X1960Y1193D02*
X1967Y1193D01*
X0Y1192D02*
X7Y1192D01*
X1960Y1192D02*
X1967Y1192D01*
X0Y1191D02*
X7Y1191D01*
X1960Y1191D02*
X1967Y1191D01*
X0Y1190D02*
X7Y1190D01*
X1960Y1190D02*
X1967Y1190D01*
X0Y1189D02*
X7Y1189D01*
X1960Y1189D02*
X1967Y1189D01*
X0Y1188D02*
X7Y1188D01*
X1960Y1188D02*
X1967Y1188D01*
X0Y1187D02*
X7Y1187D01*
X1960Y1187D02*
X1967Y1187D01*
X0Y1186D02*
X7Y1186D01*
X1960Y1186D02*
X1967Y1186D01*
X0Y1185D02*
X7Y1185D01*
X1960Y1185D02*
X1967Y1185D01*
X0Y1184D02*
X7Y1184D01*
X1960Y1184D02*
X1967Y1184D01*
X0Y1183D02*
X7Y1183D01*
X1960Y1183D02*
X1967Y1183D01*
X0Y1182D02*
X7Y1182D01*
X1960Y1182D02*
X1967Y1182D01*
X0Y1181D02*
X7Y1181D01*
X1960Y1181D02*
X1967Y1181D01*
X0Y1180D02*
X7Y1180D01*
X1960Y1180D02*
X1967Y1180D01*
X0Y1179D02*
X7Y1179D01*
X1960Y1179D02*
X1967Y1179D01*
X0Y1178D02*
X7Y1178D01*
X1960Y1178D02*
X1967Y1178D01*
X0Y1177D02*
X7Y1177D01*
X1960Y1177D02*
X1967Y1177D01*
X0Y1176D02*
X7Y1176D01*
X1960Y1176D02*
X1967Y1176D01*
X0Y1175D02*
X7Y1175D01*
X1960Y1175D02*
X1967Y1175D01*
X0Y1174D02*
X7Y1174D01*
X1960Y1174D02*
X1967Y1174D01*
X0Y1173D02*
X7Y1173D01*
X1960Y1173D02*
X1967Y1173D01*
X0Y1172D02*
X7Y1172D01*
X1960Y1172D02*
X1967Y1172D01*
X0Y1171D02*
X7Y1171D01*
X1960Y1171D02*
X1967Y1171D01*
X0Y1170D02*
X7Y1170D01*
X1960Y1170D02*
X1967Y1170D01*
X0Y1169D02*
X7Y1169D01*
X1960Y1169D02*
X1967Y1169D01*
X0Y1168D02*
X7Y1168D01*
X1960Y1168D02*
X1967Y1168D01*
X0Y1167D02*
X7Y1167D01*
X1960Y1167D02*
X1967Y1167D01*
X0Y1166D02*
X7Y1166D01*
X1960Y1166D02*
X1967Y1166D01*
X0Y1165D02*
X7Y1165D01*
X1960Y1165D02*
X1967Y1165D01*
X0Y1164D02*
X7Y1164D01*
X1960Y1164D02*
X1967Y1164D01*
X0Y1163D02*
X7Y1163D01*
X1960Y1163D02*
X1967Y1163D01*
X0Y1162D02*
X7Y1162D01*
X1960Y1162D02*
X1967Y1162D01*
X0Y1161D02*
X7Y1161D01*
X1960Y1161D02*
X1967Y1161D01*
X0Y1160D02*
X7Y1160D01*
X1960Y1160D02*
X1967Y1160D01*
X0Y1159D02*
X7Y1159D01*
X1960Y1159D02*
X1967Y1159D01*
X0Y1158D02*
X7Y1158D01*
X1960Y1158D02*
X1967Y1158D01*
X0Y1157D02*
X7Y1157D01*
X1960Y1157D02*
X1967Y1157D01*
X0Y1156D02*
X7Y1156D01*
X1960Y1156D02*
X1967Y1156D01*
X0Y1155D02*
X7Y1155D01*
X1960Y1155D02*
X1967Y1155D01*
X0Y1154D02*
X7Y1154D01*
X1960Y1154D02*
X1967Y1154D01*
X0Y1153D02*
X7Y1153D01*
X1960Y1153D02*
X1967Y1153D01*
X0Y1152D02*
X7Y1152D01*
X1960Y1152D02*
X1967Y1152D01*
X0Y1151D02*
X7Y1151D01*
X1960Y1151D02*
X1967Y1151D01*
X0Y1150D02*
X7Y1150D01*
X1960Y1150D02*
X1967Y1150D01*
X0Y1149D02*
X7Y1149D01*
X1960Y1149D02*
X1967Y1149D01*
X0Y1148D02*
X7Y1148D01*
X1960Y1148D02*
X1967Y1148D01*
X0Y1147D02*
X7Y1147D01*
X1960Y1147D02*
X1967Y1147D01*
X0Y1146D02*
X7Y1146D01*
X1960Y1146D02*
X1967Y1146D01*
X0Y1145D02*
X7Y1145D01*
X1960Y1145D02*
X1967Y1145D01*
X0Y1144D02*
X7Y1144D01*
X1960Y1144D02*
X1967Y1144D01*
X0Y1143D02*
X7Y1143D01*
X1960Y1143D02*
X1967Y1143D01*
X0Y1142D02*
X7Y1142D01*
X1960Y1142D02*
X1967Y1142D01*
X0Y1141D02*
X7Y1141D01*
X1960Y1141D02*
X1967Y1141D01*
X0Y1140D02*
X7Y1140D01*
X1960Y1140D02*
X1967Y1140D01*
X0Y1139D02*
X7Y1139D01*
X1960Y1139D02*
X1967Y1139D01*
X0Y1138D02*
X7Y1138D01*
X1960Y1138D02*
X1967Y1138D01*
X0Y1137D02*
X7Y1137D01*
X1960Y1137D02*
X1967Y1137D01*
X0Y1136D02*
X7Y1136D01*
X1960Y1136D02*
X1967Y1136D01*
X0Y1135D02*
X7Y1135D01*
X1960Y1135D02*
X1967Y1135D01*
X0Y1134D02*
X7Y1134D01*
X1960Y1134D02*
X1967Y1134D01*
X0Y1133D02*
X7Y1133D01*
X1960Y1133D02*
X1967Y1133D01*
X0Y1132D02*
X7Y1132D01*
X1960Y1132D02*
X1967Y1132D01*
X0Y1131D02*
X7Y1131D01*
X1960Y1131D02*
X1967Y1131D01*
X0Y1130D02*
X7Y1130D01*
X1960Y1130D02*
X1967Y1130D01*
X0Y1129D02*
X7Y1129D01*
X1960Y1129D02*
X1967Y1129D01*
X0Y1128D02*
X7Y1128D01*
X1960Y1128D02*
X1967Y1128D01*
X0Y1127D02*
X7Y1127D01*
X1960Y1127D02*
X1967Y1127D01*
X0Y1126D02*
X7Y1126D01*
X1960Y1126D02*
X1967Y1126D01*
X0Y1125D02*
X7Y1125D01*
X1960Y1125D02*
X1967Y1125D01*
X0Y1124D02*
X7Y1124D01*
X1960Y1124D02*
X1967Y1124D01*
X0Y1123D02*
X7Y1123D01*
X1960Y1123D02*
X1967Y1123D01*
X0Y1122D02*
X7Y1122D01*
X1960Y1122D02*
X1967Y1122D01*
X0Y1121D02*
X7Y1121D01*
X1960Y1121D02*
X1967Y1121D01*
X0Y1120D02*
X7Y1120D01*
X1960Y1120D02*
X1967Y1120D01*
X0Y1119D02*
X7Y1119D01*
X949Y1119D02*
X965Y1119D01*
X1960Y1119D02*
X1967Y1119D01*
X0Y1118D02*
X7Y1118D01*
X949Y1118D02*
X967Y1118D01*
X1063Y1118D02*
X1065Y1118D01*
X1177Y1118D02*
X1186Y1118D01*
X1960Y1118D02*
X1967Y1118D01*
X0Y1117D02*
X7Y1117D01*
X949Y1117D02*
X968Y1117D01*
X1014Y1117D02*
X1016Y1117D01*
X1062Y1117D02*
X1066Y1117D01*
X1177Y1117D02*
X1186Y1117D01*
X1960Y1117D02*
X1967Y1117D01*
X0Y1116D02*
X7Y1116D01*
X949Y1116D02*
X968Y1116D01*
X1014Y1116D02*
X1017Y1116D01*
X1062Y1116D02*
X1066Y1116D01*
X1177Y1116D02*
X1186Y1116D01*
X1960Y1116D02*
X1967Y1116D01*
X0Y1115D02*
X7Y1115D01*
X949Y1115D02*
X953Y1115D01*
X965Y1115D02*
X969Y1115D01*
X1014Y1115D02*
X1017Y1115D01*
X1062Y1115D02*
X1066Y1115D01*
X1178Y1115D02*
X1186Y1115D01*
X1960Y1115D02*
X1967Y1115D01*
X0Y1114D02*
X7Y1114D01*
X949Y1114D02*
X953Y1114D01*
X966Y1114D02*
X969Y1114D01*
X1014Y1114D02*
X1017Y1114D01*
X1062Y1114D02*
X1067Y1114D01*
X1183Y1114D02*
X1186Y1114D01*
X1960Y1114D02*
X1967Y1114D01*
X0Y1113D02*
X7Y1113D01*
X949Y1113D02*
X953Y1113D01*
X966Y1113D02*
X969Y1113D01*
X1014Y1113D02*
X1017Y1113D01*
X1061Y1113D02*
X1067Y1113D01*
X1183Y1113D02*
X1186Y1113D01*
X1960Y1113D02*
X1967Y1113D01*
X0Y1112D02*
X7Y1112D01*
X949Y1112D02*
X953Y1112D01*
X966Y1112D02*
X969Y1112D01*
X1014Y1112D02*
X1017Y1112D01*
X1061Y1112D02*
X1067Y1112D01*
X1183Y1112D02*
X1186Y1112D01*
X1960Y1112D02*
X1967Y1112D01*
X0Y1111D02*
X7Y1111D01*
X949Y1111D02*
X953Y1111D01*
X966Y1111D02*
X969Y1111D01*
X1014Y1111D02*
X1017Y1111D01*
X1061Y1111D02*
X1067Y1111D01*
X1183Y1111D02*
X1186Y1111D01*
X1960Y1111D02*
X1967Y1111D01*
X0Y1110D02*
X7Y1110D01*
X949Y1110D02*
X953Y1110D01*
X966Y1110D02*
X969Y1110D01*
X985Y1110D02*
X994Y1110D01*
X1010Y1110D02*
X1027Y1110D01*
X1060Y1110D02*
X1068Y1110D01*
X1093Y1110D02*
X1103Y1110D01*
X1123Y1110D02*
X1133Y1110D01*
X1151Y1110D02*
X1158Y1110D01*
X1183Y1110D02*
X1186Y1110D01*
X1960Y1110D02*
X1967Y1110D01*
X0Y1109D02*
X7Y1109D01*
X949Y1109D02*
X953Y1109D01*
X965Y1109D02*
X969Y1109D01*
X983Y1109D02*
X996Y1109D01*
X1010Y1109D02*
X1027Y1109D01*
X1060Y1109D02*
X1068Y1109D01*
X1091Y1109D02*
X1104Y1109D01*
X1121Y1109D02*
X1134Y1109D01*
X1149Y1109D02*
X1160Y1109D01*
X1183Y1109D02*
X1186Y1109D01*
X1960Y1109D02*
X1967Y1109D01*
X0Y1108D02*
X7Y1108D01*
X949Y1108D02*
X968Y1108D01*
X982Y1108D02*
X997Y1108D01*
X1010Y1108D02*
X1027Y1108D01*
X1060Y1108D02*
X1063Y1108D01*
X1065Y1108D02*
X1068Y1108D01*
X1089Y1108D02*
X1104Y1108D01*
X1119Y1108D02*
X1134Y1108D01*
X1148Y1108D02*
X1161Y1108D01*
X1183Y1108D02*
X1186Y1108D01*
X1960Y1108D02*
X1967Y1108D01*
X0Y1107D02*
X7Y1107D01*
X949Y1107D02*
X968Y1107D01*
X981Y1107D02*
X998Y1107D01*
X1010Y1107D02*
X1027Y1107D01*
X1059Y1107D02*
X1063Y1107D01*
X1065Y1107D02*
X1069Y1107D01*
X1088Y1107D02*
X1104Y1107D01*
X1118Y1107D02*
X1134Y1107D01*
X1146Y1107D02*
X1162Y1107D01*
X1183Y1107D02*
X1186Y1107D01*
X1960Y1107D02*
X1967Y1107D01*
X0Y1106D02*
X7Y1106D01*
X949Y1106D02*
X967Y1106D01*
X980Y1106D02*
X985Y1106D01*
X994Y1106D02*
X999Y1106D01*
X1014Y1106D02*
X1017Y1106D01*
X1059Y1106D02*
X1063Y1106D01*
X1066Y1106D02*
X1069Y1106D01*
X1087Y1106D02*
X1103Y1106D01*
X1117Y1106D02*
X1133Y1106D01*
X1146Y1106D02*
X1163Y1106D01*
X1183Y1106D02*
X1186Y1106D01*
X1960Y1106D02*
X1967Y1106D01*
X0Y1105D02*
X7Y1105D01*
X949Y1105D02*
X965Y1105D01*
X980Y1105D02*
X984Y1105D01*
X995Y1105D02*
X999Y1105D01*
X1014Y1105D02*
X1017Y1105D01*
X1059Y1105D02*
X1062Y1105D01*
X1066Y1105D02*
X1069Y1105D01*
X1086Y1105D02*
X1091Y1105D01*
X1116Y1105D02*
X1121Y1105D01*
X1145Y1105D02*
X1149Y1105D01*
X1160Y1105D02*
X1164Y1105D01*
X1183Y1105D02*
X1186Y1105D01*
X1960Y1105D02*
X1967Y1105D01*
X0Y1104D02*
X7Y1104D01*
X949Y1104D02*
X953Y1104D01*
X957Y1104D02*
X961Y1104D01*
X980Y1104D02*
X983Y1104D01*
X996Y1104D02*
X999Y1104D01*
X1014Y1104D02*
X1017Y1104D01*
X1059Y1104D02*
X1062Y1104D01*
X1066Y1104D02*
X1070Y1104D01*
X1085Y1104D02*
X1090Y1104D01*
X1115Y1104D02*
X1120Y1104D01*
X1145Y1104D02*
X1148Y1104D01*
X1161Y1104D02*
X1164Y1104D01*
X1183Y1104D02*
X1186Y1104D01*
X1960Y1104D02*
X1967Y1104D01*
X0Y1103D02*
X7Y1103D01*
X949Y1103D02*
X953Y1103D01*
X957Y1103D02*
X961Y1103D01*
X980Y1103D02*
X983Y1103D01*
X996Y1103D02*
X999Y1103D01*
X1014Y1103D02*
X1017Y1103D01*
X1058Y1103D02*
X1062Y1103D01*
X1066Y1103D02*
X1070Y1103D01*
X1085Y1103D02*
X1089Y1103D01*
X1115Y1103D02*
X1119Y1103D01*
X1145Y1103D02*
X1148Y1103D01*
X1161Y1103D02*
X1164Y1103D01*
X1183Y1103D02*
X1186Y1103D01*
X1960Y1103D02*
X1967Y1103D01*
X0Y1102D02*
X7Y1102D01*
X949Y1102D02*
X953Y1102D01*
X958Y1102D02*
X962Y1102D01*
X980Y1102D02*
X983Y1102D01*
X996Y1102D02*
X999Y1102D01*
X1014Y1102D02*
X1017Y1102D01*
X1058Y1102D02*
X1061Y1102D01*
X1067Y1102D02*
X1070Y1102D01*
X1084Y1102D02*
X1088Y1102D01*
X1115Y1102D02*
X1118Y1102D01*
X1145Y1102D02*
X1148Y1102D01*
X1161Y1102D02*
X1164Y1102D01*
X1183Y1102D02*
X1186Y1102D01*
X1960Y1102D02*
X1967Y1102D01*
X0Y1101D02*
X7Y1101D01*
X949Y1101D02*
X953Y1101D01*
X959Y1101D02*
X963Y1101D01*
X980Y1101D02*
X983Y1101D01*
X996Y1101D02*
X999Y1101D01*
X1014Y1101D02*
X1017Y1101D01*
X1058Y1101D02*
X1061Y1101D01*
X1067Y1101D02*
X1070Y1101D01*
X1084Y1101D02*
X1088Y1101D01*
X1114Y1101D02*
X1118Y1101D01*
X1145Y1101D02*
X1148Y1101D01*
X1161Y1101D02*
X1164Y1101D01*
X1183Y1101D02*
X1186Y1101D01*
X1960Y1101D02*
X1967Y1101D01*
X0Y1100D02*
X7Y1100D01*
X949Y1100D02*
X953Y1100D01*
X959Y1100D02*
X963Y1100D01*
X980Y1100D02*
X983Y1100D01*
X996Y1100D02*
X999Y1100D01*
X1014Y1100D02*
X1017Y1100D01*
X1057Y1100D02*
X1061Y1100D01*
X1067Y1100D02*
X1071Y1100D01*
X1084Y1100D02*
X1088Y1100D01*
X1114Y1100D02*
X1118Y1100D01*
X1145Y1100D02*
X1148Y1100D01*
X1161Y1100D02*
X1164Y1100D01*
X1183Y1100D02*
X1186Y1100D01*
X1960Y1100D02*
X1967Y1100D01*
X0Y1099D02*
X7Y1099D01*
X949Y1099D02*
X953Y1099D01*
X960Y1099D02*
X964Y1099D01*
X980Y1099D02*
X983Y1099D01*
X996Y1099D02*
X999Y1099D01*
X1014Y1099D02*
X1017Y1099D01*
X1057Y1099D02*
X1061Y1099D01*
X1068Y1099D02*
X1071Y1099D01*
X1084Y1099D02*
X1088Y1099D01*
X1114Y1099D02*
X1118Y1099D01*
X1145Y1099D02*
X1164Y1099D01*
X1183Y1099D02*
X1186Y1099D01*
X1960Y1099D02*
X1967Y1099D01*
X0Y1098D02*
X7Y1098D01*
X949Y1098D02*
X953Y1098D01*
X960Y1098D02*
X964Y1098D01*
X980Y1098D02*
X983Y1098D01*
X996Y1098D02*
X999Y1098D01*
X1014Y1098D02*
X1017Y1098D01*
X1057Y1098D02*
X1060Y1098D01*
X1068Y1098D02*
X1071Y1098D01*
X1084Y1098D02*
X1088Y1098D01*
X1114Y1098D02*
X1118Y1098D01*
X1145Y1098D02*
X1164Y1098D01*
X1183Y1098D02*
X1186Y1098D01*
X1960Y1098D02*
X1967Y1098D01*
X0Y1097D02*
X7Y1097D01*
X949Y1097D02*
X953Y1097D01*
X961Y1097D02*
X965Y1097D01*
X980Y1097D02*
X983Y1097D01*
X996Y1097D02*
X999Y1097D01*
X1014Y1097D02*
X1017Y1097D01*
X1057Y1097D02*
X1072Y1097D01*
X1084Y1097D02*
X1088Y1097D01*
X1114Y1097D02*
X1118Y1097D01*
X1145Y1097D02*
X1164Y1097D01*
X1183Y1097D02*
X1186Y1097D01*
X1960Y1097D02*
X1967Y1097D01*
X0Y1096D02*
X7Y1096D01*
X949Y1096D02*
X953Y1096D01*
X962Y1096D02*
X965Y1096D01*
X980Y1096D02*
X983Y1096D01*
X996Y1096D02*
X999Y1096D01*
X1014Y1096D02*
X1017Y1096D01*
X1056Y1096D02*
X1072Y1096D01*
X1084Y1096D02*
X1088Y1096D01*
X1114Y1096D02*
X1118Y1096D01*
X1145Y1096D02*
X1164Y1096D01*
X1183Y1096D02*
X1186Y1096D01*
X1960Y1096D02*
X1967Y1096D01*
X0Y1095D02*
X7Y1095D01*
X949Y1095D02*
X953Y1095D01*
X962Y1095D02*
X966Y1095D01*
X980Y1095D02*
X983Y1095D01*
X996Y1095D02*
X999Y1095D01*
X1014Y1095D02*
X1017Y1095D01*
X1056Y1095D02*
X1072Y1095D01*
X1084Y1095D02*
X1088Y1095D01*
X1115Y1095D02*
X1118Y1095D01*
X1145Y1095D02*
X1148Y1095D01*
X1183Y1095D02*
X1186Y1095D01*
X1960Y1095D02*
X1967Y1095D01*
X0Y1094D02*
X7Y1094D01*
X949Y1094D02*
X953Y1094D01*
X963Y1094D02*
X967Y1094D01*
X980Y1094D02*
X983Y1094D01*
X996Y1094D02*
X999Y1094D01*
X1014Y1094D02*
X1017Y1094D01*
X1027Y1094D02*
X1029Y1094D01*
X1056Y1094D02*
X1072Y1094D01*
X1085Y1094D02*
X1088Y1094D01*
X1115Y1094D02*
X1119Y1094D01*
X1145Y1094D02*
X1148Y1094D01*
X1183Y1094D02*
X1186Y1094D01*
X1960Y1094D02*
X1967Y1094D01*
X0Y1093D02*
X7Y1093D01*
X949Y1093D02*
X953Y1093D01*
X963Y1093D02*
X967Y1093D01*
X980Y1093D02*
X983Y1093D01*
X995Y1093D02*
X999Y1093D01*
X1014Y1093D02*
X1017Y1093D01*
X1026Y1093D02*
X1029Y1093D01*
X1055Y1093D02*
X1059Y1093D01*
X1069Y1093D02*
X1073Y1093D01*
X1085Y1093D02*
X1090Y1093D01*
X1115Y1093D02*
X1120Y1093D01*
X1145Y1093D02*
X1148Y1093D01*
X1183Y1093D02*
X1186Y1093D01*
X1960Y1093D02*
X1967Y1093D01*
X0Y1092D02*
X7Y1092D01*
X949Y1092D02*
X953Y1092D01*
X964Y1092D02*
X968Y1092D01*
X980Y1092D02*
X984Y1092D01*
X994Y1092D02*
X999Y1092D01*
X1014Y1092D02*
X1017Y1092D01*
X1026Y1092D02*
X1029Y1092D01*
X1055Y1092D02*
X1058Y1092D01*
X1070Y1092D02*
X1073Y1092D01*
X1086Y1092D02*
X1091Y1092D01*
X1116Y1092D02*
X1121Y1092D01*
X1145Y1092D02*
X1149Y1092D01*
X1183Y1092D02*
X1186Y1092D01*
X1960Y1092D02*
X1967Y1092D01*
X0Y1091D02*
X7Y1091D01*
X949Y1091D02*
X953Y1091D01*
X964Y1091D02*
X968Y1091D01*
X981Y1091D02*
X998Y1091D01*
X1014Y1091D02*
X1029Y1091D01*
X1055Y1091D02*
X1058Y1091D01*
X1070Y1091D02*
X1073Y1091D01*
X1087Y1091D02*
X1092Y1091D01*
X1117Y1091D02*
X1122Y1091D01*
X1145Y1091D02*
X1150Y1091D01*
X1183Y1091D02*
X1186Y1091D01*
X1960Y1091D02*
X1967Y1091D01*
X0Y1090D02*
X7Y1090D01*
X949Y1090D02*
X953Y1090D01*
X965Y1090D02*
X969Y1090D01*
X981Y1090D02*
X997Y1090D01*
X1015Y1090D02*
X1029Y1090D01*
X1055Y1090D02*
X1058Y1090D01*
X1070Y1090D02*
X1074Y1090D01*
X1088Y1090D02*
X1103Y1090D01*
X1118Y1090D02*
X1134Y1090D01*
X1146Y1090D02*
X1164Y1090D01*
X1177Y1090D02*
X1192Y1090D01*
X1960Y1090D02*
X1967Y1090D01*
X0Y1089D02*
X7Y1089D01*
X949Y1089D02*
X953Y1089D01*
X966Y1089D02*
X969Y1089D01*
X983Y1089D02*
X996Y1089D01*
X1015Y1089D02*
X1028Y1089D01*
X1054Y1089D02*
X1058Y1089D01*
X1071Y1089D02*
X1074Y1089D01*
X1089Y1089D02*
X1104Y1089D01*
X1119Y1089D02*
X1134Y1089D01*
X1147Y1089D02*
X1164Y1089D01*
X1177Y1089D02*
X1192Y1089D01*
X1368Y1089D02*
X1369Y1089D01*
X1568Y1089D02*
X1569Y1089D01*
X1768Y1089D02*
X1769Y1089D01*
X1960Y1089D02*
X1967Y1089D01*
X0Y1088D02*
X7Y1088D01*
X950Y1088D02*
X952Y1088D01*
X966Y1088D02*
X969Y1088D01*
X984Y1088D02*
X995Y1088D01*
X1017Y1088D02*
X1027Y1088D01*
X1054Y1088D02*
X1057Y1088D01*
X1071Y1088D02*
X1074Y1088D01*
X1090Y1088D02*
X1104Y1088D01*
X1120Y1088D02*
X1134Y1088D01*
X1148Y1088D02*
X1164Y1088D01*
X1177Y1088D02*
X1192Y1088D01*
X1368Y1088D02*
X1373Y1088D01*
X1568Y1088D02*
X1573Y1088D01*
X1768Y1088D02*
X1773Y1088D01*
X1960Y1088D02*
X1967Y1088D01*
X0Y1087D02*
X7Y1087D01*
X951Y1087D02*
X951Y1087D01*
X967Y1087D02*
X968Y1087D01*
X986Y1087D02*
X993Y1087D01*
X1019Y1087D02*
X1024Y1087D01*
X1055Y1087D02*
X1057Y1087D01*
X1071Y1087D02*
X1073Y1087D01*
X1092Y1087D02*
X1103Y1087D01*
X1122Y1087D02*
X1133Y1087D01*
X1150Y1087D02*
X1164Y1087D01*
X1177Y1087D02*
X1192Y1087D01*
X1368Y1087D02*
X1376Y1087D01*
X1567Y1087D02*
X1576Y1087D01*
X1767Y1087D02*
X1776Y1087D01*
X1960Y1087D02*
X1967Y1087D01*
X0Y1086D02*
X7Y1086D01*
X1367Y1086D02*
X1378Y1086D01*
X1567Y1086D02*
X1578Y1086D01*
X1767Y1086D02*
X1778Y1086D01*
X1960Y1086D02*
X1967Y1086D01*
X0Y1085D02*
X7Y1085D01*
X1367Y1085D02*
X1380Y1085D01*
X1567Y1085D02*
X1580Y1085D01*
X1767Y1085D02*
X1780Y1085D01*
X1960Y1085D02*
X1967Y1085D01*
X0Y1084D02*
X7Y1084D01*
X1367Y1084D02*
X1382Y1084D01*
X1567Y1084D02*
X1582Y1084D01*
X1767Y1084D02*
X1782Y1084D01*
X1960Y1084D02*
X1967Y1084D01*
X0Y1083D02*
X7Y1083D01*
X1367Y1083D02*
X1383Y1083D01*
X1567Y1083D02*
X1583Y1083D01*
X1767Y1083D02*
X1783Y1083D01*
X1960Y1083D02*
X1967Y1083D01*
X0Y1082D02*
X7Y1082D01*
X1367Y1082D02*
X1384Y1082D01*
X1567Y1082D02*
X1584Y1082D01*
X1767Y1082D02*
X1784Y1082D01*
X1960Y1082D02*
X1967Y1082D01*
X0Y1081D02*
X7Y1081D01*
X1369Y1081D02*
X1386Y1081D01*
X1569Y1081D02*
X1586Y1081D01*
X1769Y1081D02*
X1786Y1081D01*
X1960Y1081D02*
X1967Y1081D01*
X0Y1080D02*
X7Y1080D01*
X1374Y1080D02*
X1387Y1080D01*
X1573Y1080D02*
X1587Y1080D01*
X1773Y1080D02*
X1787Y1080D01*
X1960Y1080D02*
X1967Y1080D01*
X0Y1079D02*
X7Y1079D01*
X1376Y1079D02*
X1388Y1079D01*
X1576Y1079D02*
X1588Y1079D01*
X1776Y1079D02*
X1788Y1079D01*
X1960Y1079D02*
X1967Y1079D01*
X0Y1078D02*
X7Y1078D01*
X1378Y1078D02*
X1389Y1078D01*
X1578Y1078D02*
X1589Y1078D01*
X1778Y1078D02*
X1789Y1078D01*
X1960Y1078D02*
X1967Y1078D01*
X0Y1077D02*
X7Y1077D01*
X1379Y1077D02*
X1390Y1077D01*
X1579Y1077D02*
X1589Y1077D01*
X1779Y1077D02*
X1789Y1077D01*
X1960Y1077D02*
X1967Y1077D01*
X0Y1076D02*
X7Y1076D01*
X1381Y1076D02*
X1390Y1076D01*
X1581Y1076D02*
X1590Y1076D01*
X1781Y1076D02*
X1790Y1076D01*
X1960Y1076D02*
X1967Y1076D01*
X0Y1075D02*
X7Y1075D01*
X1382Y1075D02*
X1391Y1075D01*
X1582Y1075D02*
X1591Y1075D01*
X1782Y1075D02*
X1791Y1075D01*
X1960Y1075D02*
X1967Y1075D01*
X0Y1074D02*
X7Y1074D01*
X1383Y1074D02*
X1392Y1074D01*
X1583Y1074D02*
X1592Y1074D01*
X1783Y1074D02*
X1792Y1074D01*
X1960Y1074D02*
X1967Y1074D01*
X0Y1073D02*
X7Y1073D01*
X1384Y1073D02*
X1392Y1073D01*
X1584Y1073D02*
X1592Y1073D01*
X1784Y1073D02*
X1792Y1073D01*
X1960Y1073D02*
X1967Y1073D01*
X0Y1072D02*
X7Y1072D01*
X1385Y1072D02*
X1393Y1072D01*
X1585Y1072D02*
X1593Y1072D01*
X1785Y1072D02*
X1793Y1072D01*
X1960Y1072D02*
X1967Y1072D01*
X0Y1071D02*
X7Y1071D01*
X1386Y1071D02*
X1393Y1071D01*
X1585Y1071D02*
X1593Y1071D01*
X1785Y1071D02*
X1793Y1071D01*
X1960Y1071D02*
X1967Y1071D01*
X0Y1070D02*
X7Y1070D01*
X1145Y1070D02*
X1154Y1070D01*
X1386Y1070D02*
X1394Y1070D01*
X1586Y1070D02*
X1594Y1070D01*
X1786Y1070D02*
X1794Y1070D01*
X1960Y1070D02*
X1967Y1070D01*
X0Y1069D02*
X7Y1069D01*
X1145Y1069D02*
X1154Y1069D01*
X1387Y1069D02*
X1394Y1069D01*
X1587Y1069D02*
X1594Y1069D01*
X1787Y1069D02*
X1794Y1069D01*
X1960Y1069D02*
X1967Y1069D01*
X0Y1068D02*
X7Y1068D01*
X1145Y1068D02*
X1154Y1068D01*
X1387Y1068D02*
X1395Y1068D01*
X1587Y1068D02*
X1595Y1068D01*
X1787Y1068D02*
X1795Y1068D01*
X1960Y1068D02*
X1967Y1068D01*
X0Y1067D02*
X7Y1067D01*
X1145Y1067D02*
X1154Y1067D01*
X1388Y1067D02*
X1395Y1067D01*
X1588Y1067D02*
X1595Y1067D01*
X1788Y1067D02*
X1795Y1067D01*
X1960Y1067D02*
X1967Y1067D01*
X0Y1066D02*
X7Y1066D01*
X1145Y1066D02*
X1154Y1066D01*
X1388Y1066D02*
X1396Y1066D01*
X1588Y1066D02*
X1596Y1066D01*
X1788Y1066D02*
X1795Y1066D01*
X1960Y1066D02*
X1967Y1066D01*
X0Y1065D02*
X7Y1065D01*
X1145Y1065D02*
X1154Y1065D01*
X1389Y1065D02*
X1396Y1065D01*
X1589Y1065D02*
X1596Y1065D01*
X1788Y1065D02*
X1796Y1065D01*
X1960Y1065D02*
X1967Y1065D01*
X0Y1064D02*
X7Y1064D01*
X1145Y1064D02*
X1154Y1064D01*
X1389Y1064D02*
X1396Y1064D01*
X1589Y1064D02*
X1596Y1064D01*
X1789Y1064D02*
X1796Y1064D01*
X1960Y1064D02*
X1967Y1064D01*
X0Y1063D02*
X7Y1063D01*
X1145Y1063D02*
X1154Y1063D01*
X1389Y1063D02*
X1396Y1063D01*
X1589Y1063D02*
X1596Y1063D01*
X1789Y1063D02*
X1796Y1063D01*
X1960Y1063D02*
X1967Y1063D01*
X0Y1062D02*
X7Y1062D01*
X1145Y1062D02*
X1154Y1062D01*
X1389Y1062D02*
X1397Y1062D01*
X1589Y1062D02*
X1596Y1062D01*
X1789Y1062D02*
X1796Y1062D01*
X1960Y1062D02*
X1967Y1062D01*
X0Y1061D02*
X7Y1061D01*
X1145Y1061D02*
X1154Y1061D01*
X1390Y1061D02*
X1397Y1061D01*
X1590Y1061D02*
X1597Y1061D01*
X1789Y1061D02*
X1797Y1061D01*
X1960Y1061D02*
X1967Y1061D01*
X0Y1060D02*
X7Y1060D01*
X1145Y1060D02*
X1154Y1060D01*
X1390Y1060D02*
X1397Y1060D01*
X1590Y1060D02*
X1597Y1060D01*
X1790Y1060D02*
X1797Y1060D01*
X1960Y1060D02*
X1967Y1060D01*
X0Y1059D02*
X7Y1059D01*
X1145Y1059D02*
X1154Y1059D01*
X1390Y1059D02*
X1394Y1059D01*
X1590Y1059D02*
X1594Y1059D01*
X1790Y1059D02*
X1794Y1059D01*
X1960Y1059D02*
X1967Y1059D01*
X0Y1058D02*
X7Y1058D01*
X1145Y1058D02*
X1154Y1058D01*
X1960Y1058D02*
X1967Y1058D01*
X0Y1057D02*
X7Y1057D01*
X1145Y1057D02*
X1154Y1057D01*
X1960Y1057D02*
X1967Y1057D01*
X0Y1056D02*
X7Y1056D01*
X1145Y1056D02*
X1154Y1056D01*
X1960Y1056D02*
X1967Y1056D01*
X0Y1055D02*
X7Y1055D01*
X1145Y1055D02*
X1154Y1055D01*
X1960Y1055D02*
X1967Y1055D01*
X0Y1054D02*
X7Y1054D01*
X1145Y1054D02*
X1154Y1054D01*
X1960Y1054D02*
X1967Y1054D01*
X0Y1053D02*
X7Y1053D01*
X1145Y1053D02*
X1154Y1053D01*
X1337Y1053D02*
X1337Y1053D01*
X1537Y1053D02*
X1537Y1053D01*
X1737Y1053D02*
X1737Y1053D01*
X1960Y1053D02*
X1967Y1053D01*
X0Y1052D02*
X7Y1052D01*
X1145Y1052D02*
X1154Y1052D01*
X1331Y1052D02*
X1338Y1052D01*
X1531Y1052D02*
X1538Y1052D01*
X1731Y1052D02*
X1738Y1052D01*
X1960Y1052D02*
X1967Y1052D01*
X0Y1051D02*
X7Y1051D01*
X1145Y1051D02*
X1154Y1051D01*
X1331Y1051D02*
X1338Y1051D01*
X1531Y1051D02*
X1538Y1051D01*
X1731Y1051D02*
X1738Y1051D01*
X1960Y1051D02*
X1967Y1051D01*
X0Y1050D02*
X7Y1050D01*
X1145Y1050D02*
X1154Y1050D01*
X1331Y1050D02*
X1338Y1050D01*
X1531Y1050D02*
X1538Y1050D01*
X1731Y1050D02*
X1738Y1050D01*
X1960Y1050D02*
X1967Y1050D01*
X0Y1049D02*
X7Y1049D01*
X1145Y1049D02*
X1154Y1049D01*
X1331Y1049D02*
X1338Y1049D01*
X1531Y1049D02*
X1538Y1049D01*
X1731Y1049D02*
X1738Y1049D01*
X1960Y1049D02*
X1967Y1049D01*
X0Y1048D02*
X7Y1048D01*
X1145Y1048D02*
X1154Y1048D01*
X1331Y1048D02*
X1339Y1048D01*
X1531Y1048D02*
X1538Y1048D01*
X1731Y1048D02*
X1738Y1048D01*
X1960Y1048D02*
X1967Y1048D01*
X0Y1047D02*
X7Y1047D01*
X1145Y1047D02*
X1154Y1047D01*
X1332Y1047D02*
X1339Y1047D01*
X1532Y1047D02*
X1539Y1047D01*
X1731Y1047D02*
X1739Y1047D01*
X1960Y1047D02*
X1967Y1047D01*
X0Y1046D02*
X7Y1046D01*
X1145Y1046D02*
X1154Y1046D01*
X1332Y1046D02*
X1339Y1046D01*
X1532Y1046D02*
X1539Y1046D01*
X1732Y1046D02*
X1739Y1046D01*
X1960Y1046D02*
X1967Y1046D01*
X0Y1045D02*
X7Y1045D01*
X1145Y1045D02*
X1154Y1045D01*
X1332Y1045D02*
X1340Y1045D01*
X1532Y1045D02*
X1539Y1045D01*
X1732Y1045D02*
X1739Y1045D01*
X1960Y1045D02*
X1967Y1045D01*
X0Y1044D02*
X7Y1044D01*
X1145Y1044D02*
X1154Y1044D01*
X1332Y1044D02*
X1340Y1044D01*
X1532Y1044D02*
X1540Y1044D01*
X1732Y1044D02*
X1740Y1044D01*
X1960Y1044D02*
X1967Y1044D01*
X0Y1043D02*
X7Y1043D01*
X1145Y1043D02*
X1154Y1043D01*
X1333Y1043D02*
X1340Y1043D01*
X1533Y1043D02*
X1540Y1043D01*
X1733Y1043D02*
X1740Y1043D01*
X1960Y1043D02*
X1967Y1043D01*
X0Y1042D02*
X7Y1042D01*
X1145Y1042D02*
X1154Y1042D01*
X1333Y1042D02*
X1341Y1042D01*
X1533Y1042D02*
X1541Y1042D01*
X1733Y1042D02*
X1741Y1042D01*
X1960Y1042D02*
X1967Y1042D01*
X0Y1041D02*
X7Y1041D01*
X1145Y1041D02*
X1154Y1041D01*
X1334Y1041D02*
X1342Y1041D01*
X1534Y1041D02*
X1542Y1041D01*
X1734Y1041D02*
X1742Y1041D01*
X1960Y1041D02*
X1967Y1041D01*
X0Y1040D02*
X7Y1040D01*
X1145Y1040D02*
X1154Y1040D01*
X1334Y1040D02*
X1342Y1040D01*
X1534Y1040D02*
X1542Y1040D01*
X1734Y1040D02*
X1742Y1040D01*
X1960Y1040D02*
X1967Y1040D01*
X0Y1039D02*
X7Y1039D01*
X1145Y1039D02*
X1154Y1039D01*
X1335Y1039D02*
X1343Y1039D01*
X1535Y1039D02*
X1543Y1039D01*
X1735Y1039D02*
X1743Y1039D01*
X1960Y1039D02*
X1967Y1039D01*
X0Y1038D02*
X7Y1038D01*
X1145Y1038D02*
X1154Y1038D01*
X1278Y1038D02*
X1289Y1038D01*
X1301Y1038D02*
X1311Y1038D01*
X1335Y1038D02*
X1344Y1038D01*
X1535Y1038D02*
X1544Y1038D01*
X1735Y1038D02*
X1744Y1038D01*
X1960Y1038D02*
X1967Y1038D01*
X0Y1037D02*
X7Y1037D01*
X1145Y1037D02*
X1154Y1037D01*
X1277Y1037D02*
X1289Y1037D01*
X1300Y1037D02*
X1311Y1037D01*
X1336Y1037D02*
X1345Y1037D01*
X1536Y1037D02*
X1545Y1037D01*
X1736Y1037D02*
X1745Y1037D01*
X1960Y1037D02*
X1967Y1037D01*
X0Y1036D02*
X7Y1036D01*
X1145Y1036D02*
X1154Y1036D01*
X1276Y1036D02*
X1289Y1036D01*
X1300Y1036D02*
X1311Y1036D01*
X1337Y1036D02*
X1346Y1036D01*
X1537Y1036D02*
X1546Y1036D01*
X1737Y1036D02*
X1746Y1036D01*
X1960Y1036D02*
X1967Y1036D01*
X0Y1035D02*
X7Y1035D01*
X1145Y1035D02*
X1154Y1035D01*
X1275Y1035D02*
X1289Y1035D01*
X1300Y1035D02*
X1311Y1035D01*
X1338Y1035D02*
X1347Y1035D01*
X1538Y1035D02*
X1547Y1035D01*
X1737Y1035D02*
X1747Y1035D01*
X1960Y1035D02*
X1967Y1035D01*
X0Y1034D02*
X7Y1034D01*
X1145Y1034D02*
X1154Y1034D01*
X1275Y1034D02*
X1279Y1034D01*
X1308Y1034D02*
X1311Y1034D01*
X1338Y1034D02*
X1349Y1034D01*
X1538Y1034D02*
X1549Y1034D01*
X1738Y1034D02*
X1749Y1034D01*
X1960Y1034D02*
X1967Y1034D01*
X0Y1033D02*
X7Y1033D01*
X1145Y1033D02*
X1154Y1033D01*
X1274Y1033D02*
X1278Y1033D01*
X1308Y1033D02*
X1311Y1033D01*
X1339Y1033D02*
X1350Y1033D01*
X1539Y1033D02*
X1550Y1033D01*
X1739Y1033D02*
X1750Y1033D01*
X1960Y1033D02*
X1967Y1033D01*
X0Y1032D02*
X7Y1032D01*
X1145Y1032D02*
X1154Y1032D01*
X1274Y1032D02*
X1277Y1032D01*
X1308Y1032D02*
X1311Y1032D01*
X1340Y1032D02*
X1352Y1032D01*
X1499Y1032D02*
X1510Y1032D01*
X1522Y1032D02*
X1552Y1032D01*
X1740Y1032D02*
X1752Y1032D01*
X1960Y1032D02*
X1967Y1032D01*
X0Y1031D02*
X7Y1031D01*
X1145Y1031D02*
X1154Y1031D01*
X1273Y1031D02*
X1277Y1031D01*
X1308Y1031D02*
X1311Y1031D01*
X1341Y1031D02*
X1355Y1031D01*
X1498Y1031D02*
X1511Y1031D01*
X1521Y1031D02*
X1555Y1031D01*
X1741Y1031D02*
X1755Y1031D01*
X1960Y1031D02*
X1967Y1031D01*
X0Y1030D02*
X7Y1030D01*
X1145Y1030D02*
X1154Y1030D01*
X1273Y1030D02*
X1276Y1030D01*
X1308Y1030D02*
X1311Y1030D01*
X1342Y1030D02*
X1360Y1030D01*
X1497Y1030D02*
X1511Y1030D01*
X1521Y1030D02*
X1560Y1030D01*
X1742Y1030D02*
X1760Y1030D01*
X1960Y1030D02*
X1967Y1030D01*
X0Y1029D02*
X7Y1029D01*
X1145Y1029D02*
X1154Y1029D01*
X1272Y1029D02*
X1276Y1029D01*
X1308Y1029D02*
X1311Y1029D01*
X1344Y1029D02*
X1361Y1029D01*
X1496Y1029D02*
X1510Y1029D01*
X1522Y1029D02*
X1541Y1029D01*
X1544Y1029D02*
X1561Y1029D01*
X1687Y1029D02*
X1699Y1029D01*
X1710Y1029D02*
X1728Y1029D01*
X1743Y1029D02*
X1760Y1029D01*
X1960Y1029D02*
X1967Y1029D01*
X0Y1028D02*
X7Y1028D01*
X1145Y1028D02*
X1154Y1028D01*
X1272Y1028D02*
X1275Y1028D01*
X1308Y1028D02*
X1311Y1028D01*
X1345Y1028D02*
X1360Y1028D01*
X1496Y1028D02*
X1500Y1028D01*
X1538Y1028D02*
X1541Y1028D01*
X1545Y1028D02*
X1560Y1028D01*
X1686Y1028D02*
X1699Y1028D01*
X1710Y1028D02*
X1729Y1028D01*
X1745Y1028D02*
X1760Y1028D01*
X1960Y1028D02*
X1967Y1028D01*
X0Y1027D02*
X7Y1027D01*
X1145Y1027D02*
X1154Y1027D01*
X1271Y1027D02*
X1275Y1027D01*
X1308Y1027D02*
X1311Y1027D01*
X1346Y1027D02*
X1360Y1027D01*
X1495Y1027D02*
X1499Y1027D01*
X1538Y1027D02*
X1541Y1027D01*
X1546Y1027D02*
X1560Y1027D01*
X1685Y1027D02*
X1699Y1027D01*
X1710Y1027D02*
X1729Y1027D01*
X1746Y1027D02*
X1760Y1027D01*
X1960Y1027D02*
X1967Y1027D01*
X0Y1026D02*
X7Y1026D01*
X1145Y1026D02*
X1154Y1026D01*
X1271Y1026D02*
X1274Y1026D01*
X1308Y1026D02*
X1311Y1026D01*
X1348Y1026D02*
X1360Y1026D01*
X1495Y1026D02*
X1499Y1026D01*
X1538Y1026D02*
X1541Y1026D01*
X1548Y1026D02*
X1560Y1026D01*
X1685Y1026D02*
X1698Y1026D01*
X1711Y1026D02*
X1729Y1026D01*
X1748Y1026D02*
X1760Y1026D01*
X1960Y1026D02*
X1967Y1026D01*
X0Y1025D02*
X7Y1025D01*
X1145Y1025D02*
X1154Y1025D01*
X1270Y1025D02*
X1274Y1025D01*
X1308Y1025D02*
X1311Y1025D01*
X1350Y1025D02*
X1360Y1025D01*
X1494Y1025D02*
X1498Y1025D01*
X1538Y1025D02*
X1541Y1025D01*
X1550Y1025D02*
X1560Y1025D01*
X1684Y1025D02*
X1688Y1025D01*
X1726Y1025D02*
X1729Y1025D01*
X1750Y1025D02*
X1760Y1025D01*
X1960Y1025D02*
X1967Y1025D01*
X0Y1024D02*
X7Y1024D01*
X1145Y1024D02*
X1154Y1024D01*
X1270Y1024D02*
X1273Y1024D01*
X1308Y1024D02*
X1311Y1024D01*
X1352Y1024D02*
X1360Y1024D01*
X1494Y1024D02*
X1498Y1024D01*
X1538Y1024D02*
X1541Y1024D01*
X1552Y1024D02*
X1560Y1024D01*
X1684Y1024D02*
X1687Y1024D01*
X1726Y1024D02*
X1729Y1024D01*
X1752Y1024D02*
X1760Y1024D01*
X1960Y1024D02*
X1967Y1024D01*
X0Y1023D02*
X7Y1023D01*
X1145Y1023D02*
X1154Y1023D01*
X1270Y1023D02*
X1273Y1023D01*
X1308Y1023D02*
X1311Y1023D01*
X1355Y1023D02*
X1360Y1023D01*
X1493Y1023D02*
X1497Y1023D01*
X1538Y1023D02*
X1541Y1023D01*
X1555Y1023D02*
X1560Y1023D01*
X1683Y1023D02*
X1687Y1023D01*
X1726Y1023D02*
X1729Y1023D01*
X1755Y1023D02*
X1760Y1023D01*
X1960Y1023D02*
X1967Y1023D01*
X0Y1022D02*
X7Y1022D01*
X1145Y1022D02*
X1154Y1022D01*
X1270Y1022D02*
X1273Y1022D01*
X1308Y1022D02*
X1311Y1022D01*
X1493Y1022D02*
X1497Y1022D01*
X1538Y1022D02*
X1541Y1022D01*
X1683Y1022D02*
X1686Y1022D01*
X1726Y1022D02*
X1729Y1022D01*
X1960Y1022D02*
X1967Y1022D01*
X0Y1021D02*
X7Y1021D01*
X1145Y1021D02*
X1154Y1021D01*
X1270Y1021D02*
X1273Y1021D01*
X1308Y1021D02*
X1311Y1021D01*
X1492Y1021D02*
X1496Y1021D01*
X1538Y1021D02*
X1541Y1021D01*
X1682Y1021D02*
X1686Y1021D01*
X1726Y1021D02*
X1729Y1021D01*
X1960Y1021D02*
X1967Y1021D01*
X0Y1020D02*
X7Y1020D01*
X1145Y1020D02*
X1154Y1020D01*
X1270Y1020D02*
X1273Y1020D01*
X1308Y1020D02*
X1311Y1020D01*
X1317Y1020D02*
X1319Y1020D01*
X1492Y1020D02*
X1496Y1020D01*
X1538Y1020D02*
X1541Y1020D01*
X1682Y1020D02*
X1685Y1020D01*
X1726Y1020D02*
X1729Y1020D01*
X1960Y1020D02*
X1967Y1020D01*
X0Y1019D02*
X7Y1019D01*
X1145Y1019D02*
X1154Y1019D01*
X1270Y1019D02*
X1274Y1019D01*
X1308Y1019D02*
X1311Y1019D01*
X1316Y1019D02*
X1320Y1019D01*
X1491Y1019D02*
X1495Y1019D01*
X1538Y1019D02*
X1541Y1019D01*
X1681Y1019D02*
X1685Y1019D01*
X1726Y1019D02*
X1729Y1019D01*
X1960Y1019D02*
X1967Y1019D01*
X0Y1018D02*
X7Y1018D01*
X1145Y1018D02*
X1154Y1018D01*
X1271Y1018D02*
X1274Y1018D01*
X1308Y1018D02*
X1311Y1018D01*
X1316Y1018D02*
X1320Y1018D01*
X1491Y1018D02*
X1495Y1018D01*
X1524Y1018D02*
X1541Y1018D01*
X1681Y1018D02*
X1684Y1018D01*
X1726Y1018D02*
X1729Y1018D01*
X1960Y1018D02*
X1967Y1018D01*
X0Y1017D02*
X7Y1017D01*
X1145Y1017D02*
X1154Y1017D01*
X1271Y1017D02*
X1275Y1017D01*
X1308Y1017D02*
X1311Y1017D01*
X1316Y1017D02*
X1320Y1017D01*
X1491Y1017D02*
X1494Y1017D01*
X1522Y1017D02*
X1541Y1017D01*
X1680Y1017D02*
X1684Y1017D01*
X1726Y1017D02*
X1729Y1017D01*
X1960Y1017D02*
X1967Y1017D01*
X0Y1016D02*
X7Y1016D01*
X1145Y1016D02*
X1154Y1016D01*
X1272Y1016D02*
X1275Y1016D01*
X1308Y1016D02*
X1311Y1016D01*
X1316Y1016D02*
X1320Y1016D01*
X1491Y1016D02*
X1494Y1016D01*
X1522Y1016D02*
X1540Y1016D01*
X1680Y1016D02*
X1683Y1016D01*
X1725Y1016D02*
X1729Y1016D01*
X1960Y1016D02*
X1967Y1016D01*
X0Y1015D02*
X7Y1015D01*
X1145Y1015D02*
X1154Y1015D01*
X1272Y1015D02*
X1276Y1015D01*
X1308Y1015D02*
X1311Y1015D01*
X1316Y1015D02*
X1320Y1015D01*
X1491Y1015D02*
X1494Y1015D01*
X1521Y1015D02*
X1539Y1015D01*
X1680Y1015D02*
X1683Y1015D01*
X1714Y1015D02*
X1729Y1015D01*
X1960Y1015D02*
X1967Y1015D01*
X0Y1014D02*
X7Y1014D01*
X1145Y1014D02*
X1154Y1014D01*
X1273Y1014D02*
X1276Y1014D01*
X1308Y1014D02*
X1311Y1014D01*
X1316Y1014D02*
X1320Y1014D01*
X1491Y1014D02*
X1495Y1014D01*
X1521Y1014D02*
X1525Y1014D01*
X1680Y1014D02*
X1683Y1014D01*
X1714Y1014D02*
X1728Y1014D01*
X1960Y1014D02*
X1967Y1014D01*
X0Y1013D02*
X7Y1013D01*
X1145Y1013D02*
X1154Y1013D01*
X1273Y1013D02*
X1277Y1013D01*
X1308Y1013D02*
X1311Y1013D01*
X1316Y1013D02*
X1320Y1013D01*
X1492Y1013D02*
X1495Y1013D01*
X1521Y1013D02*
X1524Y1013D01*
X1680Y1013D02*
X1683Y1013D01*
X1714Y1013D02*
X1728Y1013D01*
X1960Y1013D02*
X1967Y1013D01*
X0Y1012D02*
X7Y1012D01*
X1145Y1012D02*
X1154Y1012D01*
X1274Y1012D02*
X1277Y1012D01*
X1308Y1012D02*
X1311Y1012D01*
X1316Y1012D02*
X1320Y1012D01*
X1492Y1012D02*
X1496Y1012D01*
X1521Y1012D02*
X1524Y1012D01*
X1680Y1012D02*
X1683Y1012D01*
X1715Y1012D02*
X1729Y1012D01*
X1960Y1012D02*
X1967Y1012D01*
X0Y1011D02*
X7Y1011D01*
X1145Y1011D02*
X1154Y1011D01*
X1274Y1011D02*
X1278Y1011D01*
X1308Y1011D02*
X1311Y1011D01*
X1316Y1011D02*
X1320Y1011D01*
X1493Y1011D02*
X1496Y1011D01*
X1521Y1011D02*
X1524Y1011D01*
X1680Y1011D02*
X1683Y1011D01*
X1725Y1011D02*
X1729Y1011D01*
X1960Y1011D02*
X1967Y1011D01*
X0Y1010D02*
X7Y1010D01*
X1145Y1010D02*
X1154Y1010D01*
X1275Y1010D02*
X1288Y1010D01*
X1301Y1010D02*
X1320Y1010D01*
X1493Y1010D02*
X1497Y1010D01*
X1521Y1010D02*
X1524Y1010D01*
X1680Y1010D02*
X1684Y1010D01*
X1726Y1010D02*
X1729Y1010D01*
X1960Y1010D02*
X1967Y1010D01*
X0Y1009D02*
X7Y1009D01*
X1145Y1009D02*
X1154Y1009D01*
X1275Y1009D02*
X1289Y1009D01*
X1300Y1009D02*
X1320Y1009D01*
X1494Y1009D02*
X1497Y1009D01*
X1521Y1009D02*
X1524Y1009D01*
X1681Y1009D02*
X1684Y1009D01*
X1726Y1009D02*
X1729Y1009D01*
X1960Y1009D02*
X1967Y1009D01*
X0Y1008D02*
X7Y1008D01*
X1145Y1008D02*
X1154Y1008D01*
X1276Y1008D02*
X1290Y1008D01*
X1300Y1008D02*
X1320Y1008D01*
X1494Y1008D02*
X1498Y1008D01*
X1521Y1008D02*
X1524Y1008D01*
X1681Y1008D02*
X1685Y1008D01*
X1726Y1008D02*
X1729Y1008D01*
X1960Y1008D02*
X1967Y1008D01*
X0Y1007D02*
X7Y1007D01*
X1145Y1007D02*
X1154Y1007D01*
X1277Y1007D02*
X1289Y1007D01*
X1300Y1007D02*
X1319Y1007D01*
X1495Y1007D02*
X1498Y1007D01*
X1521Y1007D02*
X1524Y1007D01*
X1682Y1007D02*
X1685Y1007D01*
X1726Y1007D02*
X1729Y1007D01*
X1960Y1007D02*
X1967Y1007D01*
X0Y1006D02*
X7Y1006D01*
X1145Y1006D02*
X1154Y1006D01*
X1280Y1006D02*
X1288Y1006D01*
X1302Y1006D02*
X1318Y1006D01*
X1495Y1006D02*
X1499Y1006D01*
X1521Y1006D02*
X1524Y1006D01*
X1682Y1006D02*
X1686Y1006D01*
X1726Y1006D02*
X1729Y1006D01*
X1960Y1006D02*
X1967Y1006D01*
X0Y1005D02*
X7Y1005D01*
X1145Y1005D02*
X1154Y1005D01*
X1496Y1005D02*
X1499Y1005D01*
X1521Y1005D02*
X1524Y1005D01*
X1683Y1005D02*
X1686Y1005D01*
X1726Y1005D02*
X1729Y1005D01*
X1960Y1005D02*
X1967Y1005D01*
X0Y1004D02*
X7Y1004D01*
X1145Y1004D02*
X1154Y1004D01*
X1496Y1004D02*
X1510Y1004D01*
X1521Y1004D02*
X1540Y1004D01*
X1683Y1004D02*
X1687Y1004D01*
X1726Y1004D02*
X1729Y1004D01*
X1960Y1004D02*
X1967Y1004D01*
X0Y1003D02*
X7Y1003D01*
X1145Y1003D02*
X1154Y1003D01*
X1497Y1003D02*
X1511Y1003D01*
X1521Y1003D02*
X1541Y1003D01*
X1684Y1003D02*
X1687Y1003D01*
X1726Y1003D02*
X1729Y1003D01*
X1960Y1003D02*
X1967Y1003D01*
X0Y1002D02*
X7Y1002D01*
X1145Y1002D02*
X1154Y1002D01*
X1497Y1002D02*
X1511Y1002D01*
X1521Y1002D02*
X1541Y1002D01*
X1684Y1002D02*
X1688Y1002D01*
X1726Y1002D02*
X1729Y1002D01*
X1960Y1002D02*
X1967Y1002D01*
X0Y1001D02*
X7Y1001D01*
X1145Y1001D02*
X1154Y1001D01*
X1499Y1001D02*
X1510Y1001D01*
X1521Y1001D02*
X1541Y1001D01*
X1685Y1001D02*
X1699Y1001D01*
X1710Y1001D02*
X1729Y1001D01*
X1960Y1001D02*
X1967Y1001D01*
X0Y1000D02*
X7Y1000D01*
X1145Y1000D02*
X1154Y1000D01*
X1502Y1000D02*
X1509Y1000D01*
X1522Y1000D02*
X1539Y1000D01*
X1685Y1000D02*
X1699Y1000D01*
X1710Y1000D02*
X1729Y1000D01*
X1960Y1000D02*
X1967Y1000D01*
X0Y999D02*
X7Y999D01*
X1145Y999D02*
X1154Y999D01*
X1686Y999D02*
X1699Y999D01*
X1710Y999D02*
X1728Y999D01*
X1960Y999D02*
X1967Y999D01*
X0Y998D02*
X7Y998D01*
X1145Y998D02*
X1154Y998D01*
X1688Y998D02*
X1699Y998D01*
X1710Y998D02*
X1727Y998D01*
X1960Y998D02*
X1967Y998D01*
X0Y997D02*
X7Y997D01*
X1145Y997D02*
X1154Y997D01*
X1960Y997D02*
X1967Y997D01*
X0Y996D02*
X7Y996D01*
X1145Y996D02*
X1154Y996D01*
X1960Y996D02*
X1967Y996D01*
X0Y995D02*
X7Y995D01*
X1145Y995D02*
X1154Y995D01*
X1960Y995D02*
X1967Y995D01*
X0Y994D02*
X7Y994D01*
X1145Y994D02*
X1154Y994D01*
X1960Y994D02*
X1967Y994D01*
X0Y993D02*
X7Y993D01*
X1145Y993D02*
X1154Y993D01*
X1960Y993D02*
X1967Y993D01*
X0Y992D02*
X7Y992D01*
X1145Y992D02*
X1154Y992D01*
X1960Y992D02*
X1967Y992D01*
X0Y991D02*
X7Y991D01*
X1145Y991D02*
X1154Y991D01*
X1960Y991D02*
X1967Y991D01*
X0Y990D02*
X7Y990D01*
X1145Y990D02*
X1154Y990D01*
X1960Y990D02*
X1967Y990D01*
X0Y989D02*
X7Y989D01*
X1145Y989D02*
X1154Y989D01*
X1960Y989D02*
X1967Y989D01*
X0Y988D02*
X7Y988D01*
X1145Y988D02*
X1154Y988D01*
X1960Y988D02*
X1967Y988D01*
X0Y987D02*
X7Y987D01*
X1145Y987D02*
X1154Y987D01*
X1960Y987D02*
X1967Y987D01*
X0Y986D02*
X7Y986D01*
X1145Y986D02*
X1154Y986D01*
X1960Y986D02*
X1967Y986D01*
X0Y985D02*
X7Y985D01*
X1145Y985D02*
X1154Y985D01*
X1960Y985D02*
X1967Y985D01*
X0Y984D02*
X7Y984D01*
X1145Y984D02*
X1154Y984D01*
X1960Y984D02*
X1967Y984D01*
X0Y983D02*
X7Y983D01*
X1145Y983D02*
X1154Y983D01*
X1960Y983D02*
X1967Y983D01*
X0Y982D02*
X7Y982D01*
X1145Y982D02*
X1154Y982D01*
X1960Y982D02*
X1967Y982D01*
X0Y981D02*
X7Y981D01*
X1145Y981D02*
X1154Y981D01*
X1960Y981D02*
X1967Y981D01*
X0Y980D02*
X7Y980D01*
X1145Y980D02*
X1154Y980D01*
X1960Y980D02*
X1967Y980D01*
X0Y979D02*
X7Y979D01*
X1145Y979D02*
X1154Y979D01*
X1960Y979D02*
X1967Y979D01*
X0Y978D02*
X7Y978D01*
X1145Y978D02*
X1154Y978D01*
X1960Y978D02*
X1967Y978D01*
X0Y977D02*
X7Y977D01*
X1145Y977D02*
X1154Y977D01*
X1960Y977D02*
X1967Y977D01*
X0Y976D02*
X7Y976D01*
X1145Y976D02*
X1154Y976D01*
X1960Y976D02*
X1967Y976D01*
X0Y975D02*
X7Y975D01*
X1145Y975D02*
X1154Y975D01*
X1960Y975D02*
X1967Y975D01*
X0Y974D02*
X7Y974D01*
X1145Y974D02*
X1154Y974D01*
X1960Y974D02*
X1967Y974D01*
X0Y973D02*
X7Y973D01*
X1145Y973D02*
X1154Y973D01*
X1960Y973D02*
X1967Y973D01*
X0Y972D02*
X7Y972D01*
X1145Y972D02*
X1154Y972D01*
X1960Y972D02*
X1967Y972D01*
X0Y971D02*
X7Y971D01*
X1145Y971D02*
X1154Y971D01*
X1960Y971D02*
X1967Y971D01*
X0Y970D02*
X7Y970D01*
X1145Y970D02*
X1154Y970D01*
X1960Y970D02*
X1967Y970D01*
X0Y969D02*
X7Y969D01*
X1145Y969D02*
X1154Y969D01*
X1960Y969D02*
X1967Y969D01*
X0Y968D02*
X7Y968D01*
X1145Y968D02*
X1154Y968D01*
X1960Y968D02*
X1967Y968D01*
X0Y967D02*
X7Y967D01*
X1145Y967D02*
X1154Y967D01*
X1960Y967D02*
X1967Y967D01*
X0Y966D02*
X7Y966D01*
X1145Y966D02*
X1154Y966D01*
X1960Y966D02*
X1967Y966D01*
X0Y965D02*
X7Y965D01*
X1145Y965D02*
X1154Y965D01*
X1960Y965D02*
X1967Y965D01*
X0Y964D02*
X7Y964D01*
X1145Y964D02*
X1154Y964D01*
X1960Y964D02*
X1967Y964D01*
X0Y963D02*
X7Y963D01*
X1145Y963D02*
X1154Y963D01*
X1960Y963D02*
X1967Y963D01*
X0Y962D02*
X7Y962D01*
X1145Y962D02*
X1154Y962D01*
X1960Y962D02*
X1967Y962D01*
X0Y961D02*
X7Y961D01*
X1145Y961D02*
X1154Y961D01*
X1960Y961D02*
X1967Y961D01*
X0Y960D02*
X7Y960D01*
X1145Y960D02*
X1154Y960D01*
X1960Y960D02*
X1967Y960D01*
X0Y959D02*
X7Y959D01*
X1145Y959D02*
X1154Y959D01*
X1960Y959D02*
X1967Y959D01*
X0Y958D02*
X7Y958D01*
X1145Y958D02*
X1154Y958D01*
X1960Y958D02*
X1967Y958D01*
X0Y957D02*
X7Y957D01*
X1145Y957D02*
X1154Y957D01*
X1960Y957D02*
X1967Y957D01*
X0Y956D02*
X7Y956D01*
X1145Y956D02*
X1154Y956D01*
X1960Y956D02*
X1967Y956D01*
X0Y955D02*
X7Y955D01*
X1145Y955D02*
X1154Y955D01*
X1960Y955D02*
X1967Y955D01*
X0Y954D02*
X7Y954D01*
X1145Y954D02*
X1154Y954D01*
X1960Y954D02*
X1967Y954D01*
X0Y953D02*
X7Y953D01*
X1145Y953D02*
X1154Y953D01*
X1960Y953D02*
X1967Y953D01*
X0Y952D02*
X7Y952D01*
X1145Y952D02*
X1154Y952D01*
X1960Y952D02*
X1967Y952D01*
X0Y951D02*
X7Y951D01*
X1145Y951D02*
X1154Y951D01*
X1960Y951D02*
X1967Y951D01*
X0Y950D02*
X7Y950D01*
X1145Y950D02*
X1154Y950D01*
X1960Y950D02*
X1967Y950D01*
X0Y949D02*
X7Y949D01*
X1145Y949D02*
X1154Y949D01*
X1960Y949D02*
X1967Y949D01*
X0Y948D02*
X7Y948D01*
X1145Y948D02*
X1154Y948D01*
X1960Y948D02*
X1967Y948D01*
X0Y947D02*
X7Y947D01*
X1145Y947D02*
X1154Y947D01*
X1960Y947D02*
X1967Y947D01*
X0Y946D02*
X7Y946D01*
X1145Y946D02*
X1154Y946D01*
X1960Y946D02*
X1967Y946D01*
X0Y945D02*
X7Y945D01*
X1145Y945D02*
X1154Y945D01*
X1960Y945D02*
X1967Y945D01*
X0Y944D02*
X7Y944D01*
X1145Y944D02*
X1154Y944D01*
X1960Y944D02*
X1967Y944D01*
X0Y943D02*
X7Y943D01*
X1145Y943D02*
X1154Y943D01*
X1960Y943D02*
X1967Y943D01*
X0Y942D02*
X7Y942D01*
X1145Y942D02*
X1154Y942D01*
X1960Y942D02*
X1967Y942D01*
X0Y941D02*
X7Y941D01*
X1145Y941D02*
X1154Y941D01*
X1960Y941D02*
X1967Y941D01*
X0Y940D02*
X7Y940D01*
X1145Y940D02*
X1154Y940D01*
X1960Y940D02*
X1967Y940D01*
X0Y939D02*
X7Y939D01*
X1145Y939D02*
X1154Y939D01*
X1960Y939D02*
X1967Y939D01*
X0Y938D02*
X7Y938D01*
X1145Y938D02*
X1154Y938D01*
X1960Y938D02*
X1967Y938D01*
X0Y937D02*
X7Y937D01*
X1145Y937D02*
X1154Y937D01*
X1960Y937D02*
X1967Y937D01*
X0Y936D02*
X7Y936D01*
X1145Y936D02*
X1154Y936D01*
X1960Y936D02*
X1967Y936D01*
X0Y935D02*
X7Y935D01*
X1145Y935D02*
X1154Y935D01*
X1960Y935D02*
X1967Y935D01*
X0Y934D02*
X7Y934D01*
X1145Y934D02*
X1154Y934D01*
X1960Y934D02*
X1967Y934D01*
X0Y933D02*
X7Y933D01*
X1145Y933D02*
X1154Y933D01*
X1960Y933D02*
X1967Y933D01*
X0Y932D02*
X7Y932D01*
X1145Y932D02*
X1154Y932D01*
X1960Y932D02*
X1967Y932D01*
X0Y931D02*
X7Y931D01*
X1145Y931D02*
X1154Y931D01*
X1960Y931D02*
X1967Y931D01*
X0Y930D02*
X7Y930D01*
X1145Y930D02*
X1154Y930D01*
X1960Y930D02*
X1967Y930D01*
X0Y929D02*
X7Y929D01*
X1145Y929D02*
X1154Y929D01*
X1960Y929D02*
X1967Y929D01*
X0Y928D02*
X7Y928D01*
X1145Y928D02*
X1154Y928D01*
X1960Y928D02*
X1967Y928D01*
X0Y927D02*
X7Y927D01*
X1145Y927D02*
X1154Y927D01*
X1960Y927D02*
X1967Y927D01*
X0Y926D02*
X7Y926D01*
X1145Y926D02*
X1154Y926D01*
X1960Y926D02*
X1967Y926D01*
X0Y925D02*
X7Y925D01*
X1145Y925D02*
X1154Y925D01*
X1960Y925D02*
X1967Y925D01*
X0Y924D02*
X7Y924D01*
X1145Y924D02*
X1154Y924D01*
X1960Y924D02*
X1967Y924D01*
X0Y923D02*
X7Y923D01*
X1145Y923D02*
X1154Y923D01*
X1960Y923D02*
X1967Y923D01*
X0Y922D02*
X7Y922D01*
X1145Y922D02*
X1154Y922D01*
X1960Y922D02*
X1967Y922D01*
X0Y921D02*
X7Y921D01*
X1145Y921D02*
X1154Y921D01*
X1960Y921D02*
X1967Y921D01*
X0Y920D02*
X7Y920D01*
X1145Y920D02*
X1154Y920D01*
X1960Y920D02*
X1967Y920D01*
X0Y919D02*
X7Y919D01*
X1145Y919D02*
X1154Y919D01*
X1960Y919D02*
X1967Y919D01*
X0Y918D02*
X7Y918D01*
X1145Y918D02*
X1154Y918D01*
X1960Y918D02*
X1967Y918D01*
X0Y917D02*
X7Y917D01*
X1145Y917D02*
X1154Y917D01*
X1960Y917D02*
X1967Y917D01*
X0Y916D02*
X7Y916D01*
X1145Y916D02*
X1154Y916D01*
X1960Y916D02*
X1967Y916D01*
X0Y915D02*
X7Y915D01*
X1145Y915D02*
X1154Y915D01*
X1960Y915D02*
X1967Y915D01*
X0Y914D02*
X7Y914D01*
X1145Y914D02*
X1154Y914D01*
X1960Y914D02*
X1967Y914D01*
X0Y913D02*
X7Y913D01*
X1145Y913D02*
X1154Y913D01*
X1960Y913D02*
X1967Y913D01*
X0Y912D02*
X7Y912D01*
X1145Y912D02*
X1154Y912D01*
X1960Y912D02*
X1967Y912D01*
X0Y911D02*
X7Y911D01*
X1145Y911D02*
X1154Y911D01*
X1960Y911D02*
X1967Y911D01*
X0Y910D02*
X7Y910D01*
X1145Y910D02*
X1154Y910D01*
X1960Y910D02*
X1967Y910D01*
X0Y909D02*
X7Y909D01*
X1145Y909D02*
X1154Y909D01*
X1960Y909D02*
X1967Y909D01*
X0Y908D02*
X7Y908D01*
X1145Y908D02*
X1154Y908D01*
X1960Y908D02*
X1967Y908D01*
X0Y907D02*
X7Y907D01*
X1145Y907D02*
X1154Y907D01*
X1960Y907D02*
X1967Y907D01*
X0Y906D02*
X7Y906D01*
X1145Y906D02*
X1154Y906D01*
X1960Y906D02*
X1967Y906D01*
X0Y905D02*
X7Y905D01*
X1145Y905D02*
X1154Y905D01*
X1960Y905D02*
X1967Y905D01*
X0Y904D02*
X7Y904D01*
X1145Y904D02*
X1154Y904D01*
X1960Y904D02*
X1967Y904D01*
X0Y903D02*
X7Y903D01*
X1145Y903D02*
X1154Y903D01*
X1960Y903D02*
X1967Y903D01*
X0Y902D02*
X7Y902D01*
X1145Y902D02*
X1154Y902D01*
X1960Y902D02*
X1967Y902D01*
X0Y901D02*
X7Y901D01*
X1145Y901D02*
X1154Y901D01*
X1960Y901D02*
X1967Y901D01*
X0Y900D02*
X7Y900D01*
X1145Y900D02*
X1154Y900D01*
X1960Y900D02*
X1967Y900D01*
X0Y899D02*
X7Y899D01*
X1145Y899D02*
X1154Y899D01*
X1960Y899D02*
X1967Y899D01*
X0Y898D02*
X7Y898D01*
X1145Y898D02*
X1154Y898D01*
X1960Y898D02*
X1967Y898D01*
X0Y897D02*
X7Y897D01*
X1145Y897D02*
X1154Y897D01*
X1960Y897D02*
X1967Y897D01*
X0Y896D02*
X7Y896D01*
X1145Y896D02*
X1154Y896D01*
X1960Y896D02*
X1967Y896D01*
X0Y895D02*
X7Y895D01*
X1145Y895D02*
X1154Y895D01*
X1960Y895D02*
X1967Y895D01*
X0Y894D02*
X7Y894D01*
X1145Y894D02*
X1154Y894D01*
X1960Y894D02*
X1967Y894D01*
X0Y893D02*
X7Y893D01*
X1145Y893D02*
X1154Y893D01*
X1960Y893D02*
X1967Y893D01*
X0Y892D02*
X7Y892D01*
X1145Y892D02*
X1154Y892D01*
X1960Y892D02*
X1967Y892D01*
X0Y891D02*
X7Y891D01*
X1145Y891D02*
X1154Y891D01*
X1960Y891D02*
X1967Y891D01*
X0Y890D02*
X7Y890D01*
X1145Y890D02*
X1154Y890D01*
X1875Y890D02*
X1879Y890D01*
X1898Y890D02*
X1902Y890D01*
X1960Y890D02*
X1967Y890D01*
X0Y889D02*
X7Y889D01*
X1145Y889D02*
X1154Y889D01*
X1874Y889D02*
X1879Y889D01*
X1896Y889D02*
X1903Y889D01*
X1960Y889D02*
X1967Y889D01*
X0Y888D02*
X7Y888D01*
X1145Y888D02*
X1154Y888D01*
X1873Y888D02*
X1879Y888D01*
X1895Y888D02*
X1904Y888D01*
X1960Y888D02*
X1967Y888D01*
X0Y887D02*
X7Y887D01*
X1145Y887D02*
X1154Y887D01*
X1873Y887D02*
X1878Y887D01*
X1894Y887D02*
X1904Y887D01*
X1960Y887D02*
X1967Y887D01*
X0Y886D02*
X7Y886D01*
X1145Y886D02*
X1154Y886D01*
X1873Y886D02*
X1876Y886D01*
X1893Y886D02*
X1898Y886D01*
X1901Y886D02*
X1904Y886D01*
X1960Y886D02*
X1967Y886D01*
X0Y885D02*
X7Y885D01*
X1145Y885D02*
X1154Y885D01*
X1873Y885D02*
X1876Y885D01*
X1891Y885D02*
X1897Y885D01*
X1901Y885D02*
X1904Y885D01*
X1960Y885D02*
X1967Y885D01*
X0Y884D02*
X7Y884D01*
X1145Y884D02*
X1154Y884D01*
X1873Y884D02*
X1876Y884D01*
X1890Y884D02*
X1896Y884D01*
X1901Y884D02*
X1904Y884D01*
X1960Y884D02*
X1967Y884D01*
X0Y883D02*
X7Y883D01*
X1145Y883D02*
X1154Y883D01*
X1873Y883D02*
X1876Y883D01*
X1889Y883D02*
X1895Y883D01*
X1901Y883D02*
X1904Y883D01*
X1960Y883D02*
X1967Y883D01*
X0Y882D02*
X7Y882D01*
X1145Y882D02*
X1154Y882D01*
X1873Y882D02*
X1876Y882D01*
X1887Y882D02*
X1893Y882D01*
X1901Y882D02*
X1904Y882D01*
X1960Y882D02*
X1967Y882D01*
X0Y881D02*
X7Y881D01*
X1145Y881D02*
X1154Y881D01*
X1873Y881D02*
X1876Y881D01*
X1886Y881D02*
X1892Y881D01*
X1901Y881D02*
X1904Y881D01*
X1960Y881D02*
X1967Y881D01*
X0Y880D02*
X7Y880D01*
X1145Y880D02*
X1154Y880D01*
X1873Y880D02*
X1876Y880D01*
X1885Y880D02*
X1891Y880D01*
X1901Y880D02*
X1904Y880D01*
X1960Y880D02*
X1967Y880D01*
X0Y879D02*
X7Y879D01*
X1145Y879D02*
X1154Y879D01*
X1873Y879D02*
X1876Y879D01*
X1884Y879D02*
X1889Y879D01*
X1901Y879D02*
X1904Y879D01*
X1960Y879D02*
X1967Y879D01*
X0Y878D02*
X7Y878D01*
X1145Y878D02*
X1154Y878D01*
X1873Y878D02*
X1876Y878D01*
X1882Y878D02*
X1888Y878D01*
X1901Y878D02*
X1904Y878D01*
X1960Y878D02*
X1967Y878D01*
X0Y877D02*
X7Y877D01*
X1145Y877D02*
X1154Y877D01*
X1873Y877D02*
X1876Y877D01*
X1881Y877D02*
X1887Y877D01*
X1901Y877D02*
X1904Y877D01*
X1960Y877D02*
X1967Y877D01*
X0Y876D02*
X7Y876D01*
X1145Y876D02*
X1154Y876D01*
X1873Y876D02*
X1876Y876D01*
X1880Y876D02*
X1886Y876D01*
X1901Y876D02*
X1904Y876D01*
X1960Y876D02*
X1967Y876D01*
X0Y875D02*
X7Y875D01*
X1145Y875D02*
X1154Y875D01*
X1873Y875D02*
X1876Y875D01*
X1878Y875D02*
X1884Y875D01*
X1901Y875D02*
X1904Y875D01*
X1960Y875D02*
X1967Y875D01*
X0Y874D02*
X7Y874D01*
X1145Y874D02*
X1154Y874D01*
X1873Y874D02*
X1883Y874D01*
X1899Y874D02*
X1904Y874D01*
X1960Y874D02*
X1967Y874D01*
X0Y873D02*
X7Y873D01*
X1145Y873D02*
X1154Y873D01*
X1873Y873D02*
X1882Y873D01*
X1898Y873D02*
X1903Y873D01*
X1960Y873D02*
X1967Y873D01*
X0Y872D02*
X7Y872D01*
X1145Y872D02*
X1154Y872D01*
X1874Y872D02*
X1880Y872D01*
X1897Y872D02*
X1903Y872D01*
X1960Y872D02*
X1967Y872D01*
X0Y871D02*
X7Y871D01*
X1145Y871D02*
X1154Y871D01*
X1875Y871D02*
X1879Y871D01*
X1898Y871D02*
X1902Y871D01*
X1960Y871D02*
X1967Y871D01*
X0Y870D02*
X7Y870D01*
X1145Y870D02*
X1154Y870D01*
X1960Y870D02*
X1967Y870D01*
X0Y869D02*
X7Y869D01*
X1145Y869D02*
X1154Y869D01*
X1960Y869D02*
X1967Y869D01*
X0Y868D02*
X7Y868D01*
X1145Y868D02*
X1154Y868D01*
X1960Y868D02*
X1967Y868D01*
X0Y867D02*
X7Y867D01*
X1145Y867D02*
X1154Y867D01*
X1960Y867D02*
X1967Y867D01*
X0Y866D02*
X7Y866D01*
X1145Y866D02*
X1154Y866D01*
X1960Y866D02*
X1967Y866D01*
X0Y865D02*
X7Y865D01*
X1145Y865D02*
X1154Y865D01*
X1960Y865D02*
X1967Y865D01*
X0Y864D02*
X7Y864D01*
X1145Y864D02*
X1154Y864D01*
X1960Y864D02*
X1967Y864D01*
X0Y863D02*
X7Y863D01*
X1145Y863D02*
X1154Y863D01*
X1960Y863D02*
X1967Y863D01*
X0Y862D02*
X7Y862D01*
X1145Y862D02*
X1154Y862D01*
X1960Y862D02*
X1967Y862D01*
X0Y861D02*
X7Y861D01*
X1145Y861D02*
X1154Y861D01*
X1960Y861D02*
X1967Y861D01*
X0Y860D02*
X7Y860D01*
X1145Y860D02*
X1154Y860D01*
X1873Y860D02*
X1875Y860D01*
X1902Y860D02*
X1904Y860D01*
X1960Y860D02*
X1967Y860D01*
X0Y859D02*
X7Y859D01*
X1145Y859D02*
X1154Y859D01*
X1873Y859D02*
X1876Y859D01*
X1901Y859D02*
X1904Y859D01*
X1960Y859D02*
X1967Y859D01*
X0Y858D02*
X7Y858D01*
X1145Y858D02*
X1154Y858D01*
X1873Y858D02*
X1876Y858D01*
X1901Y858D02*
X1904Y858D01*
X1960Y858D02*
X1967Y858D01*
X0Y857D02*
X7Y857D01*
X1145Y857D02*
X1154Y857D01*
X1873Y857D02*
X1876Y857D01*
X1901Y857D02*
X1904Y857D01*
X1960Y857D02*
X1967Y857D01*
X0Y856D02*
X7Y856D01*
X1145Y856D02*
X1154Y856D01*
X1873Y856D02*
X1876Y856D01*
X1901Y856D02*
X1904Y856D01*
X1960Y856D02*
X1967Y856D01*
X0Y855D02*
X7Y855D01*
X1145Y855D02*
X1154Y855D01*
X1873Y855D02*
X1876Y855D01*
X1901Y855D02*
X1904Y855D01*
X1960Y855D02*
X1967Y855D01*
X0Y854D02*
X7Y854D01*
X1145Y854D02*
X1154Y854D01*
X1873Y854D02*
X1876Y854D01*
X1901Y854D02*
X1904Y854D01*
X1960Y854D02*
X1967Y854D01*
X0Y853D02*
X7Y853D01*
X1145Y853D02*
X1154Y853D01*
X1873Y853D02*
X1876Y853D01*
X1901Y853D02*
X1904Y853D01*
X1960Y853D02*
X1967Y853D01*
X0Y852D02*
X7Y852D01*
X1145Y852D02*
X1154Y852D01*
X1873Y852D02*
X1904Y852D01*
X1960Y852D02*
X1967Y852D01*
X0Y851D02*
X7Y851D01*
X1145Y851D02*
X1154Y851D01*
X1873Y851D02*
X1904Y851D01*
X1960Y851D02*
X1967Y851D01*
X0Y850D02*
X7Y850D01*
X1145Y850D02*
X1154Y850D01*
X1873Y850D02*
X1904Y850D01*
X1960Y850D02*
X1967Y850D01*
X0Y849D02*
X7Y849D01*
X1145Y849D02*
X1154Y849D01*
X1873Y849D02*
X1904Y849D01*
X1960Y849D02*
X1967Y849D01*
X0Y848D02*
X7Y848D01*
X1145Y848D02*
X1154Y848D01*
X1873Y848D02*
X1876Y848D01*
X1960Y848D02*
X1967Y848D01*
X0Y847D02*
X7Y847D01*
X1145Y847D02*
X1154Y847D01*
X1873Y847D02*
X1876Y847D01*
X1960Y847D02*
X1967Y847D01*
X0Y846D02*
X7Y846D01*
X1145Y846D02*
X1154Y846D01*
X1873Y846D02*
X1876Y846D01*
X1960Y846D02*
X1967Y846D01*
X0Y845D02*
X7Y845D01*
X1145Y845D02*
X1154Y845D01*
X1873Y845D02*
X1876Y845D01*
X1960Y845D02*
X1967Y845D01*
X0Y844D02*
X7Y844D01*
X1145Y844D02*
X1154Y844D01*
X1873Y844D02*
X1885Y844D01*
X1960Y844D02*
X1967Y844D01*
X0Y843D02*
X7Y843D01*
X1145Y843D02*
X1154Y843D01*
X1873Y843D02*
X1886Y843D01*
X1960Y843D02*
X1967Y843D01*
X0Y842D02*
X7Y842D01*
X1145Y842D02*
X1154Y842D01*
X1873Y842D02*
X1886Y842D01*
X1960Y842D02*
X1967Y842D01*
X0Y841D02*
X7Y841D01*
X1145Y841D02*
X1154Y841D01*
X1873Y841D02*
X1886Y841D01*
X1960Y841D02*
X1967Y841D01*
X0Y840D02*
X7Y840D01*
X1145Y840D02*
X1154Y840D01*
X1874Y840D02*
X1885Y840D01*
X1960Y840D02*
X1967Y840D01*
X0Y839D02*
X7Y839D01*
X1145Y839D02*
X1154Y839D01*
X1960Y839D02*
X1967Y839D01*
X0Y838D02*
X7Y838D01*
X1145Y838D02*
X1154Y838D01*
X1960Y838D02*
X1967Y838D01*
X0Y837D02*
X7Y837D01*
X1145Y837D02*
X1154Y837D01*
X1960Y837D02*
X1967Y837D01*
X0Y836D02*
X7Y836D01*
X1145Y836D02*
X1154Y836D01*
X1960Y836D02*
X1967Y836D01*
X0Y835D02*
X7Y835D01*
X1145Y835D02*
X1154Y835D01*
X1960Y835D02*
X1967Y835D01*
X0Y834D02*
X7Y834D01*
X1145Y834D02*
X1154Y834D01*
X1960Y834D02*
X1967Y834D01*
X0Y833D02*
X7Y833D01*
X1145Y833D02*
X1154Y833D01*
X1960Y833D02*
X1967Y833D01*
X0Y832D02*
X7Y832D01*
X1145Y832D02*
X1154Y832D01*
X1960Y832D02*
X1967Y832D01*
X0Y831D02*
X7Y831D01*
X1145Y831D02*
X1154Y831D01*
X1960Y831D02*
X1967Y831D01*
X0Y830D02*
X7Y830D01*
X1145Y830D02*
X1154Y830D01*
X1960Y830D02*
X1967Y830D01*
X0Y829D02*
X7Y829D01*
X1145Y829D02*
X1154Y829D01*
X1960Y829D02*
X1967Y829D01*
X0Y828D02*
X7Y828D01*
X1145Y828D02*
X1154Y828D01*
X1960Y828D02*
X1967Y828D01*
X0Y827D02*
X7Y827D01*
X1145Y827D02*
X1154Y827D01*
X1960Y827D02*
X1967Y827D01*
X0Y826D02*
X7Y826D01*
X1145Y826D02*
X1154Y826D01*
X1960Y826D02*
X1967Y826D01*
X0Y825D02*
X7Y825D01*
X1145Y825D02*
X1154Y825D01*
X1960Y825D02*
X1967Y825D01*
X0Y824D02*
X7Y824D01*
X1145Y824D02*
X1154Y824D01*
X1960Y824D02*
X1967Y824D01*
X0Y823D02*
X7Y823D01*
X1145Y823D02*
X1154Y823D01*
X1960Y823D02*
X1967Y823D01*
X0Y822D02*
X7Y822D01*
X1145Y822D02*
X1154Y822D01*
X1960Y822D02*
X1967Y822D01*
X0Y821D02*
X7Y821D01*
X1145Y821D02*
X1154Y821D01*
X1960Y821D02*
X1967Y821D01*
X0Y820D02*
X7Y820D01*
X1145Y820D02*
X1154Y820D01*
X1960Y820D02*
X1967Y820D01*
X0Y819D02*
X7Y819D01*
X1145Y819D02*
X1154Y819D01*
X1960Y819D02*
X1967Y819D01*
X0Y818D02*
X7Y818D01*
X1145Y818D02*
X1154Y818D01*
X1960Y818D02*
X1967Y818D01*
X0Y817D02*
X7Y817D01*
X1145Y817D02*
X1154Y817D01*
X1960Y817D02*
X1967Y817D01*
X0Y816D02*
X7Y816D01*
X1145Y816D02*
X1154Y816D01*
X1960Y816D02*
X1967Y816D01*
X0Y815D02*
X7Y815D01*
X1145Y815D02*
X1154Y815D01*
X1960Y815D02*
X1967Y815D01*
X0Y814D02*
X7Y814D01*
X1145Y814D02*
X1154Y814D01*
X1960Y814D02*
X1967Y814D01*
X0Y813D02*
X7Y813D01*
X1145Y813D02*
X1154Y813D01*
X1960Y813D02*
X1967Y813D01*
X0Y812D02*
X7Y812D01*
X1145Y812D02*
X1154Y812D01*
X1960Y812D02*
X1967Y812D01*
X0Y811D02*
X7Y811D01*
X1145Y811D02*
X1154Y811D01*
X1960Y811D02*
X1967Y811D01*
X0Y810D02*
X7Y810D01*
X1145Y810D02*
X1154Y810D01*
X1960Y810D02*
X1967Y810D01*
X0Y809D02*
X7Y809D01*
X1145Y809D02*
X1154Y809D01*
X1960Y809D02*
X1967Y809D01*
X0Y808D02*
X7Y808D01*
X1145Y808D02*
X1154Y808D01*
X1960Y808D02*
X1967Y808D01*
X0Y807D02*
X7Y807D01*
X1145Y807D02*
X1154Y807D01*
X1960Y807D02*
X1967Y807D01*
X0Y806D02*
X7Y806D01*
X1145Y806D02*
X1154Y806D01*
X1960Y806D02*
X1967Y806D01*
X0Y805D02*
X7Y805D01*
X1145Y805D02*
X1154Y805D01*
X1960Y805D02*
X1967Y805D01*
X0Y804D02*
X7Y804D01*
X1145Y804D02*
X1154Y804D01*
X1960Y804D02*
X1967Y804D01*
X0Y803D02*
X7Y803D01*
X1145Y803D02*
X1154Y803D01*
X1960Y803D02*
X1967Y803D01*
X0Y802D02*
X7Y802D01*
X1145Y802D02*
X1154Y802D01*
X1960Y802D02*
X1967Y802D01*
X0Y801D02*
X7Y801D01*
X1145Y801D02*
X1154Y801D01*
X1960Y801D02*
X1967Y801D01*
X0Y800D02*
X7Y800D01*
X1145Y800D02*
X1154Y800D01*
X1960Y800D02*
X1967Y800D01*
X0Y799D02*
X7Y799D01*
X1145Y799D02*
X1154Y799D01*
X1960Y799D02*
X1967Y799D01*
X0Y798D02*
X7Y798D01*
X1145Y798D02*
X1154Y798D01*
X1960Y798D02*
X1967Y798D01*
X0Y797D02*
X7Y797D01*
X1145Y797D02*
X1154Y797D01*
X1960Y797D02*
X1967Y797D01*
X0Y796D02*
X7Y796D01*
X1145Y796D02*
X1154Y796D01*
X1960Y796D02*
X1967Y796D01*
X0Y795D02*
X7Y795D01*
X1145Y795D02*
X1154Y795D01*
X1960Y795D02*
X1967Y795D01*
X0Y794D02*
X7Y794D01*
X1145Y794D02*
X1154Y794D01*
X1960Y794D02*
X1967Y794D01*
X0Y793D02*
X7Y793D01*
X1145Y793D02*
X1154Y793D01*
X1960Y793D02*
X1967Y793D01*
X0Y792D02*
X7Y792D01*
X1145Y792D02*
X1154Y792D01*
X1960Y792D02*
X1967Y792D01*
X0Y791D02*
X7Y791D01*
X1145Y791D02*
X1154Y791D01*
X1960Y791D02*
X1967Y791D01*
X0Y790D02*
X7Y790D01*
X1145Y790D02*
X1154Y790D01*
X1960Y790D02*
X1967Y790D01*
X0Y789D02*
X7Y789D01*
X1145Y789D02*
X1154Y789D01*
X1960Y789D02*
X1967Y789D01*
X0Y788D02*
X7Y788D01*
X1145Y788D02*
X1154Y788D01*
X1960Y788D02*
X1967Y788D01*
X0Y787D02*
X7Y787D01*
X1145Y787D02*
X1154Y787D01*
X1960Y787D02*
X1967Y787D01*
X0Y786D02*
X7Y786D01*
X1145Y786D02*
X1154Y786D01*
X1960Y786D02*
X1967Y786D01*
X0Y785D02*
X7Y785D01*
X1145Y785D02*
X1154Y785D01*
X1960Y785D02*
X1967Y785D01*
X0Y784D02*
X7Y784D01*
X1145Y784D02*
X1154Y784D01*
X1960Y784D02*
X1967Y784D01*
X0Y783D02*
X7Y783D01*
X1145Y783D02*
X1154Y783D01*
X1960Y783D02*
X1967Y783D01*
X0Y782D02*
X7Y782D01*
X1145Y782D02*
X1154Y782D01*
X1960Y782D02*
X1967Y782D01*
X0Y781D02*
X7Y781D01*
X1145Y781D02*
X1154Y781D01*
X1960Y781D02*
X1967Y781D01*
X0Y780D02*
X7Y780D01*
X1145Y780D02*
X1154Y780D01*
X1960Y780D02*
X1967Y780D01*
X0Y779D02*
X7Y779D01*
X1145Y779D02*
X1154Y779D01*
X1960Y779D02*
X1967Y779D01*
X0Y778D02*
X7Y778D01*
X1145Y778D02*
X1154Y778D01*
X1960Y778D02*
X1967Y778D01*
X0Y777D02*
X7Y777D01*
X1145Y777D02*
X1154Y777D01*
X1960Y777D02*
X1967Y777D01*
X0Y776D02*
X7Y776D01*
X1145Y776D02*
X1154Y776D01*
X1960Y776D02*
X1967Y776D01*
X0Y775D02*
X7Y775D01*
X1145Y775D02*
X1154Y775D01*
X1960Y775D02*
X1967Y775D01*
X0Y774D02*
X7Y774D01*
X1145Y774D02*
X1154Y774D01*
X1960Y774D02*
X1967Y774D01*
X0Y773D02*
X7Y773D01*
X1145Y773D02*
X1154Y773D01*
X1868Y773D02*
X1870Y773D01*
X1897Y773D02*
X1899Y773D01*
X1960Y773D02*
X1967Y773D01*
X0Y772D02*
X7Y772D01*
X1145Y772D02*
X1154Y772D01*
X1868Y772D02*
X1871Y772D01*
X1896Y772D02*
X1899Y772D01*
X1960Y772D02*
X1967Y772D01*
X0Y771D02*
X7Y771D01*
X1145Y771D02*
X1154Y771D01*
X1868Y771D02*
X1871Y771D01*
X1896Y771D02*
X1899Y771D01*
X1960Y771D02*
X1967Y771D01*
X0Y770D02*
X7Y770D01*
X1145Y770D02*
X1154Y770D01*
X1868Y770D02*
X1871Y770D01*
X1896Y770D02*
X1899Y770D01*
X1960Y770D02*
X1967Y770D01*
X0Y769D02*
X7Y769D01*
X1145Y769D02*
X1154Y769D01*
X1868Y769D02*
X1871Y769D01*
X1896Y769D02*
X1899Y769D01*
X1960Y769D02*
X1967Y769D01*
X0Y768D02*
X7Y768D01*
X1145Y768D02*
X1154Y768D01*
X1868Y768D02*
X1871Y768D01*
X1896Y768D02*
X1899Y768D01*
X1960Y768D02*
X1967Y768D01*
X0Y767D02*
X7Y767D01*
X1145Y767D02*
X1154Y767D01*
X1868Y767D02*
X1871Y767D01*
X1896Y767D02*
X1899Y767D01*
X1960Y767D02*
X1967Y767D01*
X0Y766D02*
X7Y766D01*
X1145Y766D02*
X1154Y766D01*
X1868Y766D02*
X1871Y766D01*
X1896Y766D02*
X1899Y766D01*
X1960Y766D02*
X1967Y766D01*
X0Y765D02*
X7Y765D01*
X1145Y765D02*
X1154Y765D01*
X1868Y765D02*
X1899Y765D01*
X1960Y765D02*
X1967Y765D01*
X0Y764D02*
X7Y764D01*
X1145Y764D02*
X1154Y764D01*
X1868Y764D02*
X1899Y764D01*
X1960Y764D02*
X1967Y764D01*
X0Y763D02*
X7Y763D01*
X1145Y763D02*
X1154Y763D01*
X1868Y763D02*
X1899Y763D01*
X1960Y763D02*
X1967Y763D01*
X0Y762D02*
X7Y762D01*
X1145Y762D02*
X1154Y762D01*
X1868Y762D02*
X1899Y762D01*
X1960Y762D02*
X1967Y762D01*
X0Y761D02*
X7Y761D01*
X1145Y761D02*
X1154Y761D01*
X1868Y761D02*
X1871Y761D01*
X1896Y761D02*
X1899Y761D01*
X1960Y761D02*
X1967Y761D01*
X0Y760D02*
X7Y760D01*
X1145Y760D02*
X1154Y760D01*
X1868Y760D02*
X1871Y760D01*
X1896Y760D02*
X1899Y760D01*
X1960Y760D02*
X1967Y760D01*
X0Y759D02*
X7Y759D01*
X1145Y759D02*
X1154Y759D01*
X1868Y759D02*
X1871Y759D01*
X1896Y759D02*
X1899Y759D01*
X1960Y759D02*
X1967Y759D01*
X0Y758D02*
X7Y758D01*
X1145Y758D02*
X1154Y758D01*
X1868Y758D02*
X1871Y758D01*
X1896Y758D02*
X1899Y758D01*
X1960Y758D02*
X1967Y758D01*
X0Y757D02*
X7Y757D01*
X1145Y757D02*
X1154Y757D01*
X1868Y757D02*
X1871Y757D01*
X1896Y757D02*
X1899Y757D01*
X1960Y757D02*
X1967Y757D01*
X0Y756D02*
X7Y756D01*
X1145Y756D02*
X1154Y756D01*
X1868Y756D02*
X1871Y756D01*
X1896Y756D02*
X1899Y756D01*
X1960Y756D02*
X1967Y756D01*
X0Y755D02*
X7Y755D01*
X1145Y755D02*
X1154Y755D01*
X1868Y755D02*
X1871Y755D01*
X1896Y755D02*
X1899Y755D01*
X1960Y755D02*
X1967Y755D01*
X0Y754D02*
X7Y754D01*
X1145Y754D02*
X1154Y754D01*
X1868Y754D02*
X1871Y754D01*
X1896Y754D02*
X1899Y754D01*
X1960Y754D02*
X1967Y754D01*
X0Y753D02*
X7Y753D01*
X1145Y753D02*
X1154Y753D01*
X1869Y753D02*
X1869Y753D01*
X1898Y753D02*
X1898Y753D01*
X1960Y753D02*
X1967Y753D01*
X0Y752D02*
X7Y752D01*
X1145Y752D02*
X1154Y752D01*
X1960Y752D02*
X1967Y752D01*
X0Y751D02*
X7Y751D01*
X1145Y751D02*
X1154Y751D01*
X1960Y751D02*
X1967Y751D01*
X0Y750D02*
X7Y750D01*
X1145Y750D02*
X1154Y750D01*
X1960Y750D02*
X1967Y750D01*
X0Y749D02*
X7Y749D01*
X1145Y749D02*
X1154Y749D01*
X1960Y749D02*
X1967Y749D01*
X0Y748D02*
X7Y748D01*
X1145Y748D02*
X1154Y748D01*
X1960Y748D02*
X1967Y748D01*
X0Y747D02*
X7Y747D01*
X1145Y747D02*
X1154Y747D01*
X1960Y747D02*
X1967Y747D01*
X0Y746D02*
X7Y746D01*
X1145Y746D02*
X1154Y746D01*
X1960Y746D02*
X1967Y746D01*
X0Y745D02*
X7Y745D01*
X1145Y745D02*
X1154Y745D01*
X1960Y745D02*
X1967Y745D01*
X0Y744D02*
X7Y744D01*
X1145Y744D02*
X1154Y744D01*
X1960Y744D02*
X1967Y744D01*
X0Y743D02*
X7Y743D01*
X1145Y743D02*
X1154Y743D01*
X1868Y743D02*
X1870Y743D01*
X1960Y743D02*
X1967Y743D01*
X0Y742D02*
X7Y742D01*
X1145Y742D02*
X1154Y742D01*
X1868Y742D02*
X1872Y742D01*
X1960Y742D02*
X1967Y742D01*
X0Y741D02*
X7Y741D01*
X1145Y741D02*
X1154Y741D01*
X1868Y741D02*
X1874Y741D01*
X1960Y741D02*
X1967Y741D01*
X0Y740D02*
X7Y740D01*
X1145Y740D02*
X1154Y740D01*
X1868Y740D02*
X1876Y740D01*
X1960Y740D02*
X1967Y740D01*
X0Y739D02*
X7Y739D01*
X1145Y739D02*
X1154Y739D01*
X1870Y739D02*
X1877Y739D01*
X1960Y739D02*
X1967Y739D01*
X0Y738D02*
X7Y738D01*
X1145Y738D02*
X1154Y738D01*
X1872Y738D02*
X1879Y738D01*
X1960Y738D02*
X1967Y738D01*
X0Y737D02*
X7Y737D01*
X1145Y737D02*
X1154Y737D01*
X1873Y737D02*
X1881Y737D01*
X1960Y737D02*
X1967Y737D01*
X0Y736D02*
X7Y736D01*
X1145Y736D02*
X1154Y736D01*
X1875Y736D02*
X1882Y736D01*
X1960Y736D02*
X1967Y736D01*
X0Y735D02*
X7Y735D01*
X1145Y735D02*
X1154Y735D01*
X1877Y735D02*
X1884Y735D01*
X1960Y735D02*
X1967Y735D01*
X0Y734D02*
X7Y734D01*
X1145Y734D02*
X1154Y734D01*
X1878Y734D02*
X1886Y734D01*
X1960Y734D02*
X1967Y734D01*
X0Y733D02*
X7Y733D01*
X1145Y733D02*
X1154Y733D01*
X1880Y733D02*
X1888Y733D01*
X1960Y733D02*
X1967Y733D01*
X0Y732D02*
X7Y732D01*
X1145Y732D02*
X1154Y732D01*
X1882Y732D02*
X1889Y732D01*
X1960Y732D02*
X1967Y732D01*
X0Y731D02*
X7Y731D01*
X1145Y731D02*
X1154Y731D01*
X1884Y731D02*
X1891Y731D01*
X1960Y731D02*
X1967Y731D01*
X0Y730D02*
X7Y730D01*
X1145Y730D02*
X1154Y730D01*
X1885Y730D02*
X1893Y730D01*
X1960Y730D02*
X1967Y730D01*
X0Y729D02*
X7Y729D01*
X1145Y729D02*
X1154Y729D01*
X1887Y729D02*
X1894Y729D01*
X1960Y729D02*
X1967Y729D01*
X0Y728D02*
X7Y728D01*
X1145Y728D02*
X1154Y728D01*
X1889Y728D02*
X1896Y728D01*
X1960Y728D02*
X1967Y728D01*
X0Y727D02*
X7Y727D01*
X1145Y727D02*
X1154Y727D01*
X1890Y727D02*
X1898Y727D01*
X1960Y727D02*
X1967Y727D01*
X0Y726D02*
X7Y726D01*
X1145Y726D02*
X1154Y726D01*
X1892Y726D02*
X1899Y726D01*
X1960Y726D02*
X1967Y726D01*
X0Y725D02*
X7Y725D01*
X1145Y725D02*
X1154Y725D01*
X1894Y725D02*
X1899Y725D01*
X1960Y725D02*
X1967Y725D01*
X0Y724D02*
X7Y724D01*
X1145Y724D02*
X1154Y724D01*
X1896Y724D02*
X1899Y724D01*
X1960Y724D02*
X1967Y724D01*
X0Y723D02*
X7Y723D01*
X1145Y723D02*
X1154Y723D01*
X1897Y723D02*
X1898Y723D01*
X1960Y723D02*
X1967Y723D01*
X0Y722D02*
X7Y722D01*
X1145Y722D02*
X1154Y722D01*
X1960Y722D02*
X1967Y722D01*
X0Y721D02*
X7Y721D01*
X1145Y721D02*
X1154Y721D01*
X1960Y721D02*
X1967Y721D01*
X0Y720D02*
X7Y720D01*
X1145Y720D02*
X1154Y720D01*
X1960Y720D02*
X1967Y720D01*
X0Y719D02*
X7Y719D01*
X1145Y719D02*
X1154Y719D01*
X1960Y719D02*
X1967Y719D01*
X0Y718D02*
X7Y718D01*
X1145Y718D02*
X1154Y718D01*
X1960Y718D02*
X1967Y718D01*
X0Y717D02*
X7Y717D01*
X1145Y717D02*
X1154Y717D01*
X1960Y717D02*
X1967Y717D01*
X0Y716D02*
X7Y716D01*
X1145Y716D02*
X1154Y716D01*
X1960Y716D02*
X1967Y716D01*
X0Y715D02*
X7Y715D01*
X1145Y715D02*
X1154Y715D01*
X1960Y715D02*
X1967Y715D01*
X0Y714D02*
X7Y714D01*
X1145Y714D02*
X1154Y714D01*
X1960Y714D02*
X1967Y714D01*
X0Y713D02*
X7Y713D01*
X1145Y713D02*
X1154Y713D01*
X1881Y713D02*
X1886Y713D01*
X1960Y713D02*
X1967Y713D01*
X0Y712D02*
X7Y712D01*
X1145Y712D02*
X1154Y712D01*
X1879Y712D02*
X1888Y712D01*
X1960Y712D02*
X1967Y712D01*
X0Y711D02*
X7Y711D01*
X1145Y711D02*
X1154Y711D01*
X1877Y711D02*
X1890Y711D01*
X1960Y711D02*
X1967Y711D01*
X0Y710D02*
X7Y710D01*
X1145Y710D02*
X1154Y710D01*
X1875Y710D02*
X1892Y710D01*
X1960Y710D02*
X1967Y710D01*
X0Y709D02*
X7Y709D01*
X1145Y709D02*
X1154Y709D01*
X1873Y709D02*
X1882Y709D01*
X1886Y709D02*
X1894Y709D01*
X1960Y709D02*
X1967Y709D01*
X0Y708D02*
X7Y708D01*
X1145Y708D02*
X1154Y708D01*
X1871Y708D02*
X1879Y708D01*
X1888Y708D02*
X1896Y708D01*
X1960Y708D02*
X1967Y708D01*
X0Y707D02*
X7Y707D01*
X1145Y707D02*
X1154Y707D01*
X1869Y707D02*
X1877Y707D01*
X1890Y707D02*
X1898Y707D01*
X1960Y707D02*
X1967Y707D01*
X0Y706D02*
X7Y706D01*
X1145Y706D02*
X1154Y706D01*
X1869Y706D02*
X1875Y706D01*
X1892Y706D02*
X1898Y706D01*
X1960Y706D02*
X1967Y706D01*
X0Y705D02*
X7Y705D01*
X1145Y705D02*
X1154Y705D01*
X1868Y705D02*
X1873Y705D01*
X1894Y705D02*
X1899Y705D01*
X1960Y705D02*
X1967Y705D01*
X0Y704D02*
X7Y704D01*
X1145Y704D02*
X1154Y704D01*
X1868Y704D02*
X1871Y704D01*
X1896Y704D02*
X1899Y704D01*
X1960Y704D02*
X1967Y704D01*
X0Y703D02*
X7Y703D01*
X1145Y703D02*
X1154Y703D01*
X1868Y703D02*
X1871Y703D01*
X1896Y703D02*
X1899Y703D01*
X1960Y703D02*
X1967Y703D01*
X0Y702D02*
X7Y702D01*
X1145Y702D02*
X1154Y702D01*
X1868Y702D02*
X1872Y702D01*
X1895Y702D02*
X1899Y702D01*
X1960Y702D02*
X1967Y702D01*
X0Y701D02*
X7Y701D01*
X1145Y701D02*
X1154Y701D01*
X1868Y701D02*
X1874Y701D01*
X1893Y701D02*
X1899Y701D01*
X1960Y701D02*
X1967Y701D01*
X0Y700D02*
X7Y700D01*
X1145Y700D02*
X1154Y700D01*
X1869Y700D02*
X1876Y700D01*
X1891Y700D02*
X1898Y700D01*
X1960Y700D02*
X1967Y700D01*
X0Y699D02*
X7Y699D01*
X1145Y699D02*
X1154Y699D01*
X1870Y699D02*
X1878Y699D01*
X1889Y699D02*
X1897Y699D01*
X1960Y699D02*
X1967Y699D01*
X0Y698D02*
X7Y698D01*
X1145Y698D02*
X1154Y698D01*
X1871Y698D02*
X1880Y698D01*
X1887Y698D02*
X1896Y698D01*
X1960Y698D02*
X1967Y698D01*
X0Y697D02*
X7Y697D01*
X1145Y697D02*
X1154Y697D01*
X1873Y697D02*
X1882Y697D01*
X1885Y697D02*
X1894Y697D01*
X1960Y697D02*
X1967Y697D01*
X0Y696D02*
X7Y696D01*
X1145Y696D02*
X1154Y696D01*
X1875Y696D02*
X1892Y696D01*
X1960Y696D02*
X1967Y696D01*
X0Y695D02*
X7Y695D01*
X1145Y695D02*
X1154Y695D01*
X1877Y695D02*
X1890Y695D01*
X1960Y695D02*
X1967Y695D01*
X0Y694D02*
X7Y694D01*
X1145Y694D02*
X1154Y694D01*
X1879Y694D02*
X1888Y694D01*
X1960Y694D02*
X1967Y694D01*
X0Y693D02*
X7Y693D01*
X1145Y693D02*
X1154Y693D01*
X1882Y693D02*
X1885Y693D01*
X1960Y693D02*
X1967Y693D01*
X0Y692D02*
X7Y692D01*
X1145Y692D02*
X1154Y692D01*
X1960Y692D02*
X1967Y692D01*
X0Y691D02*
X7Y691D01*
X1145Y691D02*
X1154Y691D01*
X1960Y691D02*
X1967Y691D01*
X0Y690D02*
X7Y690D01*
X1145Y690D02*
X1154Y690D01*
X1960Y690D02*
X1967Y690D01*
X0Y689D02*
X7Y689D01*
X1145Y689D02*
X1154Y689D01*
X1960Y689D02*
X1967Y689D01*
X0Y688D02*
X7Y688D01*
X1145Y688D02*
X1154Y688D01*
X1960Y688D02*
X1967Y688D01*
X0Y687D02*
X7Y687D01*
X1145Y687D02*
X1154Y687D01*
X1960Y687D02*
X1967Y687D01*
X0Y686D02*
X7Y686D01*
X1145Y686D02*
X1154Y686D01*
X1960Y686D02*
X1967Y686D01*
X0Y685D02*
X7Y685D01*
X1145Y685D02*
X1154Y685D01*
X1960Y685D02*
X1967Y685D01*
X0Y684D02*
X7Y684D01*
X1145Y684D02*
X1154Y684D01*
X1960Y684D02*
X1967Y684D01*
X0Y683D02*
X7Y683D01*
X1145Y683D02*
X1154Y683D01*
X1869Y683D02*
X1870Y683D01*
X1897Y683D02*
X1898Y683D01*
X1960Y683D02*
X1967Y683D01*
X0Y682D02*
X7Y682D01*
X1145Y682D02*
X1154Y682D01*
X1868Y682D02*
X1871Y682D01*
X1896Y682D02*
X1899Y682D01*
X1960Y682D02*
X1967Y682D01*
X0Y681D02*
X7Y681D01*
X1145Y681D02*
X1154Y681D01*
X1868Y681D02*
X1871Y681D01*
X1896Y681D02*
X1899Y681D01*
X1960Y681D02*
X1967Y681D01*
X0Y680D02*
X7Y680D01*
X1145Y680D02*
X1154Y680D01*
X1868Y680D02*
X1871Y680D01*
X1896Y680D02*
X1899Y680D01*
X1960Y680D02*
X1967Y680D01*
X0Y679D02*
X7Y679D01*
X1145Y679D02*
X1154Y679D01*
X1868Y679D02*
X1871Y679D01*
X1896Y679D02*
X1899Y679D01*
X1960Y679D02*
X1967Y679D01*
X0Y678D02*
X7Y678D01*
X1145Y678D02*
X1154Y678D01*
X1868Y678D02*
X1871Y678D01*
X1896Y678D02*
X1899Y678D01*
X1960Y678D02*
X1967Y678D01*
X0Y677D02*
X7Y677D01*
X1145Y677D02*
X1154Y677D01*
X1868Y677D02*
X1871Y677D01*
X1896Y677D02*
X1899Y677D01*
X1960Y677D02*
X1967Y677D01*
X0Y676D02*
X7Y676D01*
X1145Y676D02*
X1154Y676D01*
X1868Y676D02*
X1871Y676D01*
X1896Y676D02*
X1899Y676D01*
X1960Y676D02*
X1967Y676D01*
X0Y675D02*
X7Y675D01*
X1145Y675D02*
X1154Y675D01*
X1868Y675D02*
X1899Y675D01*
X1960Y675D02*
X1967Y675D01*
X0Y674D02*
X7Y674D01*
X1145Y674D02*
X1154Y674D01*
X1868Y674D02*
X1899Y674D01*
X1960Y674D02*
X1967Y674D01*
X0Y673D02*
X7Y673D01*
X1145Y673D02*
X1154Y673D01*
X1868Y673D02*
X1899Y673D01*
X1960Y673D02*
X1967Y673D01*
X0Y672D02*
X7Y672D01*
X1145Y672D02*
X1154Y672D01*
X1868Y672D02*
X1899Y672D01*
X1960Y672D02*
X1967Y672D01*
X0Y671D02*
X7Y671D01*
X1145Y671D02*
X1154Y671D01*
X1868Y671D02*
X1899Y671D01*
X1960Y671D02*
X1967Y671D01*
X0Y670D02*
X7Y670D01*
X1145Y670D02*
X1154Y670D01*
X1868Y670D02*
X1871Y670D01*
X1960Y670D02*
X1967Y670D01*
X0Y669D02*
X7Y669D01*
X1145Y669D02*
X1154Y669D01*
X1868Y669D02*
X1871Y669D01*
X1960Y669D02*
X1967Y669D01*
X0Y668D02*
X7Y668D01*
X1145Y668D02*
X1154Y668D01*
X1868Y668D02*
X1871Y668D01*
X1960Y668D02*
X1967Y668D01*
X0Y667D02*
X7Y667D01*
X1145Y667D02*
X1154Y667D01*
X1868Y667D02*
X1871Y667D01*
X1960Y667D02*
X1967Y667D01*
X0Y666D02*
X7Y666D01*
X1145Y666D02*
X1154Y666D01*
X1868Y666D02*
X1881Y666D01*
X1960Y666D02*
X1967Y666D01*
X0Y665D02*
X7Y665D01*
X1145Y665D02*
X1154Y665D01*
X1868Y665D02*
X1882Y665D01*
X1960Y665D02*
X1967Y665D01*
X0Y664D02*
X7Y664D01*
X1145Y664D02*
X1154Y664D01*
X1868Y664D02*
X1881Y664D01*
X1960Y664D02*
X1967Y664D01*
X0Y663D02*
X7Y663D01*
X1145Y663D02*
X1154Y663D01*
X1869Y663D02*
X1881Y663D01*
X1960Y663D02*
X1967Y663D01*
X0Y662D02*
X7Y662D01*
X1145Y662D02*
X1154Y662D01*
X1960Y662D02*
X1967Y662D01*
X0Y661D02*
X7Y661D01*
X1145Y661D02*
X1154Y661D01*
X1960Y661D02*
X1967Y661D01*
X0Y660D02*
X7Y660D01*
X1145Y660D02*
X1154Y660D01*
X1960Y660D02*
X1967Y660D01*
X0Y659D02*
X7Y659D01*
X1145Y659D02*
X1154Y659D01*
X1960Y659D02*
X1967Y659D01*
X0Y658D02*
X7Y658D01*
X1145Y658D02*
X1154Y658D01*
X1960Y658D02*
X1967Y658D01*
X0Y657D02*
X7Y657D01*
X1145Y657D02*
X1154Y657D01*
X1960Y657D02*
X1967Y657D01*
X0Y656D02*
X7Y656D01*
X1145Y656D02*
X1154Y656D01*
X1960Y656D02*
X1967Y656D01*
X0Y655D02*
X7Y655D01*
X1145Y655D02*
X1154Y655D01*
X1960Y655D02*
X1967Y655D01*
X0Y654D02*
X7Y654D01*
X1145Y654D02*
X1154Y654D01*
X1960Y654D02*
X1967Y654D01*
X0Y653D02*
X7Y653D01*
X1145Y653D02*
X1154Y653D01*
X1960Y653D02*
X1967Y653D01*
X0Y652D02*
X7Y652D01*
X1145Y652D02*
X1154Y652D01*
X1960Y652D02*
X1967Y652D01*
X0Y651D02*
X7Y651D01*
X1145Y651D02*
X1154Y651D01*
X1960Y651D02*
X1967Y651D01*
X0Y650D02*
X7Y650D01*
X1145Y650D02*
X1154Y650D01*
X1960Y650D02*
X1967Y650D01*
X0Y649D02*
X7Y649D01*
X1145Y649D02*
X1154Y649D01*
X1960Y649D02*
X1967Y649D01*
X0Y648D02*
X7Y648D01*
X1145Y648D02*
X1154Y648D01*
X1960Y648D02*
X1967Y648D01*
X0Y647D02*
X7Y647D01*
X1145Y647D02*
X1154Y647D01*
X1960Y647D02*
X1967Y647D01*
X0Y646D02*
X7Y646D01*
X1145Y646D02*
X1154Y646D01*
X1960Y646D02*
X1967Y646D01*
X0Y645D02*
X7Y645D01*
X1145Y645D02*
X1154Y645D01*
X1960Y645D02*
X1967Y645D01*
X0Y644D02*
X7Y644D01*
X1145Y644D02*
X1154Y644D01*
X1960Y644D02*
X1967Y644D01*
X0Y643D02*
X7Y643D01*
X1145Y643D02*
X1154Y643D01*
X1960Y643D02*
X1967Y643D01*
X0Y642D02*
X7Y642D01*
X1145Y642D02*
X1154Y642D01*
X1960Y642D02*
X1967Y642D01*
X0Y641D02*
X7Y641D01*
X1145Y641D02*
X1154Y641D01*
X1960Y641D02*
X1967Y641D01*
X0Y640D02*
X7Y640D01*
X1145Y640D02*
X1154Y640D01*
X1960Y640D02*
X1967Y640D01*
X0Y639D02*
X7Y639D01*
X1145Y639D02*
X1154Y639D01*
X1960Y639D02*
X1967Y639D01*
X0Y638D02*
X7Y638D01*
X1145Y638D02*
X1154Y638D01*
X1960Y638D02*
X1967Y638D01*
X0Y637D02*
X7Y637D01*
X1145Y637D02*
X1154Y637D01*
X1960Y637D02*
X1967Y637D01*
X0Y636D02*
X7Y636D01*
X1145Y636D02*
X1154Y636D01*
X1960Y636D02*
X1967Y636D01*
X0Y635D02*
X7Y635D01*
X1145Y635D02*
X1154Y635D01*
X1960Y635D02*
X1967Y635D01*
X0Y634D02*
X7Y634D01*
X1145Y634D02*
X1154Y634D01*
X1960Y634D02*
X1967Y634D01*
X0Y633D02*
X7Y633D01*
X1145Y633D02*
X1154Y633D01*
X1960Y633D02*
X1967Y633D01*
X0Y632D02*
X7Y632D01*
X1145Y632D02*
X1154Y632D01*
X1960Y632D02*
X1967Y632D01*
X0Y631D02*
X7Y631D01*
X1145Y631D02*
X1154Y631D01*
X1960Y631D02*
X1967Y631D01*
X0Y630D02*
X7Y630D01*
X1145Y630D02*
X1154Y630D01*
X1960Y630D02*
X1967Y630D01*
X0Y629D02*
X7Y629D01*
X1145Y629D02*
X1154Y629D01*
X1960Y629D02*
X1967Y629D01*
X0Y628D02*
X7Y628D01*
X1145Y628D02*
X1154Y628D01*
X1960Y628D02*
X1967Y628D01*
X0Y627D02*
X7Y627D01*
X1145Y627D02*
X1154Y627D01*
X1960Y627D02*
X1967Y627D01*
X0Y626D02*
X7Y626D01*
X1145Y626D02*
X1154Y626D01*
X1382Y626D02*
X1397Y626D01*
X1409Y626D02*
X1411Y626D01*
X1425Y626D02*
X1428Y626D01*
X1960Y626D02*
X1967Y626D01*
X0Y625D02*
X7Y625D01*
X1145Y625D02*
X1154Y625D01*
X1382Y625D02*
X1398Y625D01*
X1408Y625D02*
X1411Y625D01*
X1425Y625D02*
X1428Y625D01*
X1960Y625D02*
X1967Y625D01*
X0Y624D02*
X7Y624D01*
X1145Y624D02*
X1154Y624D01*
X1382Y624D02*
X1398Y624D01*
X1408Y624D02*
X1412Y624D01*
X1425Y624D02*
X1428Y624D01*
X1960Y624D02*
X1967Y624D01*
X0Y623D02*
X7Y623D01*
X1145Y623D02*
X1154Y623D01*
X1382Y623D02*
X1397Y623D01*
X1408Y623D02*
X1412Y623D01*
X1425Y623D02*
X1428Y623D01*
X1960Y623D02*
X1967Y623D01*
X0Y622D02*
X7Y622D01*
X1145Y622D02*
X1154Y622D01*
X1382Y622D02*
X1386Y622D01*
X1408Y622D02*
X1412Y622D01*
X1425Y622D02*
X1428Y622D01*
X1960Y622D02*
X1967Y622D01*
X0Y621D02*
X7Y621D01*
X1145Y621D02*
X1154Y621D01*
X1382Y621D02*
X1386Y621D01*
X1408Y621D02*
X1412Y621D01*
X1425Y621D02*
X1428Y621D01*
X1960Y621D02*
X1967Y621D01*
X0Y620D02*
X7Y620D01*
X1145Y620D02*
X1154Y620D01*
X1382Y620D02*
X1386Y620D01*
X1408Y620D02*
X1412Y620D01*
X1425Y620D02*
X1428Y620D01*
X1960Y620D02*
X1967Y620D01*
X0Y619D02*
X7Y619D01*
X1145Y619D02*
X1154Y619D01*
X1382Y619D02*
X1386Y619D01*
X1408Y619D02*
X1412Y619D01*
X1425Y619D02*
X1428Y619D01*
X1960Y619D02*
X1967Y619D01*
X0Y618D02*
X7Y618D01*
X1145Y618D02*
X1154Y618D01*
X1382Y618D02*
X1386Y618D01*
X1408Y618D02*
X1412Y618D01*
X1425Y618D02*
X1428Y618D01*
X1960Y618D02*
X1967Y618D01*
X0Y617D02*
X7Y617D01*
X1145Y617D02*
X1154Y617D01*
X1382Y617D02*
X1386Y617D01*
X1408Y617D02*
X1412Y617D01*
X1424Y617D02*
X1428Y617D01*
X1960Y617D02*
X1967Y617D01*
X0Y616D02*
X7Y616D01*
X1145Y616D02*
X1154Y616D01*
X1382Y616D02*
X1386Y616D01*
X1409Y616D02*
X1412Y616D01*
X1424Y616D02*
X1428Y616D01*
X1960Y616D02*
X1967Y616D01*
X0Y615D02*
X7Y615D01*
X1145Y615D02*
X1154Y615D01*
X1382Y615D02*
X1386Y615D01*
X1409Y615D02*
X1413Y615D01*
X1424Y615D02*
X1427Y615D01*
X1960Y615D02*
X1967Y615D01*
X0Y614D02*
X7Y614D01*
X1145Y614D02*
X1154Y614D01*
X1382Y614D02*
X1386Y614D01*
X1410Y614D02*
X1413Y614D01*
X1423Y614D02*
X1427Y614D01*
X1960Y614D02*
X1967Y614D01*
X0Y613D02*
X7Y613D01*
X1145Y613D02*
X1154Y613D01*
X1382Y613D02*
X1386Y613D01*
X1410Y613D02*
X1414Y613D01*
X1423Y613D02*
X1426Y613D01*
X1960Y613D02*
X1967Y613D01*
X0Y612D02*
X7Y612D01*
X1145Y612D02*
X1154Y612D01*
X1382Y612D02*
X1396Y612D01*
X1410Y612D02*
X1414Y612D01*
X1422Y612D02*
X1426Y612D01*
X1960Y612D02*
X1967Y612D01*
X0Y611D02*
X7Y611D01*
X1145Y611D02*
X1154Y611D01*
X1382Y611D02*
X1397Y611D01*
X1411Y611D02*
X1414Y611D01*
X1422Y611D02*
X1426Y611D01*
X1960Y611D02*
X1967Y611D01*
X0Y610D02*
X7Y610D01*
X1145Y610D02*
X1154Y610D01*
X1382Y610D02*
X1398Y610D01*
X1411Y610D02*
X1415Y610D01*
X1422Y610D02*
X1425Y610D01*
X1960Y610D02*
X1967Y610D01*
X0Y609D02*
X7Y609D01*
X1145Y609D02*
X1154Y609D01*
X1382Y609D02*
X1398Y609D01*
X1412Y609D02*
X1415Y609D01*
X1421Y609D02*
X1425Y609D01*
X1960Y609D02*
X1967Y609D01*
X0Y608D02*
X7Y608D01*
X1145Y608D02*
X1154Y608D01*
X1395Y608D02*
X1398Y608D01*
X1412Y608D02*
X1415Y608D01*
X1421Y608D02*
X1424Y608D01*
X1960Y608D02*
X1967Y608D01*
X0Y607D02*
X7Y607D01*
X1145Y607D02*
X1154Y607D01*
X1395Y607D02*
X1398Y607D01*
X1412Y607D02*
X1416Y607D01*
X1421Y607D02*
X1424Y607D01*
X1960Y607D02*
X1967Y607D01*
X0Y606D02*
X7Y606D01*
X1145Y606D02*
X1154Y606D01*
X1395Y606D02*
X1398Y606D01*
X1413Y606D02*
X1416Y606D01*
X1420Y606D02*
X1424Y606D01*
X1960Y606D02*
X1967Y606D01*
X0Y605D02*
X7Y605D01*
X1145Y605D02*
X1154Y605D01*
X1395Y605D02*
X1398Y605D01*
X1413Y605D02*
X1417Y605D01*
X1420Y605D02*
X1423Y605D01*
X1960Y605D02*
X1967Y605D01*
X0Y604D02*
X7Y604D01*
X1145Y604D02*
X1154Y604D01*
X1395Y604D02*
X1398Y604D01*
X1413Y604D02*
X1417Y604D01*
X1419Y604D02*
X1423Y604D01*
X1960Y604D02*
X1967Y604D01*
X0Y603D02*
X7Y603D01*
X1145Y603D02*
X1155Y603D01*
X1395Y603D02*
X1398Y603D01*
X1414Y603D02*
X1417Y603D01*
X1419Y603D02*
X1423Y603D01*
X1960Y603D02*
X1967Y603D01*
X0Y602D02*
X7Y602D01*
X1145Y602D02*
X1155Y602D01*
X1395Y602D02*
X1398Y602D01*
X1414Y602D02*
X1422Y602D01*
X1960Y602D02*
X1967Y602D01*
X0Y601D02*
X7Y601D01*
X1145Y601D02*
X1155Y601D01*
X1395Y601D02*
X1398Y601D01*
X1415Y601D02*
X1422Y601D01*
X1960Y601D02*
X1967Y601D01*
X0Y600D02*
X7Y600D01*
X1145Y600D02*
X1155Y600D01*
X1379Y600D02*
X1380Y600D01*
X1395Y600D02*
X1398Y600D01*
X1415Y600D02*
X1421Y600D01*
X1960Y600D02*
X1967Y600D01*
X0Y599D02*
X7Y599D01*
X1145Y599D02*
X1155Y599D01*
X1378Y599D02*
X1383Y599D01*
X1395Y599D02*
X1398Y599D01*
X1415Y599D02*
X1421Y599D01*
X1960Y599D02*
X1967Y599D01*
X0Y598D02*
X7Y598D01*
X1145Y598D02*
X1155Y598D01*
X1378Y598D02*
X1398Y598D01*
X1416Y598D02*
X1421Y598D01*
X1960Y598D02*
X1967Y598D01*
X0Y597D02*
X7Y597D01*
X1145Y597D02*
X1155Y597D01*
X1379Y597D02*
X1398Y597D01*
X1416Y597D02*
X1420Y597D01*
X1960Y597D02*
X1967Y597D01*
X0Y596D02*
X7Y596D01*
X1145Y596D02*
X1154Y596D01*
X1380Y596D02*
X1397Y596D01*
X1417Y596D02*
X1420Y596D01*
X1960Y596D02*
X1967Y596D01*
X0Y595D02*
X7Y595D01*
X1145Y595D02*
X1154Y595D01*
X1382Y595D02*
X1396Y595D01*
X1417Y595D02*
X1419Y595D01*
X1960Y595D02*
X1967Y595D01*
X0Y594D02*
X7Y594D01*
X1145Y594D02*
X1154Y594D01*
X1960Y594D02*
X1967Y594D01*
X0Y593D02*
X7Y593D01*
X1145Y593D02*
X1154Y593D01*
X1960Y593D02*
X1967Y593D01*
X0Y592D02*
X7Y592D01*
X1145Y592D02*
X1154Y592D01*
X1960Y592D02*
X1967Y592D01*
X0Y591D02*
X7Y591D01*
X1145Y591D02*
X1154Y591D01*
X1960Y591D02*
X1967Y591D01*
X0Y590D02*
X7Y590D01*
X1145Y590D02*
X1154Y590D01*
X1960Y590D02*
X1967Y590D01*
X0Y589D02*
X7Y589D01*
X1145Y589D02*
X1154Y589D01*
X1960Y589D02*
X1967Y589D01*
X0Y588D02*
X7Y588D01*
X1145Y588D02*
X1154Y588D01*
X1960Y588D02*
X1967Y588D01*
X0Y587D02*
X7Y587D01*
X1145Y587D02*
X1154Y587D01*
X1960Y587D02*
X1967Y587D01*
X0Y586D02*
X7Y586D01*
X1145Y586D02*
X1154Y586D01*
X1960Y586D02*
X1967Y586D01*
X0Y585D02*
X7Y585D01*
X1145Y585D02*
X1154Y585D01*
X1960Y585D02*
X1967Y585D01*
X0Y584D02*
X7Y584D01*
X1145Y584D02*
X1154Y584D01*
X1960Y584D02*
X1967Y584D01*
X0Y583D02*
X7Y583D01*
X1145Y583D02*
X1154Y583D01*
X1960Y583D02*
X1967Y583D01*
X0Y582D02*
X7Y582D01*
X1145Y582D02*
X1154Y582D01*
X1960Y582D02*
X1967Y582D01*
X0Y581D02*
X7Y581D01*
X1145Y581D02*
X1154Y581D01*
X1960Y581D02*
X1967Y581D01*
X0Y580D02*
X7Y580D01*
X1145Y580D02*
X1154Y580D01*
X1960Y580D02*
X1967Y580D01*
X0Y579D02*
X7Y579D01*
X1145Y579D02*
X1155Y579D01*
X1244Y579D02*
X1245Y579D01*
X1960Y579D02*
X1967Y579D01*
X0Y578D02*
X7Y578D01*
X1145Y578D02*
X1155Y578D01*
X1244Y578D02*
X1246Y578D01*
X1960Y578D02*
X1967Y578D01*
X0Y577D02*
X7Y577D01*
X1145Y577D02*
X1155Y577D01*
X1244Y577D02*
X1246Y577D01*
X1960Y577D02*
X1967Y577D01*
X0Y576D02*
X7Y576D01*
X1145Y576D02*
X1246Y576D01*
X1960Y576D02*
X1967Y576D01*
X0Y575D02*
X7Y575D01*
X1145Y575D02*
X1349Y575D01*
X1960Y575D02*
X1967Y575D01*
X0Y574D02*
X7Y574D01*
X1142Y574D02*
X1349Y574D01*
X1960Y574D02*
X1967Y574D01*
X0Y573D02*
X7Y573D01*
X1142Y573D02*
X1349Y573D01*
X1960Y573D02*
X1967Y573D01*
X0Y572D02*
X7Y572D01*
X1142Y572D02*
X1349Y572D01*
X1960Y572D02*
X1967Y572D01*
X0Y571D02*
X7Y571D01*
X1142Y571D02*
X1349Y571D01*
X1960Y571D02*
X1967Y571D01*
X0Y570D02*
X7Y570D01*
X1142Y570D02*
X1349Y570D01*
X1862Y570D02*
X1865Y570D01*
X1891Y570D02*
X1893Y570D01*
X1960Y570D02*
X1967Y570D01*
X0Y569D02*
X7Y569D01*
X1142Y569D02*
X1349Y569D01*
X1862Y569D02*
X1865Y569D01*
X1890Y569D02*
X1893Y569D01*
X1960Y569D02*
X1967Y569D01*
X0Y568D02*
X7Y568D01*
X1142Y568D02*
X1192Y568D01*
X1200Y568D02*
X1349Y568D01*
X1862Y568D02*
X1865Y568D01*
X1890Y568D02*
X1894Y568D01*
X1960Y568D02*
X1967Y568D01*
X0Y567D02*
X7Y567D01*
X1142Y567D02*
X1187Y567D01*
X1206Y567D02*
X1349Y567D01*
X1862Y567D02*
X1865Y567D01*
X1890Y567D02*
X1894Y567D01*
X1960Y567D02*
X1967Y567D01*
X0Y566D02*
X7Y566D01*
X1142Y566D02*
X1183Y566D01*
X1209Y566D02*
X1349Y566D01*
X1862Y566D02*
X1865Y566D01*
X1890Y566D02*
X1894Y566D01*
X1960Y566D02*
X1967Y566D01*
X0Y565D02*
X7Y565D01*
X1142Y565D02*
X1154Y565D01*
X1242Y565D02*
X1251Y565D01*
X1862Y565D02*
X1865Y565D01*
X1890Y565D02*
X1894Y565D01*
X1960Y565D02*
X1967Y565D01*
X0Y564D02*
X7Y564D01*
X1142Y564D02*
X1154Y564D01*
X1242Y564D02*
X1251Y564D01*
X1862Y564D02*
X1865Y564D01*
X1890Y564D02*
X1894Y564D01*
X1960Y564D02*
X1967Y564D01*
X0Y563D02*
X7Y563D01*
X1142Y563D02*
X1154Y563D01*
X1242Y563D02*
X1251Y563D01*
X1862Y563D02*
X1865Y563D01*
X1890Y563D02*
X1894Y563D01*
X1960Y563D02*
X1967Y563D01*
X0Y562D02*
X7Y562D01*
X1142Y562D02*
X1154Y562D01*
X1242Y562D02*
X1251Y562D01*
X1862Y562D02*
X1894Y562D01*
X1960Y562D02*
X1967Y562D01*
X0Y561D02*
X7Y561D01*
X1142Y561D02*
X1154Y561D01*
X1242Y561D02*
X1251Y561D01*
X1862Y561D02*
X1894Y561D01*
X1960Y561D02*
X1967Y561D01*
X0Y560D02*
X7Y560D01*
X1142Y560D02*
X1154Y560D01*
X1242Y560D02*
X1251Y560D01*
X1862Y560D02*
X1894Y560D01*
X1960Y560D02*
X1967Y560D01*
X0Y559D02*
X7Y559D01*
X1142Y559D02*
X1154Y559D01*
X1242Y559D02*
X1251Y559D01*
X1862Y559D02*
X1894Y559D01*
X1960Y559D02*
X1967Y559D01*
X0Y558D02*
X7Y558D01*
X1142Y558D02*
X1154Y558D01*
X1242Y558D02*
X1251Y558D01*
X1862Y558D02*
X1865Y558D01*
X1890Y558D02*
X1894Y558D01*
X1960Y558D02*
X1967Y558D01*
X0Y557D02*
X7Y557D01*
X1142Y557D02*
X1154Y557D01*
X1242Y557D02*
X1251Y557D01*
X1862Y557D02*
X1865Y557D01*
X1890Y557D02*
X1894Y557D01*
X1960Y557D02*
X1967Y557D01*
X0Y556D02*
X7Y556D01*
X1142Y556D02*
X1154Y556D01*
X1242Y556D02*
X1251Y556D01*
X1862Y556D02*
X1865Y556D01*
X1890Y556D02*
X1894Y556D01*
X1960Y556D02*
X1967Y556D01*
X0Y555D02*
X7Y555D01*
X1142Y555D02*
X1154Y555D01*
X1242Y555D02*
X1251Y555D01*
X1862Y555D02*
X1865Y555D01*
X1890Y555D02*
X1894Y555D01*
X1960Y555D02*
X1967Y555D01*
X0Y554D02*
X7Y554D01*
X1142Y554D02*
X1154Y554D01*
X1242Y554D02*
X1251Y554D01*
X1862Y554D02*
X1865Y554D01*
X1890Y554D02*
X1894Y554D01*
X1960Y554D02*
X1967Y554D01*
X0Y553D02*
X7Y553D01*
X1142Y553D02*
X1154Y553D01*
X1242Y553D02*
X1251Y553D01*
X1862Y553D02*
X1865Y553D01*
X1890Y553D02*
X1894Y553D01*
X1960Y553D02*
X1967Y553D01*
X0Y552D02*
X7Y552D01*
X1142Y552D02*
X1154Y552D01*
X1242Y552D02*
X1251Y552D01*
X1862Y552D02*
X1865Y552D01*
X1890Y552D02*
X1893Y552D01*
X1960Y552D02*
X1967Y552D01*
X0Y551D02*
X7Y551D01*
X1142Y551D02*
X1154Y551D01*
X1242Y551D02*
X1251Y551D01*
X1862Y551D02*
X1865Y551D01*
X1891Y551D02*
X1893Y551D01*
X1960Y551D02*
X1967Y551D01*
X0Y550D02*
X7Y550D01*
X1142Y550D02*
X1154Y550D01*
X1242Y550D02*
X1251Y550D01*
X1960Y550D02*
X1967Y550D01*
X0Y549D02*
X7Y549D01*
X1142Y549D02*
X1154Y549D01*
X1242Y549D02*
X1251Y549D01*
X1960Y549D02*
X1967Y549D01*
X0Y548D02*
X7Y548D01*
X1142Y548D02*
X1154Y548D01*
X1242Y548D02*
X1251Y548D01*
X1960Y548D02*
X1967Y548D01*
X0Y547D02*
X7Y547D01*
X1142Y547D02*
X1154Y547D01*
X1242Y547D02*
X1251Y547D01*
X1960Y547D02*
X1967Y547D01*
X0Y546D02*
X7Y546D01*
X1142Y546D02*
X1154Y546D01*
X1242Y546D02*
X1251Y546D01*
X1960Y546D02*
X1967Y546D01*
X0Y545D02*
X7Y545D01*
X1142Y545D02*
X1154Y545D01*
X1242Y545D02*
X1251Y545D01*
X1960Y545D02*
X1967Y545D01*
X0Y544D02*
X7Y544D01*
X1142Y544D02*
X1154Y544D01*
X1242Y544D02*
X1251Y544D01*
X1960Y544D02*
X1967Y544D01*
X0Y543D02*
X7Y543D01*
X1142Y543D02*
X1154Y543D01*
X1242Y543D02*
X1251Y543D01*
X1960Y543D02*
X1967Y543D01*
X0Y542D02*
X7Y542D01*
X1142Y542D02*
X1154Y542D01*
X1242Y542D02*
X1251Y542D01*
X1960Y542D02*
X1967Y542D01*
X0Y541D02*
X7Y541D01*
X1142Y541D02*
X1154Y541D01*
X1242Y541D02*
X1251Y541D01*
X1960Y541D02*
X1967Y541D01*
X0Y540D02*
X7Y540D01*
X1142Y540D02*
X1154Y540D01*
X1242Y540D02*
X1251Y540D01*
X1862Y540D02*
X1865Y540D01*
X1960Y540D02*
X1967Y540D01*
X0Y539D02*
X7Y539D01*
X1142Y539D02*
X1154Y539D01*
X1242Y539D02*
X1251Y539D01*
X1862Y539D02*
X1867Y539D01*
X1960Y539D02*
X1967Y539D01*
X0Y538D02*
X7Y538D01*
X1142Y538D02*
X1154Y538D01*
X1242Y538D02*
X1251Y538D01*
X1862Y538D02*
X1869Y538D01*
X1960Y538D02*
X1967Y538D01*
X0Y537D02*
X7Y537D01*
X1142Y537D02*
X1154Y537D01*
X1242Y537D02*
X1251Y537D01*
X1863Y537D02*
X1870Y537D01*
X1960Y537D02*
X1967Y537D01*
X0Y536D02*
X7Y536D01*
X1142Y536D02*
X1154Y536D01*
X1242Y536D02*
X1251Y536D01*
X1865Y536D02*
X1872Y536D01*
X1960Y536D02*
X1967Y536D01*
X0Y535D02*
X7Y535D01*
X1142Y535D02*
X1153Y535D01*
X1242Y535D02*
X1251Y535D01*
X1866Y535D02*
X1874Y535D01*
X1960Y535D02*
X1967Y535D01*
X0Y534D02*
X7Y534D01*
X1142Y534D02*
X1153Y534D01*
X1242Y534D02*
X1251Y534D01*
X1868Y534D02*
X1875Y534D01*
X1960Y534D02*
X1967Y534D01*
X0Y533D02*
X7Y533D01*
X1142Y533D02*
X1153Y533D01*
X1242Y533D02*
X1251Y533D01*
X1870Y533D02*
X1877Y533D01*
X1960Y533D02*
X1967Y533D01*
X0Y532D02*
X7Y532D01*
X1142Y532D02*
X1153Y532D01*
X1242Y532D02*
X1251Y532D01*
X1871Y532D02*
X1879Y532D01*
X1960Y532D02*
X1967Y532D01*
X0Y531D02*
X7Y531D01*
X1142Y531D02*
X1152Y531D01*
X1242Y531D02*
X1251Y531D01*
X1873Y531D02*
X1881Y531D01*
X1960Y531D02*
X1967Y531D01*
X0Y530D02*
X7Y530D01*
X1142Y530D02*
X1152Y530D01*
X1242Y530D02*
X1251Y530D01*
X1875Y530D02*
X1882Y530D01*
X1960Y530D02*
X1967Y530D01*
X0Y529D02*
X7Y529D01*
X1143Y529D02*
X1152Y529D01*
X1242Y529D02*
X1251Y529D01*
X1877Y529D02*
X1884Y529D01*
X1960Y529D02*
X1967Y529D01*
X0Y528D02*
X7Y528D01*
X1143Y528D02*
X1152Y528D01*
X1242Y528D02*
X1251Y528D01*
X1878Y528D02*
X1886Y528D01*
X1960Y528D02*
X1967Y528D01*
X0Y527D02*
X7Y527D01*
X1143Y527D02*
X1152Y527D01*
X1242Y527D02*
X1251Y527D01*
X1880Y527D02*
X1887Y527D01*
X1960Y527D02*
X1967Y527D01*
X0Y526D02*
X7Y526D01*
X1143Y526D02*
X1152Y526D01*
X1242Y526D02*
X1251Y526D01*
X1882Y526D02*
X1889Y526D01*
X1960Y526D02*
X1967Y526D01*
X0Y525D02*
X7Y525D01*
X1143Y525D02*
X1152Y525D01*
X1242Y525D02*
X1251Y525D01*
X1883Y525D02*
X1891Y525D01*
X1960Y525D02*
X1967Y525D01*
X0Y524D02*
X7Y524D01*
X1144Y524D02*
X1152Y524D01*
X1242Y524D02*
X1251Y524D01*
X1885Y524D02*
X1892Y524D01*
X1960Y524D02*
X1967Y524D01*
X0Y523D02*
X7Y523D01*
X1144Y523D02*
X1152Y523D01*
X1242Y523D02*
X1251Y523D01*
X1887Y523D02*
X1893Y523D01*
X1960Y523D02*
X1967Y523D01*
X0Y522D02*
X7Y522D01*
X1144Y522D02*
X1152Y522D01*
X1242Y522D02*
X1251Y522D01*
X1889Y522D02*
X1893Y522D01*
X1960Y522D02*
X1967Y522D01*
X0Y521D02*
X7Y521D01*
X1144Y521D02*
X1152Y521D01*
X1242Y521D02*
X1251Y521D01*
X1890Y521D02*
X1893Y521D01*
X1960Y521D02*
X1967Y521D01*
X0Y520D02*
X7Y520D01*
X1144Y520D02*
X1152Y520D01*
X1242Y520D02*
X1251Y520D01*
X1960Y520D02*
X1967Y520D01*
X0Y519D02*
X7Y519D01*
X1144Y519D02*
X1152Y519D01*
X1242Y519D02*
X1251Y519D01*
X1960Y519D02*
X1967Y519D01*
X0Y518D02*
X7Y518D01*
X1144Y518D02*
X1152Y518D01*
X1242Y518D02*
X1251Y518D01*
X1960Y518D02*
X1967Y518D01*
X0Y517D02*
X7Y517D01*
X1144Y517D02*
X1152Y517D01*
X1242Y517D02*
X1251Y517D01*
X1960Y517D02*
X1967Y517D01*
X0Y516D02*
X7Y516D01*
X1143Y516D02*
X1153Y516D01*
X1242Y516D02*
X1251Y516D01*
X1960Y516D02*
X1967Y516D01*
X0Y515D02*
X7Y515D01*
X1143Y515D02*
X1153Y515D01*
X1242Y515D02*
X1251Y515D01*
X1960Y515D02*
X1967Y515D01*
X0Y514D02*
X7Y514D01*
X1143Y514D02*
X1153Y514D01*
X1242Y514D02*
X1251Y514D01*
X1960Y514D02*
X1967Y514D01*
X0Y513D02*
X7Y513D01*
X1143Y513D02*
X1153Y513D01*
X1242Y513D02*
X1251Y513D01*
X1960Y513D02*
X1967Y513D01*
X0Y512D02*
X7Y512D01*
X1143Y512D02*
X1154Y512D01*
X1242Y512D02*
X1251Y512D01*
X1960Y512D02*
X1967Y512D01*
X0Y511D02*
X7Y511D01*
X1142Y511D02*
X1154Y511D01*
X1242Y511D02*
X1251Y511D01*
X1960Y511D02*
X1967Y511D01*
X0Y510D02*
X7Y510D01*
X1142Y510D02*
X1154Y510D01*
X1242Y510D02*
X1251Y510D01*
X1875Y510D02*
X1881Y510D01*
X1960Y510D02*
X1967Y510D01*
X0Y509D02*
X7Y509D01*
X1142Y509D02*
X1154Y509D01*
X1242Y509D02*
X1251Y509D01*
X1873Y509D02*
X1883Y509D01*
X1960Y509D02*
X1967Y509D01*
X0Y508D02*
X7Y508D01*
X1142Y508D02*
X1154Y508D01*
X1242Y508D02*
X1251Y508D01*
X1871Y508D02*
X1885Y508D01*
X1960Y508D02*
X1967Y508D01*
X0Y507D02*
X7Y507D01*
X1142Y507D02*
X1154Y507D01*
X1242Y507D02*
X1251Y507D01*
X1869Y507D02*
X1887Y507D01*
X1960Y507D02*
X1967Y507D01*
X0Y506D02*
X7Y506D01*
X1142Y506D02*
X1154Y506D01*
X1242Y506D02*
X1251Y506D01*
X1867Y506D02*
X1875Y506D01*
X1881Y506D02*
X1889Y506D01*
X1960Y506D02*
X1967Y506D01*
X0Y505D02*
X7Y505D01*
X1142Y505D02*
X1154Y505D01*
X1242Y505D02*
X1251Y505D01*
X1865Y505D02*
X1873Y505D01*
X1883Y505D02*
X1891Y505D01*
X1960Y505D02*
X1967Y505D01*
X0Y504D02*
X7Y504D01*
X1142Y504D02*
X1154Y504D01*
X1242Y504D02*
X1251Y504D01*
X1863Y504D02*
X1871Y504D01*
X1885Y504D02*
X1892Y504D01*
X1960Y504D02*
X1967Y504D01*
X0Y503D02*
X7Y503D01*
X1142Y503D02*
X1154Y503D01*
X1242Y503D02*
X1251Y503D01*
X1863Y503D02*
X1869Y503D01*
X1886Y503D02*
X1893Y503D01*
X1960Y503D02*
X1967Y503D01*
X0Y502D02*
X7Y502D01*
X1142Y502D02*
X1154Y502D01*
X1242Y502D02*
X1251Y502D01*
X1862Y502D02*
X1867Y502D01*
X1888Y502D02*
X1893Y502D01*
X1960Y502D02*
X1967Y502D01*
X0Y501D02*
X7Y501D01*
X1142Y501D02*
X1154Y501D01*
X1242Y501D02*
X1251Y501D01*
X1862Y501D02*
X1865Y501D01*
X1890Y501D02*
X1893Y501D01*
X1960Y501D02*
X1967Y501D01*
X0Y500D02*
X7Y500D01*
X1142Y500D02*
X1154Y500D01*
X1242Y500D02*
X1251Y500D01*
X1862Y500D02*
X1865Y500D01*
X1890Y500D02*
X1893Y500D01*
X1960Y500D02*
X1967Y500D01*
X0Y499D02*
X7Y499D01*
X1142Y499D02*
X1154Y499D01*
X1242Y499D02*
X1251Y499D01*
X1862Y499D02*
X1866Y499D01*
X1889Y499D02*
X1893Y499D01*
X1960Y499D02*
X1967Y499D01*
X0Y498D02*
X7Y498D01*
X1142Y498D02*
X1154Y498D01*
X1242Y498D02*
X1251Y498D01*
X1863Y498D02*
X1868Y498D01*
X1887Y498D02*
X1893Y498D01*
X1960Y498D02*
X1967Y498D01*
X0Y497D02*
X7Y497D01*
X1142Y497D02*
X1154Y497D01*
X1242Y497D02*
X1251Y497D01*
X1863Y497D02*
X1870Y497D01*
X1885Y497D02*
X1892Y497D01*
X1960Y497D02*
X1967Y497D01*
X0Y496D02*
X7Y496D01*
X1142Y496D02*
X1154Y496D01*
X1242Y496D02*
X1251Y496D01*
X1864Y496D02*
X1872Y496D01*
X1883Y496D02*
X1891Y496D01*
X1960Y496D02*
X1967Y496D01*
X0Y495D02*
X7Y495D01*
X1142Y495D02*
X1154Y495D01*
X1242Y495D02*
X1251Y495D01*
X1866Y495D02*
X1874Y495D01*
X1881Y495D02*
X1890Y495D01*
X1960Y495D02*
X1967Y495D01*
X0Y494D02*
X7Y494D01*
X1142Y494D02*
X1154Y494D01*
X1242Y494D02*
X1251Y494D01*
X1868Y494D02*
X1888Y494D01*
X1960Y494D02*
X1967Y494D01*
X0Y493D02*
X7Y493D01*
X1142Y493D02*
X1154Y493D01*
X1242Y493D02*
X1251Y493D01*
X1870Y493D02*
X1886Y493D01*
X1960Y493D02*
X1967Y493D01*
X0Y492D02*
X7Y492D01*
X1142Y492D02*
X1154Y492D01*
X1242Y492D02*
X1251Y492D01*
X1872Y492D02*
X1884Y492D01*
X1960Y492D02*
X1967Y492D01*
X0Y491D02*
X7Y491D01*
X1142Y491D02*
X1154Y491D01*
X1242Y491D02*
X1251Y491D01*
X1874Y491D02*
X1882Y491D01*
X1960Y491D02*
X1967Y491D01*
X0Y490D02*
X7Y490D01*
X1142Y490D02*
X1154Y490D01*
X1242Y490D02*
X1251Y490D01*
X1877Y490D02*
X1878Y490D01*
X1960Y490D02*
X1967Y490D01*
X0Y489D02*
X7Y489D01*
X1142Y489D02*
X1154Y489D01*
X1242Y489D02*
X1251Y489D01*
X1960Y489D02*
X1967Y489D01*
X0Y488D02*
X7Y488D01*
X1142Y488D02*
X1154Y488D01*
X1242Y488D02*
X1251Y488D01*
X1960Y488D02*
X1967Y488D01*
X0Y487D02*
X7Y487D01*
X1142Y487D02*
X1154Y487D01*
X1242Y487D02*
X1251Y487D01*
X1960Y487D02*
X1967Y487D01*
X0Y486D02*
X7Y486D01*
X1142Y486D02*
X1154Y486D01*
X1242Y486D02*
X1251Y486D01*
X1960Y486D02*
X1967Y486D01*
X0Y485D02*
X7Y485D01*
X1142Y485D02*
X1154Y485D01*
X1242Y485D02*
X1251Y485D01*
X1960Y485D02*
X1967Y485D01*
X0Y484D02*
X7Y484D01*
X1142Y484D02*
X1154Y484D01*
X1242Y484D02*
X1251Y484D01*
X1960Y484D02*
X1967Y484D01*
X0Y483D02*
X7Y483D01*
X1142Y483D02*
X1154Y483D01*
X1242Y483D02*
X1251Y483D01*
X1960Y483D02*
X1967Y483D01*
X0Y482D02*
X7Y482D01*
X1142Y482D02*
X1154Y482D01*
X1242Y482D02*
X1251Y482D01*
X1960Y482D02*
X1967Y482D01*
X0Y481D02*
X7Y481D01*
X1142Y481D02*
X1154Y481D01*
X1242Y481D02*
X1251Y481D01*
X1960Y481D02*
X1967Y481D01*
X0Y480D02*
X7Y480D01*
X1142Y480D02*
X1154Y480D01*
X1242Y480D02*
X1251Y480D01*
X1862Y480D02*
X1877Y480D01*
X1891Y480D02*
X1893Y480D01*
X1960Y480D02*
X1967Y480D01*
X0Y479D02*
X7Y479D01*
X1142Y479D02*
X1154Y479D01*
X1242Y479D02*
X1251Y479D01*
X1862Y479D02*
X1878Y479D01*
X1890Y479D02*
X1893Y479D01*
X1960Y479D02*
X1967Y479D01*
X0Y478D02*
X7Y478D01*
X1142Y478D02*
X1154Y478D01*
X1242Y478D02*
X1251Y478D01*
X1862Y478D02*
X1879Y478D01*
X1890Y478D02*
X1894Y478D01*
X1960Y478D02*
X1967Y478D01*
X0Y477D02*
X7Y477D01*
X1142Y477D02*
X1154Y477D01*
X1242Y477D02*
X1251Y477D01*
X1862Y477D02*
X1879Y477D01*
X1890Y477D02*
X1894Y477D01*
X1960Y477D02*
X1967Y477D01*
X0Y476D02*
X7Y476D01*
X1142Y476D02*
X1154Y476D01*
X1242Y476D02*
X1251Y476D01*
X1862Y476D02*
X1865Y476D01*
X1876Y476D02*
X1879Y476D01*
X1890Y476D02*
X1894Y476D01*
X1960Y476D02*
X1967Y476D01*
X0Y475D02*
X7Y475D01*
X1142Y475D02*
X1154Y475D01*
X1242Y475D02*
X1251Y475D01*
X1862Y475D02*
X1865Y475D01*
X1876Y475D02*
X1879Y475D01*
X1890Y475D02*
X1894Y475D01*
X1960Y475D02*
X1967Y475D01*
X0Y474D02*
X7Y474D01*
X1142Y474D02*
X1154Y474D01*
X1242Y474D02*
X1251Y474D01*
X1862Y474D02*
X1865Y474D01*
X1876Y474D02*
X1879Y474D01*
X1890Y474D02*
X1894Y474D01*
X1960Y474D02*
X1967Y474D01*
X0Y473D02*
X7Y473D01*
X1142Y473D02*
X1154Y473D01*
X1242Y473D02*
X1251Y473D01*
X1862Y473D02*
X1865Y473D01*
X1876Y473D02*
X1879Y473D01*
X1890Y473D02*
X1894Y473D01*
X1960Y473D02*
X1967Y473D01*
X0Y472D02*
X7Y472D01*
X1142Y472D02*
X1154Y472D01*
X1242Y472D02*
X1251Y472D01*
X1862Y472D02*
X1865Y472D01*
X1876Y472D02*
X1879Y472D01*
X1890Y472D02*
X1894Y472D01*
X1960Y472D02*
X1967Y472D01*
X0Y471D02*
X7Y471D01*
X1142Y471D02*
X1154Y471D01*
X1242Y471D02*
X1251Y471D01*
X1862Y471D02*
X1865Y471D01*
X1876Y471D02*
X1879Y471D01*
X1890Y471D02*
X1894Y471D01*
X1960Y471D02*
X1967Y471D01*
X0Y470D02*
X7Y470D01*
X1142Y470D02*
X1154Y470D01*
X1242Y470D02*
X1251Y470D01*
X1862Y470D02*
X1865Y470D01*
X1876Y470D02*
X1879Y470D01*
X1890Y470D02*
X1894Y470D01*
X1960Y470D02*
X1967Y470D01*
X0Y469D02*
X7Y469D01*
X1142Y469D02*
X1154Y469D01*
X1242Y469D02*
X1251Y469D01*
X1862Y469D02*
X1865Y469D01*
X1876Y469D02*
X1879Y469D01*
X1890Y469D02*
X1894Y469D01*
X1960Y469D02*
X1967Y469D01*
X0Y468D02*
X7Y468D01*
X1142Y468D02*
X1154Y468D01*
X1242Y468D02*
X1251Y468D01*
X1862Y468D02*
X1865Y468D01*
X1876Y468D02*
X1879Y468D01*
X1890Y468D02*
X1894Y468D01*
X1960Y468D02*
X1967Y468D01*
X0Y467D02*
X7Y467D01*
X1142Y467D02*
X1154Y467D01*
X1242Y467D02*
X1251Y467D01*
X1862Y467D02*
X1865Y467D01*
X1876Y467D02*
X1879Y467D01*
X1890Y467D02*
X1894Y467D01*
X1960Y467D02*
X1967Y467D01*
X0Y466D02*
X7Y466D01*
X1142Y466D02*
X1154Y466D01*
X1242Y466D02*
X1251Y466D01*
X1862Y466D02*
X1865Y466D01*
X1876Y466D02*
X1879Y466D01*
X1890Y466D02*
X1894Y466D01*
X1960Y466D02*
X1967Y466D01*
X0Y465D02*
X7Y465D01*
X1142Y465D02*
X1154Y465D01*
X1242Y465D02*
X1251Y465D01*
X1862Y465D02*
X1865Y465D01*
X1876Y465D02*
X1879Y465D01*
X1890Y465D02*
X1894Y465D01*
X1960Y465D02*
X1967Y465D01*
X0Y464D02*
X7Y464D01*
X1142Y464D02*
X1154Y464D01*
X1242Y464D02*
X1251Y464D01*
X1862Y464D02*
X1865Y464D01*
X1876Y464D02*
X1893Y464D01*
X1960Y464D02*
X1967Y464D01*
X0Y463D02*
X7Y463D01*
X1142Y463D02*
X1154Y463D01*
X1242Y463D02*
X1251Y463D01*
X1862Y463D02*
X1865Y463D01*
X1876Y463D02*
X1893Y463D01*
X1960Y463D02*
X1967Y463D01*
X0Y462D02*
X7Y462D01*
X1142Y462D02*
X1154Y462D01*
X1242Y462D02*
X1251Y462D01*
X1862Y462D02*
X1865Y462D01*
X1877Y462D02*
X1893Y462D01*
X1960Y462D02*
X1967Y462D01*
X0Y461D02*
X7Y461D01*
X1142Y461D02*
X1154Y461D01*
X1242Y461D02*
X1251Y461D01*
X1862Y461D02*
X1865Y461D01*
X1878Y461D02*
X1892Y461D01*
X1960Y461D02*
X1967Y461D01*
X0Y460D02*
X7Y460D01*
X1142Y460D02*
X1154Y460D01*
X1242Y460D02*
X1251Y460D01*
X1863Y460D02*
X1864Y460D01*
X1879Y460D02*
X1890Y460D01*
X1960Y460D02*
X1967Y460D01*
X0Y459D02*
X7Y459D01*
X1142Y459D02*
X1154Y459D01*
X1242Y459D02*
X1251Y459D01*
X1960Y459D02*
X1967Y459D01*
X0Y458D02*
X7Y458D01*
X1142Y458D02*
X1154Y458D01*
X1242Y458D02*
X1251Y458D01*
X1960Y458D02*
X1967Y458D01*
X0Y457D02*
X7Y457D01*
X1142Y457D02*
X1154Y457D01*
X1242Y457D02*
X1251Y457D01*
X1960Y457D02*
X1967Y457D01*
X0Y456D02*
X7Y456D01*
X1142Y456D02*
X1154Y456D01*
X1242Y456D02*
X1251Y456D01*
X1960Y456D02*
X1967Y456D01*
X0Y455D02*
X7Y455D01*
X1142Y455D02*
X1154Y455D01*
X1242Y455D02*
X1251Y455D01*
X1960Y455D02*
X1967Y455D01*
X0Y454D02*
X7Y454D01*
X1142Y454D02*
X1154Y454D01*
X1242Y454D02*
X1251Y454D01*
X1960Y454D02*
X1967Y454D01*
X0Y453D02*
X7Y453D01*
X1142Y453D02*
X1154Y453D01*
X1242Y453D02*
X1251Y453D01*
X1960Y453D02*
X1967Y453D01*
X0Y452D02*
X7Y452D01*
X1142Y452D02*
X1154Y452D01*
X1242Y452D02*
X1251Y452D01*
X1960Y452D02*
X1967Y452D01*
X0Y451D02*
X7Y451D01*
X1142Y451D02*
X1154Y451D01*
X1242Y451D02*
X1251Y451D01*
X1960Y451D02*
X1967Y451D01*
X0Y450D02*
X7Y450D01*
X1142Y450D02*
X1154Y450D01*
X1242Y450D02*
X1251Y450D01*
X1960Y450D02*
X1967Y450D01*
X0Y449D02*
X7Y449D01*
X1142Y449D02*
X1154Y449D01*
X1242Y449D02*
X1251Y449D01*
X1960Y449D02*
X1967Y449D01*
X0Y448D02*
X7Y448D01*
X1142Y448D02*
X1154Y448D01*
X1242Y448D02*
X1251Y448D01*
X1960Y448D02*
X1967Y448D01*
X0Y447D02*
X7Y447D01*
X1142Y447D02*
X1154Y447D01*
X1242Y447D02*
X1251Y447D01*
X1960Y447D02*
X1967Y447D01*
X0Y446D02*
X7Y446D01*
X1142Y446D02*
X1154Y446D01*
X1242Y446D02*
X1251Y446D01*
X1960Y446D02*
X1967Y446D01*
X0Y445D02*
X7Y445D01*
X1142Y445D02*
X1154Y445D01*
X1242Y445D02*
X1251Y445D01*
X1960Y445D02*
X1967Y445D01*
X0Y444D02*
X7Y444D01*
X1142Y444D02*
X1154Y444D01*
X1242Y444D02*
X1251Y444D01*
X1960Y444D02*
X1967Y444D01*
X0Y443D02*
X7Y443D01*
X1142Y443D02*
X1154Y443D01*
X1242Y443D02*
X1251Y443D01*
X1960Y443D02*
X1967Y443D01*
X0Y442D02*
X7Y442D01*
X1142Y442D02*
X1154Y442D01*
X1242Y442D02*
X1251Y442D01*
X1960Y442D02*
X1967Y442D01*
X0Y441D02*
X7Y441D01*
X1142Y441D02*
X1154Y441D01*
X1242Y441D02*
X1251Y441D01*
X1960Y441D02*
X1967Y441D01*
X0Y440D02*
X7Y440D01*
X1142Y440D02*
X1154Y440D01*
X1242Y440D02*
X1251Y440D01*
X1960Y440D02*
X1967Y440D01*
X0Y439D02*
X7Y439D01*
X1142Y439D02*
X1154Y439D01*
X1242Y439D02*
X1251Y439D01*
X1960Y439D02*
X1967Y439D01*
X0Y438D02*
X7Y438D01*
X1142Y438D02*
X1154Y438D01*
X1242Y438D02*
X1251Y438D01*
X1960Y438D02*
X1967Y438D01*
X0Y437D02*
X7Y437D01*
X1142Y437D02*
X1154Y437D01*
X1242Y437D02*
X1251Y437D01*
X1960Y437D02*
X1967Y437D01*
X0Y436D02*
X7Y436D01*
X1142Y436D02*
X1154Y436D01*
X1242Y436D02*
X1251Y436D01*
X1960Y436D02*
X1967Y436D01*
X0Y435D02*
X7Y435D01*
X1142Y435D02*
X1153Y435D01*
X1242Y435D02*
X1251Y435D01*
X1960Y435D02*
X1967Y435D01*
X0Y434D02*
X7Y434D01*
X1142Y434D02*
X1153Y434D01*
X1242Y434D02*
X1251Y434D01*
X1960Y434D02*
X1967Y434D01*
X0Y433D02*
X7Y433D01*
X1142Y433D02*
X1153Y433D01*
X1242Y433D02*
X1251Y433D01*
X1960Y433D02*
X1967Y433D01*
X0Y432D02*
X7Y432D01*
X1142Y432D02*
X1153Y432D01*
X1242Y432D02*
X1251Y432D01*
X1960Y432D02*
X1967Y432D01*
X0Y431D02*
X7Y431D01*
X1142Y431D02*
X1152Y431D01*
X1242Y431D02*
X1251Y431D01*
X1960Y431D02*
X1967Y431D01*
X0Y430D02*
X7Y430D01*
X1142Y430D02*
X1152Y430D01*
X1242Y430D02*
X1251Y430D01*
X1960Y430D02*
X1967Y430D01*
X0Y429D02*
X7Y429D01*
X1143Y429D02*
X1152Y429D01*
X1242Y429D02*
X1251Y429D01*
X1960Y429D02*
X1967Y429D01*
X0Y428D02*
X7Y428D01*
X1143Y428D02*
X1152Y428D01*
X1242Y428D02*
X1251Y428D01*
X1960Y428D02*
X1967Y428D01*
X0Y427D02*
X7Y427D01*
X1143Y427D02*
X1152Y427D01*
X1242Y427D02*
X1251Y427D01*
X1960Y427D02*
X1967Y427D01*
X0Y426D02*
X7Y426D01*
X1143Y426D02*
X1152Y426D01*
X1242Y426D02*
X1251Y426D01*
X1960Y426D02*
X1967Y426D01*
X0Y425D02*
X7Y425D01*
X1143Y425D02*
X1152Y425D01*
X1242Y425D02*
X1251Y425D01*
X1960Y425D02*
X1967Y425D01*
X0Y424D02*
X7Y424D01*
X1144Y424D02*
X1152Y424D01*
X1242Y424D02*
X1251Y424D01*
X1960Y424D02*
X1967Y424D01*
X0Y423D02*
X7Y423D01*
X1144Y423D02*
X1152Y423D01*
X1242Y423D02*
X1251Y423D01*
X1960Y423D02*
X1967Y423D01*
X0Y422D02*
X7Y422D01*
X1144Y422D02*
X1152Y422D01*
X1242Y422D02*
X1251Y422D01*
X1960Y422D02*
X1967Y422D01*
X0Y421D02*
X7Y421D01*
X1144Y421D02*
X1152Y421D01*
X1242Y421D02*
X1251Y421D01*
X1960Y421D02*
X1967Y421D01*
X0Y420D02*
X7Y420D01*
X1144Y420D02*
X1152Y420D01*
X1242Y420D02*
X1251Y420D01*
X1960Y420D02*
X1967Y420D01*
X0Y419D02*
X7Y419D01*
X1144Y419D02*
X1152Y419D01*
X1242Y419D02*
X1251Y419D01*
X1960Y419D02*
X1967Y419D01*
X0Y418D02*
X7Y418D01*
X1144Y418D02*
X1152Y418D01*
X1242Y418D02*
X1251Y418D01*
X1960Y418D02*
X1967Y418D01*
X0Y417D02*
X7Y417D01*
X1144Y417D02*
X1152Y417D01*
X1242Y417D02*
X1251Y417D01*
X1960Y417D02*
X1967Y417D01*
X0Y416D02*
X7Y416D01*
X1143Y416D02*
X1153Y416D01*
X1242Y416D02*
X1251Y416D01*
X1960Y416D02*
X1967Y416D01*
X0Y415D02*
X7Y415D01*
X1143Y415D02*
X1153Y415D01*
X1242Y415D02*
X1251Y415D01*
X1960Y415D02*
X1967Y415D01*
X0Y414D02*
X7Y414D01*
X1143Y414D02*
X1153Y414D01*
X1242Y414D02*
X1251Y414D01*
X1960Y414D02*
X1967Y414D01*
X0Y413D02*
X7Y413D01*
X1143Y413D02*
X1153Y413D01*
X1242Y413D02*
X1251Y413D01*
X1960Y413D02*
X1967Y413D01*
X0Y412D02*
X7Y412D01*
X1143Y412D02*
X1154Y412D01*
X1242Y412D02*
X1251Y412D01*
X1960Y412D02*
X1967Y412D01*
X0Y411D02*
X7Y411D01*
X1142Y411D02*
X1154Y411D01*
X1242Y411D02*
X1251Y411D01*
X1960Y411D02*
X1967Y411D01*
X0Y410D02*
X7Y410D01*
X1142Y410D02*
X1154Y410D01*
X1242Y410D02*
X1251Y410D01*
X1960Y410D02*
X1967Y410D01*
X0Y409D02*
X7Y409D01*
X1142Y409D02*
X1154Y409D01*
X1242Y409D02*
X1251Y409D01*
X1960Y409D02*
X1967Y409D01*
X0Y408D02*
X7Y408D01*
X1142Y408D02*
X1154Y408D01*
X1242Y408D02*
X1251Y408D01*
X1960Y408D02*
X1967Y408D01*
X0Y407D02*
X7Y407D01*
X1142Y407D02*
X1154Y407D01*
X1242Y407D02*
X1251Y407D01*
X1960Y407D02*
X1967Y407D01*
X0Y406D02*
X7Y406D01*
X1142Y406D02*
X1154Y406D01*
X1242Y406D02*
X1251Y406D01*
X1960Y406D02*
X1967Y406D01*
X0Y405D02*
X7Y405D01*
X1142Y405D02*
X1154Y405D01*
X1242Y405D02*
X1251Y405D01*
X1960Y405D02*
X1967Y405D01*
X0Y404D02*
X7Y404D01*
X1142Y404D02*
X1154Y404D01*
X1242Y404D02*
X1251Y404D01*
X1960Y404D02*
X1967Y404D01*
X0Y403D02*
X7Y403D01*
X1142Y403D02*
X1154Y403D01*
X1242Y403D02*
X1251Y403D01*
X1960Y403D02*
X1967Y403D01*
X0Y402D02*
X7Y402D01*
X1142Y402D02*
X1154Y402D01*
X1242Y402D02*
X1251Y402D01*
X1960Y402D02*
X1967Y402D01*
X0Y401D02*
X7Y401D01*
X1142Y401D02*
X1154Y401D01*
X1242Y401D02*
X1251Y401D01*
X1960Y401D02*
X1967Y401D01*
X0Y400D02*
X7Y400D01*
X1142Y400D02*
X1154Y400D01*
X1242Y400D02*
X1251Y400D01*
X1960Y400D02*
X1967Y400D01*
X0Y399D02*
X7Y399D01*
X1142Y399D02*
X1154Y399D01*
X1242Y399D02*
X1251Y399D01*
X1960Y399D02*
X1967Y399D01*
X0Y398D02*
X7Y398D01*
X1142Y398D02*
X1154Y398D01*
X1242Y398D02*
X1251Y398D01*
X1960Y398D02*
X1967Y398D01*
X0Y397D02*
X7Y397D01*
X1142Y397D02*
X1154Y397D01*
X1242Y397D02*
X1251Y397D01*
X1872Y397D02*
X1874Y397D01*
X1895Y397D02*
X1897Y397D01*
X1960Y397D02*
X1967Y397D01*
X0Y396D02*
X7Y396D01*
X1142Y396D02*
X1154Y396D01*
X1242Y396D02*
X1251Y396D01*
X1871Y396D02*
X1875Y396D01*
X1893Y396D02*
X1899Y396D01*
X1960Y396D02*
X1967Y396D01*
X0Y395D02*
X7Y395D01*
X1142Y395D02*
X1154Y395D01*
X1242Y395D02*
X1251Y395D01*
X1870Y395D02*
X1875Y395D01*
X1892Y395D02*
X1899Y395D01*
X1960Y395D02*
X1967Y395D01*
X0Y394D02*
X7Y394D01*
X1142Y394D02*
X1154Y394D01*
X1242Y394D02*
X1251Y394D01*
X1869Y394D02*
X1875Y394D01*
X1890Y394D02*
X1900Y394D01*
X1960Y394D02*
X1967Y394D01*
X0Y393D02*
X7Y393D01*
X1142Y393D02*
X1154Y393D01*
X1242Y393D02*
X1251Y393D01*
X1869Y393D02*
X1873Y393D01*
X1889Y393D02*
X1900Y393D01*
X1960Y393D02*
X1967Y393D01*
X0Y392D02*
X7Y392D01*
X1142Y392D02*
X1154Y392D01*
X1242Y392D02*
X1251Y392D01*
X1869Y392D02*
X1872Y392D01*
X1888Y392D02*
X1894Y392D01*
X1897Y392D02*
X1900Y392D01*
X1960Y392D02*
X1967Y392D01*
X0Y391D02*
X7Y391D01*
X1142Y391D02*
X1154Y391D01*
X1242Y391D02*
X1251Y391D01*
X1869Y391D02*
X1872Y391D01*
X1887Y391D02*
X1893Y391D01*
X1897Y391D02*
X1900Y391D01*
X1960Y391D02*
X1967Y391D01*
X0Y390D02*
X7Y390D01*
X1142Y390D02*
X1154Y390D01*
X1242Y390D02*
X1251Y390D01*
X1869Y390D02*
X1872Y390D01*
X1885Y390D02*
X1891Y390D01*
X1897Y390D02*
X1900Y390D01*
X1960Y390D02*
X1967Y390D01*
X0Y389D02*
X7Y389D01*
X1142Y389D02*
X1154Y389D01*
X1242Y389D02*
X1251Y389D01*
X1869Y389D02*
X1872Y389D01*
X1884Y389D02*
X1890Y389D01*
X1897Y389D02*
X1900Y389D01*
X1960Y389D02*
X1967Y389D01*
X0Y388D02*
X7Y388D01*
X1142Y388D02*
X1154Y388D01*
X1242Y388D02*
X1251Y388D01*
X1869Y388D02*
X1872Y388D01*
X1883Y388D02*
X1889Y388D01*
X1897Y388D02*
X1900Y388D01*
X1960Y388D02*
X1967Y388D01*
X0Y387D02*
X7Y387D01*
X1142Y387D02*
X1154Y387D01*
X1242Y387D02*
X1251Y387D01*
X1869Y387D02*
X1872Y387D01*
X1881Y387D02*
X1887Y387D01*
X1897Y387D02*
X1900Y387D01*
X1960Y387D02*
X1967Y387D01*
X0Y386D02*
X7Y386D01*
X1142Y386D02*
X1154Y386D01*
X1242Y386D02*
X1251Y386D01*
X1869Y386D02*
X1872Y386D01*
X1880Y386D02*
X1886Y386D01*
X1897Y386D02*
X1900Y386D01*
X1960Y386D02*
X1967Y386D01*
X0Y385D02*
X7Y385D01*
X1142Y385D02*
X1154Y385D01*
X1242Y385D02*
X1251Y385D01*
X1869Y385D02*
X1872Y385D01*
X1879Y385D02*
X1885Y385D01*
X1897Y385D02*
X1900Y385D01*
X1960Y385D02*
X1967Y385D01*
X0Y384D02*
X7Y384D01*
X1142Y384D02*
X1154Y384D01*
X1242Y384D02*
X1251Y384D01*
X1869Y384D02*
X1872Y384D01*
X1878Y384D02*
X1884Y384D01*
X1897Y384D02*
X1900Y384D01*
X1960Y384D02*
X1967Y384D01*
X0Y383D02*
X7Y383D01*
X1142Y383D02*
X1154Y383D01*
X1242Y383D02*
X1251Y383D01*
X1869Y383D02*
X1872Y383D01*
X1876Y383D02*
X1882Y383D01*
X1897Y383D02*
X1900Y383D01*
X1960Y383D02*
X1967Y383D01*
X0Y382D02*
X7Y382D01*
X1142Y382D02*
X1154Y382D01*
X1242Y382D02*
X1251Y382D01*
X1869Y382D02*
X1872Y382D01*
X1875Y382D02*
X1881Y382D01*
X1897Y382D02*
X1900Y382D01*
X1960Y382D02*
X1967Y382D01*
X0Y381D02*
X7Y381D01*
X1142Y381D02*
X1154Y381D01*
X1242Y381D02*
X1251Y381D01*
X1869Y381D02*
X1872Y381D01*
X1874Y381D02*
X1880Y381D01*
X1896Y381D02*
X1900Y381D01*
X1960Y381D02*
X1967Y381D01*
X0Y380D02*
X7Y380D01*
X1142Y380D02*
X1154Y380D01*
X1242Y380D02*
X1251Y380D01*
X1869Y380D02*
X1878Y380D01*
X1894Y380D02*
X1900Y380D01*
X1960Y380D02*
X1967Y380D01*
X0Y379D02*
X7Y379D01*
X1142Y379D02*
X1154Y379D01*
X1242Y379D02*
X1251Y379D01*
X1869Y379D02*
X1877Y379D01*
X1893Y379D02*
X1899Y379D01*
X1960Y379D02*
X1967Y379D01*
X0Y378D02*
X7Y378D01*
X1142Y378D02*
X1154Y378D01*
X1242Y378D02*
X1251Y378D01*
X1870Y378D02*
X1876Y378D01*
X1894Y378D02*
X1898Y378D01*
X1960Y378D02*
X1967Y378D01*
X0Y377D02*
X7Y377D01*
X1142Y377D02*
X1154Y377D01*
X1242Y377D02*
X1251Y377D01*
X1871Y377D02*
X1874Y377D01*
X1894Y377D02*
X1897Y377D01*
X1960Y377D02*
X1967Y377D01*
X0Y376D02*
X7Y376D01*
X1142Y376D02*
X1154Y376D01*
X1242Y376D02*
X1251Y376D01*
X1960Y376D02*
X1967Y376D01*
X0Y375D02*
X7Y375D01*
X1142Y375D02*
X1154Y375D01*
X1242Y375D02*
X1251Y375D01*
X1960Y375D02*
X1967Y375D01*
X0Y374D02*
X7Y374D01*
X1142Y374D02*
X1154Y374D01*
X1242Y374D02*
X1251Y374D01*
X1960Y374D02*
X1967Y374D01*
X0Y373D02*
X7Y373D01*
X1142Y373D02*
X1154Y373D01*
X1242Y373D02*
X1251Y373D01*
X1960Y373D02*
X1967Y373D01*
X0Y372D02*
X7Y372D01*
X1142Y372D02*
X1154Y372D01*
X1242Y372D02*
X1251Y372D01*
X1960Y372D02*
X1967Y372D01*
X0Y371D02*
X7Y371D01*
X1142Y371D02*
X1154Y371D01*
X1242Y371D02*
X1251Y371D01*
X1960Y371D02*
X1967Y371D01*
X0Y370D02*
X7Y370D01*
X1142Y370D02*
X1154Y370D01*
X1242Y370D02*
X1251Y370D01*
X1960Y370D02*
X1967Y370D01*
X0Y369D02*
X7Y369D01*
X1142Y369D02*
X1154Y369D01*
X1242Y369D02*
X1251Y369D01*
X1960Y369D02*
X1967Y369D01*
X0Y368D02*
X7Y368D01*
X1142Y368D02*
X1154Y368D01*
X1242Y368D02*
X1251Y368D01*
X1960Y368D02*
X1967Y368D01*
X0Y367D02*
X7Y367D01*
X1142Y367D02*
X1154Y367D01*
X1242Y367D02*
X1251Y367D01*
X1869Y367D02*
X1883Y367D01*
X1898Y367D02*
X1899Y367D01*
X1960Y367D02*
X1967Y367D01*
X0Y366D02*
X7Y366D01*
X1142Y366D02*
X1154Y366D01*
X1242Y366D02*
X1251Y366D01*
X1869Y366D02*
X1885Y366D01*
X1897Y366D02*
X1900Y366D01*
X1960Y366D02*
X1967Y366D01*
X0Y365D02*
X7Y365D01*
X1142Y365D02*
X1154Y365D01*
X1242Y365D02*
X1251Y365D01*
X1869Y365D02*
X1885Y365D01*
X1897Y365D02*
X1900Y365D01*
X1960Y365D02*
X1967Y365D01*
X0Y364D02*
X7Y364D01*
X1142Y364D02*
X1154Y364D01*
X1242Y364D02*
X1251Y364D01*
X1869Y364D02*
X1886Y364D01*
X1897Y364D02*
X1900Y364D01*
X1960Y364D02*
X1967Y364D01*
X0Y363D02*
X7Y363D01*
X1142Y363D02*
X1154Y363D01*
X1242Y363D02*
X1251Y363D01*
X1869Y363D02*
X1886Y363D01*
X1897Y363D02*
X1900Y363D01*
X1960Y363D02*
X1967Y363D01*
X0Y362D02*
X7Y362D01*
X1142Y362D02*
X1154Y362D01*
X1242Y362D02*
X1251Y362D01*
X1869Y362D02*
X1872Y362D01*
X1883Y362D02*
X1886Y362D01*
X1897Y362D02*
X1900Y362D01*
X1960Y362D02*
X1967Y362D01*
X0Y361D02*
X7Y361D01*
X1142Y361D02*
X1154Y361D01*
X1242Y361D02*
X1251Y361D01*
X1869Y361D02*
X1872Y361D01*
X1883Y361D02*
X1886Y361D01*
X1897Y361D02*
X1900Y361D01*
X1960Y361D02*
X1967Y361D01*
X0Y360D02*
X7Y360D01*
X1142Y360D02*
X1154Y360D01*
X1242Y360D02*
X1251Y360D01*
X1869Y360D02*
X1872Y360D01*
X1883Y360D02*
X1886Y360D01*
X1897Y360D02*
X1900Y360D01*
X1960Y360D02*
X1967Y360D01*
X0Y359D02*
X7Y359D01*
X1142Y359D02*
X1154Y359D01*
X1242Y359D02*
X1251Y359D01*
X1869Y359D02*
X1872Y359D01*
X1883Y359D02*
X1886Y359D01*
X1897Y359D02*
X1900Y359D01*
X1960Y359D02*
X1967Y359D01*
X0Y358D02*
X7Y358D01*
X1142Y358D02*
X1154Y358D01*
X1242Y358D02*
X1251Y358D01*
X1869Y358D02*
X1872Y358D01*
X1883Y358D02*
X1886Y358D01*
X1897Y358D02*
X1900Y358D01*
X1960Y358D02*
X1967Y358D01*
X0Y357D02*
X7Y357D01*
X1142Y357D02*
X1154Y357D01*
X1242Y357D02*
X1251Y357D01*
X1869Y357D02*
X1872Y357D01*
X1883Y357D02*
X1886Y357D01*
X1897Y357D02*
X1900Y357D01*
X1960Y357D02*
X1967Y357D01*
X0Y356D02*
X7Y356D01*
X1142Y356D02*
X1154Y356D01*
X1242Y356D02*
X1251Y356D01*
X1869Y356D02*
X1872Y356D01*
X1883Y356D02*
X1886Y356D01*
X1897Y356D02*
X1900Y356D01*
X1960Y356D02*
X1967Y356D01*
X0Y355D02*
X7Y355D01*
X1142Y355D02*
X1154Y355D01*
X1242Y355D02*
X1251Y355D01*
X1869Y355D02*
X1872Y355D01*
X1883Y355D02*
X1886Y355D01*
X1897Y355D02*
X1900Y355D01*
X1960Y355D02*
X1967Y355D01*
X0Y354D02*
X7Y354D01*
X1142Y354D02*
X1154Y354D01*
X1242Y354D02*
X1251Y354D01*
X1869Y354D02*
X1872Y354D01*
X1883Y354D02*
X1886Y354D01*
X1897Y354D02*
X1900Y354D01*
X1960Y354D02*
X1967Y354D01*
X0Y353D02*
X7Y353D01*
X1142Y353D02*
X1154Y353D01*
X1242Y353D02*
X1251Y353D01*
X1869Y353D02*
X1872Y353D01*
X1883Y353D02*
X1886Y353D01*
X1897Y353D02*
X1900Y353D01*
X1960Y353D02*
X1967Y353D01*
X0Y352D02*
X7Y352D01*
X1142Y352D02*
X1154Y352D01*
X1242Y352D02*
X1251Y352D01*
X1869Y352D02*
X1872Y352D01*
X1883Y352D02*
X1886Y352D01*
X1897Y352D02*
X1900Y352D01*
X1960Y352D02*
X1967Y352D01*
X0Y351D02*
X7Y351D01*
X1142Y351D02*
X1154Y351D01*
X1242Y351D02*
X1251Y351D01*
X1869Y351D02*
X1872Y351D01*
X1883Y351D02*
X1886Y351D01*
X1897Y351D02*
X1900Y351D01*
X1960Y351D02*
X1967Y351D01*
X0Y350D02*
X7Y350D01*
X1142Y350D02*
X1154Y350D01*
X1242Y350D02*
X1251Y350D01*
X1869Y350D02*
X1872Y350D01*
X1883Y350D02*
X1900Y350D01*
X1960Y350D02*
X1967Y350D01*
X0Y349D02*
X7Y349D01*
X1142Y349D02*
X1154Y349D01*
X1242Y349D02*
X1251Y349D01*
X1869Y349D02*
X1872Y349D01*
X1883Y349D02*
X1900Y349D01*
X1960Y349D02*
X1967Y349D01*
X0Y348D02*
X7Y348D01*
X1142Y348D02*
X1154Y348D01*
X1242Y348D02*
X1251Y348D01*
X1869Y348D02*
X1872Y348D01*
X1884Y348D02*
X1899Y348D01*
X1960Y348D02*
X1967Y348D01*
X0Y347D02*
X7Y347D01*
X1142Y347D02*
X1154Y347D01*
X1242Y347D02*
X1251Y347D01*
X1869Y347D02*
X1871Y347D01*
X1885Y347D02*
X1898Y347D01*
X1960Y347D02*
X1967Y347D01*
X0Y346D02*
X7Y346D01*
X1142Y346D02*
X1154Y346D01*
X1242Y346D02*
X1251Y346D01*
X1960Y346D02*
X1967Y346D01*
X0Y345D02*
X7Y345D01*
X1142Y345D02*
X1154Y345D01*
X1242Y345D02*
X1251Y345D01*
X1960Y345D02*
X1967Y345D01*
X0Y344D02*
X7Y344D01*
X1142Y344D02*
X1154Y344D01*
X1242Y344D02*
X1251Y344D01*
X1960Y344D02*
X1967Y344D01*
X0Y343D02*
X7Y343D01*
X1142Y343D02*
X1154Y343D01*
X1242Y343D02*
X1251Y343D01*
X1960Y343D02*
X1967Y343D01*
X0Y342D02*
X7Y342D01*
X1142Y342D02*
X1154Y342D01*
X1242Y342D02*
X1251Y342D01*
X1960Y342D02*
X1967Y342D01*
X0Y341D02*
X7Y341D01*
X1142Y341D02*
X1154Y341D01*
X1242Y341D02*
X1251Y341D01*
X1960Y341D02*
X1967Y341D01*
X0Y340D02*
X7Y340D01*
X1142Y340D02*
X1154Y340D01*
X1242Y340D02*
X1251Y340D01*
X1960Y340D02*
X1967Y340D01*
X0Y339D02*
X7Y339D01*
X1142Y339D02*
X1154Y339D01*
X1242Y339D02*
X1251Y339D01*
X1960Y339D02*
X1967Y339D01*
X0Y338D02*
X7Y338D01*
X1142Y338D02*
X1154Y338D01*
X1242Y338D02*
X1251Y338D01*
X1960Y338D02*
X1967Y338D01*
X0Y337D02*
X7Y337D01*
X1142Y337D02*
X1154Y337D01*
X1242Y337D02*
X1251Y337D01*
X1960Y337D02*
X1967Y337D01*
X0Y336D02*
X7Y336D01*
X1142Y336D02*
X1154Y336D01*
X1242Y336D02*
X1251Y336D01*
X1960Y336D02*
X1967Y336D01*
X0Y335D02*
X7Y335D01*
X1142Y335D02*
X1153Y335D01*
X1242Y335D02*
X1251Y335D01*
X1960Y335D02*
X1967Y335D01*
X0Y334D02*
X7Y334D01*
X1142Y334D02*
X1153Y334D01*
X1242Y334D02*
X1251Y334D01*
X1960Y334D02*
X1967Y334D01*
X0Y333D02*
X7Y333D01*
X1142Y333D02*
X1153Y333D01*
X1242Y333D02*
X1251Y333D01*
X1960Y333D02*
X1967Y333D01*
X0Y332D02*
X7Y332D01*
X1142Y332D02*
X1153Y332D01*
X1242Y332D02*
X1251Y332D01*
X1960Y332D02*
X1967Y332D01*
X0Y331D02*
X7Y331D01*
X1142Y331D02*
X1152Y331D01*
X1242Y331D02*
X1251Y331D01*
X1960Y331D02*
X1967Y331D01*
X0Y330D02*
X7Y330D01*
X1142Y330D02*
X1152Y330D01*
X1242Y330D02*
X1251Y330D01*
X1960Y330D02*
X1967Y330D01*
X0Y329D02*
X7Y329D01*
X1143Y329D02*
X1152Y329D01*
X1242Y329D02*
X1251Y329D01*
X1960Y329D02*
X1967Y329D01*
X0Y328D02*
X7Y328D01*
X1143Y328D02*
X1152Y328D01*
X1242Y328D02*
X1251Y328D01*
X1960Y328D02*
X1967Y328D01*
X0Y327D02*
X7Y327D01*
X1143Y327D02*
X1152Y327D01*
X1242Y327D02*
X1251Y327D01*
X1960Y327D02*
X1967Y327D01*
X0Y326D02*
X7Y326D01*
X1143Y326D02*
X1152Y326D01*
X1242Y326D02*
X1251Y326D01*
X1960Y326D02*
X1967Y326D01*
X0Y325D02*
X7Y325D01*
X1143Y325D02*
X1152Y325D01*
X1242Y325D02*
X1251Y325D01*
X1960Y325D02*
X1967Y325D01*
X0Y324D02*
X7Y324D01*
X1144Y324D02*
X1152Y324D01*
X1242Y324D02*
X1251Y324D01*
X1960Y324D02*
X1967Y324D01*
X0Y323D02*
X7Y323D01*
X1144Y323D02*
X1152Y323D01*
X1242Y323D02*
X1251Y323D01*
X1960Y323D02*
X1967Y323D01*
X0Y322D02*
X7Y322D01*
X1144Y322D02*
X1152Y322D01*
X1242Y322D02*
X1251Y322D01*
X1960Y322D02*
X1967Y322D01*
X0Y321D02*
X7Y321D01*
X1144Y321D02*
X1152Y321D01*
X1242Y321D02*
X1251Y321D01*
X1960Y321D02*
X1967Y321D01*
X0Y320D02*
X7Y320D01*
X1144Y320D02*
X1152Y320D01*
X1242Y320D02*
X1251Y320D01*
X1960Y320D02*
X1967Y320D01*
X0Y319D02*
X7Y319D01*
X1144Y319D02*
X1152Y319D01*
X1242Y319D02*
X1251Y319D01*
X1960Y319D02*
X1967Y319D01*
X0Y318D02*
X7Y318D01*
X1144Y318D02*
X1152Y318D01*
X1242Y318D02*
X1251Y318D01*
X1960Y318D02*
X1967Y318D01*
X0Y317D02*
X7Y317D01*
X1144Y317D02*
X1152Y317D01*
X1242Y317D02*
X1251Y317D01*
X1960Y317D02*
X1967Y317D01*
X0Y316D02*
X7Y316D01*
X1143Y316D02*
X1153Y316D01*
X1242Y316D02*
X1251Y316D01*
X1960Y316D02*
X1967Y316D01*
X0Y315D02*
X7Y315D01*
X1143Y315D02*
X1153Y315D01*
X1242Y315D02*
X1251Y315D01*
X1960Y315D02*
X1967Y315D01*
X0Y314D02*
X7Y314D01*
X1143Y314D02*
X1153Y314D01*
X1242Y314D02*
X1251Y314D01*
X1960Y314D02*
X1967Y314D01*
X0Y313D02*
X7Y313D01*
X1143Y313D02*
X1154Y313D01*
X1242Y313D02*
X1251Y313D01*
X1960Y313D02*
X1967Y313D01*
X0Y312D02*
X7Y312D01*
X1143Y312D02*
X1154Y312D01*
X1242Y312D02*
X1251Y312D01*
X1960Y312D02*
X1967Y312D01*
X0Y311D02*
X7Y311D01*
X1142Y311D02*
X1154Y311D01*
X1242Y311D02*
X1251Y311D01*
X1960Y311D02*
X1967Y311D01*
X0Y310D02*
X7Y310D01*
X1142Y310D02*
X1154Y310D01*
X1242Y310D02*
X1251Y310D01*
X1960Y310D02*
X1967Y310D01*
X0Y309D02*
X7Y309D01*
X1142Y309D02*
X1154Y309D01*
X1242Y309D02*
X1251Y309D01*
X1960Y309D02*
X1967Y309D01*
X0Y308D02*
X7Y308D01*
X1142Y308D02*
X1154Y308D01*
X1242Y308D02*
X1251Y308D01*
X1960Y308D02*
X1967Y308D01*
X0Y307D02*
X7Y307D01*
X1142Y307D02*
X1154Y307D01*
X1242Y307D02*
X1251Y307D01*
X1960Y307D02*
X1967Y307D01*
X0Y306D02*
X7Y306D01*
X1142Y306D02*
X1154Y306D01*
X1242Y306D02*
X1251Y306D01*
X1960Y306D02*
X1967Y306D01*
X0Y305D02*
X7Y305D01*
X1142Y305D02*
X1154Y305D01*
X1242Y305D02*
X1251Y305D01*
X1960Y305D02*
X1967Y305D01*
X0Y304D02*
X7Y304D01*
X1142Y304D02*
X1154Y304D01*
X1242Y304D02*
X1251Y304D01*
X1960Y304D02*
X1967Y304D01*
X0Y303D02*
X7Y303D01*
X1142Y303D02*
X1154Y303D01*
X1242Y303D02*
X1251Y303D01*
X1960Y303D02*
X1967Y303D01*
X0Y302D02*
X7Y302D01*
X1142Y302D02*
X1154Y302D01*
X1242Y302D02*
X1251Y302D01*
X1960Y302D02*
X1967Y302D01*
X0Y301D02*
X7Y301D01*
X1142Y301D02*
X1154Y301D01*
X1242Y301D02*
X1251Y301D01*
X1960Y301D02*
X1967Y301D01*
X0Y300D02*
X7Y300D01*
X1142Y300D02*
X1154Y300D01*
X1242Y300D02*
X1251Y300D01*
X1960Y300D02*
X1967Y300D01*
X0Y299D02*
X7Y299D01*
X1142Y299D02*
X1154Y299D01*
X1242Y299D02*
X1251Y299D01*
X1960Y299D02*
X1967Y299D01*
X0Y298D02*
X7Y298D01*
X1142Y298D02*
X1154Y298D01*
X1242Y298D02*
X1251Y298D01*
X1960Y298D02*
X1967Y298D01*
X0Y297D02*
X7Y297D01*
X1142Y297D02*
X1154Y297D01*
X1242Y297D02*
X1251Y297D01*
X1960Y297D02*
X1967Y297D01*
X0Y296D02*
X7Y296D01*
X1142Y296D02*
X1154Y296D01*
X1242Y296D02*
X1251Y296D01*
X1960Y296D02*
X1967Y296D01*
X0Y295D02*
X7Y295D01*
X1142Y295D02*
X1154Y295D01*
X1242Y295D02*
X1251Y295D01*
X1960Y295D02*
X1967Y295D01*
X0Y294D02*
X7Y294D01*
X1142Y294D02*
X1154Y294D01*
X1242Y294D02*
X1251Y294D01*
X1960Y294D02*
X1967Y294D01*
X0Y293D02*
X7Y293D01*
X1142Y293D02*
X1154Y293D01*
X1242Y293D02*
X1251Y293D01*
X1960Y293D02*
X1967Y293D01*
X0Y292D02*
X7Y292D01*
X1142Y292D02*
X1154Y292D01*
X1242Y292D02*
X1251Y292D01*
X1960Y292D02*
X1967Y292D01*
X0Y291D02*
X7Y291D01*
X1142Y291D02*
X1154Y291D01*
X1242Y291D02*
X1251Y291D01*
X1960Y291D02*
X1967Y291D01*
X0Y290D02*
X7Y290D01*
X1142Y290D02*
X1154Y290D01*
X1242Y290D02*
X1251Y290D01*
X1960Y290D02*
X1967Y290D01*
X0Y289D02*
X7Y289D01*
X1142Y289D02*
X1154Y289D01*
X1242Y289D02*
X1251Y289D01*
X1960Y289D02*
X1967Y289D01*
X0Y288D02*
X7Y288D01*
X1142Y288D02*
X1154Y288D01*
X1242Y288D02*
X1251Y288D01*
X1960Y288D02*
X1967Y288D01*
X0Y287D02*
X7Y287D01*
X1142Y287D02*
X1154Y287D01*
X1242Y287D02*
X1251Y287D01*
X1960Y287D02*
X1967Y287D01*
X0Y286D02*
X7Y286D01*
X1142Y286D02*
X1154Y286D01*
X1242Y286D02*
X1251Y286D01*
X1960Y286D02*
X1967Y286D01*
X0Y285D02*
X7Y285D01*
X1142Y285D02*
X1154Y285D01*
X1242Y285D02*
X1251Y285D01*
X1960Y285D02*
X1967Y285D01*
X0Y284D02*
X7Y284D01*
X1142Y284D02*
X1154Y284D01*
X1242Y284D02*
X1251Y284D01*
X1960Y284D02*
X1967Y284D01*
X0Y283D02*
X7Y283D01*
X1142Y283D02*
X1154Y283D01*
X1242Y283D02*
X1251Y283D01*
X1960Y283D02*
X1967Y283D01*
X0Y282D02*
X7Y282D01*
X1142Y282D02*
X1154Y282D01*
X1242Y282D02*
X1251Y282D01*
X1960Y282D02*
X1967Y282D01*
X0Y281D02*
X7Y281D01*
X1142Y281D02*
X1154Y281D01*
X1242Y281D02*
X1251Y281D01*
X1960Y281D02*
X1967Y281D01*
X0Y280D02*
X7Y280D01*
X1142Y280D02*
X1154Y280D01*
X1242Y280D02*
X1251Y280D01*
X1960Y280D02*
X1967Y280D01*
X0Y279D02*
X7Y279D01*
X1142Y279D02*
X1154Y279D01*
X1242Y279D02*
X1251Y279D01*
X1960Y279D02*
X1967Y279D01*
X0Y278D02*
X7Y278D01*
X1142Y278D02*
X1154Y278D01*
X1242Y278D02*
X1251Y278D01*
X1960Y278D02*
X1967Y278D01*
X0Y277D02*
X7Y277D01*
X1142Y277D02*
X1154Y277D01*
X1242Y277D02*
X1251Y277D01*
X1960Y277D02*
X1967Y277D01*
X0Y276D02*
X7Y276D01*
X1142Y276D02*
X1154Y276D01*
X1242Y276D02*
X1251Y276D01*
X1960Y276D02*
X1967Y276D01*
X0Y275D02*
X7Y275D01*
X1142Y275D02*
X1154Y275D01*
X1242Y275D02*
X1251Y275D01*
X1960Y275D02*
X1967Y275D01*
X0Y274D02*
X7Y274D01*
X1142Y274D02*
X1154Y274D01*
X1242Y274D02*
X1251Y274D01*
X1960Y274D02*
X1967Y274D01*
X0Y273D02*
X7Y273D01*
X1142Y273D02*
X1154Y273D01*
X1242Y273D02*
X1251Y273D01*
X1960Y273D02*
X1967Y273D01*
X0Y272D02*
X7Y272D01*
X1142Y272D02*
X1154Y272D01*
X1242Y272D02*
X1251Y272D01*
X1960Y272D02*
X1967Y272D01*
X0Y271D02*
X7Y271D01*
X1142Y271D02*
X1154Y271D01*
X1242Y271D02*
X1251Y271D01*
X1960Y271D02*
X1967Y271D01*
X0Y270D02*
X7Y270D01*
X1142Y270D02*
X1154Y270D01*
X1242Y270D02*
X1251Y270D01*
X1960Y270D02*
X1967Y270D01*
X0Y269D02*
X7Y269D01*
X1142Y269D02*
X1154Y269D01*
X1242Y269D02*
X1251Y269D01*
X1960Y269D02*
X1967Y269D01*
X0Y268D02*
X7Y268D01*
X1142Y268D02*
X1154Y268D01*
X1242Y268D02*
X1251Y268D01*
X1960Y268D02*
X1967Y268D01*
X0Y267D02*
X7Y267D01*
X1142Y267D02*
X1154Y267D01*
X1242Y267D02*
X1251Y267D01*
X1960Y267D02*
X1967Y267D01*
X0Y266D02*
X7Y266D01*
X1142Y266D02*
X1154Y266D01*
X1242Y266D02*
X1251Y266D01*
X1960Y266D02*
X1967Y266D01*
X0Y265D02*
X7Y265D01*
X1142Y265D02*
X1154Y265D01*
X1242Y265D02*
X1251Y265D01*
X1960Y265D02*
X1967Y265D01*
X0Y264D02*
X7Y264D01*
X1142Y264D02*
X1154Y264D01*
X1242Y264D02*
X1251Y264D01*
X1960Y264D02*
X1967Y264D01*
X0Y263D02*
X7Y263D01*
X1142Y263D02*
X1154Y263D01*
X1242Y263D02*
X1251Y263D01*
X1960Y263D02*
X1967Y263D01*
X0Y262D02*
X7Y262D01*
X1142Y262D02*
X1154Y262D01*
X1242Y262D02*
X1251Y262D01*
X1960Y262D02*
X1967Y262D01*
X0Y261D02*
X7Y261D01*
X1142Y261D02*
X1154Y261D01*
X1242Y261D02*
X1251Y261D01*
X1960Y261D02*
X1967Y261D01*
X0Y260D02*
X7Y260D01*
X1142Y260D02*
X1154Y260D01*
X1242Y260D02*
X1251Y260D01*
X1960Y260D02*
X1967Y260D01*
X0Y259D02*
X7Y259D01*
X1142Y259D02*
X1154Y259D01*
X1242Y259D02*
X1251Y259D01*
X1960Y259D02*
X1967Y259D01*
X0Y258D02*
X7Y258D01*
X1142Y258D02*
X1154Y258D01*
X1242Y258D02*
X1251Y258D01*
X1781Y258D02*
X1792Y258D01*
X1803Y258D02*
X1808Y258D01*
X1960Y258D02*
X1967Y258D01*
X0Y257D02*
X7Y257D01*
X1142Y257D02*
X1154Y257D01*
X1242Y257D02*
X1251Y257D01*
X1779Y257D02*
X1792Y257D01*
X1803Y257D02*
X1808Y257D01*
X1960Y257D02*
X1967Y257D01*
X0Y256D02*
X7Y256D01*
X1142Y256D02*
X1154Y256D01*
X1242Y256D02*
X1251Y256D01*
X1583Y256D02*
X1593Y256D01*
X1609Y256D02*
X1623Y256D01*
X1778Y256D02*
X1792Y256D01*
X1803Y256D02*
X1808Y256D01*
X1960Y256D02*
X1967Y256D01*
X0Y255D02*
X7Y255D01*
X1142Y255D02*
X1154Y255D01*
X1242Y255D02*
X1251Y255D01*
X1581Y255D02*
X1594Y255D01*
X1608Y255D02*
X1624Y255D01*
X1778Y255D02*
X1792Y255D01*
X1803Y255D02*
X1807Y255D01*
X1960Y255D02*
X1967Y255D01*
X0Y254D02*
X7Y254D01*
X1142Y254D02*
X1154Y254D01*
X1242Y254D02*
X1251Y254D01*
X1388Y254D02*
X1398Y254D01*
X1411Y254D02*
X1413Y254D01*
X1580Y254D02*
X1594Y254D01*
X1608Y254D02*
X1624Y254D01*
X1777Y254D02*
X1781Y254D01*
X1803Y254D02*
X1806Y254D01*
X1960Y254D02*
X1967Y254D01*
X0Y253D02*
X7Y253D01*
X1142Y253D02*
X1154Y253D01*
X1242Y253D02*
X1251Y253D01*
X1386Y253D02*
X1399Y253D01*
X1410Y253D02*
X1413Y253D01*
X1580Y253D02*
X1594Y253D01*
X1608Y253D02*
X1624Y253D01*
X1777Y253D02*
X1781Y253D01*
X1803Y253D02*
X1806Y253D01*
X1960Y253D02*
X1967Y253D01*
X0Y252D02*
X7Y252D01*
X1142Y252D02*
X1154Y252D01*
X1242Y252D02*
X1251Y252D01*
X1385Y252D02*
X1399Y252D01*
X1410Y252D02*
X1413Y252D01*
X1579Y252D02*
X1584Y252D01*
X1608Y252D02*
X1612Y252D01*
X1776Y252D02*
X1780Y252D01*
X1803Y252D02*
X1806Y252D01*
X1960Y252D02*
X1967Y252D01*
X0Y251D02*
X7Y251D01*
X1142Y251D02*
X1154Y251D01*
X1242Y251D02*
X1251Y251D01*
X1384Y251D02*
X1398Y251D01*
X1410Y251D02*
X1413Y251D01*
X1579Y251D02*
X1582Y251D01*
X1608Y251D02*
X1612Y251D01*
X1776Y251D02*
X1780Y251D01*
X1803Y251D02*
X1806Y251D01*
X1960Y251D02*
X1967Y251D01*
X0Y250D02*
X7Y250D01*
X1142Y250D02*
X1154Y250D01*
X1242Y250D02*
X1251Y250D01*
X1384Y250D02*
X1388Y250D01*
X1410Y250D02*
X1413Y250D01*
X1423Y250D02*
X1425Y250D01*
X1578Y250D02*
X1582Y250D01*
X1608Y250D02*
X1612Y250D01*
X1775Y250D02*
X1779Y250D01*
X1803Y250D02*
X1806Y250D01*
X1960Y250D02*
X1967Y250D01*
X0Y249D02*
X7Y249D01*
X1142Y249D02*
X1154Y249D01*
X1242Y249D02*
X1251Y249D01*
X1383Y249D02*
X1387Y249D01*
X1410Y249D02*
X1413Y249D01*
X1423Y249D02*
X1426Y249D01*
X1578Y249D02*
X1581Y249D01*
X1608Y249D02*
X1612Y249D01*
X1775Y249D02*
X1779Y249D01*
X1803Y249D02*
X1806Y249D01*
X1960Y249D02*
X1967Y249D01*
X0Y248D02*
X7Y248D01*
X1142Y248D02*
X1154Y248D01*
X1242Y248D02*
X1251Y248D01*
X1383Y248D02*
X1387Y248D01*
X1410Y248D02*
X1413Y248D01*
X1423Y248D02*
X1426Y248D01*
X1577Y248D02*
X1581Y248D01*
X1608Y248D02*
X1612Y248D01*
X1774Y248D02*
X1778Y248D01*
X1803Y248D02*
X1806Y248D01*
X1960Y248D02*
X1967Y248D01*
X0Y247D02*
X7Y247D01*
X1142Y247D02*
X1154Y247D01*
X1242Y247D02*
X1251Y247D01*
X1382Y247D02*
X1386Y247D01*
X1410Y247D02*
X1413Y247D01*
X1423Y247D02*
X1426Y247D01*
X1577Y247D02*
X1580Y247D01*
X1608Y247D02*
X1612Y247D01*
X1774Y247D02*
X1778Y247D01*
X1803Y247D02*
X1806Y247D01*
X1960Y247D02*
X1967Y247D01*
X0Y246D02*
X7Y246D01*
X1142Y246D02*
X1154Y246D01*
X1242Y246D02*
X1251Y246D01*
X1382Y246D02*
X1386Y246D01*
X1410Y246D02*
X1413Y246D01*
X1423Y246D02*
X1426Y246D01*
X1576Y246D02*
X1580Y246D01*
X1608Y246D02*
X1612Y246D01*
X1773Y246D02*
X1777Y246D01*
X1803Y246D02*
X1806Y246D01*
X1960Y246D02*
X1967Y246D01*
X0Y245D02*
X7Y245D01*
X1142Y245D02*
X1154Y245D01*
X1242Y245D02*
X1251Y245D01*
X1381Y245D02*
X1385Y245D01*
X1410Y245D02*
X1413Y245D01*
X1423Y245D02*
X1426Y245D01*
X1576Y245D02*
X1579Y245D01*
X1608Y245D02*
X1612Y245D01*
X1773Y245D02*
X1777Y245D01*
X1803Y245D02*
X1806Y245D01*
X1960Y245D02*
X1967Y245D01*
X0Y244D02*
X7Y244D01*
X1142Y244D02*
X1154Y244D01*
X1242Y244D02*
X1251Y244D01*
X1381Y244D02*
X1385Y244D01*
X1410Y244D02*
X1413Y244D01*
X1423Y244D02*
X1426Y244D01*
X1575Y244D02*
X1579Y244D01*
X1608Y244D02*
X1612Y244D01*
X1773Y244D02*
X1776Y244D01*
X1803Y244D02*
X1806Y244D01*
X1960Y244D02*
X1967Y244D01*
X0Y243D02*
X7Y243D01*
X1142Y243D02*
X1154Y243D01*
X1242Y243D02*
X1251Y243D01*
X1380Y243D02*
X1384Y243D01*
X1410Y243D02*
X1413Y243D01*
X1423Y243D02*
X1426Y243D01*
X1575Y243D02*
X1578Y243D01*
X1608Y243D02*
X1612Y243D01*
X1773Y243D02*
X1776Y243D01*
X1803Y243D02*
X1806Y243D01*
X1960Y243D02*
X1967Y243D01*
X0Y242D02*
X7Y242D01*
X1142Y242D02*
X1154Y242D01*
X1242Y242D02*
X1251Y242D01*
X1380Y242D02*
X1384Y242D01*
X1410Y242D02*
X1413Y242D01*
X1423Y242D02*
X1426Y242D01*
X1574Y242D02*
X1578Y242D01*
X1608Y242D02*
X1621Y242D01*
X1773Y242D02*
X1776Y242D01*
X1803Y242D02*
X1806Y242D01*
X1960Y242D02*
X1967Y242D01*
X0Y241D02*
X7Y241D01*
X1142Y241D02*
X1154Y241D01*
X1242Y241D02*
X1251Y241D01*
X1380Y241D02*
X1383Y241D01*
X1410Y241D02*
X1413Y241D01*
X1423Y241D02*
X1426Y241D01*
X1574Y241D02*
X1578Y241D01*
X1608Y241D02*
X1623Y241D01*
X1773Y241D02*
X1776Y241D01*
X1803Y241D02*
X1821Y241D01*
X1960Y241D02*
X1967Y241D01*
X0Y240D02*
X7Y240D01*
X1142Y240D02*
X1154Y240D01*
X1242Y240D02*
X1251Y240D01*
X1379Y240D02*
X1383Y240D01*
X1410Y240D02*
X1413Y240D01*
X1423Y240D02*
X1426Y240D01*
X1574Y240D02*
X1577Y240D01*
X1608Y240D02*
X1623Y240D01*
X1773Y240D02*
X1777Y240D01*
X1803Y240D02*
X1822Y240D01*
X1960Y240D02*
X1967Y240D01*
X0Y239D02*
X7Y239D01*
X1142Y239D02*
X1154Y239D01*
X1242Y239D02*
X1251Y239D01*
X1379Y239D02*
X1382Y239D01*
X1410Y239D02*
X1413Y239D01*
X1423Y239D02*
X1426Y239D01*
X1574Y239D02*
X1578Y239D01*
X1608Y239D02*
X1624Y239D01*
X1773Y239D02*
X1777Y239D01*
X1803Y239D02*
X1823Y239D01*
X1960Y239D02*
X1967Y239D01*
X0Y238D02*
X7Y238D01*
X1142Y238D02*
X1154Y238D01*
X1242Y238D02*
X1251Y238D01*
X1379Y238D02*
X1382Y238D01*
X1410Y238D02*
X1413Y238D01*
X1423Y238D02*
X1426Y238D01*
X1574Y238D02*
X1578Y238D01*
X1609Y238D02*
X1624Y238D01*
X1774Y238D02*
X1778Y238D01*
X1803Y238D02*
X1823Y238D01*
X1960Y238D02*
X1967Y238D01*
X0Y237D02*
X7Y237D01*
X1142Y237D02*
X1154Y237D01*
X1242Y237D02*
X1251Y237D01*
X1379Y237D02*
X1382Y237D01*
X1410Y237D02*
X1414Y237D01*
X1422Y237D02*
X1426Y237D01*
X1575Y237D02*
X1578Y237D01*
X1621Y237D02*
X1624Y237D01*
X1774Y237D02*
X1778Y237D01*
X1803Y237D02*
X1823Y237D01*
X1960Y237D02*
X1967Y237D01*
X0Y236D02*
X7Y236D01*
X1142Y236D02*
X1154Y236D01*
X1242Y236D02*
X1251Y236D01*
X1379Y236D02*
X1383Y236D01*
X1410Y236D02*
X1427Y236D01*
X1575Y236D02*
X1579Y236D01*
X1621Y236D02*
X1624Y236D01*
X1775Y236D02*
X1779Y236D01*
X1803Y236D02*
X1806Y236D01*
X1819Y236D02*
X1823Y236D01*
X1960Y236D02*
X1967Y236D01*
X0Y235D02*
X7Y235D01*
X1142Y235D02*
X1153Y235D01*
X1242Y235D02*
X1251Y235D01*
X1380Y235D02*
X1383Y235D01*
X1410Y235D02*
X1428Y235D01*
X1576Y235D02*
X1579Y235D01*
X1621Y235D02*
X1624Y235D01*
X1775Y235D02*
X1779Y235D01*
X1803Y235D02*
X1806Y235D01*
X1819Y235D02*
X1823Y235D01*
X1960Y235D02*
X1967Y235D01*
X0Y234D02*
X7Y234D01*
X1142Y234D02*
X1153Y234D01*
X1242Y234D02*
X1251Y234D01*
X1380Y234D02*
X1384Y234D01*
X1410Y234D02*
X1428Y234D01*
X1576Y234D02*
X1580Y234D01*
X1621Y234D02*
X1624Y234D01*
X1776Y234D02*
X1780Y234D01*
X1803Y234D02*
X1806Y234D01*
X1819Y234D02*
X1823Y234D01*
X1960Y234D02*
X1967Y234D01*
X0Y233D02*
X7Y233D01*
X1142Y233D02*
X1153Y233D01*
X1242Y233D02*
X1251Y233D01*
X1381Y233D02*
X1384Y233D01*
X1410Y233D02*
X1427Y233D01*
X1577Y233D02*
X1580Y233D01*
X1621Y233D02*
X1624Y233D01*
X1776Y233D02*
X1780Y233D01*
X1803Y233D02*
X1806Y233D01*
X1819Y233D02*
X1823Y233D01*
X1960Y233D02*
X1967Y233D01*
X0Y232D02*
X7Y232D01*
X1142Y232D02*
X1153Y232D01*
X1242Y232D02*
X1251Y232D01*
X1381Y232D02*
X1385Y232D01*
X1423Y232D02*
X1426Y232D01*
X1577Y232D02*
X1581Y232D01*
X1621Y232D02*
X1624Y232D01*
X1777Y232D02*
X1781Y232D01*
X1803Y232D02*
X1806Y232D01*
X1819Y232D02*
X1823Y232D01*
X1960Y232D02*
X1967Y232D01*
X0Y231D02*
X7Y231D01*
X1142Y231D02*
X1152Y231D01*
X1242Y231D02*
X1251Y231D01*
X1382Y231D02*
X1385Y231D01*
X1423Y231D02*
X1426Y231D01*
X1578Y231D02*
X1581Y231D01*
X1621Y231D02*
X1624Y231D01*
X1777Y231D02*
X1781Y231D01*
X1803Y231D02*
X1806Y231D01*
X1819Y231D02*
X1823Y231D01*
X1960Y231D02*
X1967Y231D01*
X0Y230D02*
X7Y230D01*
X1142Y230D02*
X1152Y230D01*
X1242Y230D02*
X1251Y230D01*
X1382Y230D02*
X1386Y230D01*
X1423Y230D02*
X1426Y230D01*
X1578Y230D02*
X1582Y230D01*
X1621Y230D02*
X1624Y230D01*
X1778Y230D02*
X1792Y230D01*
X1803Y230D02*
X1823Y230D01*
X1960Y230D02*
X1967Y230D01*
X0Y229D02*
X7Y229D01*
X1143Y229D02*
X1152Y229D01*
X1242Y229D02*
X1251Y229D01*
X1383Y229D02*
X1386Y229D01*
X1423Y229D02*
X1426Y229D01*
X1579Y229D02*
X1582Y229D01*
X1605Y229D02*
X1608Y229D01*
X1621Y229D02*
X1624Y229D01*
X1778Y229D02*
X1792Y229D01*
X1803Y229D02*
X1823Y229D01*
X1960Y229D02*
X1967Y229D01*
X0Y228D02*
X7Y228D01*
X1143Y228D02*
X1152Y228D01*
X1242Y228D02*
X1251Y228D01*
X1383Y228D02*
X1387Y228D01*
X1423Y228D02*
X1426Y228D01*
X1579Y228D02*
X1584Y228D01*
X1604Y228D02*
X1610Y228D01*
X1620Y228D02*
X1624Y228D01*
X1779Y228D02*
X1792Y228D01*
X1803Y228D02*
X1823Y228D01*
X1960Y228D02*
X1967Y228D01*
X0Y227D02*
X7Y227D01*
X1143Y227D02*
X1152Y227D01*
X1242Y227D02*
X1251Y227D01*
X1384Y227D02*
X1387Y227D01*
X1423Y227D02*
X1426Y227D01*
X1580Y227D02*
X1594Y227D01*
X1604Y227D02*
X1624Y227D01*
X1781Y227D02*
X1792Y227D01*
X1803Y227D02*
X1822Y227D01*
X1960Y227D02*
X1967Y227D01*
X0Y226D02*
X7Y226D01*
X1143Y226D02*
X1152Y226D01*
X1242Y226D02*
X1251Y226D01*
X1384Y226D02*
X1398Y226D01*
X1423Y226D02*
X1426Y226D01*
X1580Y226D02*
X1594Y226D01*
X1605Y226D02*
X1624Y226D01*
X1960Y226D02*
X1967Y226D01*
X0Y225D02*
X7Y225D01*
X1143Y225D02*
X1152Y225D01*
X1242Y225D02*
X1251Y225D01*
X1385Y225D02*
X1399Y225D01*
X1423Y225D02*
X1426Y225D01*
X1581Y225D02*
X1594Y225D01*
X1607Y225D02*
X1623Y225D01*
X1960Y225D02*
X1967Y225D01*
X0Y224D02*
X7Y224D01*
X1144Y224D02*
X1152Y224D01*
X1242Y224D02*
X1251Y224D01*
X1385Y224D02*
X1399Y224D01*
X1423Y224D02*
X1426Y224D01*
X1583Y224D02*
X1593Y224D01*
X1610Y224D02*
X1621Y224D01*
X1960Y224D02*
X1967Y224D01*
X0Y223D02*
X7Y223D01*
X1144Y223D02*
X1152Y223D01*
X1242Y223D02*
X1251Y223D01*
X1387Y223D02*
X1399Y223D01*
X1423Y223D02*
X1426Y223D01*
X1960Y223D02*
X1967Y223D01*
X0Y222D02*
X7Y222D01*
X1144Y222D02*
X1152Y222D01*
X1242Y222D02*
X1251Y222D01*
X1390Y222D02*
X1397Y222D01*
X1960Y222D02*
X1967Y222D01*
X0Y221D02*
X7Y221D01*
X1144Y221D02*
X1152Y221D01*
X1242Y221D02*
X1251Y221D01*
X1960Y221D02*
X1967Y221D01*
X0Y220D02*
X7Y220D01*
X1144Y220D02*
X1152Y220D01*
X1242Y220D02*
X1251Y220D01*
X1960Y220D02*
X1967Y220D01*
X0Y219D02*
X7Y219D01*
X1144Y219D02*
X1152Y219D01*
X1242Y219D02*
X1251Y219D01*
X1960Y219D02*
X1967Y219D01*
X0Y218D02*
X7Y218D01*
X1144Y218D02*
X1152Y218D01*
X1242Y218D02*
X1251Y218D01*
X1338Y218D02*
X1343Y218D01*
X1538Y218D02*
X1543Y218D01*
X1738Y218D02*
X1743Y218D01*
X1960Y218D02*
X1967Y218D01*
X0Y217D02*
X7Y217D01*
X1144Y217D02*
X1152Y217D01*
X1242Y217D02*
X1251Y217D01*
X1338Y217D02*
X1346Y217D01*
X1538Y217D02*
X1546Y217D01*
X1738Y217D02*
X1746Y217D01*
X1960Y217D02*
X1967Y217D01*
X0Y216D02*
X7Y216D01*
X1143Y216D02*
X1153Y216D01*
X1242Y216D02*
X1251Y216D01*
X1338Y216D02*
X1348Y216D01*
X1538Y216D02*
X1548Y216D01*
X1738Y216D02*
X1748Y216D01*
X1960Y216D02*
X1967Y216D01*
X0Y215D02*
X7Y215D01*
X1143Y215D02*
X1153Y215D01*
X1242Y215D02*
X1251Y215D01*
X1338Y215D02*
X1350Y215D01*
X1538Y215D02*
X1550Y215D01*
X1738Y215D02*
X1750Y215D01*
X1960Y215D02*
X1967Y215D01*
X0Y214D02*
X7Y214D01*
X1143Y214D02*
X1153Y214D01*
X1242Y214D02*
X1251Y214D01*
X1338Y214D02*
X1352Y214D01*
X1538Y214D02*
X1552Y214D01*
X1738Y214D02*
X1752Y214D01*
X1960Y214D02*
X1967Y214D01*
X0Y213D02*
X7Y213D01*
X1143Y213D02*
X1154Y213D01*
X1242Y213D02*
X1251Y213D01*
X1338Y213D02*
X1353Y213D01*
X1538Y213D02*
X1553Y213D01*
X1738Y213D02*
X1753Y213D01*
X1960Y213D02*
X1967Y213D01*
X0Y212D02*
X7Y212D01*
X1143Y212D02*
X1154Y212D01*
X1242Y212D02*
X1251Y212D01*
X1338Y212D02*
X1355Y212D01*
X1538Y212D02*
X1555Y212D01*
X1738Y212D02*
X1755Y212D01*
X1960Y212D02*
X1967Y212D01*
X0Y211D02*
X7Y211D01*
X1142Y211D02*
X1154Y211D01*
X1242Y211D02*
X1251Y211D01*
X1338Y211D02*
X1356Y211D01*
X1538Y211D02*
X1556Y211D01*
X1738Y211D02*
X1756Y211D01*
X1960Y211D02*
X1967Y211D01*
X0Y210D02*
X7Y210D01*
X1142Y210D02*
X1154Y210D01*
X1242Y210D02*
X1251Y210D01*
X1343Y210D02*
X1357Y210D01*
X1543Y210D02*
X1557Y210D01*
X1743Y210D02*
X1757Y210D01*
X1960Y210D02*
X1967Y210D01*
X0Y209D02*
X7Y209D01*
X1142Y209D02*
X1154Y209D01*
X1242Y209D02*
X1251Y209D01*
X1346Y209D02*
X1358Y209D01*
X1546Y209D02*
X1558Y209D01*
X1746Y209D02*
X1758Y209D01*
X1960Y209D02*
X1967Y209D01*
X0Y208D02*
X7Y208D01*
X1142Y208D02*
X1154Y208D01*
X1242Y208D02*
X1251Y208D01*
X1348Y208D02*
X1359Y208D01*
X1548Y208D02*
X1559Y208D01*
X1748Y208D02*
X1759Y208D01*
X1960Y208D02*
X1967Y208D01*
X0Y207D02*
X7Y207D01*
X1142Y207D02*
X1154Y207D01*
X1242Y207D02*
X1251Y207D01*
X1350Y207D02*
X1360Y207D01*
X1550Y207D02*
X1560Y207D01*
X1750Y207D02*
X1760Y207D01*
X1960Y207D02*
X1967Y207D01*
X0Y206D02*
X7Y206D01*
X1142Y206D02*
X1154Y206D01*
X1242Y206D02*
X1251Y206D01*
X1351Y206D02*
X1361Y206D01*
X1551Y206D02*
X1561Y206D01*
X1751Y206D02*
X1761Y206D01*
X1960Y206D02*
X1967Y206D01*
X0Y205D02*
X7Y205D01*
X1142Y205D02*
X1154Y205D01*
X1242Y205D02*
X1251Y205D01*
X1352Y205D02*
X1361Y205D01*
X1552Y205D02*
X1561Y205D01*
X1752Y205D02*
X1761Y205D01*
X1960Y205D02*
X1967Y205D01*
X0Y204D02*
X7Y204D01*
X1142Y204D02*
X1154Y204D01*
X1242Y204D02*
X1251Y204D01*
X1353Y204D02*
X1362Y204D01*
X1553Y204D02*
X1562Y204D01*
X1753Y204D02*
X1762Y204D01*
X1960Y204D02*
X1967Y204D01*
X0Y203D02*
X7Y203D01*
X1142Y203D02*
X1154Y203D01*
X1242Y203D02*
X1251Y203D01*
X1354Y203D02*
X1363Y203D01*
X1554Y203D02*
X1563Y203D01*
X1754Y203D02*
X1763Y203D01*
X1960Y203D02*
X1967Y203D01*
X0Y202D02*
X7Y202D01*
X1142Y202D02*
X1154Y202D01*
X1242Y202D02*
X1251Y202D01*
X1355Y202D02*
X1363Y202D01*
X1555Y202D02*
X1563Y202D01*
X1755Y202D02*
X1763Y202D01*
X1960Y202D02*
X1967Y202D01*
X0Y201D02*
X7Y201D01*
X1142Y201D02*
X1154Y201D01*
X1242Y201D02*
X1251Y201D01*
X1356Y201D02*
X1364Y201D01*
X1556Y201D02*
X1564Y201D01*
X1756Y201D02*
X1764Y201D01*
X1960Y201D02*
X1967Y201D01*
X0Y200D02*
X7Y200D01*
X1142Y200D02*
X1154Y200D01*
X1242Y200D02*
X1251Y200D01*
X1357Y200D02*
X1365Y200D01*
X1557Y200D02*
X1564Y200D01*
X1757Y200D02*
X1764Y200D01*
X1960Y200D02*
X1967Y200D01*
X0Y199D02*
X7Y199D01*
X1142Y199D02*
X1154Y199D01*
X1242Y199D02*
X1251Y199D01*
X1357Y199D02*
X1365Y199D01*
X1557Y199D02*
X1565Y199D01*
X1757Y199D02*
X1765Y199D01*
X1960Y199D02*
X1967Y199D01*
X0Y198D02*
X7Y198D01*
X1142Y198D02*
X1154Y198D01*
X1242Y198D02*
X1251Y198D01*
X1358Y198D02*
X1365Y198D01*
X1558Y198D02*
X1565Y198D01*
X1758Y198D02*
X1765Y198D01*
X1960Y198D02*
X1967Y198D01*
X0Y197D02*
X7Y197D01*
X1142Y197D02*
X1154Y197D01*
X1242Y197D02*
X1251Y197D01*
X1358Y197D02*
X1366Y197D01*
X1558Y197D02*
X1566Y197D01*
X1758Y197D02*
X1766Y197D01*
X1960Y197D02*
X1967Y197D01*
X0Y196D02*
X7Y196D01*
X1142Y196D02*
X1154Y196D01*
X1242Y196D02*
X1251Y196D01*
X1359Y196D02*
X1366Y196D01*
X1559Y196D02*
X1566Y196D01*
X1759Y196D02*
X1766Y196D01*
X1960Y196D02*
X1967Y196D01*
X0Y195D02*
X7Y195D01*
X1142Y195D02*
X1154Y195D01*
X1242Y195D02*
X1251Y195D01*
X1359Y195D02*
X1366Y195D01*
X1559Y195D02*
X1566Y195D01*
X1759Y195D02*
X1766Y195D01*
X1960Y195D02*
X1967Y195D01*
X0Y194D02*
X7Y194D01*
X1142Y194D02*
X1154Y194D01*
X1242Y194D02*
X1251Y194D01*
X1359Y194D02*
X1367Y194D01*
X1559Y194D02*
X1567Y194D01*
X1759Y194D02*
X1767Y194D01*
X1960Y194D02*
X1967Y194D01*
X0Y193D02*
X7Y193D01*
X1142Y193D02*
X1154Y193D01*
X1242Y193D02*
X1251Y193D01*
X1360Y193D02*
X1367Y193D01*
X1560Y193D02*
X1567Y193D01*
X1760Y193D02*
X1767Y193D01*
X1960Y193D02*
X1967Y193D01*
X0Y192D02*
X7Y192D01*
X1142Y192D02*
X1154Y192D01*
X1242Y192D02*
X1251Y192D01*
X1360Y192D02*
X1367Y192D01*
X1560Y192D02*
X1567Y192D01*
X1760Y192D02*
X1767Y192D01*
X1960Y192D02*
X1967Y192D01*
X0Y191D02*
X7Y191D01*
X1142Y191D02*
X1154Y191D01*
X1242Y191D02*
X1251Y191D01*
X1360Y191D02*
X1367Y191D01*
X1560Y191D02*
X1567Y191D01*
X1760Y191D02*
X1767Y191D01*
X1960Y191D02*
X1967Y191D01*
X0Y190D02*
X7Y190D01*
X1142Y190D02*
X1154Y190D01*
X1242Y190D02*
X1251Y190D01*
X1360Y190D02*
X1367Y190D01*
X1560Y190D02*
X1567Y190D01*
X1760Y190D02*
X1767Y190D01*
X1960Y190D02*
X1967Y190D01*
X0Y189D02*
X7Y189D01*
X1142Y189D02*
X1154Y189D01*
X1242Y189D02*
X1251Y189D01*
X1361Y189D02*
X1367Y189D01*
X1560Y189D02*
X1567Y189D01*
X1760Y189D02*
X1767Y189D01*
X1960Y189D02*
X1967Y189D01*
X0Y188D02*
X7Y188D01*
X1142Y188D02*
X1154Y188D01*
X1242Y188D02*
X1251Y188D01*
X1361Y188D02*
X1361Y188D01*
X1561Y188D02*
X1561Y188D01*
X1761Y188D02*
X1761Y188D01*
X1960Y188D02*
X1967Y188D01*
X0Y187D02*
X7Y187D01*
X1142Y187D02*
X1154Y187D01*
X1242Y187D02*
X1251Y187D01*
X1960Y187D02*
X1967Y187D01*
X0Y186D02*
X7Y186D01*
X1142Y186D02*
X1154Y186D01*
X1242Y186D02*
X1251Y186D01*
X1960Y186D02*
X1967Y186D01*
X0Y185D02*
X7Y185D01*
X1142Y185D02*
X1154Y185D01*
X1242Y185D02*
X1251Y185D01*
X1960Y185D02*
X1967Y185D01*
X0Y184D02*
X7Y184D01*
X1142Y184D02*
X1154Y184D01*
X1242Y184D02*
X1251Y184D01*
X1960Y184D02*
X1967Y184D01*
X0Y183D02*
X7Y183D01*
X1142Y183D02*
X1154Y183D01*
X1242Y183D02*
X1251Y183D01*
X1960Y183D02*
X1967Y183D01*
X0Y182D02*
X7Y182D01*
X1142Y182D02*
X1154Y182D01*
X1242Y182D02*
X1251Y182D01*
X1304Y182D02*
X1308Y182D01*
X1504Y182D02*
X1508Y182D01*
X1704Y182D02*
X1708Y182D01*
X1960Y182D02*
X1967Y182D01*
X0Y181D02*
X7Y181D01*
X1142Y181D02*
X1154Y181D01*
X1242Y181D02*
X1251Y181D01*
X1302Y181D02*
X1309Y181D01*
X1502Y181D02*
X1509Y181D01*
X1702Y181D02*
X1708Y181D01*
X1960Y181D02*
X1967Y181D01*
X0Y180D02*
X7Y180D01*
X1142Y180D02*
X1154Y180D01*
X1242Y180D02*
X1251Y180D01*
X1302Y180D02*
X1309Y180D01*
X1502Y180D02*
X1509Y180D01*
X1702Y180D02*
X1709Y180D01*
X1960Y180D02*
X1967Y180D01*
X0Y179D02*
X7Y179D01*
X1142Y179D02*
X1154Y179D01*
X1242Y179D02*
X1251Y179D01*
X1302Y179D02*
X1309Y179D01*
X1502Y179D02*
X1509Y179D01*
X1702Y179D02*
X1709Y179D01*
X1960Y179D02*
X1967Y179D01*
X0Y178D02*
X7Y178D01*
X1142Y178D02*
X1154Y178D01*
X1242Y178D02*
X1251Y178D01*
X1302Y178D02*
X1309Y178D01*
X1502Y178D02*
X1509Y178D01*
X1702Y178D02*
X1709Y178D01*
X1960Y178D02*
X1967Y178D01*
X0Y177D02*
X7Y177D01*
X1142Y177D02*
X1154Y177D01*
X1242Y177D02*
X1251Y177D01*
X1302Y177D02*
X1309Y177D01*
X1502Y177D02*
X1509Y177D01*
X1702Y177D02*
X1709Y177D01*
X1960Y177D02*
X1967Y177D01*
X0Y176D02*
X7Y176D01*
X1142Y176D02*
X1154Y176D01*
X1242Y176D02*
X1251Y176D01*
X1302Y176D02*
X1310Y176D01*
X1502Y176D02*
X1510Y176D01*
X1702Y176D02*
X1710Y176D01*
X1960Y176D02*
X1967Y176D01*
X0Y175D02*
X7Y175D01*
X1142Y175D02*
X1154Y175D01*
X1242Y175D02*
X1251Y175D01*
X1303Y175D02*
X1310Y175D01*
X1503Y175D02*
X1510Y175D01*
X1703Y175D02*
X1710Y175D01*
X1960Y175D02*
X1967Y175D01*
X0Y174D02*
X7Y174D01*
X1142Y174D02*
X1154Y174D01*
X1242Y174D02*
X1251Y174D01*
X1303Y174D02*
X1311Y174D01*
X1503Y174D02*
X1510Y174D01*
X1703Y174D02*
X1710Y174D01*
X1960Y174D02*
X1967Y174D01*
X0Y173D02*
X7Y173D01*
X1142Y173D02*
X1154Y173D01*
X1242Y173D02*
X1251Y173D01*
X1303Y173D02*
X1311Y173D01*
X1503Y173D02*
X1511Y173D01*
X1703Y173D02*
X1711Y173D01*
X1960Y173D02*
X1967Y173D01*
X0Y172D02*
X7Y172D01*
X1142Y172D02*
X1154Y172D01*
X1242Y172D02*
X1251Y172D01*
X1304Y172D02*
X1312Y172D01*
X1504Y172D02*
X1511Y172D01*
X1704Y172D02*
X1711Y172D01*
X1960Y172D02*
X1967Y172D01*
X0Y171D02*
X7Y171D01*
X1142Y171D02*
X1154Y171D01*
X1242Y171D02*
X1251Y171D01*
X1304Y171D02*
X1312Y171D01*
X1504Y171D02*
X1512Y171D01*
X1704Y171D02*
X1712Y171D01*
X1960Y171D02*
X1967Y171D01*
X0Y170D02*
X7Y170D01*
X1142Y170D02*
X1151Y170D01*
X1242Y170D02*
X1251Y170D01*
X1305Y170D02*
X1313Y170D01*
X1505Y170D02*
X1513Y170D01*
X1705Y170D02*
X1713Y170D01*
X1960Y170D02*
X1967Y170D01*
X0Y169D02*
X7Y169D01*
X1142Y169D02*
X1151Y169D01*
X1242Y169D02*
X1251Y169D01*
X1305Y169D02*
X1314Y169D01*
X1505Y169D02*
X1513Y169D01*
X1705Y169D02*
X1713Y169D01*
X1960Y169D02*
X1967Y169D01*
X0Y168D02*
X7Y168D01*
X1142Y168D02*
X1151Y168D01*
X1242Y168D02*
X1251Y168D01*
X1306Y168D02*
X1314Y168D01*
X1506Y168D02*
X1514Y168D01*
X1706Y168D02*
X1714Y168D01*
X1960Y168D02*
X1967Y168D01*
X0Y167D02*
X7Y167D01*
X1142Y167D02*
X1151Y167D01*
X1242Y167D02*
X1251Y167D01*
X1307Y167D02*
X1315Y167D01*
X1507Y167D02*
X1515Y167D01*
X1706Y167D02*
X1715Y167D01*
X1960Y167D02*
X1967Y167D01*
X0Y166D02*
X7Y166D01*
X1142Y166D02*
X1151Y166D01*
X1242Y166D02*
X1251Y166D01*
X1307Y166D02*
X1316Y166D01*
X1507Y166D02*
X1516Y166D01*
X1707Y166D02*
X1716Y166D01*
X1960Y166D02*
X1967Y166D01*
X0Y165D02*
X7Y165D01*
X1142Y165D02*
X1151Y165D01*
X1242Y165D02*
X1251Y165D01*
X1308Y165D02*
X1317Y165D01*
X1508Y165D02*
X1517Y165D01*
X1708Y165D02*
X1717Y165D01*
X1960Y165D02*
X1967Y165D01*
X0Y164D02*
X7Y164D01*
X1142Y164D02*
X1151Y164D01*
X1242Y164D02*
X1251Y164D01*
X1309Y164D02*
X1319Y164D01*
X1509Y164D02*
X1519Y164D01*
X1709Y164D02*
X1719Y164D01*
X1960Y164D02*
X1967Y164D01*
X0Y163D02*
X7Y163D01*
X1142Y163D02*
X1151Y163D01*
X1242Y163D02*
X1251Y163D01*
X1310Y163D02*
X1320Y163D01*
X1510Y163D02*
X1520Y163D01*
X1710Y163D02*
X1720Y163D01*
X1960Y163D02*
X1967Y163D01*
X0Y162D02*
X7Y162D01*
X1142Y162D02*
X1151Y162D01*
X1242Y162D02*
X1251Y162D01*
X1311Y162D02*
X1322Y162D01*
X1511Y162D02*
X1522Y162D01*
X1710Y162D02*
X1722Y162D01*
X1960Y162D02*
X1967Y162D01*
X0Y161D02*
X7Y161D01*
X1142Y161D02*
X1151Y161D01*
X1242Y161D02*
X1251Y161D01*
X1312Y161D02*
X1325Y161D01*
X1512Y161D02*
X1525Y161D01*
X1711Y161D02*
X1725Y161D01*
X1960Y161D02*
X1967Y161D01*
X0Y160D02*
X7Y160D01*
X1142Y160D02*
X1151Y160D01*
X1242Y160D02*
X1251Y160D01*
X1313Y160D02*
X1329Y160D01*
X1513Y160D02*
X1529Y160D01*
X1713Y160D02*
X1729Y160D01*
X1960Y160D02*
X1967Y160D01*
X0Y159D02*
X7Y159D01*
X1142Y159D02*
X1151Y159D01*
X1242Y159D02*
X1251Y159D01*
X1314Y159D02*
X1331Y159D01*
X1514Y159D02*
X1531Y159D01*
X1714Y159D02*
X1731Y159D01*
X1960Y159D02*
X1967Y159D01*
X0Y158D02*
X7Y158D01*
X1142Y158D02*
X1151Y158D01*
X1242Y158D02*
X1251Y158D01*
X1315Y158D02*
X1331Y158D01*
X1515Y158D02*
X1531Y158D01*
X1715Y158D02*
X1731Y158D01*
X1960Y158D02*
X1967Y158D01*
X0Y157D02*
X7Y157D01*
X1142Y157D02*
X1151Y157D01*
X1242Y157D02*
X1251Y157D01*
X1317Y157D02*
X1331Y157D01*
X1516Y157D02*
X1531Y157D01*
X1716Y157D02*
X1731Y157D01*
X1960Y157D02*
X1967Y157D01*
X0Y156D02*
X7Y156D01*
X1142Y156D02*
X1151Y156D01*
X1242Y156D02*
X1251Y156D01*
X1318Y156D02*
X1331Y156D01*
X1518Y156D02*
X1531Y156D01*
X1718Y156D02*
X1731Y156D01*
X1960Y156D02*
X1967Y156D01*
X0Y155D02*
X7Y155D01*
X1142Y155D02*
X1151Y155D01*
X1242Y155D02*
X1251Y155D01*
X1320Y155D02*
X1331Y155D01*
X1520Y155D02*
X1531Y155D01*
X1720Y155D02*
X1731Y155D01*
X1960Y155D02*
X1967Y155D01*
X0Y154D02*
X7Y154D01*
X1142Y154D02*
X1151Y154D01*
X1242Y154D02*
X1251Y154D01*
X1322Y154D02*
X1331Y154D01*
X1522Y154D02*
X1531Y154D01*
X1722Y154D02*
X1731Y154D01*
X1960Y154D02*
X1967Y154D01*
X0Y153D02*
X7Y153D01*
X1142Y153D02*
X1151Y153D01*
X1242Y153D02*
X1251Y153D01*
X1325Y153D02*
X1331Y153D01*
X1525Y153D02*
X1531Y153D01*
X1725Y153D02*
X1731Y153D01*
X1960Y153D02*
X1967Y153D01*
X0Y152D02*
X7Y152D01*
X1142Y152D02*
X1151Y152D01*
X1242Y152D02*
X1251Y152D01*
X1329Y152D02*
X1330Y152D01*
X1529Y152D02*
X1530Y152D01*
X1729Y152D02*
X1730Y152D01*
X1960Y152D02*
X1967Y152D01*
X0Y151D02*
X7Y151D01*
X1142Y151D02*
X1151Y151D01*
X1242Y151D02*
X1251Y151D01*
X1960Y151D02*
X1967Y151D01*
X0Y150D02*
X7Y150D01*
X1142Y150D02*
X1151Y150D01*
X1242Y150D02*
X1251Y150D01*
X1960Y150D02*
X1967Y150D01*
X0Y149D02*
X7Y149D01*
X1142Y149D02*
X1151Y149D01*
X1242Y149D02*
X1251Y149D01*
X1960Y149D02*
X1967Y149D01*
X0Y148D02*
X7Y148D01*
X1142Y148D02*
X1151Y148D01*
X1242Y148D02*
X1251Y148D01*
X1960Y148D02*
X1967Y148D01*
X0Y147D02*
X7Y147D01*
X1142Y147D02*
X1151Y147D01*
X1242Y147D02*
X1251Y147D01*
X1960Y147D02*
X1967Y147D01*
X0Y146D02*
X7Y146D01*
X1142Y146D02*
X1151Y146D01*
X1242Y146D02*
X1251Y146D01*
X1960Y146D02*
X1967Y146D01*
X0Y145D02*
X7Y145D01*
X1142Y145D02*
X1151Y145D01*
X1242Y145D02*
X1251Y145D01*
X1960Y145D02*
X1967Y145D01*
X0Y144D02*
X7Y144D01*
X1052Y144D02*
X1065Y144D01*
X1079Y144D02*
X1094Y144D01*
X1111Y144D02*
X1128Y144D01*
X1142Y144D02*
X1151Y144D01*
X1242Y144D02*
X1251Y144D01*
X1960Y144D02*
X1967Y144D01*
X0Y143D02*
X7Y143D01*
X1051Y143D02*
X1067Y143D01*
X1079Y143D02*
X1096Y143D01*
X1110Y143D02*
X1129Y143D01*
X1142Y143D02*
X1151Y143D01*
X1242Y143D02*
X1251Y143D01*
X1960Y143D02*
X1967Y143D01*
X0Y142D02*
X7Y142D01*
X1050Y142D02*
X1068Y142D01*
X1079Y142D02*
X1097Y142D01*
X1109Y142D02*
X1129Y142D01*
X1142Y142D02*
X1151Y142D01*
X1242Y142D02*
X1251Y142D01*
X1960Y142D02*
X1967Y142D01*
X0Y141D02*
X7Y141D01*
X1049Y141D02*
X1068Y141D01*
X1079Y141D02*
X1098Y141D01*
X1110Y141D02*
X1129Y141D01*
X1142Y141D02*
X1151Y141D01*
X1242Y141D02*
X1251Y141D01*
X1960Y141D02*
X1967Y141D01*
X0Y140D02*
X7Y140D01*
X1049Y140D02*
X1069Y140D01*
X1079Y140D02*
X1099Y140D01*
X1112Y140D02*
X1127Y140D01*
X1142Y140D02*
X1151Y140D01*
X1242Y140D02*
X1251Y140D01*
X1960Y140D02*
X1967Y140D01*
X0Y139D02*
X7Y139D01*
X1049Y139D02*
X1053Y139D01*
X1066Y139D02*
X1069Y139D01*
X1079Y139D02*
X1082Y139D01*
X1095Y139D02*
X1099Y139D01*
X1118Y139D02*
X1121Y139D01*
X1142Y139D02*
X1151Y139D01*
X1242Y139D02*
X1251Y139D01*
X1960Y139D02*
X1967Y139D01*
X0Y138D02*
X7Y138D01*
X1049Y138D02*
X1053Y138D01*
X1066Y138D02*
X1069Y138D01*
X1079Y138D02*
X1082Y138D01*
X1096Y138D02*
X1099Y138D01*
X1118Y138D02*
X1121Y138D01*
X1142Y138D02*
X1151Y138D01*
X1242Y138D02*
X1251Y138D01*
X1960Y138D02*
X1967Y138D01*
X0Y137D02*
X7Y137D01*
X1050Y137D02*
X1054Y137D01*
X1066Y137D02*
X1068Y137D01*
X1079Y137D02*
X1082Y137D01*
X1096Y137D02*
X1099Y137D01*
X1118Y137D02*
X1121Y137D01*
X1142Y137D02*
X1151Y137D01*
X1242Y137D02*
X1251Y137D01*
X1960Y137D02*
X1967Y137D01*
X0Y136D02*
X7Y136D01*
X1050Y136D02*
X1055Y136D01*
X1079Y136D02*
X1082Y136D01*
X1096Y136D02*
X1099Y136D01*
X1118Y136D02*
X1121Y136D01*
X1142Y136D02*
X1151Y136D01*
X1242Y136D02*
X1251Y136D01*
X1960Y136D02*
X1967Y136D01*
X0Y135D02*
X7Y135D01*
X1051Y135D02*
X1056Y135D01*
X1079Y135D02*
X1082Y135D01*
X1096Y135D02*
X1099Y135D01*
X1118Y135D02*
X1121Y135D01*
X1142Y135D02*
X1151Y135D01*
X1242Y135D02*
X1251Y135D01*
X1960Y135D02*
X1967Y135D01*
X0Y134D02*
X7Y134D01*
X1052Y134D02*
X1056Y134D01*
X1079Y134D02*
X1082Y134D01*
X1096Y134D02*
X1099Y134D01*
X1118Y134D02*
X1121Y134D01*
X1142Y134D02*
X1151Y134D01*
X1242Y134D02*
X1251Y134D01*
X1960Y134D02*
X1967Y134D01*
X0Y133D02*
X7Y133D01*
X1053Y133D02*
X1057Y133D01*
X1079Y133D02*
X1082Y133D01*
X1096Y133D02*
X1099Y133D01*
X1118Y133D02*
X1121Y133D01*
X1142Y133D02*
X1151Y133D01*
X1242Y133D02*
X1251Y133D01*
X1960Y133D02*
X1967Y133D01*
X0Y132D02*
X7Y132D01*
X1054Y132D02*
X1058Y132D01*
X1079Y132D02*
X1082Y132D01*
X1096Y132D02*
X1099Y132D01*
X1118Y132D02*
X1121Y132D01*
X1142Y132D02*
X1151Y132D01*
X1242Y132D02*
X1251Y132D01*
X1960Y132D02*
X1967Y132D01*
X0Y131D02*
X7Y131D01*
X1054Y131D02*
X1059Y131D01*
X1079Y131D02*
X1082Y131D01*
X1096Y131D02*
X1099Y131D01*
X1118Y131D02*
X1121Y131D01*
X1142Y131D02*
X1151Y131D01*
X1242Y131D02*
X1251Y131D01*
X1960Y131D02*
X1967Y131D01*
X0Y130D02*
X7Y130D01*
X1055Y130D02*
X1060Y130D01*
X1079Y130D02*
X1082Y130D01*
X1096Y130D02*
X1099Y130D01*
X1118Y130D02*
X1121Y130D01*
X1142Y130D02*
X1151Y130D01*
X1242Y130D02*
X1251Y130D01*
X1960Y130D02*
X1967Y130D01*
X0Y129D02*
X7Y129D01*
X1056Y129D02*
X1060Y129D01*
X1079Y129D02*
X1082Y129D01*
X1095Y129D02*
X1099Y129D01*
X1118Y129D02*
X1121Y129D01*
X1142Y129D02*
X1151Y129D01*
X1242Y129D02*
X1251Y129D01*
X1960Y129D02*
X1967Y129D01*
X0Y128D02*
X7Y128D01*
X1057Y128D02*
X1061Y128D01*
X1079Y128D02*
X1098Y128D01*
X1118Y128D02*
X1121Y128D01*
X1142Y128D02*
X1151Y128D01*
X1242Y128D02*
X1251Y128D01*
X1960Y128D02*
X1967Y128D01*
X0Y127D02*
X7Y127D01*
X1057Y127D02*
X1062Y127D01*
X1079Y127D02*
X1098Y127D01*
X1118Y127D02*
X1121Y127D01*
X1142Y127D02*
X1151Y127D01*
X1242Y127D02*
X1251Y127D01*
X1960Y127D02*
X1967Y127D01*
X0Y126D02*
X7Y126D01*
X1058Y126D02*
X1063Y126D01*
X1079Y126D02*
X1097Y126D01*
X1118Y126D02*
X1121Y126D01*
X1142Y126D02*
X1151Y126D01*
X1242Y126D02*
X1251Y126D01*
X1960Y126D02*
X1967Y126D01*
X0Y125D02*
X7Y125D01*
X1059Y125D02*
X1063Y125D01*
X1079Y125D02*
X1096Y125D01*
X1118Y125D02*
X1121Y125D01*
X1142Y125D02*
X1151Y125D01*
X1242Y125D02*
X1251Y125D01*
X1960Y125D02*
X1967Y125D01*
X0Y124D02*
X7Y124D01*
X1060Y124D02*
X1064Y124D01*
X1079Y124D02*
X1083Y124D01*
X1118Y124D02*
X1121Y124D01*
X1142Y124D02*
X1151Y124D01*
X1242Y124D02*
X1251Y124D01*
X1960Y124D02*
X1967Y124D01*
X0Y123D02*
X7Y123D01*
X1061Y123D02*
X1065Y123D01*
X1079Y123D02*
X1082Y123D01*
X1118Y123D02*
X1121Y123D01*
X1142Y123D02*
X1151Y123D01*
X1242Y123D02*
X1251Y123D01*
X1960Y123D02*
X1967Y123D01*
X0Y122D02*
X7Y122D01*
X1061Y122D02*
X1066Y122D01*
X1079Y122D02*
X1082Y122D01*
X1118Y122D02*
X1121Y122D01*
X1142Y122D02*
X1151Y122D01*
X1242Y122D02*
X1251Y122D01*
X1960Y122D02*
X1967Y122D01*
X0Y121D02*
X7Y121D01*
X1062Y121D02*
X1067Y121D01*
X1079Y121D02*
X1082Y121D01*
X1118Y121D02*
X1121Y121D01*
X1142Y121D02*
X1151Y121D01*
X1242Y121D02*
X1251Y121D01*
X1960Y121D02*
X1967Y121D01*
X0Y120D02*
X7Y120D01*
X1063Y120D02*
X1067Y120D01*
X1079Y120D02*
X1082Y120D01*
X1118Y120D02*
X1121Y120D01*
X1142Y120D02*
X1151Y120D01*
X1242Y120D02*
X1251Y120D01*
X1960Y120D02*
X1967Y120D01*
X0Y119D02*
X7Y119D01*
X1050Y119D02*
X1051Y119D01*
X1064Y119D02*
X1068Y119D01*
X1079Y119D02*
X1082Y119D01*
X1118Y119D02*
X1121Y119D01*
X1142Y119D02*
X1151Y119D01*
X1242Y119D02*
X1251Y119D01*
X1960Y119D02*
X1967Y119D01*
X0Y118D02*
X7Y118D01*
X1049Y118D02*
X1052Y118D01*
X1064Y118D02*
X1069Y118D01*
X1079Y118D02*
X1082Y118D01*
X1118Y118D02*
X1121Y118D01*
X1142Y118D02*
X1151Y118D01*
X1242Y118D02*
X1251Y118D01*
X1960Y118D02*
X1967Y118D01*
X0Y117D02*
X7Y117D01*
X1049Y117D02*
X1052Y117D01*
X1065Y117D02*
X1069Y117D01*
X1079Y117D02*
X1082Y117D01*
X1118Y117D02*
X1121Y117D01*
X1142Y117D02*
X1151Y117D01*
X1242Y117D02*
X1251Y117D01*
X1960Y117D02*
X1967Y117D01*
X0Y116D02*
X7Y116D01*
X1049Y116D02*
X1053Y116D01*
X1065Y116D02*
X1069Y116D01*
X1079Y116D02*
X1082Y116D01*
X1117Y116D02*
X1121Y116D01*
X1142Y116D02*
X1151Y116D01*
X1242Y116D02*
X1251Y116D01*
X1960Y116D02*
X1967Y116D01*
X0Y115D02*
X7Y115D01*
X1050Y115D02*
X1069Y115D01*
X1079Y115D02*
X1082Y115D01*
X1110Y115D02*
X1129Y115D01*
X1142Y115D02*
X1151Y115D01*
X1242Y115D02*
X1251Y115D01*
X1960Y115D02*
X1967Y115D01*
X0Y114D02*
X7Y114D01*
X1050Y114D02*
X1068Y114D01*
X1079Y114D02*
X1082Y114D01*
X1109Y114D02*
X1129Y114D01*
X1142Y114D02*
X1151Y114D01*
X1242Y114D02*
X1251Y114D01*
X1960Y114D02*
X1967Y114D01*
X0Y113D02*
X7Y113D01*
X1051Y113D02*
X1067Y113D01*
X1079Y113D02*
X1082Y113D01*
X1110Y113D02*
X1129Y113D01*
X1142Y113D02*
X1151Y113D01*
X1242Y113D02*
X1251Y113D01*
X1960Y113D02*
X1967Y113D01*
X0Y112D02*
X7Y112D01*
X1053Y112D02*
X1066Y112D01*
X1080Y112D02*
X1081Y112D01*
X1110Y112D02*
X1128Y112D01*
X1142Y112D02*
X1151Y112D01*
X1242Y112D02*
X1251Y112D01*
X1960Y112D02*
X1967Y112D01*
X0Y111D02*
X7Y111D01*
X1142Y111D02*
X1151Y111D01*
X1242Y111D02*
X1251Y111D01*
X1960Y111D02*
X1967Y111D01*
X0Y110D02*
X7Y110D01*
X1142Y110D02*
X1151Y110D01*
X1242Y110D02*
X1251Y110D01*
X1960Y110D02*
X1967Y110D01*
X0Y109D02*
X7Y109D01*
X1142Y109D02*
X1151Y109D01*
X1242Y109D02*
X1251Y109D01*
X1960Y109D02*
X1967Y109D01*
X0Y108D02*
X7Y108D01*
X1142Y108D02*
X1151Y108D01*
X1242Y108D02*
X1251Y108D01*
X1960Y108D02*
X1967Y108D01*
X0Y107D02*
X7Y107D01*
X1142Y107D02*
X1151Y107D01*
X1242Y107D02*
X1251Y107D01*
X1960Y107D02*
X1967Y107D01*
X0Y106D02*
X7Y106D01*
X1142Y106D02*
X1151Y106D01*
X1242Y106D02*
X1251Y106D01*
X1960Y106D02*
X1967Y106D01*
X0Y105D02*
X7Y105D01*
X1142Y105D02*
X1151Y105D01*
X1242Y105D02*
X1251Y105D01*
X1960Y105D02*
X1967Y105D01*
X0Y104D02*
X7Y104D01*
X1142Y104D02*
X1151Y104D01*
X1242Y104D02*
X1251Y104D01*
X1960Y104D02*
X1967Y104D01*
X0Y103D02*
X7Y103D01*
X1142Y103D02*
X1151Y103D01*
X1242Y103D02*
X1251Y103D01*
X1960Y103D02*
X1967Y103D01*
X0Y102D02*
X7Y102D01*
X1142Y102D02*
X1151Y102D01*
X1242Y102D02*
X1251Y102D01*
X1960Y102D02*
X1967Y102D01*
X0Y101D02*
X7Y101D01*
X1142Y101D02*
X1151Y101D01*
X1242Y101D02*
X1251Y101D01*
X1960Y101D02*
X1967Y101D01*
X0Y100D02*
X7Y100D01*
X1142Y100D02*
X1151Y100D01*
X1242Y100D02*
X1251Y100D01*
X1960Y100D02*
X1967Y100D01*
X0Y99D02*
X7Y99D01*
X1142Y99D02*
X1151Y99D01*
X1242Y99D02*
X1251Y99D01*
X1960Y99D02*
X1967Y99D01*
X0Y98D02*
X7Y98D01*
X1142Y98D02*
X1151Y98D01*
X1242Y98D02*
X1251Y98D01*
X1960Y98D02*
X1967Y98D01*
X0Y97D02*
X7Y97D01*
X1142Y97D02*
X1151Y97D01*
X1242Y97D02*
X1251Y97D01*
X1960Y97D02*
X1967Y97D01*
X0Y96D02*
X7Y96D01*
X1142Y96D02*
X1151Y96D01*
X1242Y96D02*
X1251Y96D01*
X1960Y96D02*
X1967Y96D01*
X0Y95D02*
X7Y95D01*
X1142Y95D02*
X1151Y95D01*
X1242Y95D02*
X1251Y95D01*
X1960Y95D02*
X1967Y95D01*
X0Y94D02*
X7Y94D01*
X1142Y94D02*
X1151Y94D01*
X1242Y94D02*
X1251Y94D01*
X1960Y94D02*
X1967Y94D01*
X0Y93D02*
X7Y93D01*
X1142Y93D02*
X1151Y93D01*
X1242Y93D02*
X1251Y93D01*
X1960Y93D02*
X1967Y93D01*
X0Y92D02*
X7Y92D01*
X1142Y92D02*
X1151Y92D01*
X1242Y92D02*
X1251Y92D01*
X1960Y92D02*
X1967Y92D01*
X0Y91D02*
X7Y91D01*
X1142Y91D02*
X1151Y91D01*
X1242Y91D02*
X1251Y91D01*
X1960Y91D02*
X1967Y91D01*
X0Y90D02*
X7Y90D01*
X1142Y90D02*
X1151Y90D01*
X1242Y90D02*
X1251Y90D01*
X1960Y90D02*
X1967Y90D01*
X0Y89D02*
X7Y89D01*
X1142Y89D02*
X1151Y89D01*
X1242Y89D02*
X1251Y89D01*
X1960Y89D02*
X1967Y89D01*
X0Y88D02*
X7Y88D01*
X1142Y88D02*
X1151Y88D01*
X1242Y88D02*
X1251Y88D01*
X1960Y88D02*
X1967Y88D01*
X0Y87D02*
X7Y87D01*
X1142Y87D02*
X1151Y87D01*
X1242Y87D02*
X1251Y87D01*
X1960Y87D02*
X1967Y87D01*
X0Y86D02*
X7Y86D01*
X1142Y86D02*
X1151Y86D01*
X1242Y86D02*
X1251Y86D01*
X1960Y86D02*
X1967Y86D01*
X0Y85D02*
X7Y85D01*
X1142Y85D02*
X1151Y85D01*
X1242Y85D02*
X1251Y85D01*
X1960Y85D02*
X1967Y85D01*
X0Y84D02*
X7Y84D01*
X1142Y84D02*
X1151Y84D01*
X1242Y84D02*
X1251Y84D01*
X1960Y84D02*
X1967Y84D01*
X0Y83D02*
X7Y83D01*
X1142Y83D02*
X1151Y83D01*
X1242Y83D02*
X1251Y83D01*
X1960Y83D02*
X1967Y83D01*
X0Y82D02*
X7Y82D01*
X1142Y82D02*
X1151Y82D01*
X1242Y82D02*
X1251Y82D01*
X1960Y82D02*
X1967Y82D01*
X0Y81D02*
X7Y81D01*
X1142Y81D02*
X1151Y81D01*
X1242Y81D02*
X1251Y81D01*
X1960Y81D02*
X1967Y81D01*
X0Y80D02*
X7Y80D01*
X1142Y80D02*
X1151Y80D01*
X1242Y80D02*
X1251Y80D01*
X1960Y80D02*
X1967Y80D01*
X0Y79D02*
X7Y79D01*
X1142Y79D02*
X1151Y79D01*
X1242Y79D02*
X1251Y79D01*
X1960Y79D02*
X1967Y79D01*
X0Y78D02*
X7Y78D01*
X1142Y78D02*
X1151Y78D01*
X1242Y78D02*
X1251Y78D01*
X1960Y78D02*
X1967Y78D01*
X0Y77D02*
X7Y77D01*
X1142Y77D02*
X1151Y77D01*
X1242Y77D02*
X1251Y77D01*
X1960Y77D02*
X1967Y77D01*
X0Y76D02*
X7Y76D01*
X1142Y76D02*
X1151Y76D01*
X1242Y76D02*
X1251Y76D01*
X1960Y76D02*
X1967Y76D01*
X0Y75D02*
X7Y75D01*
X1142Y75D02*
X1151Y75D01*
X1242Y75D02*
X1251Y75D01*
X1960Y75D02*
X1967Y75D01*
X0Y74D02*
X7Y74D01*
X1960Y74D02*
X1967Y74D01*
X0Y73D02*
X7Y73D01*
X1960Y73D02*
X1967Y73D01*
X0Y72D02*
X7Y72D01*
X1960Y72D02*
X1967Y72D01*
X0Y71D02*
X7Y71D01*
X1960Y71D02*
X1967Y71D01*
X0Y70D02*
X7Y70D01*
X1960Y70D02*
X1967Y70D01*
X0Y69D02*
X7Y69D01*
X1960Y69D02*
X1967Y69D01*
X0Y68D02*
X7Y68D01*
X1960Y68D02*
X1967Y68D01*
X0Y67D02*
X7Y67D01*
X1960Y67D02*
X1967Y67D01*
X0Y66D02*
X7Y66D01*
X1960Y66D02*
X1967Y66D01*
X0Y65D02*
X7Y65D01*
X1960Y65D02*
X1967Y65D01*
X0Y64D02*
X7Y64D01*
X1960Y64D02*
X1967Y64D01*
X0Y63D02*
X7Y63D01*
X1960Y63D02*
X1967Y63D01*
X0Y62D02*
X7Y62D01*
X1960Y62D02*
X1967Y62D01*
X0Y61D02*
X7Y61D01*
X1960Y61D02*
X1967Y61D01*
X0Y60D02*
X7Y60D01*
X1960Y60D02*
X1967Y60D01*
X0Y59D02*
X7Y59D01*
X1960Y59D02*
X1967Y59D01*
X0Y58D02*
X7Y58D01*
X1960Y58D02*
X1967Y58D01*
X0Y57D02*
X7Y57D01*
X1960Y57D02*
X1967Y57D01*
X0Y56D02*
X7Y56D01*
X1960Y56D02*
X1967Y56D01*
X0Y55D02*
X7Y55D01*
X1960Y55D02*
X1967Y55D01*
X0Y54D02*
X7Y54D01*
X1960Y54D02*
X1967Y54D01*
X0Y53D02*
X7Y53D01*
X1960Y53D02*
X1967Y53D01*
X0Y52D02*
X7Y52D01*
X1960Y52D02*
X1967Y52D01*
X0Y51D02*
X7Y51D01*
X1960Y51D02*
X1967Y51D01*
X0Y50D02*
X7Y50D01*
X1960Y50D02*
X1967Y50D01*
X0Y49D02*
X7Y49D01*
X1960Y49D02*
X1967Y49D01*
X0Y48D02*
X7Y48D01*
X1960Y48D02*
X1967Y48D01*
X0Y47D02*
X7Y47D01*
X1960Y47D02*
X1967Y47D01*
X0Y46D02*
X7Y46D01*
X1960Y46D02*
X1967Y46D01*
X0Y45D02*
X7Y45D01*
X1960Y45D02*
X1967Y45D01*
X0Y44D02*
X7Y44D01*
X1960Y44D02*
X1967Y44D01*
X0Y43D02*
X7Y43D01*
X1960Y43D02*
X1967Y43D01*
X0Y42D02*
X7Y42D01*
X1960Y42D02*
X1967Y42D01*
X0Y41D02*
X7Y41D01*
X1960Y41D02*
X1967Y41D01*
X0Y40D02*
X7Y40D01*
X1960Y40D02*
X1967Y40D01*
X0Y39D02*
X7Y39D01*
X1960Y39D02*
X1967Y39D01*
X0Y38D02*
X7Y38D01*
X1960Y38D02*
X1967Y38D01*
X0Y37D02*
X7Y37D01*
X1960Y37D02*
X1967Y37D01*
X0Y36D02*
X7Y36D01*
X1960Y36D02*
X1967Y36D01*
X0Y35D02*
X7Y35D01*
X1960Y35D02*
X1967Y35D01*
X0Y34D02*
X7Y34D01*
X1960Y34D02*
X1967Y34D01*
X0Y33D02*
X7Y33D01*
X1960Y33D02*
X1967Y33D01*
X0Y32D02*
X7Y32D01*
X1960Y32D02*
X1967Y32D01*
X0Y31D02*
X7Y31D01*
X1960Y31D02*
X1967Y31D01*
X0Y30D02*
X7Y30D01*
X1960Y30D02*
X1967Y30D01*
X0Y29D02*
X7Y29D01*
X1960Y29D02*
X1967Y29D01*
X0Y28D02*
X7Y28D01*
X1960Y28D02*
X1967Y28D01*
X0Y27D02*
X7Y27D01*
X1960Y27D02*
X1967Y27D01*
X0Y26D02*
X7Y26D01*
X1960Y26D02*
X1967Y26D01*
X0Y25D02*
X7Y25D01*
X1960Y25D02*
X1967Y25D01*
X0Y24D02*
X7Y24D01*
X1960Y24D02*
X1967Y24D01*
X0Y23D02*
X7Y23D01*
X1960Y23D02*
X1967Y23D01*
X0Y22D02*
X7Y22D01*
X1960Y22D02*
X1967Y22D01*
X0Y21D02*
X7Y21D01*
X1960Y21D02*
X1967Y21D01*
X0Y20D02*
X7Y20D01*
X1960Y20D02*
X1967Y20D01*
X0Y19D02*
X7Y19D01*
X1960Y19D02*
X1967Y19D01*
X0Y18D02*
X7Y18D01*
X1960Y18D02*
X1967Y18D01*
X0Y17D02*
X7Y17D01*
X1960Y17D02*
X1967Y17D01*
X0Y16D02*
X7Y16D01*
X1960Y16D02*
X1967Y16D01*
X0Y15D02*
X7Y15D01*
X1960Y15D02*
X1967Y15D01*
X0Y14D02*
X7Y14D01*
X1960Y14D02*
X1967Y14D01*
X0Y13D02*
X7Y13D01*
X1960Y13D02*
X1967Y13D01*
X0Y12D02*
X7Y12D01*
X1960Y12D02*
X1967Y12D01*
X0Y11D02*
X7Y11D01*
X1960Y11D02*
X1967Y11D01*
X0Y10D02*
X7Y10D01*
X1960Y10D02*
X1967Y10D01*
X0Y9D02*
X7Y9D01*
X1960Y9D02*
X1967Y9D01*
X0Y8D02*
X1967Y8D01*
X0Y7D02*
X1967Y7D01*
X0Y6D02*
X1967Y6D01*
X0Y5D02*
X1967Y5D01*
X0Y4D02*
X1967Y4D01*
X0Y3D02*
X1967Y3D01*
X0Y2D02*
X1967Y2D01*
X0Y1D02*
X1967Y1D01*
D02*
G04 End of Silk1*
M02*