M48
INCH
T10C0.038000
T11C0.030000
%
T10
X011970Y005239
X011970Y004239
X011970Y003239
X011970Y002239
X011970Y001239
X011000Y002202
X011000Y003202
X011000Y004202
X011000Y005202
X011000Y006202
X011000Y007202
X011000Y008202
X011000Y009202
X011000Y010202
X010000Y002202
X010000Y003202
X010000Y004202
X010000Y005202
X010000Y006202
X010000Y007202
X010000Y008202
X010000Y009202
X010000Y010202
X018000Y007202
X017000Y007202
X016000Y007202
X015000Y007202
X014000Y007202
X013000Y007202
X013000Y005202
X014000Y005202
X015000Y005202
X016000Y005202
X017000Y005202
X018000Y005202
X013000Y009202
X014000Y009202
X015000Y009202
X016000Y009202
X017000Y009202
X018000Y009202
X018000Y008202
X017000Y008202
X016000Y008202
X015000Y008202
X014000Y008202
X013000Y008202
X018000Y003202
X017000Y003202
X016000Y003202
X015000Y003202
X014000Y003202
X013000Y003202
X013000Y004202
X014000Y004202
X015000Y004202
X016000Y004202
X017000Y004202
X018000Y004202
X013000Y006202
X012000Y006202
T11
X013291Y010910
X014000Y010202
X015291Y010910
X016000Y010202
X017291Y010910
X018000Y010202
X013708Y001494
X012999Y002202
X015708Y001494
X014999Y002202
X017708Y001494
X016999Y002202
T00
M30
