G04 MADE WITH FRITZING*
G04 WWW.FRITZING.ORG*
G04 DOUBLE SIDED*
G04 HOLES PLATED*
G04 CONTOUR ON CENTER OF CONTOUR VECTOR*
%ASAXBY*%
%FSLAX23Y23*%
%MOIN*%
%OFA0B0*%
%SFA1.0B1.0*%
%ADD10C,0.075000*%
%ADD11C,0.078000*%
%ADD12C,0.070000*%
%ADD13R,0.078000X0.078000*%
%ADD14C,0.024000*%
%LNCOPPER0*%
G90*
G70*
G54D10*
X1211Y1079D03*
G54D11*
X1200Y620D03*
X1300Y620D03*
X1800Y420D03*
X1700Y420D03*
X1600Y420D03*
X1500Y420D03*
X1400Y420D03*
X1300Y420D03*
X1800Y420D03*
X1700Y420D03*
X1600Y420D03*
X1500Y420D03*
X1400Y420D03*
X1300Y420D03*
X1300Y320D03*
X1400Y320D03*
X1500Y320D03*
X1600Y320D03*
X1700Y320D03*
X1800Y320D03*
X1300Y820D03*
X1400Y820D03*
X1500Y820D03*
X1600Y820D03*
X1700Y820D03*
X1800Y820D03*
X1300Y820D03*
X1400Y820D03*
X1500Y820D03*
X1600Y820D03*
X1700Y820D03*
X1800Y820D03*
X1800Y920D03*
X1700Y920D03*
X1600Y920D03*
X1500Y920D03*
X1400Y920D03*
X1300Y920D03*
G54D12*
X1700Y220D03*
X1771Y149D03*
X1500Y220D03*
X1571Y149D03*
X1300Y220D03*
X1371Y149D03*
X1800Y1020D03*
X1729Y1091D03*
X1600Y1020D03*
X1529Y1091D03*
X1400Y1020D03*
X1329Y1091D03*
G54D11*
X1800Y520D03*
X1700Y520D03*
X1600Y520D03*
X1500Y520D03*
X1400Y520D03*
X1300Y520D03*
X1300Y720D03*
X1400Y720D03*
X1500Y720D03*
X1600Y720D03*
X1700Y720D03*
X1800Y720D03*
X1000Y1020D03*
X1000Y920D03*
X1000Y820D03*
X1000Y720D03*
X1000Y620D03*
X1000Y520D03*
X1000Y420D03*
X1000Y320D03*
X1000Y220D03*
X1100Y1020D03*
X1100Y920D03*
X1100Y820D03*
X1100Y720D03*
X1100Y620D03*
X1100Y520D03*
X1100Y420D03*
X1100Y320D03*
X1100Y220D03*
X1197Y124D03*
X1197Y224D03*
X1197Y324D03*
X1197Y424D03*
X1197Y524D03*
G54D13*
X1200Y620D03*
G54D14*
X1200Y821D02*
X1130Y821D01*
D02*
X1200Y650D02*
X1200Y821D01*
D02*
X1200Y920D02*
X1270Y920D01*
D02*
X1200Y821D02*
X1200Y920D01*
D02*
X1900Y320D02*
X1900Y1120D01*
D02*
X1830Y320D02*
X1900Y320D01*
D02*
X1305Y950D02*
X1325Y1065D01*
D02*
X1503Y1091D02*
X1355Y1091D01*
D02*
X1703Y1091D02*
X1555Y1091D01*
D02*
X1900Y1120D02*
X1755Y1095D01*
D02*
X1395Y291D02*
X1375Y175D01*
D02*
X1595Y291D02*
X1575Y175D01*
D02*
X1795Y291D02*
X1775Y175D01*
D02*
X1745Y149D02*
X1597Y149D01*
D02*
X1545Y149D02*
X1397Y149D01*
D02*
X1505Y950D02*
X1525Y1065D01*
D02*
X1705Y950D02*
X1725Y1065D01*
D02*
X1070Y820D02*
X1030Y820D01*
G36*
X40Y1180D02*
X40Y1144D01*
X1736Y1144D01*
X1736Y1142D01*
X1748Y1142D01*
X1748Y1140D01*
X1754Y1140D01*
X1754Y1138D01*
X1758Y1138D01*
X1758Y1136D01*
X1762Y1136D01*
X1762Y1134D01*
X1764Y1134D01*
X1764Y1132D01*
X1766Y1132D01*
X1766Y1130D01*
X1768Y1130D01*
X1768Y1128D01*
X1770Y1128D01*
X1770Y1126D01*
X1772Y1126D01*
X1772Y1124D01*
X1774Y1124D01*
X1774Y1120D01*
X1776Y1120D01*
X1776Y1116D01*
X1778Y1116D01*
X1778Y1110D01*
X1780Y1110D01*
X1780Y1102D01*
X1782Y1102D01*
X1782Y1072D01*
X1814Y1072D01*
X1814Y1070D01*
X1822Y1070D01*
X1822Y1068D01*
X1826Y1068D01*
X1826Y1066D01*
X1830Y1066D01*
X1830Y1064D01*
X1834Y1064D01*
X1834Y1062D01*
X1836Y1062D01*
X1836Y1060D01*
X1838Y1060D01*
X1838Y1058D01*
X1840Y1058D01*
X1840Y1056D01*
X1842Y1056D01*
X1842Y1054D01*
X1844Y1054D01*
X1844Y1050D01*
X1846Y1050D01*
X1846Y1046D01*
X1848Y1046D01*
X1848Y1042D01*
X1850Y1042D01*
X1850Y1036D01*
X1852Y1036D01*
X1852Y1004D01*
X1850Y1004D01*
X1850Y998D01*
X1848Y998D01*
X1848Y992D01*
X1846Y992D01*
X1846Y988D01*
X1844Y988D01*
X1844Y986D01*
X1842Y986D01*
X1842Y984D01*
X1840Y984D01*
X1840Y982D01*
X1838Y982D01*
X1838Y962D01*
X1840Y962D01*
X1840Y960D01*
X1842Y960D01*
X1842Y956D01*
X1844Y956D01*
X1844Y954D01*
X1846Y954D01*
X1846Y952D01*
X1848Y952D01*
X1848Y950D01*
X1850Y950D01*
X1850Y946D01*
X1852Y946D01*
X1852Y942D01*
X1854Y942D01*
X1854Y938D01*
X1856Y938D01*
X1856Y932D01*
X1858Y932D01*
X1858Y906D01*
X1856Y906D01*
X1856Y902D01*
X1854Y902D01*
X1854Y898D01*
X1852Y898D01*
X1852Y894D01*
X1850Y894D01*
X1850Y890D01*
X1848Y890D01*
X1848Y888D01*
X1846Y888D01*
X1846Y886D01*
X1844Y886D01*
X1844Y882D01*
X1842Y882D01*
X1842Y880D01*
X1840Y880D01*
X1840Y860D01*
X1842Y860D01*
X1842Y856D01*
X1844Y856D01*
X1844Y854D01*
X1846Y854D01*
X1846Y852D01*
X1848Y852D01*
X1848Y850D01*
X1850Y850D01*
X1850Y846D01*
X1852Y846D01*
X1852Y842D01*
X1854Y842D01*
X1854Y838D01*
X1856Y838D01*
X1856Y832D01*
X1858Y832D01*
X1858Y806D01*
X1856Y806D01*
X1856Y802D01*
X1854Y802D01*
X1854Y798D01*
X1852Y798D01*
X1852Y794D01*
X1850Y794D01*
X1850Y790D01*
X1848Y790D01*
X1848Y788D01*
X1846Y788D01*
X1846Y786D01*
X1844Y786D01*
X1844Y782D01*
X1842Y782D01*
X1842Y780D01*
X1840Y780D01*
X1840Y760D01*
X1842Y760D01*
X1842Y756D01*
X1844Y756D01*
X1844Y754D01*
X1846Y754D01*
X1846Y752D01*
X1848Y752D01*
X1848Y750D01*
X1850Y750D01*
X1850Y746D01*
X1852Y746D01*
X1852Y742D01*
X1854Y742D01*
X1854Y738D01*
X1856Y738D01*
X1856Y732D01*
X1858Y732D01*
X1858Y706D01*
X1856Y706D01*
X1856Y702D01*
X1854Y702D01*
X1854Y698D01*
X1852Y698D01*
X1852Y694D01*
X1850Y694D01*
X1850Y690D01*
X1848Y690D01*
X1848Y688D01*
X1846Y688D01*
X1846Y686D01*
X1844Y686D01*
X1844Y682D01*
X1842Y682D01*
X1842Y680D01*
X1840Y680D01*
X1840Y678D01*
X1838Y678D01*
X1838Y676D01*
X1836Y676D01*
X1836Y674D01*
X1832Y674D01*
X1832Y672D01*
X1830Y672D01*
X1830Y670D01*
X1826Y670D01*
X1826Y668D01*
X1824Y668D01*
X1824Y666D01*
X1818Y666D01*
X1818Y664D01*
X1814Y664D01*
X1814Y662D01*
X1804Y662D01*
X1804Y660D01*
X1928Y660D01*
X1928Y1180D01*
X40Y1180D01*
G37*
D02*
G36*
X40Y1144D02*
X40Y1078D01*
X1112Y1078D01*
X1112Y1076D01*
X1118Y1076D01*
X1118Y1074D01*
X1122Y1074D01*
X1122Y1072D01*
X1126Y1072D01*
X1126Y1070D01*
X1130Y1070D01*
X1130Y1068D01*
X1132Y1068D01*
X1132Y1066D01*
X1134Y1066D01*
X1134Y1064D01*
X1136Y1064D01*
X1136Y1062D01*
X1140Y1062D01*
X1140Y1060D01*
X1142Y1060D01*
X1142Y1056D01*
X1144Y1056D01*
X1144Y1054D01*
X1146Y1054D01*
X1146Y1052D01*
X1148Y1052D01*
X1148Y1050D01*
X1150Y1050D01*
X1150Y1046D01*
X1152Y1046D01*
X1152Y1042D01*
X1154Y1042D01*
X1154Y1038D01*
X1156Y1038D01*
X1156Y1032D01*
X1158Y1032D01*
X1158Y1006D01*
X1156Y1006D01*
X1156Y1002D01*
X1154Y1002D01*
X1154Y998D01*
X1152Y998D01*
X1152Y994D01*
X1150Y994D01*
X1150Y990D01*
X1148Y990D01*
X1148Y988D01*
X1146Y988D01*
X1146Y986D01*
X1144Y986D01*
X1144Y982D01*
X1142Y982D01*
X1142Y980D01*
X1140Y980D01*
X1140Y978D01*
X1312Y978D01*
X1312Y976D01*
X1318Y976D01*
X1318Y974D01*
X1322Y974D01*
X1322Y972D01*
X1326Y972D01*
X1326Y970D01*
X1330Y970D01*
X1330Y968D01*
X1332Y968D01*
X1332Y966D01*
X1334Y966D01*
X1334Y964D01*
X1336Y964D01*
X1336Y962D01*
X1340Y962D01*
X1340Y960D01*
X1360Y960D01*
X1360Y962D01*
X1362Y962D01*
X1362Y982D01*
X1360Y982D01*
X1360Y984D01*
X1358Y984D01*
X1358Y986D01*
X1356Y986D01*
X1356Y988D01*
X1354Y988D01*
X1354Y992D01*
X1352Y992D01*
X1352Y998D01*
X1350Y998D01*
X1350Y1004D01*
X1348Y1004D01*
X1348Y1038D01*
X1316Y1038D01*
X1316Y1040D01*
X1308Y1040D01*
X1308Y1042D01*
X1304Y1042D01*
X1304Y1044D01*
X1300Y1044D01*
X1300Y1046D01*
X1296Y1046D01*
X1296Y1048D01*
X1294Y1048D01*
X1294Y1050D01*
X1292Y1050D01*
X1292Y1052D01*
X1290Y1052D01*
X1290Y1054D01*
X1288Y1054D01*
X1288Y1056D01*
X1286Y1056D01*
X1286Y1058D01*
X1284Y1058D01*
X1284Y1062D01*
X1282Y1062D01*
X1282Y1066D01*
X1280Y1066D01*
X1280Y1072D01*
X1278Y1072D01*
X1278Y1082D01*
X1276Y1082D01*
X1276Y1100D01*
X1278Y1100D01*
X1278Y1110D01*
X1280Y1110D01*
X1280Y1116D01*
X1282Y1116D01*
X1282Y1120D01*
X1284Y1120D01*
X1284Y1122D01*
X1286Y1122D01*
X1286Y1126D01*
X1288Y1126D01*
X1288Y1128D01*
X1290Y1128D01*
X1290Y1130D01*
X1292Y1130D01*
X1292Y1132D01*
X1294Y1132D01*
X1294Y1134D01*
X1298Y1134D01*
X1298Y1136D01*
X1300Y1136D01*
X1300Y1138D01*
X1306Y1138D01*
X1306Y1140D01*
X1312Y1140D01*
X1312Y1142D01*
X1322Y1142D01*
X1322Y1144D01*
X40Y1144D01*
G37*
D02*
G36*
X1336Y1144D02*
X1336Y1142D01*
X1348Y1142D01*
X1348Y1140D01*
X1354Y1140D01*
X1354Y1138D01*
X1358Y1138D01*
X1358Y1136D01*
X1362Y1136D01*
X1362Y1134D01*
X1364Y1134D01*
X1364Y1132D01*
X1366Y1132D01*
X1366Y1130D01*
X1368Y1130D01*
X1368Y1128D01*
X1370Y1128D01*
X1370Y1126D01*
X1372Y1126D01*
X1372Y1124D01*
X1374Y1124D01*
X1374Y1120D01*
X1376Y1120D01*
X1376Y1116D01*
X1378Y1116D01*
X1378Y1110D01*
X1380Y1110D01*
X1380Y1102D01*
X1382Y1102D01*
X1382Y1072D01*
X1414Y1072D01*
X1414Y1070D01*
X1422Y1070D01*
X1422Y1068D01*
X1426Y1068D01*
X1426Y1066D01*
X1430Y1066D01*
X1430Y1064D01*
X1434Y1064D01*
X1434Y1062D01*
X1436Y1062D01*
X1436Y1060D01*
X1438Y1060D01*
X1438Y1058D01*
X1440Y1058D01*
X1440Y1056D01*
X1442Y1056D01*
X1442Y1054D01*
X1444Y1054D01*
X1444Y1050D01*
X1446Y1050D01*
X1446Y1046D01*
X1448Y1046D01*
X1448Y1042D01*
X1450Y1042D01*
X1450Y1036D01*
X1452Y1036D01*
X1452Y1004D01*
X1450Y1004D01*
X1450Y998D01*
X1448Y998D01*
X1448Y992D01*
X1446Y992D01*
X1446Y988D01*
X1444Y988D01*
X1444Y986D01*
X1442Y986D01*
X1442Y984D01*
X1440Y984D01*
X1440Y982D01*
X1438Y982D01*
X1438Y978D01*
X1512Y978D01*
X1512Y976D01*
X1518Y976D01*
X1518Y974D01*
X1522Y974D01*
X1522Y972D01*
X1526Y972D01*
X1526Y970D01*
X1530Y970D01*
X1530Y968D01*
X1532Y968D01*
X1532Y966D01*
X1534Y966D01*
X1534Y964D01*
X1536Y964D01*
X1536Y962D01*
X1540Y962D01*
X1540Y960D01*
X1560Y960D01*
X1560Y962D01*
X1562Y962D01*
X1562Y982D01*
X1560Y982D01*
X1560Y984D01*
X1558Y984D01*
X1558Y986D01*
X1556Y986D01*
X1556Y988D01*
X1554Y988D01*
X1554Y992D01*
X1552Y992D01*
X1552Y998D01*
X1550Y998D01*
X1550Y1004D01*
X1548Y1004D01*
X1548Y1038D01*
X1516Y1038D01*
X1516Y1040D01*
X1508Y1040D01*
X1508Y1042D01*
X1504Y1042D01*
X1504Y1044D01*
X1500Y1044D01*
X1500Y1046D01*
X1496Y1046D01*
X1496Y1048D01*
X1494Y1048D01*
X1494Y1050D01*
X1492Y1050D01*
X1492Y1052D01*
X1490Y1052D01*
X1490Y1054D01*
X1488Y1054D01*
X1488Y1056D01*
X1486Y1056D01*
X1486Y1058D01*
X1484Y1058D01*
X1484Y1062D01*
X1482Y1062D01*
X1482Y1066D01*
X1480Y1066D01*
X1480Y1072D01*
X1478Y1072D01*
X1478Y1082D01*
X1476Y1082D01*
X1476Y1100D01*
X1478Y1100D01*
X1478Y1110D01*
X1480Y1110D01*
X1480Y1116D01*
X1482Y1116D01*
X1482Y1120D01*
X1484Y1120D01*
X1484Y1122D01*
X1486Y1122D01*
X1486Y1126D01*
X1488Y1126D01*
X1488Y1128D01*
X1490Y1128D01*
X1490Y1130D01*
X1492Y1130D01*
X1492Y1132D01*
X1494Y1132D01*
X1494Y1134D01*
X1498Y1134D01*
X1498Y1136D01*
X1500Y1136D01*
X1500Y1138D01*
X1506Y1138D01*
X1506Y1140D01*
X1512Y1140D01*
X1512Y1142D01*
X1522Y1142D01*
X1522Y1144D01*
X1336Y1144D01*
G37*
D02*
G36*
X1536Y1144D02*
X1536Y1142D01*
X1548Y1142D01*
X1548Y1140D01*
X1554Y1140D01*
X1554Y1138D01*
X1558Y1138D01*
X1558Y1136D01*
X1562Y1136D01*
X1562Y1134D01*
X1564Y1134D01*
X1564Y1132D01*
X1566Y1132D01*
X1566Y1130D01*
X1568Y1130D01*
X1568Y1128D01*
X1570Y1128D01*
X1570Y1126D01*
X1572Y1126D01*
X1572Y1124D01*
X1574Y1124D01*
X1574Y1120D01*
X1576Y1120D01*
X1576Y1116D01*
X1578Y1116D01*
X1578Y1110D01*
X1580Y1110D01*
X1580Y1102D01*
X1582Y1102D01*
X1582Y1072D01*
X1614Y1072D01*
X1614Y1070D01*
X1622Y1070D01*
X1622Y1068D01*
X1626Y1068D01*
X1626Y1066D01*
X1630Y1066D01*
X1630Y1064D01*
X1634Y1064D01*
X1634Y1062D01*
X1636Y1062D01*
X1636Y1060D01*
X1638Y1060D01*
X1638Y1058D01*
X1640Y1058D01*
X1640Y1056D01*
X1642Y1056D01*
X1642Y1054D01*
X1644Y1054D01*
X1644Y1050D01*
X1646Y1050D01*
X1646Y1046D01*
X1648Y1046D01*
X1648Y1042D01*
X1650Y1042D01*
X1650Y1036D01*
X1652Y1036D01*
X1652Y1004D01*
X1650Y1004D01*
X1650Y998D01*
X1648Y998D01*
X1648Y992D01*
X1646Y992D01*
X1646Y988D01*
X1644Y988D01*
X1644Y986D01*
X1642Y986D01*
X1642Y984D01*
X1640Y984D01*
X1640Y982D01*
X1638Y982D01*
X1638Y978D01*
X1712Y978D01*
X1712Y976D01*
X1718Y976D01*
X1718Y974D01*
X1722Y974D01*
X1722Y972D01*
X1726Y972D01*
X1726Y970D01*
X1730Y970D01*
X1730Y968D01*
X1732Y968D01*
X1732Y966D01*
X1734Y966D01*
X1734Y964D01*
X1736Y964D01*
X1736Y962D01*
X1740Y962D01*
X1740Y960D01*
X1760Y960D01*
X1760Y962D01*
X1762Y962D01*
X1762Y982D01*
X1760Y982D01*
X1760Y984D01*
X1758Y984D01*
X1758Y986D01*
X1756Y986D01*
X1756Y988D01*
X1754Y988D01*
X1754Y992D01*
X1752Y992D01*
X1752Y998D01*
X1750Y998D01*
X1750Y1004D01*
X1748Y1004D01*
X1748Y1038D01*
X1716Y1038D01*
X1716Y1040D01*
X1708Y1040D01*
X1708Y1042D01*
X1704Y1042D01*
X1704Y1044D01*
X1700Y1044D01*
X1700Y1046D01*
X1696Y1046D01*
X1696Y1048D01*
X1694Y1048D01*
X1694Y1050D01*
X1692Y1050D01*
X1692Y1052D01*
X1690Y1052D01*
X1690Y1054D01*
X1688Y1054D01*
X1688Y1056D01*
X1686Y1056D01*
X1686Y1058D01*
X1684Y1058D01*
X1684Y1062D01*
X1682Y1062D01*
X1682Y1066D01*
X1680Y1066D01*
X1680Y1072D01*
X1678Y1072D01*
X1678Y1082D01*
X1676Y1082D01*
X1676Y1100D01*
X1678Y1100D01*
X1678Y1110D01*
X1680Y1110D01*
X1680Y1116D01*
X1682Y1116D01*
X1682Y1120D01*
X1684Y1120D01*
X1684Y1122D01*
X1686Y1122D01*
X1686Y1126D01*
X1688Y1126D01*
X1688Y1128D01*
X1690Y1128D01*
X1690Y1130D01*
X1692Y1130D01*
X1692Y1132D01*
X1694Y1132D01*
X1694Y1134D01*
X1698Y1134D01*
X1698Y1136D01*
X1700Y1136D01*
X1700Y1138D01*
X1706Y1138D01*
X1706Y1140D01*
X1712Y1140D01*
X1712Y1142D01*
X1722Y1142D01*
X1722Y1144D01*
X1536Y1144D01*
G37*
D02*
G36*
X40Y1078D02*
X40Y160D01*
X996Y160D01*
X996Y162D01*
X986Y162D01*
X986Y164D01*
X982Y164D01*
X982Y166D01*
X976Y166D01*
X976Y168D01*
X974Y168D01*
X974Y170D01*
X970Y170D01*
X970Y172D01*
X968Y172D01*
X968Y174D01*
X964Y174D01*
X964Y176D01*
X962Y176D01*
X962Y178D01*
X960Y178D01*
X960Y180D01*
X958Y180D01*
X958Y182D01*
X956Y182D01*
X956Y184D01*
X954Y184D01*
X954Y188D01*
X952Y188D01*
X952Y190D01*
X950Y190D01*
X950Y194D01*
X948Y194D01*
X948Y198D01*
X946Y198D01*
X946Y202D01*
X944Y202D01*
X944Y206D01*
X942Y206D01*
X942Y232D01*
X944Y232D01*
X944Y238D01*
X946Y238D01*
X946Y242D01*
X948Y242D01*
X948Y246D01*
X950Y246D01*
X950Y250D01*
X952Y250D01*
X952Y252D01*
X954Y252D01*
X954Y254D01*
X956Y254D01*
X956Y256D01*
X958Y256D01*
X958Y260D01*
X960Y260D01*
X960Y280D01*
X958Y280D01*
X958Y282D01*
X956Y282D01*
X956Y284D01*
X954Y284D01*
X954Y288D01*
X952Y288D01*
X952Y290D01*
X950Y290D01*
X950Y294D01*
X948Y294D01*
X948Y298D01*
X946Y298D01*
X946Y302D01*
X944Y302D01*
X944Y306D01*
X942Y306D01*
X942Y332D01*
X944Y332D01*
X944Y338D01*
X946Y338D01*
X946Y342D01*
X948Y342D01*
X948Y346D01*
X950Y346D01*
X950Y350D01*
X952Y350D01*
X952Y352D01*
X954Y352D01*
X954Y354D01*
X956Y354D01*
X956Y356D01*
X958Y356D01*
X958Y360D01*
X960Y360D01*
X960Y380D01*
X958Y380D01*
X958Y382D01*
X956Y382D01*
X956Y384D01*
X954Y384D01*
X954Y388D01*
X952Y388D01*
X952Y390D01*
X950Y390D01*
X950Y394D01*
X948Y394D01*
X948Y398D01*
X946Y398D01*
X946Y402D01*
X944Y402D01*
X944Y406D01*
X942Y406D01*
X942Y432D01*
X944Y432D01*
X944Y438D01*
X946Y438D01*
X946Y442D01*
X948Y442D01*
X948Y446D01*
X950Y446D01*
X950Y450D01*
X952Y450D01*
X952Y452D01*
X954Y452D01*
X954Y454D01*
X956Y454D01*
X956Y456D01*
X958Y456D01*
X958Y460D01*
X960Y460D01*
X960Y480D01*
X958Y480D01*
X958Y482D01*
X956Y482D01*
X956Y484D01*
X954Y484D01*
X954Y488D01*
X952Y488D01*
X952Y490D01*
X950Y490D01*
X950Y494D01*
X948Y494D01*
X948Y498D01*
X946Y498D01*
X946Y502D01*
X944Y502D01*
X944Y506D01*
X942Y506D01*
X942Y532D01*
X944Y532D01*
X944Y538D01*
X946Y538D01*
X946Y542D01*
X948Y542D01*
X948Y546D01*
X950Y546D01*
X950Y550D01*
X952Y550D01*
X952Y552D01*
X954Y552D01*
X954Y554D01*
X956Y554D01*
X956Y556D01*
X958Y556D01*
X958Y560D01*
X960Y560D01*
X960Y580D01*
X958Y580D01*
X958Y582D01*
X956Y582D01*
X956Y584D01*
X954Y584D01*
X954Y588D01*
X952Y588D01*
X952Y590D01*
X950Y590D01*
X950Y594D01*
X948Y594D01*
X948Y598D01*
X946Y598D01*
X946Y602D01*
X944Y602D01*
X944Y606D01*
X942Y606D01*
X942Y632D01*
X944Y632D01*
X944Y638D01*
X946Y638D01*
X946Y642D01*
X948Y642D01*
X948Y646D01*
X950Y646D01*
X950Y650D01*
X952Y650D01*
X952Y652D01*
X954Y652D01*
X954Y654D01*
X956Y654D01*
X956Y656D01*
X958Y656D01*
X958Y660D01*
X960Y660D01*
X960Y680D01*
X958Y680D01*
X958Y682D01*
X956Y682D01*
X956Y684D01*
X954Y684D01*
X954Y688D01*
X952Y688D01*
X952Y690D01*
X950Y690D01*
X950Y694D01*
X948Y694D01*
X948Y698D01*
X946Y698D01*
X946Y702D01*
X944Y702D01*
X944Y706D01*
X942Y706D01*
X942Y732D01*
X944Y732D01*
X944Y738D01*
X946Y738D01*
X946Y742D01*
X948Y742D01*
X948Y746D01*
X950Y746D01*
X950Y750D01*
X952Y750D01*
X952Y752D01*
X954Y752D01*
X954Y754D01*
X956Y754D01*
X956Y756D01*
X958Y756D01*
X958Y760D01*
X960Y760D01*
X960Y780D01*
X958Y780D01*
X958Y782D01*
X956Y782D01*
X956Y784D01*
X954Y784D01*
X954Y788D01*
X952Y788D01*
X952Y790D01*
X950Y790D01*
X950Y794D01*
X948Y794D01*
X948Y798D01*
X946Y798D01*
X946Y802D01*
X944Y802D01*
X944Y806D01*
X942Y806D01*
X942Y832D01*
X944Y832D01*
X944Y838D01*
X946Y838D01*
X946Y842D01*
X948Y842D01*
X948Y846D01*
X950Y846D01*
X950Y850D01*
X952Y850D01*
X952Y852D01*
X954Y852D01*
X954Y854D01*
X956Y854D01*
X956Y856D01*
X958Y856D01*
X958Y860D01*
X960Y860D01*
X960Y880D01*
X958Y880D01*
X958Y882D01*
X956Y882D01*
X956Y884D01*
X954Y884D01*
X954Y888D01*
X952Y888D01*
X952Y890D01*
X950Y890D01*
X950Y894D01*
X948Y894D01*
X948Y898D01*
X946Y898D01*
X946Y902D01*
X944Y902D01*
X944Y906D01*
X942Y906D01*
X942Y932D01*
X944Y932D01*
X944Y938D01*
X946Y938D01*
X946Y942D01*
X948Y942D01*
X948Y946D01*
X950Y946D01*
X950Y950D01*
X952Y950D01*
X952Y952D01*
X954Y952D01*
X954Y954D01*
X956Y954D01*
X956Y956D01*
X958Y956D01*
X958Y960D01*
X960Y960D01*
X960Y980D01*
X958Y980D01*
X958Y982D01*
X956Y982D01*
X956Y984D01*
X954Y984D01*
X954Y988D01*
X952Y988D01*
X952Y990D01*
X950Y990D01*
X950Y994D01*
X948Y994D01*
X948Y998D01*
X946Y998D01*
X946Y1002D01*
X944Y1002D01*
X944Y1006D01*
X942Y1006D01*
X942Y1032D01*
X944Y1032D01*
X944Y1038D01*
X946Y1038D01*
X946Y1042D01*
X948Y1042D01*
X948Y1046D01*
X950Y1046D01*
X950Y1050D01*
X952Y1050D01*
X952Y1052D01*
X954Y1052D01*
X954Y1054D01*
X956Y1054D01*
X956Y1056D01*
X958Y1056D01*
X958Y1060D01*
X960Y1060D01*
X960Y1062D01*
X964Y1062D01*
X964Y1064D01*
X966Y1064D01*
X966Y1066D01*
X968Y1066D01*
X968Y1068D01*
X970Y1068D01*
X970Y1070D01*
X974Y1070D01*
X974Y1072D01*
X978Y1072D01*
X978Y1074D01*
X982Y1074D01*
X982Y1076D01*
X988Y1076D01*
X988Y1078D01*
X40Y1078D01*
G37*
D02*
G36*
X1012Y1078D02*
X1012Y1076D01*
X1018Y1076D01*
X1018Y1074D01*
X1022Y1074D01*
X1022Y1072D01*
X1026Y1072D01*
X1026Y1070D01*
X1030Y1070D01*
X1030Y1068D01*
X1032Y1068D01*
X1032Y1066D01*
X1034Y1066D01*
X1034Y1064D01*
X1036Y1064D01*
X1036Y1062D01*
X1040Y1062D01*
X1040Y1060D01*
X1060Y1060D01*
X1060Y1062D01*
X1064Y1062D01*
X1064Y1064D01*
X1066Y1064D01*
X1066Y1066D01*
X1068Y1066D01*
X1068Y1068D01*
X1070Y1068D01*
X1070Y1070D01*
X1074Y1070D01*
X1074Y1072D01*
X1078Y1072D01*
X1078Y1074D01*
X1082Y1074D01*
X1082Y1076D01*
X1088Y1076D01*
X1088Y1078D01*
X1012Y1078D01*
G37*
D02*
G36*
X1140Y978D02*
X1140Y960D01*
X1142Y960D01*
X1142Y956D01*
X1144Y956D01*
X1144Y954D01*
X1146Y954D01*
X1146Y952D01*
X1148Y952D01*
X1148Y950D01*
X1150Y950D01*
X1150Y946D01*
X1152Y946D01*
X1152Y942D01*
X1154Y942D01*
X1154Y938D01*
X1156Y938D01*
X1156Y932D01*
X1158Y932D01*
X1158Y906D01*
X1156Y906D01*
X1156Y902D01*
X1154Y902D01*
X1154Y898D01*
X1152Y898D01*
X1152Y894D01*
X1150Y894D01*
X1150Y890D01*
X1148Y890D01*
X1148Y888D01*
X1146Y888D01*
X1146Y886D01*
X1144Y886D01*
X1144Y882D01*
X1142Y882D01*
X1142Y880D01*
X1140Y880D01*
X1140Y860D01*
X1142Y860D01*
X1142Y856D01*
X1144Y856D01*
X1144Y854D01*
X1146Y854D01*
X1146Y852D01*
X1148Y852D01*
X1148Y850D01*
X1150Y850D01*
X1150Y846D01*
X1152Y846D01*
X1152Y842D01*
X1154Y842D01*
X1154Y838D01*
X1156Y838D01*
X1156Y832D01*
X1158Y832D01*
X1158Y806D01*
X1156Y806D01*
X1156Y802D01*
X1154Y802D01*
X1154Y798D01*
X1152Y798D01*
X1152Y794D01*
X1150Y794D01*
X1150Y790D01*
X1148Y790D01*
X1148Y788D01*
X1146Y788D01*
X1146Y786D01*
X1144Y786D01*
X1144Y782D01*
X1142Y782D01*
X1142Y780D01*
X1140Y780D01*
X1140Y760D01*
X1142Y760D01*
X1142Y756D01*
X1144Y756D01*
X1144Y754D01*
X1146Y754D01*
X1146Y752D01*
X1148Y752D01*
X1148Y750D01*
X1150Y750D01*
X1150Y746D01*
X1152Y746D01*
X1152Y742D01*
X1154Y742D01*
X1154Y738D01*
X1156Y738D01*
X1156Y732D01*
X1158Y732D01*
X1158Y706D01*
X1156Y706D01*
X1156Y702D01*
X1154Y702D01*
X1154Y698D01*
X1152Y698D01*
X1152Y678D01*
X1248Y678D01*
X1248Y698D01*
X1246Y698D01*
X1246Y702D01*
X1244Y702D01*
X1244Y706D01*
X1242Y706D01*
X1242Y732D01*
X1244Y732D01*
X1244Y738D01*
X1246Y738D01*
X1246Y742D01*
X1248Y742D01*
X1248Y746D01*
X1250Y746D01*
X1250Y750D01*
X1252Y750D01*
X1252Y752D01*
X1254Y752D01*
X1254Y754D01*
X1256Y754D01*
X1256Y756D01*
X1258Y756D01*
X1258Y760D01*
X1260Y760D01*
X1260Y780D01*
X1258Y780D01*
X1258Y782D01*
X1256Y782D01*
X1256Y784D01*
X1254Y784D01*
X1254Y788D01*
X1252Y788D01*
X1252Y790D01*
X1250Y790D01*
X1250Y794D01*
X1248Y794D01*
X1248Y798D01*
X1246Y798D01*
X1246Y802D01*
X1244Y802D01*
X1244Y806D01*
X1242Y806D01*
X1242Y832D01*
X1244Y832D01*
X1244Y838D01*
X1246Y838D01*
X1246Y842D01*
X1248Y842D01*
X1248Y846D01*
X1250Y846D01*
X1250Y850D01*
X1252Y850D01*
X1252Y852D01*
X1254Y852D01*
X1254Y854D01*
X1256Y854D01*
X1256Y856D01*
X1258Y856D01*
X1258Y860D01*
X1260Y860D01*
X1260Y880D01*
X1258Y880D01*
X1258Y882D01*
X1256Y882D01*
X1256Y884D01*
X1254Y884D01*
X1254Y888D01*
X1252Y888D01*
X1252Y890D01*
X1250Y890D01*
X1250Y894D01*
X1248Y894D01*
X1248Y898D01*
X1246Y898D01*
X1246Y902D01*
X1244Y902D01*
X1244Y906D01*
X1242Y906D01*
X1242Y932D01*
X1244Y932D01*
X1244Y938D01*
X1246Y938D01*
X1246Y942D01*
X1248Y942D01*
X1248Y946D01*
X1250Y946D01*
X1250Y950D01*
X1252Y950D01*
X1252Y952D01*
X1254Y952D01*
X1254Y954D01*
X1256Y954D01*
X1256Y956D01*
X1258Y956D01*
X1258Y960D01*
X1260Y960D01*
X1260Y962D01*
X1264Y962D01*
X1264Y964D01*
X1266Y964D01*
X1266Y966D01*
X1268Y966D01*
X1268Y968D01*
X1270Y968D01*
X1270Y970D01*
X1274Y970D01*
X1274Y972D01*
X1278Y972D01*
X1278Y974D01*
X1282Y974D01*
X1282Y976D01*
X1288Y976D01*
X1288Y978D01*
X1140Y978D01*
G37*
D02*
G36*
X1438Y978D02*
X1438Y962D01*
X1440Y962D01*
X1440Y960D01*
X1460Y960D01*
X1460Y962D01*
X1464Y962D01*
X1464Y964D01*
X1466Y964D01*
X1466Y966D01*
X1468Y966D01*
X1468Y968D01*
X1470Y968D01*
X1470Y970D01*
X1474Y970D01*
X1474Y972D01*
X1478Y972D01*
X1478Y974D01*
X1482Y974D01*
X1482Y976D01*
X1488Y976D01*
X1488Y978D01*
X1438Y978D01*
G37*
D02*
G36*
X1638Y978D02*
X1638Y962D01*
X1640Y962D01*
X1640Y960D01*
X1660Y960D01*
X1660Y962D01*
X1664Y962D01*
X1664Y964D01*
X1666Y964D01*
X1666Y966D01*
X1668Y966D01*
X1668Y968D01*
X1670Y968D01*
X1670Y970D01*
X1674Y970D01*
X1674Y972D01*
X1678Y972D01*
X1678Y974D01*
X1682Y974D01*
X1682Y976D01*
X1688Y976D01*
X1688Y978D01*
X1638Y978D01*
G37*
D02*
G36*
X1340Y680D02*
X1340Y660D01*
X1396Y660D01*
X1396Y662D01*
X1386Y662D01*
X1386Y664D01*
X1382Y664D01*
X1382Y666D01*
X1376Y666D01*
X1376Y668D01*
X1374Y668D01*
X1374Y670D01*
X1370Y670D01*
X1370Y672D01*
X1368Y672D01*
X1368Y674D01*
X1364Y674D01*
X1364Y676D01*
X1362Y676D01*
X1362Y678D01*
X1360Y678D01*
X1360Y680D01*
X1340Y680D01*
G37*
D02*
G36*
X1440Y680D02*
X1440Y678D01*
X1438Y678D01*
X1438Y676D01*
X1436Y676D01*
X1436Y674D01*
X1432Y674D01*
X1432Y672D01*
X1430Y672D01*
X1430Y670D01*
X1426Y670D01*
X1426Y668D01*
X1424Y668D01*
X1424Y666D01*
X1418Y666D01*
X1418Y664D01*
X1414Y664D01*
X1414Y662D01*
X1404Y662D01*
X1404Y660D01*
X1496Y660D01*
X1496Y662D01*
X1486Y662D01*
X1486Y664D01*
X1482Y664D01*
X1482Y666D01*
X1476Y666D01*
X1476Y668D01*
X1474Y668D01*
X1474Y670D01*
X1470Y670D01*
X1470Y672D01*
X1468Y672D01*
X1468Y674D01*
X1464Y674D01*
X1464Y676D01*
X1462Y676D01*
X1462Y678D01*
X1460Y678D01*
X1460Y680D01*
X1440Y680D01*
G37*
D02*
G36*
X1540Y680D02*
X1540Y678D01*
X1538Y678D01*
X1538Y676D01*
X1536Y676D01*
X1536Y674D01*
X1532Y674D01*
X1532Y672D01*
X1530Y672D01*
X1530Y670D01*
X1526Y670D01*
X1526Y668D01*
X1524Y668D01*
X1524Y666D01*
X1518Y666D01*
X1518Y664D01*
X1514Y664D01*
X1514Y662D01*
X1504Y662D01*
X1504Y660D01*
X1596Y660D01*
X1596Y662D01*
X1586Y662D01*
X1586Y664D01*
X1582Y664D01*
X1582Y666D01*
X1576Y666D01*
X1576Y668D01*
X1574Y668D01*
X1574Y670D01*
X1570Y670D01*
X1570Y672D01*
X1568Y672D01*
X1568Y674D01*
X1564Y674D01*
X1564Y676D01*
X1562Y676D01*
X1562Y678D01*
X1560Y678D01*
X1560Y680D01*
X1540Y680D01*
G37*
D02*
G36*
X1640Y680D02*
X1640Y678D01*
X1638Y678D01*
X1638Y676D01*
X1636Y676D01*
X1636Y674D01*
X1632Y674D01*
X1632Y672D01*
X1630Y672D01*
X1630Y670D01*
X1626Y670D01*
X1626Y668D01*
X1624Y668D01*
X1624Y666D01*
X1618Y666D01*
X1618Y664D01*
X1614Y664D01*
X1614Y662D01*
X1604Y662D01*
X1604Y660D01*
X1696Y660D01*
X1696Y662D01*
X1686Y662D01*
X1686Y664D01*
X1682Y664D01*
X1682Y666D01*
X1676Y666D01*
X1676Y668D01*
X1674Y668D01*
X1674Y670D01*
X1670Y670D01*
X1670Y672D01*
X1668Y672D01*
X1668Y674D01*
X1664Y674D01*
X1664Y676D01*
X1662Y676D01*
X1662Y678D01*
X1660Y678D01*
X1660Y680D01*
X1640Y680D01*
G37*
D02*
G36*
X1740Y680D02*
X1740Y678D01*
X1738Y678D01*
X1738Y676D01*
X1736Y676D01*
X1736Y674D01*
X1732Y674D01*
X1732Y672D01*
X1730Y672D01*
X1730Y670D01*
X1726Y670D01*
X1726Y668D01*
X1724Y668D01*
X1724Y666D01*
X1718Y666D01*
X1718Y664D01*
X1714Y664D01*
X1714Y662D01*
X1704Y662D01*
X1704Y660D01*
X1796Y660D01*
X1796Y662D01*
X1786Y662D01*
X1786Y664D01*
X1782Y664D01*
X1782Y666D01*
X1776Y666D01*
X1776Y668D01*
X1774Y668D01*
X1774Y670D01*
X1770Y670D01*
X1770Y672D01*
X1768Y672D01*
X1768Y674D01*
X1764Y674D01*
X1764Y676D01*
X1762Y676D01*
X1762Y678D01*
X1760Y678D01*
X1760Y680D01*
X1740Y680D01*
G37*
D02*
G36*
X1342Y660D02*
X1342Y658D01*
X1928Y658D01*
X1928Y660D01*
X1342Y660D01*
G37*
D02*
G36*
X1342Y660D02*
X1342Y658D01*
X1928Y658D01*
X1928Y660D01*
X1342Y660D01*
G37*
D02*
G36*
X1342Y660D02*
X1342Y658D01*
X1928Y658D01*
X1928Y660D01*
X1342Y660D01*
G37*
D02*
G36*
X1342Y660D02*
X1342Y658D01*
X1928Y658D01*
X1928Y660D01*
X1342Y660D01*
G37*
D02*
G36*
X1342Y660D02*
X1342Y658D01*
X1928Y658D01*
X1928Y660D01*
X1342Y660D01*
G37*
D02*
G36*
X1342Y660D02*
X1342Y658D01*
X1928Y658D01*
X1928Y660D01*
X1342Y660D01*
G37*
D02*
G36*
X1342Y658D02*
X1342Y656D01*
X1344Y656D01*
X1344Y654D01*
X1346Y654D01*
X1346Y652D01*
X1348Y652D01*
X1348Y650D01*
X1350Y650D01*
X1350Y646D01*
X1352Y646D01*
X1352Y642D01*
X1354Y642D01*
X1354Y638D01*
X1356Y638D01*
X1356Y632D01*
X1358Y632D01*
X1358Y606D01*
X1356Y606D01*
X1356Y602D01*
X1354Y602D01*
X1354Y598D01*
X1352Y598D01*
X1352Y594D01*
X1350Y594D01*
X1350Y590D01*
X1348Y590D01*
X1348Y588D01*
X1346Y588D01*
X1346Y586D01*
X1344Y586D01*
X1344Y582D01*
X1342Y582D01*
X1342Y580D01*
X1340Y580D01*
X1340Y578D01*
X1812Y578D01*
X1812Y576D01*
X1818Y576D01*
X1818Y574D01*
X1822Y574D01*
X1822Y572D01*
X1826Y572D01*
X1826Y570D01*
X1830Y570D01*
X1830Y568D01*
X1832Y568D01*
X1832Y566D01*
X1834Y566D01*
X1834Y564D01*
X1836Y564D01*
X1836Y562D01*
X1840Y562D01*
X1840Y560D01*
X1842Y560D01*
X1842Y556D01*
X1844Y556D01*
X1844Y554D01*
X1846Y554D01*
X1846Y552D01*
X1848Y552D01*
X1848Y550D01*
X1850Y550D01*
X1850Y546D01*
X1852Y546D01*
X1852Y542D01*
X1854Y542D01*
X1854Y538D01*
X1856Y538D01*
X1856Y532D01*
X1858Y532D01*
X1858Y506D01*
X1856Y506D01*
X1856Y502D01*
X1854Y502D01*
X1854Y498D01*
X1852Y498D01*
X1852Y494D01*
X1850Y494D01*
X1850Y490D01*
X1848Y490D01*
X1848Y488D01*
X1846Y488D01*
X1846Y486D01*
X1844Y486D01*
X1844Y482D01*
X1842Y482D01*
X1842Y480D01*
X1840Y480D01*
X1840Y460D01*
X1842Y460D01*
X1842Y456D01*
X1844Y456D01*
X1844Y454D01*
X1846Y454D01*
X1846Y452D01*
X1848Y452D01*
X1848Y450D01*
X1850Y450D01*
X1850Y446D01*
X1852Y446D01*
X1852Y442D01*
X1854Y442D01*
X1854Y438D01*
X1856Y438D01*
X1856Y432D01*
X1858Y432D01*
X1858Y406D01*
X1856Y406D01*
X1856Y402D01*
X1854Y402D01*
X1854Y398D01*
X1852Y398D01*
X1852Y394D01*
X1850Y394D01*
X1850Y390D01*
X1848Y390D01*
X1848Y388D01*
X1846Y388D01*
X1846Y386D01*
X1844Y386D01*
X1844Y382D01*
X1842Y382D01*
X1842Y380D01*
X1840Y380D01*
X1840Y360D01*
X1842Y360D01*
X1842Y356D01*
X1844Y356D01*
X1844Y354D01*
X1846Y354D01*
X1846Y352D01*
X1848Y352D01*
X1848Y350D01*
X1850Y350D01*
X1850Y346D01*
X1852Y346D01*
X1852Y342D01*
X1854Y342D01*
X1854Y338D01*
X1856Y338D01*
X1856Y332D01*
X1858Y332D01*
X1858Y306D01*
X1856Y306D01*
X1856Y302D01*
X1854Y302D01*
X1854Y298D01*
X1852Y298D01*
X1852Y294D01*
X1850Y294D01*
X1850Y290D01*
X1848Y290D01*
X1848Y288D01*
X1846Y288D01*
X1846Y286D01*
X1844Y286D01*
X1844Y282D01*
X1842Y282D01*
X1842Y280D01*
X1840Y280D01*
X1840Y278D01*
X1838Y278D01*
X1838Y276D01*
X1836Y276D01*
X1836Y274D01*
X1832Y274D01*
X1832Y272D01*
X1830Y272D01*
X1830Y270D01*
X1826Y270D01*
X1826Y268D01*
X1824Y268D01*
X1824Y266D01*
X1818Y266D01*
X1818Y264D01*
X1814Y264D01*
X1814Y262D01*
X1804Y262D01*
X1804Y260D01*
X1928Y260D01*
X1928Y658D01*
X1342Y658D01*
G37*
D02*
G36*
X1340Y578D02*
X1340Y560D01*
X1360Y560D01*
X1360Y562D01*
X1364Y562D01*
X1364Y564D01*
X1366Y564D01*
X1366Y566D01*
X1368Y566D01*
X1368Y568D01*
X1370Y568D01*
X1370Y570D01*
X1374Y570D01*
X1374Y572D01*
X1378Y572D01*
X1378Y574D01*
X1382Y574D01*
X1382Y576D01*
X1388Y576D01*
X1388Y578D01*
X1340Y578D01*
G37*
D02*
G36*
X1412Y578D02*
X1412Y576D01*
X1418Y576D01*
X1418Y574D01*
X1422Y574D01*
X1422Y572D01*
X1426Y572D01*
X1426Y570D01*
X1430Y570D01*
X1430Y568D01*
X1432Y568D01*
X1432Y566D01*
X1434Y566D01*
X1434Y564D01*
X1436Y564D01*
X1436Y562D01*
X1440Y562D01*
X1440Y560D01*
X1460Y560D01*
X1460Y562D01*
X1464Y562D01*
X1464Y564D01*
X1466Y564D01*
X1466Y566D01*
X1468Y566D01*
X1468Y568D01*
X1470Y568D01*
X1470Y570D01*
X1474Y570D01*
X1474Y572D01*
X1478Y572D01*
X1478Y574D01*
X1482Y574D01*
X1482Y576D01*
X1488Y576D01*
X1488Y578D01*
X1412Y578D01*
G37*
D02*
G36*
X1512Y578D02*
X1512Y576D01*
X1518Y576D01*
X1518Y574D01*
X1522Y574D01*
X1522Y572D01*
X1526Y572D01*
X1526Y570D01*
X1530Y570D01*
X1530Y568D01*
X1532Y568D01*
X1532Y566D01*
X1534Y566D01*
X1534Y564D01*
X1536Y564D01*
X1536Y562D01*
X1540Y562D01*
X1540Y560D01*
X1560Y560D01*
X1560Y562D01*
X1564Y562D01*
X1564Y564D01*
X1566Y564D01*
X1566Y566D01*
X1568Y566D01*
X1568Y568D01*
X1570Y568D01*
X1570Y570D01*
X1574Y570D01*
X1574Y572D01*
X1578Y572D01*
X1578Y574D01*
X1582Y574D01*
X1582Y576D01*
X1588Y576D01*
X1588Y578D01*
X1512Y578D01*
G37*
D02*
G36*
X1612Y578D02*
X1612Y576D01*
X1618Y576D01*
X1618Y574D01*
X1622Y574D01*
X1622Y572D01*
X1626Y572D01*
X1626Y570D01*
X1630Y570D01*
X1630Y568D01*
X1632Y568D01*
X1632Y566D01*
X1634Y566D01*
X1634Y564D01*
X1636Y564D01*
X1636Y562D01*
X1640Y562D01*
X1640Y560D01*
X1660Y560D01*
X1660Y562D01*
X1664Y562D01*
X1664Y564D01*
X1666Y564D01*
X1666Y566D01*
X1668Y566D01*
X1668Y568D01*
X1670Y568D01*
X1670Y570D01*
X1674Y570D01*
X1674Y572D01*
X1678Y572D01*
X1678Y574D01*
X1682Y574D01*
X1682Y576D01*
X1688Y576D01*
X1688Y578D01*
X1612Y578D01*
G37*
D02*
G36*
X1712Y578D02*
X1712Y576D01*
X1718Y576D01*
X1718Y574D01*
X1722Y574D01*
X1722Y572D01*
X1726Y572D01*
X1726Y570D01*
X1730Y570D01*
X1730Y568D01*
X1732Y568D01*
X1732Y566D01*
X1734Y566D01*
X1734Y564D01*
X1736Y564D01*
X1736Y562D01*
X1740Y562D01*
X1740Y560D01*
X1760Y560D01*
X1760Y562D01*
X1764Y562D01*
X1764Y564D01*
X1766Y564D01*
X1766Y566D01*
X1768Y566D01*
X1768Y568D01*
X1770Y568D01*
X1770Y570D01*
X1774Y570D01*
X1774Y572D01*
X1778Y572D01*
X1778Y574D01*
X1782Y574D01*
X1782Y576D01*
X1788Y576D01*
X1788Y578D01*
X1712Y578D01*
G37*
D02*
G36*
X1340Y280D02*
X1340Y278D01*
X1338Y278D01*
X1338Y260D01*
X1396Y260D01*
X1396Y262D01*
X1386Y262D01*
X1386Y264D01*
X1382Y264D01*
X1382Y266D01*
X1376Y266D01*
X1376Y268D01*
X1374Y268D01*
X1374Y270D01*
X1370Y270D01*
X1370Y272D01*
X1368Y272D01*
X1368Y274D01*
X1364Y274D01*
X1364Y276D01*
X1362Y276D01*
X1362Y278D01*
X1360Y278D01*
X1360Y280D01*
X1340Y280D01*
G37*
D02*
G36*
X1440Y280D02*
X1440Y278D01*
X1438Y278D01*
X1438Y276D01*
X1436Y276D01*
X1436Y274D01*
X1432Y274D01*
X1432Y272D01*
X1430Y272D01*
X1430Y270D01*
X1426Y270D01*
X1426Y268D01*
X1424Y268D01*
X1424Y266D01*
X1418Y266D01*
X1418Y264D01*
X1414Y264D01*
X1414Y262D01*
X1404Y262D01*
X1404Y260D01*
X1462Y260D01*
X1462Y278D01*
X1460Y278D01*
X1460Y280D01*
X1440Y280D01*
G37*
D02*
G36*
X1540Y280D02*
X1540Y278D01*
X1538Y278D01*
X1538Y260D01*
X1596Y260D01*
X1596Y262D01*
X1586Y262D01*
X1586Y264D01*
X1582Y264D01*
X1582Y266D01*
X1576Y266D01*
X1576Y268D01*
X1574Y268D01*
X1574Y270D01*
X1570Y270D01*
X1570Y272D01*
X1568Y272D01*
X1568Y274D01*
X1564Y274D01*
X1564Y276D01*
X1562Y276D01*
X1562Y278D01*
X1560Y278D01*
X1560Y280D01*
X1540Y280D01*
G37*
D02*
G36*
X1640Y280D02*
X1640Y278D01*
X1638Y278D01*
X1638Y276D01*
X1636Y276D01*
X1636Y274D01*
X1632Y274D01*
X1632Y272D01*
X1630Y272D01*
X1630Y270D01*
X1626Y270D01*
X1626Y268D01*
X1624Y268D01*
X1624Y266D01*
X1618Y266D01*
X1618Y264D01*
X1614Y264D01*
X1614Y262D01*
X1604Y262D01*
X1604Y260D01*
X1662Y260D01*
X1662Y278D01*
X1660Y278D01*
X1660Y280D01*
X1640Y280D01*
G37*
D02*
G36*
X1740Y280D02*
X1740Y278D01*
X1738Y278D01*
X1738Y260D01*
X1796Y260D01*
X1796Y262D01*
X1786Y262D01*
X1786Y264D01*
X1782Y264D01*
X1782Y266D01*
X1776Y266D01*
X1776Y268D01*
X1774Y268D01*
X1774Y270D01*
X1770Y270D01*
X1770Y272D01*
X1768Y272D01*
X1768Y274D01*
X1764Y274D01*
X1764Y276D01*
X1762Y276D01*
X1762Y278D01*
X1760Y278D01*
X1760Y280D01*
X1740Y280D01*
G37*
D02*
G36*
X1338Y260D02*
X1338Y258D01*
X1462Y258D01*
X1462Y260D01*
X1338Y260D01*
G37*
D02*
G36*
X1338Y260D02*
X1338Y258D01*
X1462Y258D01*
X1462Y260D01*
X1338Y260D01*
G37*
D02*
G36*
X1538Y260D02*
X1538Y258D01*
X1662Y258D01*
X1662Y260D01*
X1538Y260D01*
G37*
D02*
G36*
X1538Y260D02*
X1538Y258D01*
X1662Y258D01*
X1662Y260D01*
X1538Y260D01*
G37*
D02*
G36*
X1738Y260D02*
X1738Y258D01*
X1928Y258D01*
X1928Y260D01*
X1738Y260D01*
G37*
D02*
G36*
X1738Y260D02*
X1738Y258D01*
X1928Y258D01*
X1928Y260D01*
X1738Y260D01*
G37*
D02*
G36*
X1340Y258D02*
X1340Y256D01*
X1342Y256D01*
X1342Y254D01*
X1344Y254D01*
X1344Y250D01*
X1346Y250D01*
X1346Y246D01*
X1348Y246D01*
X1348Y242D01*
X1350Y242D01*
X1350Y236D01*
X1352Y236D01*
X1352Y202D01*
X1382Y202D01*
X1382Y200D01*
X1390Y200D01*
X1390Y198D01*
X1396Y198D01*
X1396Y196D01*
X1400Y196D01*
X1400Y194D01*
X1404Y194D01*
X1404Y192D01*
X1406Y192D01*
X1406Y190D01*
X1408Y190D01*
X1408Y188D01*
X1410Y188D01*
X1410Y186D01*
X1412Y186D01*
X1412Y184D01*
X1414Y184D01*
X1414Y182D01*
X1416Y182D01*
X1416Y178D01*
X1418Y178D01*
X1418Y174D01*
X1420Y174D01*
X1420Y168D01*
X1422Y168D01*
X1422Y158D01*
X1424Y158D01*
X1424Y140D01*
X1422Y140D01*
X1422Y130D01*
X1420Y130D01*
X1420Y124D01*
X1418Y124D01*
X1418Y120D01*
X1416Y120D01*
X1416Y116D01*
X1414Y116D01*
X1414Y114D01*
X1412Y114D01*
X1412Y112D01*
X1410Y112D01*
X1410Y110D01*
X1408Y110D01*
X1408Y108D01*
X1406Y108D01*
X1406Y106D01*
X1404Y106D01*
X1404Y104D01*
X1400Y104D01*
X1400Y102D01*
X1396Y102D01*
X1396Y100D01*
X1390Y100D01*
X1390Y98D01*
X1382Y98D01*
X1382Y96D01*
X1560Y96D01*
X1560Y98D01*
X1552Y98D01*
X1552Y100D01*
X1546Y100D01*
X1546Y102D01*
X1542Y102D01*
X1542Y104D01*
X1538Y104D01*
X1538Y106D01*
X1536Y106D01*
X1536Y108D01*
X1534Y108D01*
X1534Y110D01*
X1532Y110D01*
X1532Y112D01*
X1530Y112D01*
X1530Y114D01*
X1528Y114D01*
X1528Y116D01*
X1526Y116D01*
X1526Y120D01*
X1524Y120D01*
X1524Y124D01*
X1522Y124D01*
X1522Y128D01*
X1520Y128D01*
X1520Y138D01*
X1518Y138D01*
X1518Y166D01*
X1498Y166D01*
X1498Y168D01*
X1484Y168D01*
X1484Y170D01*
X1478Y170D01*
X1478Y172D01*
X1472Y172D01*
X1472Y174D01*
X1468Y174D01*
X1468Y176D01*
X1466Y176D01*
X1466Y178D01*
X1464Y178D01*
X1464Y180D01*
X1462Y180D01*
X1462Y182D01*
X1460Y182D01*
X1460Y184D01*
X1458Y184D01*
X1458Y186D01*
X1456Y186D01*
X1456Y188D01*
X1454Y188D01*
X1454Y192D01*
X1452Y192D01*
X1452Y198D01*
X1450Y198D01*
X1450Y204D01*
X1448Y204D01*
X1448Y236D01*
X1450Y236D01*
X1450Y242D01*
X1452Y242D01*
X1452Y248D01*
X1454Y248D01*
X1454Y250D01*
X1456Y250D01*
X1456Y254D01*
X1458Y254D01*
X1458Y256D01*
X1460Y256D01*
X1460Y258D01*
X1340Y258D01*
G37*
D02*
G36*
X1540Y258D02*
X1540Y256D01*
X1542Y256D01*
X1542Y254D01*
X1544Y254D01*
X1544Y250D01*
X1546Y250D01*
X1546Y246D01*
X1548Y246D01*
X1548Y242D01*
X1550Y242D01*
X1550Y236D01*
X1552Y236D01*
X1552Y202D01*
X1582Y202D01*
X1582Y200D01*
X1590Y200D01*
X1590Y198D01*
X1596Y198D01*
X1596Y196D01*
X1600Y196D01*
X1600Y194D01*
X1604Y194D01*
X1604Y192D01*
X1606Y192D01*
X1606Y190D01*
X1608Y190D01*
X1608Y188D01*
X1610Y188D01*
X1610Y186D01*
X1612Y186D01*
X1612Y184D01*
X1614Y184D01*
X1614Y182D01*
X1616Y182D01*
X1616Y178D01*
X1618Y178D01*
X1618Y174D01*
X1620Y174D01*
X1620Y168D01*
X1622Y168D01*
X1622Y158D01*
X1624Y158D01*
X1624Y140D01*
X1622Y140D01*
X1622Y130D01*
X1620Y130D01*
X1620Y124D01*
X1618Y124D01*
X1618Y120D01*
X1616Y120D01*
X1616Y116D01*
X1614Y116D01*
X1614Y114D01*
X1612Y114D01*
X1612Y112D01*
X1610Y112D01*
X1610Y110D01*
X1608Y110D01*
X1608Y108D01*
X1606Y108D01*
X1606Y106D01*
X1604Y106D01*
X1604Y104D01*
X1600Y104D01*
X1600Y102D01*
X1596Y102D01*
X1596Y100D01*
X1590Y100D01*
X1590Y98D01*
X1582Y98D01*
X1582Y96D01*
X1760Y96D01*
X1760Y98D01*
X1752Y98D01*
X1752Y100D01*
X1746Y100D01*
X1746Y102D01*
X1742Y102D01*
X1742Y104D01*
X1738Y104D01*
X1738Y106D01*
X1736Y106D01*
X1736Y108D01*
X1734Y108D01*
X1734Y110D01*
X1732Y110D01*
X1732Y112D01*
X1730Y112D01*
X1730Y114D01*
X1728Y114D01*
X1728Y116D01*
X1726Y116D01*
X1726Y120D01*
X1724Y120D01*
X1724Y124D01*
X1722Y124D01*
X1722Y128D01*
X1720Y128D01*
X1720Y138D01*
X1718Y138D01*
X1718Y166D01*
X1698Y166D01*
X1698Y168D01*
X1684Y168D01*
X1684Y170D01*
X1678Y170D01*
X1678Y172D01*
X1672Y172D01*
X1672Y174D01*
X1668Y174D01*
X1668Y176D01*
X1666Y176D01*
X1666Y178D01*
X1664Y178D01*
X1664Y180D01*
X1662Y180D01*
X1662Y182D01*
X1660Y182D01*
X1660Y184D01*
X1658Y184D01*
X1658Y186D01*
X1656Y186D01*
X1656Y188D01*
X1654Y188D01*
X1654Y192D01*
X1652Y192D01*
X1652Y198D01*
X1650Y198D01*
X1650Y204D01*
X1648Y204D01*
X1648Y236D01*
X1650Y236D01*
X1650Y242D01*
X1652Y242D01*
X1652Y248D01*
X1654Y248D01*
X1654Y250D01*
X1656Y250D01*
X1656Y254D01*
X1658Y254D01*
X1658Y256D01*
X1660Y256D01*
X1660Y258D01*
X1540Y258D01*
G37*
D02*
G36*
X1740Y258D02*
X1740Y256D01*
X1742Y256D01*
X1742Y254D01*
X1744Y254D01*
X1744Y250D01*
X1746Y250D01*
X1746Y246D01*
X1748Y246D01*
X1748Y242D01*
X1750Y242D01*
X1750Y236D01*
X1752Y236D01*
X1752Y202D01*
X1782Y202D01*
X1782Y200D01*
X1790Y200D01*
X1790Y198D01*
X1796Y198D01*
X1796Y196D01*
X1800Y196D01*
X1800Y194D01*
X1804Y194D01*
X1804Y192D01*
X1806Y192D01*
X1806Y190D01*
X1808Y190D01*
X1808Y188D01*
X1810Y188D01*
X1810Y186D01*
X1812Y186D01*
X1812Y184D01*
X1814Y184D01*
X1814Y182D01*
X1816Y182D01*
X1816Y178D01*
X1818Y178D01*
X1818Y174D01*
X1820Y174D01*
X1820Y168D01*
X1822Y168D01*
X1822Y158D01*
X1824Y158D01*
X1824Y140D01*
X1822Y140D01*
X1822Y130D01*
X1820Y130D01*
X1820Y124D01*
X1818Y124D01*
X1818Y120D01*
X1816Y120D01*
X1816Y116D01*
X1814Y116D01*
X1814Y114D01*
X1812Y114D01*
X1812Y112D01*
X1810Y112D01*
X1810Y110D01*
X1808Y110D01*
X1808Y108D01*
X1806Y108D01*
X1806Y106D01*
X1804Y106D01*
X1804Y104D01*
X1800Y104D01*
X1800Y102D01*
X1796Y102D01*
X1796Y100D01*
X1790Y100D01*
X1790Y98D01*
X1782Y98D01*
X1782Y96D01*
X1928Y96D01*
X1928Y258D01*
X1740Y258D01*
G37*
D02*
G36*
X1238Y186D02*
X1238Y184D01*
X1236Y184D01*
X1236Y164D01*
X1238Y164D01*
X1238Y162D01*
X1240Y162D01*
X1240Y160D01*
X1242Y160D01*
X1242Y158D01*
X1244Y158D01*
X1244Y154D01*
X1246Y154D01*
X1246Y152D01*
X1248Y152D01*
X1248Y148D01*
X1250Y148D01*
X1250Y144D01*
X1252Y144D01*
X1252Y140D01*
X1254Y140D01*
X1254Y132D01*
X1256Y132D01*
X1256Y114D01*
X1254Y114D01*
X1254Y108D01*
X1252Y108D01*
X1252Y102D01*
X1250Y102D01*
X1250Y98D01*
X1248Y98D01*
X1248Y96D01*
X1360Y96D01*
X1360Y98D01*
X1352Y98D01*
X1352Y100D01*
X1346Y100D01*
X1346Y102D01*
X1342Y102D01*
X1342Y104D01*
X1338Y104D01*
X1338Y106D01*
X1336Y106D01*
X1336Y108D01*
X1334Y108D01*
X1334Y110D01*
X1332Y110D01*
X1332Y112D01*
X1330Y112D01*
X1330Y114D01*
X1328Y114D01*
X1328Y116D01*
X1326Y116D01*
X1326Y120D01*
X1324Y120D01*
X1324Y124D01*
X1322Y124D01*
X1322Y128D01*
X1320Y128D01*
X1320Y138D01*
X1318Y138D01*
X1318Y166D01*
X1298Y166D01*
X1298Y168D01*
X1284Y168D01*
X1284Y170D01*
X1278Y170D01*
X1278Y172D01*
X1272Y172D01*
X1272Y174D01*
X1268Y174D01*
X1268Y176D01*
X1266Y176D01*
X1266Y178D01*
X1264Y178D01*
X1264Y180D01*
X1262Y180D01*
X1262Y182D01*
X1260Y182D01*
X1260Y184D01*
X1258Y184D01*
X1258Y186D01*
X1238Y186D01*
G37*
D02*
G36*
X1040Y180D02*
X1040Y178D01*
X1038Y178D01*
X1038Y176D01*
X1036Y176D01*
X1036Y174D01*
X1032Y174D01*
X1032Y172D01*
X1030Y172D01*
X1030Y170D01*
X1026Y170D01*
X1026Y168D01*
X1024Y168D01*
X1024Y166D01*
X1018Y166D01*
X1018Y164D01*
X1014Y164D01*
X1014Y162D01*
X1004Y162D01*
X1004Y160D01*
X1096Y160D01*
X1096Y162D01*
X1086Y162D01*
X1086Y164D01*
X1082Y164D01*
X1082Y166D01*
X1076Y166D01*
X1076Y168D01*
X1074Y168D01*
X1074Y170D01*
X1070Y170D01*
X1070Y172D01*
X1068Y172D01*
X1068Y174D01*
X1064Y174D01*
X1064Y176D01*
X1062Y176D01*
X1062Y178D01*
X1060Y178D01*
X1060Y180D01*
X1040Y180D01*
G37*
D02*
G36*
X1138Y178D02*
X1138Y176D01*
X1136Y176D01*
X1136Y174D01*
X1132Y174D01*
X1132Y172D01*
X1130Y172D01*
X1130Y170D01*
X1126Y170D01*
X1126Y168D01*
X1124Y168D01*
X1124Y166D01*
X1118Y166D01*
X1118Y164D01*
X1114Y164D01*
X1114Y162D01*
X1104Y162D01*
X1104Y160D01*
X1154Y160D01*
X1154Y162D01*
X1156Y162D01*
X1156Y164D01*
X1158Y164D01*
X1158Y178D01*
X1138Y178D01*
G37*
D02*
G36*
X40Y160D02*
X40Y158D01*
X1152Y158D01*
X1152Y160D01*
X40Y160D01*
G37*
D02*
G36*
X40Y160D02*
X40Y158D01*
X1152Y158D01*
X1152Y160D01*
X40Y160D01*
G37*
D02*
G36*
X40Y160D02*
X40Y158D01*
X1152Y158D01*
X1152Y160D01*
X40Y160D01*
G37*
D02*
G36*
X40Y158D02*
X40Y64D01*
X1190Y64D01*
X1190Y66D01*
X1182Y66D01*
X1182Y68D01*
X1178Y68D01*
X1178Y70D01*
X1174Y70D01*
X1174Y72D01*
X1170Y72D01*
X1170Y74D01*
X1166Y74D01*
X1166Y76D01*
X1164Y76D01*
X1164Y78D01*
X1162Y78D01*
X1162Y80D01*
X1160Y80D01*
X1160Y82D01*
X1158Y82D01*
X1158Y84D01*
X1156Y84D01*
X1156Y86D01*
X1154Y86D01*
X1154Y88D01*
X1152Y88D01*
X1152Y90D01*
X1150Y90D01*
X1150Y92D01*
X1148Y92D01*
X1148Y96D01*
X1146Y96D01*
X1146Y98D01*
X1144Y98D01*
X1144Y102D01*
X1142Y102D01*
X1142Y108D01*
X1140Y108D01*
X1140Y114D01*
X1138Y114D01*
X1138Y132D01*
X1140Y132D01*
X1140Y140D01*
X1142Y140D01*
X1142Y144D01*
X1144Y144D01*
X1144Y148D01*
X1146Y148D01*
X1146Y152D01*
X1148Y152D01*
X1148Y154D01*
X1150Y154D01*
X1150Y158D01*
X40Y158D01*
G37*
D02*
G36*
X1246Y96D02*
X1246Y94D01*
X1928Y94D01*
X1928Y96D01*
X1246Y96D01*
G37*
D02*
G36*
X1246Y96D02*
X1246Y94D01*
X1928Y94D01*
X1928Y96D01*
X1246Y96D01*
G37*
D02*
G36*
X1246Y96D02*
X1246Y94D01*
X1928Y94D01*
X1928Y96D01*
X1246Y96D01*
G37*
D02*
G36*
X1246Y96D02*
X1246Y94D01*
X1928Y94D01*
X1928Y96D01*
X1246Y96D01*
G37*
D02*
G36*
X1246Y94D02*
X1246Y92D01*
X1244Y92D01*
X1244Y90D01*
X1242Y90D01*
X1242Y88D01*
X1240Y88D01*
X1240Y86D01*
X1238Y86D01*
X1238Y84D01*
X1236Y84D01*
X1236Y82D01*
X1234Y82D01*
X1234Y80D01*
X1232Y80D01*
X1232Y78D01*
X1230Y78D01*
X1230Y76D01*
X1228Y76D01*
X1228Y74D01*
X1224Y74D01*
X1224Y72D01*
X1220Y72D01*
X1220Y70D01*
X1216Y70D01*
X1216Y68D01*
X1212Y68D01*
X1212Y66D01*
X1204Y66D01*
X1204Y64D01*
X1928Y64D01*
X1928Y94D01*
X1246Y94D01*
G37*
D02*
G36*
X40Y64D02*
X40Y62D01*
X1928Y62D01*
X1928Y64D01*
X40Y64D01*
G37*
D02*
G36*
X40Y64D02*
X40Y62D01*
X1928Y62D01*
X1928Y64D01*
X40Y64D01*
G37*
D02*
G36*
X40Y62D02*
X40Y40D01*
X1928Y40D01*
X1928Y62D01*
X40Y62D01*
G37*
D02*
G36*
X1303Y1148D02*
X1352Y1148D01*
X1352Y1108D01*
X1303Y1108D01*
X1303Y1148D01*
G37*
D02*
G36*
X1272Y1117D02*
X1312Y1117D01*
X1312Y1068D01*
X1272Y1068D01*
X1272Y1117D01*
G37*
D02*
G36*
X1503Y1148D02*
X1552Y1148D01*
X1552Y1108D01*
X1503Y1108D01*
X1503Y1148D01*
G37*
D02*
G36*
X1703Y1148D02*
X1752Y1148D01*
X1752Y1108D01*
X1703Y1108D01*
X1703Y1148D01*
G37*
D02*
G36*
X938Y840D02*
X978Y840D01*
X978Y801D01*
X938Y801D01*
X938Y840D01*
G37*
D02*
G36*
X1745Y136D02*
X1794Y136D01*
X1794Y96D01*
X1745Y96D01*
X1745Y136D01*
G37*
D02*
G36*
X1784Y175D02*
X1824Y175D01*
X1824Y126D01*
X1784Y126D01*
X1784Y175D01*
G37*
D02*
G36*
X1545Y136D02*
X1594Y136D01*
X1594Y96D01*
X1545Y96D01*
X1545Y136D01*
G37*
D02*
G36*
X1345Y136D02*
X1394Y136D01*
X1394Y96D01*
X1345Y96D01*
X1345Y136D01*
G37*
D02*
G04 End of Copper0*
M02*