G04 MADE WITH FRITZING*
G04 WWW.FRITZING.ORG*
G04 DOUBLE SIDED*
G04 HOLES PLATED*
G04 CONTOUR ON CENTER OF CONTOUR VECTOR*
%ASAXBY*%
%FSLAX23Y23*%
%MOIN*%
%OFA0B0*%
%SFA1.0B1.0*%
%ADD10C,0.075000*%
%ADD11C,0.078000*%
%ADD12C,0.070000*%
%ADD13R,0.078000X0.078000*%
%ADD14C,0.024000*%
%LNCOPPER1*%
G90*
G70*
G54D10*
X1846Y1111D03*
G54D11*
X1200Y620D03*
X1300Y620D03*
X1800Y420D03*
X1700Y420D03*
X1600Y420D03*
X1500Y420D03*
X1400Y420D03*
X1300Y420D03*
X1800Y420D03*
X1700Y420D03*
X1600Y420D03*
X1500Y420D03*
X1400Y420D03*
X1300Y420D03*
X1300Y320D03*
X1400Y320D03*
X1500Y320D03*
X1600Y320D03*
X1700Y320D03*
X1800Y320D03*
X1300Y820D03*
X1400Y820D03*
X1500Y820D03*
X1600Y820D03*
X1700Y820D03*
X1800Y820D03*
X1300Y820D03*
X1400Y820D03*
X1500Y820D03*
X1600Y820D03*
X1700Y820D03*
X1800Y820D03*
X1800Y920D03*
X1700Y920D03*
X1600Y920D03*
X1500Y920D03*
X1400Y920D03*
X1300Y920D03*
G54D12*
X1700Y220D03*
X1771Y149D03*
X1500Y220D03*
X1571Y149D03*
X1300Y220D03*
X1371Y149D03*
X1800Y1020D03*
X1729Y1091D03*
X1600Y1020D03*
X1529Y1091D03*
X1400Y1020D03*
X1329Y1091D03*
G54D11*
X1800Y520D03*
X1700Y520D03*
X1600Y520D03*
X1500Y520D03*
X1400Y520D03*
X1300Y520D03*
X1300Y720D03*
X1400Y720D03*
X1500Y720D03*
X1600Y720D03*
X1700Y720D03*
X1800Y720D03*
X1000Y1020D03*
X1000Y920D03*
X1000Y820D03*
X1000Y720D03*
X1000Y620D03*
X1000Y520D03*
X1000Y420D03*
X1000Y320D03*
X1000Y220D03*
X1100Y1020D03*
X1100Y920D03*
X1100Y820D03*
X1100Y720D03*
X1100Y620D03*
X1100Y520D03*
X1100Y420D03*
X1100Y320D03*
X1100Y220D03*
X1197Y124D03*
X1197Y224D03*
X1197Y324D03*
X1197Y424D03*
X1197Y524D03*
G54D13*
X1200Y620D03*
G54D14*
X1300Y750D02*
X1300Y790D01*
D02*
X1900Y619D02*
X1330Y620D01*
D02*
X1900Y619D02*
X1900Y921D01*
D02*
X1900Y219D02*
X1900Y619D01*
D02*
X1700Y450D02*
X1700Y490D01*
D02*
X1600Y450D02*
X1600Y490D01*
D02*
X1500Y450D02*
X1500Y490D01*
D02*
X1400Y450D02*
X1400Y490D01*
D02*
X1300Y450D02*
X1300Y490D01*
D02*
X1800Y750D02*
X1800Y790D01*
D02*
X1700Y750D02*
X1700Y790D01*
D02*
X1600Y750D02*
X1600Y790D01*
D02*
X1500Y750D02*
X1500Y790D01*
D02*
X1400Y750D02*
X1400Y790D01*
D02*
X1600Y950D02*
X1600Y994D01*
D02*
X1400Y950D02*
X1400Y994D01*
D02*
X1574Y1020D02*
X1426Y1020D01*
D02*
X1774Y1020D02*
X1626Y1020D01*
D02*
X1800Y450D02*
X1800Y490D01*
D02*
X1900Y921D02*
X1830Y920D01*
D02*
X1474Y220D02*
X1326Y220D01*
D02*
X1300Y290D02*
X1300Y246D01*
D02*
X1500Y290D02*
X1500Y246D01*
D02*
X1700Y290D02*
X1700Y246D01*
D02*
X1900Y219D02*
X1726Y220D01*
D02*
X1800Y950D02*
X1800Y994D01*
D02*
X1167Y423D02*
X1130Y421D01*
D02*
X1167Y523D02*
X1130Y521D01*
D02*
X1030Y1020D02*
X1070Y1020D01*
D02*
X899Y521D02*
X898Y125D01*
D02*
X898Y125D02*
X1167Y124D01*
D02*
X970Y520D02*
X899Y521D01*
D02*
X1070Y420D02*
X1030Y420D01*
D02*
X1070Y320D02*
X1030Y320D01*
D02*
X1070Y220D02*
X1030Y220D01*
D02*
X1167Y223D02*
X1130Y221D01*
D02*
X1167Y323D02*
X1130Y321D01*
G36*
X40Y1180D02*
X40Y1144D01*
X1736Y1144D01*
X1736Y1142D01*
X1748Y1142D01*
X1748Y1140D01*
X1754Y1140D01*
X1754Y1138D01*
X1758Y1138D01*
X1758Y1136D01*
X1762Y1136D01*
X1762Y1134D01*
X1764Y1134D01*
X1764Y1132D01*
X1766Y1132D01*
X1766Y1130D01*
X1768Y1130D01*
X1768Y1128D01*
X1770Y1128D01*
X1770Y1126D01*
X1772Y1126D01*
X1772Y1124D01*
X1774Y1124D01*
X1774Y1120D01*
X1776Y1120D01*
X1776Y1116D01*
X1778Y1116D01*
X1778Y1110D01*
X1780Y1110D01*
X1780Y1102D01*
X1782Y1102D01*
X1782Y1072D01*
X1814Y1072D01*
X1814Y1070D01*
X1822Y1070D01*
X1822Y1068D01*
X1826Y1068D01*
X1826Y1066D01*
X1830Y1066D01*
X1830Y1064D01*
X1834Y1064D01*
X1834Y1062D01*
X1836Y1062D01*
X1836Y1060D01*
X1838Y1060D01*
X1838Y1058D01*
X1840Y1058D01*
X1840Y1056D01*
X1842Y1056D01*
X1842Y1054D01*
X1844Y1054D01*
X1844Y1050D01*
X1846Y1050D01*
X1846Y1046D01*
X1848Y1046D01*
X1848Y1042D01*
X1850Y1042D01*
X1850Y1036D01*
X1852Y1036D01*
X1852Y1004D01*
X1850Y1004D01*
X1850Y998D01*
X1848Y998D01*
X1848Y992D01*
X1846Y992D01*
X1846Y988D01*
X1844Y988D01*
X1844Y986D01*
X1842Y986D01*
X1842Y984D01*
X1840Y984D01*
X1840Y982D01*
X1838Y982D01*
X1838Y962D01*
X1840Y962D01*
X1840Y960D01*
X1842Y960D01*
X1842Y956D01*
X1844Y956D01*
X1844Y954D01*
X1846Y954D01*
X1846Y952D01*
X1928Y952D01*
X1928Y1180D01*
X40Y1180D01*
G37*
D02*
G36*
X40Y1144D02*
X40Y1078D01*
X1112Y1078D01*
X1112Y1076D01*
X1118Y1076D01*
X1118Y1074D01*
X1122Y1074D01*
X1122Y1072D01*
X1126Y1072D01*
X1126Y1070D01*
X1130Y1070D01*
X1130Y1068D01*
X1132Y1068D01*
X1132Y1066D01*
X1134Y1066D01*
X1134Y1064D01*
X1136Y1064D01*
X1136Y1062D01*
X1140Y1062D01*
X1140Y1060D01*
X1142Y1060D01*
X1142Y1056D01*
X1144Y1056D01*
X1144Y1054D01*
X1146Y1054D01*
X1146Y1052D01*
X1148Y1052D01*
X1148Y1050D01*
X1150Y1050D01*
X1150Y1046D01*
X1152Y1046D01*
X1152Y1042D01*
X1154Y1042D01*
X1154Y1038D01*
X1156Y1038D01*
X1156Y1032D01*
X1158Y1032D01*
X1158Y1006D01*
X1156Y1006D01*
X1156Y1002D01*
X1154Y1002D01*
X1154Y998D01*
X1152Y998D01*
X1152Y994D01*
X1150Y994D01*
X1150Y990D01*
X1148Y990D01*
X1148Y988D01*
X1146Y988D01*
X1146Y986D01*
X1144Y986D01*
X1144Y982D01*
X1142Y982D01*
X1142Y980D01*
X1140Y980D01*
X1140Y978D01*
X1312Y978D01*
X1312Y976D01*
X1318Y976D01*
X1318Y974D01*
X1322Y974D01*
X1322Y972D01*
X1326Y972D01*
X1326Y970D01*
X1330Y970D01*
X1330Y968D01*
X1332Y968D01*
X1332Y966D01*
X1334Y966D01*
X1334Y964D01*
X1336Y964D01*
X1336Y962D01*
X1340Y962D01*
X1340Y960D01*
X1360Y960D01*
X1360Y962D01*
X1362Y962D01*
X1362Y982D01*
X1360Y982D01*
X1360Y984D01*
X1358Y984D01*
X1358Y986D01*
X1356Y986D01*
X1356Y988D01*
X1354Y988D01*
X1354Y992D01*
X1352Y992D01*
X1352Y998D01*
X1350Y998D01*
X1350Y1004D01*
X1348Y1004D01*
X1348Y1038D01*
X1316Y1038D01*
X1316Y1040D01*
X1308Y1040D01*
X1308Y1042D01*
X1304Y1042D01*
X1304Y1044D01*
X1300Y1044D01*
X1300Y1046D01*
X1296Y1046D01*
X1296Y1048D01*
X1294Y1048D01*
X1294Y1050D01*
X1292Y1050D01*
X1292Y1052D01*
X1290Y1052D01*
X1290Y1054D01*
X1288Y1054D01*
X1288Y1056D01*
X1286Y1056D01*
X1286Y1058D01*
X1284Y1058D01*
X1284Y1062D01*
X1282Y1062D01*
X1282Y1066D01*
X1280Y1066D01*
X1280Y1072D01*
X1278Y1072D01*
X1278Y1082D01*
X1276Y1082D01*
X1276Y1100D01*
X1278Y1100D01*
X1278Y1110D01*
X1280Y1110D01*
X1280Y1116D01*
X1282Y1116D01*
X1282Y1120D01*
X1284Y1120D01*
X1284Y1122D01*
X1286Y1122D01*
X1286Y1126D01*
X1288Y1126D01*
X1288Y1128D01*
X1290Y1128D01*
X1290Y1130D01*
X1292Y1130D01*
X1292Y1132D01*
X1294Y1132D01*
X1294Y1134D01*
X1298Y1134D01*
X1298Y1136D01*
X1300Y1136D01*
X1300Y1138D01*
X1306Y1138D01*
X1306Y1140D01*
X1312Y1140D01*
X1312Y1142D01*
X1322Y1142D01*
X1322Y1144D01*
X40Y1144D01*
G37*
D02*
G36*
X1336Y1144D02*
X1336Y1142D01*
X1348Y1142D01*
X1348Y1140D01*
X1354Y1140D01*
X1354Y1138D01*
X1358Y1138D01*
X1358Y1136D01*
X1362Y1136D01*
X1362Y1134D01*
X1364Y1134D01*
X1364Y1132D01*
X1366Y1132D01*
X1366Y1130D01*
X1368Y1130D01*
X1368Y1128D01*
X1370Y1128D01*
X1370Y1126D01*
X1372Y1126D01*
X1372Y1124D01*
X1374Y1124D01*
X1374Y1120D01*
X1376Y1120D01*
X1376Y1116D01*
X1378Y1116D01*
X1378Y1110D01*
X1380Y1110D01*
X1380Y1102D01*
X1382Y1102D01*
X1382Y1072D01*
X1414Y1072D01*
X1414Y1070D01*
X1422Y1070D01*
X1422Y1068D01*
X1426Y1068D01*
X1426Y1066D01*
X1430Y1066D01*
X1430Y1064D01*
X1434Y1064D01*
X1434Y1062D01*
X1436Y1062D01*
X1436Y1060D01*
X1438Y1060D01*
X1438Y1058D01*
X1440Y1058D01*
X1440Y1056D01*
X1442Y1056D01*
X1442Y1054D01*
X1444Y1054D01*
X1444Y1052D01*
X1480Y1052D01*
X1480Y1072D01*
X1478Y1072D01*
X1478Y1082D01*
X1476Y1082D01*
X1476Y1100D01*
X1478Y1100D01*
X1478Y1110D01*
X1480Y1110D01*
X1480Y1116D01*
X1482Y1116D01*
X1482Y1120D01*
X1484Y1120D01*
X1484Y1122D01*
X1486Y1122D01*
X1486Y1126D01*
X1488Y1126D01*
X1488Y1128D01*
X1490Y1128D01*
X1490Y1130D01*
X1492Y1130D01*
X1492Y1132D01*
X1494Y1132D01*
X1494Y1134D01*
X1498Y1134D01*
X1498Y1136D01*
X1500Y1136D01*
X1500Y1138D01*
X1506Y1138D01*
X1506Y1140D01*
X1512Y1140D01*
X1512Y1142D01*
X1522Y1142D01*
X1522Y1144D01*
X1336Y1144D01*
G37*
D02*
G36*
X1536Y1144D02*
X1536Y1142D01*
X1548Y1142D01*
X1548Y1140D01*
X1554Y1140D01*
X1554Y1138D01*
X1558Y1138D01*
X1558Y1136D01*
X1562Y1136D01*
X1562Y1134D01*
X1564Y1134D01*
X1564Y1132D01*
X1566Y1132D01*
X1566Y1130D01*
X1568Y1130D01*
X1568Y1128D01*
X1570Y1128D01*
X1570Y1126D01*
X1572Y1126D01*
X1572Y1124D01*
X1574Y1124D01*
X1574Y1120D01*
X1576Y1120D01*
X1576Y1116D01*
X1578Y1116D01*
X1578Y1110D01*
X1580Y1110D01*
X1580Y1102D01*
X1582Y1102D01*
X1582Y1072D01*
X1614Y1072D01*
X1614Y1070D01*
X1622Y1070D01*
X1622Y1068D01*
X1626Y1068D01*
X1626Y1066D01*
X1630Y1066D01*
X1630Y1064D01*
X1634Y1064D01*
X1634Y1062D01*
X1636Y1062D01*
X1636Y1060D01*
X1638Y1060D01*
X1638Y1058D01*
X1640Y1058D01*
X1640Y1056D01*
X1642Y1056D01*
X1642Y1054D01*
X1644Y1054D01*
X1644Y1052D01*
X1680Y1052D01*
X1680Y1072D01*
X1678Y1072D01*
X1678Y1082D01*
X1676Y1082D01*
X1676Y1100D01*
X1678Y1100D01*
X1678Y1110D01*
X1680Y1110D01*
X1680Y1116D01*
X1682Y1116D01*
X1682Y1120D01*
X1684Y1120D01*
X1684Y1122D01*
X1686Y1122D01*
X1686Y1126D01*
X1688Y1126D01*
X1688Y1128D01*
X1690Y1128D01*
X1690Y1130D01*
X1692Y1130D01*
X1692Y1132D01*
X1694Y1132D01*
X1694Y1134D01*
X1698Y1134D01*
X1698Y1136D01*
X1700Y1136D01*
X1700Y1138D01*
X1706Y1138D01*
X1706Y1140D01*
X1712Y1140D01*
X1712Y1142D01*
X1722Y1142D01*
X1722Y1144D01*
X1536Y1144D01*
G37*
D02*
G36*
X40Y1078D02*
X40Y64D01*
X1190Y64D01*
X1190Y66D01*
X1182Y66D01*
X1182Y68D01*
X1178Y68D01*
X1178Y70D01*
X1174Y70D01*
X1174Y72D01*
X1170Y72D01*
X1170Y74D01*
X1166Y74D01*
X1166Y76D01*
X1164Y76D01*
X1164Y78D01*
X1162Y78D01*
X1162Y80D01*
X1160Y80D01*
X1160Y82D01*
X1158Y82D01*
X1158Y84D01*
X1156Y84D01*
X1156Y86D01*
X1154Y86D01*
X1154Y88D01*
X1152Y88D01*
X1152Y90D01*
X1150Y90D01*
X1150Y92D01*
X892Y92D01*
X892Y94D01*
X886Y94D01*
X886Y96D01*
X882Y96D01*
X882Y98D01*
X878Y98D01*
X878Y100D01*
X876Y100D01*
X876Y102D01*
X874Y102D01*
X874Y104D01*
X872Y104D01*
X872Y108D01*
X870Y108D01*
X870Y112D01*
X868Y112D01*
X868Y116D01*
X866Y116D01*
X866Y418D01*
X868Y418D01*
X868Y530D01*
X870Y530D01*
X870Y536D01*
X872Y536D01*
X872Y538D01*
X874Y538D01*
X874Y542D01*
X876Y542D01*
X876Y544D01*
X878Y544D01*
X878Y546D01*
X882Y546D01*
X882Y548D01*
X886Y548D01*
X886Y550D01*
X890Y550D01*
X890Y552D01*
X954Y552D01*
X954Y554D01*
X956Y554D01*
X956Y556D01*
X958Y556D01*
X958Y560D01*
X960Y560D01*
X960Y580D01*
X958Y580D01*
X958Y582D01*
X956Y582D01*
X956Y584D01*
X954Y584D01*
X954Y588D01*
X952Y588D01*
X952Y590D01*
X950Y590D01*
X950Y594D01*
X948Y594D01*
X948Y598D01*
X946Y598D01*
X946Y602D01*
X944Y602D01*
X944Y606D01*
X942Y606D01*
X942Y632D01*
X944Y632D01*
X944Y638D01*
X946Y638D01*
X946Y642D01*
X948Y642D01*
X948Y646D01*
X950Y646D01*
X950Y650D01*
X952Y650D01*
X952Y652D01*
X954Y652D01*
X954Y654D01*
X956Y654D01*
X956Y656D01*
X958Y656D01*
X958Y660D01*
X960Y660D01*
X960Y680D01*
X958Y680D01*
X958Y682D01*
X956Y682D01*
X956Y684D01*
X954Y684D01*
X954Y688D01*
X952Y688D01*
X952Y690D01*
X950Y690D01*
X950Y694D01*
X948Y694D01*
X948Y698D01*
X946Y698D01*
X946Y702D01*
X944Y702D01*
X944Y706D01*
X942Y706D01*
X942Y732D01*
X944Y732D01*
X944Y738D01*
X946Y738D01*
X946Y742D01*
X948Y742D01*
X948Y746D01*
X950Y746D01*
X950Y750D01*
X952Y750D01*
X952Y752D01*
X954Y752D01*
X954Y754D01*
X956Y754D01*
X956Y756D01*
X958Y756D01*
X958Y760D01*
X960Y760D01*
X960Y780D01*
X958Y780D01*
X958Y782D01*
X956Y782D01*
X956Y784D01*
X954Y784D01*
X954Y788D01*
X952Y788D01*
X952Y790D01*
X950Y790D01*
X950Y794D01*
X948Y794D01*
X948Y798D01*
X946Y798D01*
X946Y802D01*
X944Y802D01*
X944Y806D01*
X942Y806D01*
X942Y832D01*
X944Y832D01*
X944Y838D01*
X946Y838D01*
X946Y842D01*
X948Y842D01*
X948Y846D01*
X950Y846D01*
X950Y850D01*
X952Y850D01*
X952Y852D01*
X954Y852D01*
X954Y854D01*
X956Y854D01*
X956Y856D01*
X958Y856D01*
X958Y860D01*
X960Y860D01*
X960Y880D01*
X958Y880D01*
X958Y882D01*
X956Y882D01*
X956Y884D01*
X954Y884D01*
X954Y888D01*
X952Y888D01*
X952Y890D01*
X950Y890D01*
X950Y894D01*
X948Y894D01*
X948Y898D01*
X946Y898D01*
X946Y902D01*
X944Y902D01*
X944Y906D01*
X942Y906D01*
X942Y932D01*
X944Y932D01*
X944Y938D01*
X946Y938D01*
X946Y942D01*
X948Y942D01*
X948Y946D01*
X950Y946D01*
X950Y950D01*
X952Y950D01*
X952Y952D01*
X954Y952D01*
X954Y954D01*
X956Y954D01*
X956Y956D01*
X958Y956D01*
X958Y960D01*
X960Y960D01*
X960Y980D01*
X958Y980D01*
X958Y982D01*
X956Y982D01*
X956Y984D01*
X954Y984D01*
X954Y988D01*
X952Y988D01*
X952Y990D01*
X950Y990D01*
X950Y994D01*
X948Y994D01*
X948Y998D01*
X946Y998D01*
X946Y1002D01*
X944Y1002D01*
X944Y1006D01*
X942Y1006D01*
X942Y1032D01*
X944Y1032D01*
X944Y1038D01*
X946Y1038D01*
X946Y1042D01*
X948Y1042D01*
X948Y1046D01*
X950Y1046D01*
X950Y1050D01*
X952Y1050D01*
X952Y1052D01*
X954Y1052D01*
X954Y1054D01*
X956Y1054D01*
X956Y1056D01*
X958Y1056D01*
X958Y1060D01*
X960Y1060D01*
X960Y1062D01*
X964Y1062D01*
X964Y1064D01*
X966Y1064D01*
X966Y1066D01*
X968Y1066D01*
X968Y1068D01*
X970Y1068D01*
X970Y1070D01*
X974Y1070D01*
X974Y1072D01*
X978Y1072D01*
X978Y1074D01*
X982Y1074D01*
X982Y1076D01*
X988Y1076D01*
X988Y1078D01*
X40Y1078D01*
G37*
D02*
G36*
X1012Y1078D02*
X1012Y1076D01*
X1018Y1076D01*
X1018Y1074D01*
X1022Y1074D01*
X1022Y1072D01*
X1026Y1072D01*
X1026Y1070D01*
X1030Y1070D01*
X1030Y1068D01*
X1032Y1068D01*
X1032Y1066D01*
X1034Y1066D01*
X1034Y1064D01*
X1036Y1064D01*
X1036Y1062D01*
X1040Y1062D01*
X1040Y1060D01*
X1060Y1060D01*
X1060Y1062D01*
X1064Y1062D01*
X1064Y1064D01*
X1066Y1064D01*
X1066Y1066D01*
X1068Y1066D01*
X1068Y1068D01*
X1070Y1068D01*
X1070Y1070D01*
X1074Y1070D01*
X1074Y1072D01*
X1078Y1072D01*
X1078Y1074D01*
X1082Y1074D01*
X1082Y1076D01*
X1088Y1076D01*
X1088Y1078D01*
X1012Y1078D01*
G37*
D02*
G36*
X1140Y978D02*
X1140Y960D01*
X1142Y960D01*
X1142Y956D01*
X1144Y956D01*
X1144Y954D01*
X1146Y954D01*
X1146Y952D01*
X1148Y952D01*
X1148Y950D01*
X1150Y950D01*
X1150Y946D01*
X1152Y946D01*
X1152Y942D01*
X1154Y942D01*
X1154Y938D01*
X1156Y938D01*
X1156Y932D01*
X1158Y932D01*
X1158Y906D01*
X1156Y906D01*
X1156Y902D01*
X1154Y902D01*
X1154Y898D01*
X1152Y898D01*
X1152Y894D01*
X1150Y894D01*
X1150Y890D01*
X1148Y890D01*
X1148Y888D01*
X1146Y888D01*
X1146Y886D01*
X1144Y886D01*
X1144Y882D01*
X1142Y882D01*
X1142Y880D01*
X1140Y880D01*
X1140Y860D01*
X1142Y860D01*
X1142Y856D01*
X1144Y856D01*
X1144Y854D01*
X1146Y854D01*
X1146Y852D01*
X1148Y852D01*
X1148Y850D01*
X1150Y850D01*
X1150Y846D01*
X1152Y846D01*
X1152Y842D01*
X1154Y842D01*
X1154Y838D01*
X1156Y838D01*
X1156Y832D01*
X1158Y832D01*
X1158Y806D01*
X1156Y806D01*
X1156Y802D01*
X1154Y802D01*
X1154Y798D01*
X1152Y798D01*
X1152Y794D01*
X1150Y794D01*
X1150Y790D01*
X1148Y790D01*
X1148Y788D01*
X1146Y788D01*
X1146Y786D01*
X1144Y786D01*
X1144Y782D01*
X1142Y782D01*
X1142Y780D01*
X1140Y780D01*
X1140Y760D01*
X1142Y760D01*
X1142Y756D01*
X1144Y756D01*
X1144Y754D01*
X1146Y754D01*
X1146Y752D01*
X1148Y752D01*
X1148Y750D01*
X1150Y750D01*
X1150Y746D01*
X1152Y746D01*
X1152Y742D01*
X1154Y742D01*
X1154Y738D01*
X1156Y738D01*
X1156Y732D01*
X1158Y732D01*
X1158Y706D01*
X1156Y706D01*
X1156Y702D01*
X1154Y702D01*
X1154Y698D01*
X1152Y698D01*
X1152Y678D01*
X1248Y678D01*
X1248Y698D01*
X1246Y698D01*
X1246Y702D01*
X1244Y702D01*
X1244Y706D01*
X1242Y706D01*
X1242Y732D01*
X1244Y732D01*
X1244Y738D01*
X1246Y738D01*
X1246Y742D01*
X1248Y742D01*
X1248Y746D01*
X1250Y746D01*
X1250Y750D01*
X1252Y750D01*
X1252Y752D01*
X1254Y752D01*
X1254Y754D01*
X1256Y754D01*
X1256Y756D01*
X1258Y756D01*
X1258Y760D01*
X1260Y760D01*
X1260Y780D01*
X1258Y780D01*
X1258Y782D01*
X1256Y782D01*
X1256Y784D01*
X1254Y784D01*
X1254Y788D01*
X1252Y788D01*
X1252Y790D01*
X1250Y790D01*
X1250Y794D01*
X1248Y794D01*
X1248Y798D01*
X1246Y798D01*
X1246Y802D01*
X1244Y802D01*
X1244Y806D01*
X1242Y806D01*
X1242Y832D01*
X1244Y832D01*
X1244Y838D01*
X1246Y838D01*
X1246Y842D01*
X1248Y842D01*
X1248Y846D01*
X1250Y846D01*
X1250Y850D01*
X1252Y850D01*
X1252Y852D01*
X1254Y852D01*
X1254Y854D01*
X1256Y854D01*
X1256Y856D01*
X1258Y856D01*
X1258Y860D01*
X1260Y860D01*
X1260Y880D01*
X1258Y880D01*
X1258Y882D01*
X1256Y882D01*
X1256Y884D01*
X1254Y884D01*
X1254Y888D01*
X1252Y888D01*
X1252Y890D01*
X1250Y890D01*
X1250Y894D01*
X1248Y894D01*
X1248Y898D01*
X1246Y898D01*
X1246Y902D01*
X1244Y902D01*
X1244Y906D01*
X1242Y906D01*
X1242Y932D01*
X1244Y932D01*
X1244Y938D01*
X1246Y938D01*
X1246Y942D01*
X1248Y942D01*
X1248Y946D01*
X1250Y946D01*
X1250Y950D01*
X1252Y950D01*
X1252Y952D01*
X1254Y952D01*
X1254Y954D01*
X1256Y954D01*
X1256Y956D01*
X1258Y956D01*
X1258Y960D01*
X1260Y960D01*
X1260Y962D01*
X1264Y962D01*
X1264Y964D01*
X1266Y964D01*
X1266Y966D01*
X1268Y966D01*
X1268Y968D01*
X1270Y968D01*
X1270Y970D01*
X1274Y970D01*
X1274Y972D01*
X1278Y972D01*
X1278Y974D01*
X1282Y974D01*
X1282Y976D01*
X1288Y976D01*
X1288Y978D01*
X1140Y978D01*
G37*
D02*
G36*
X1540Y280D02*
X1540Y278D01*
X1538Y278D01*
X1538Y260D01*
X1596Y260D01*
X1596Y262D01*
X1586Y262D01*
X1586Y264D01*
X1582Y264D01*
X1582Y266D01*
X1576Y266D01*
X1576Y268D01*
X1574Y268D01*
X1574Y270D01*
X1570Y270D01*
X1570Y272D01*
X1568Y272D01*
X1568Y274D01*
X1564Y274D01*
X1564Y276D01*
X1562Y276D01*
X1562Y278D01*
X1560Y278D01*
X1560Y280D01*
X1540Y280D01*
G37*
D02*
G36*
X1640Y280D02*
X1640Y278D01*
X1638Y278D01*
X1638Y276D01*
X1636Y276D01*
X1636Y274D01*
X1632Y274D01*
X1632Y272D01*
X1630Y272D01*
X1630Y270D01*
X1626Y270D01*
X1626Y268D01*
X1624Y268D01*
X1624Y266D01*
X1618Y266D01*
X1618Y264D01*
X1614Y264D01*
X1614Y262D01*
X1604Y262D01*
X1604Y260D01*
X1662Y260D01*
X1662Y278D01*
X1660Y278D01*
X1660Y280D01*
X1640Y280D01*
G37*
D02*
G36*
X1538Y260D02*
X1538Y258D01*
X1662Y258D01*
X1662Y260D01*
X1538Y260D01*
G37*
D02*
G36*
X1538Y260D02*
X1538Y258D01*
X1662Y258D01*
X1662Y260D01*
X1538Y260D01*
G37*
D02*
G36*
X1540Y258D02*
X1540Y256D01*
X1542Y256D01*
X1542Y254D01*
X1544Y254D01*
X1544Y250D01*
X1546Y250D01*
X1546Y246D01*
X1548Y246D01*
X1548Y242D01*
X1550Y242D01*
X1550Y236D01*
X1552Y236D01*
X1552Y202D01*
X1582Y202D01*
X1582Y200D01*
X1590Y200D01*
X1590Y198D01*
X1596Y198D01*
X1596Y196D01*
X1600Y196D01*
X1600Y194D01*
X1604Y194D01*
X1604Y192D01*
X1606Y192D01*
X1606Y190D01*
X1608Y190D01*
X1608Y188D01*
X1610Y188D01*
X1610Y186D01*
X1612Y186D01*
X1612Y184D01*
X1614Y184D01*
X1614Y182D01*
X1616Y182D01*
X1616Y178D01*
X1618Y178D01*
X1618Y174D01*
X1620Y174D01*
X1620Y168D01*
X1622Y168D01*
X1622Y158D01*
X1624Y158D01*
X1624Y140D01*
X1622Y140D01*
X1622Y130D01*
X1620Y130D01*
X1620Y124D01*
X1618Y124D01*
X1618Y120D01*
X1616Y120D01*
X1616Y116D01*
X1614Y116D01*
X1614Y114D01*
X1612Y114D01*
X1612Y112D01*
X1610Y112D01*
X1610Y110D01*
X1608Y110D01*
X1608Y108D01*
X1606Y108D01*
X1606Y106D01*
X1604Y106D01*
X1604Y104D01*
X1600Y104D01*
X1600Y102D01*
X1596Y102D01*
X1596Y100D01*
X1590Y100D01*
X1590Y98D01*
X1582Y98D01*
X1582Y96D01*
X1760Y96D01*
X1760Y98D01*
X1752Y98D01*
X1752Y100D01*
X1746Y100D01*
X1746Y102D01*
X1742Y102D01*
X1742Y104D01*
X1738Y104D01*
X1738Y106D01*
X1736Y106D01*
X1736Y108D01*
X1734Y108D01*
X1734Y110D01*
X1732Y110D01*
X1732Y112D01*
X1730Y112D01*
X1730Y114D01*
X1728Y114D01*
X1728Y116D01*
X1726Y116D01*
X1726Y120D01*
X1724Y120D01*
X1724Y124D01*
X1722Y124D01*
X1722Y128D01*
X1720Y128D01*
X1720Y138D01*
X1718Y138D01*
X1718Y166D01*
X1698Y166D01*
X1698Y168D01*
X1684Y168D01*
X1684Y170D01*
X1678Y170D01*
X1678Y172D01*
X1672Y172D01*
X1672Y174D01*
X1668Y174D01*
X1668Y176D01*
X1666Y176D01*
X1666Y178D01*
X1664Y178D01*
X1664Y180D01*
X1662Y180D01*
X1662Y182D01*
X1660Y182D01*
X1660Y184D01*
X1658Y184D01*
X1658Y186D01*
X1656Y186D01*
X1656Y188D01*
X1654Y188D01*
X1654Y192D01*
X1652Y192D01*
X1652Y198D01*
X1650Y198D01*
X1650Y204D01*
X1648Y204D01*
X1648Y236D01*
X1650Y236D01*
X1650Y242D01*
X1652Y242D01*
X1652Y248D01*
X1654Y248D01*
X1654Y250D01*
X1656Y250D01*
X1656Y254D01*
X1658Y254D01*
X1658Y256D01*
X1660Y256D01*
X1660Y258D01*
X1540Y258D01*
G37*
D02*
G36*
X1420Y188D02*
X1420Y168D01*
X1422Y168D01*
X1422Y158D01*
X1424Y158D01*
X1424Y140D01*
X1422Y140D01*
X1422Y130D01*
X1420Y130D01*
X1420Y124D01*
X1418Y124D01*
X1418Y120D01*
X1416Y120D01*
X1416Y116D01*
X1414Y116D01*
X1414Y114D01*
X1412Y114D01*
X1412Y112D01*
X1410Y112D01*
X1410Y110D01*
X1408Y110D01*
X1408Y108D01*
X1406Y108D01*
X1406Y106D01*
X1404Y106D01*
X1404Y104D01*
X1400Y104D01*
X1400Y102D01*
X1396Y102D01*
X1396Y100D01*
X1390Y100D01*
X1390Y98D01*
X1382Y98D01*
X1382Y96D01*
X1560Y96D01*
X1560Y98D01*
X1552Y98D01*
X1552Y100D01*
X1546Y100D01*
X1546Y102D01*
X1542Y102D01*
X1542Y104D01*
X1538Y104D01*
X1538Y106D01*
X1536Y106D01*
X1536Y108D01*
X1534Y108D01*
X1534Y110D01*
X1532Y110D01*
X1532Y112D01*
X1530Y112D01*
X1530Y114D01*
X1528Y114D01*
X1528Y116D01*
X1526Y116D01*
X1526Y120D01*
X1524Y120D01*
X1524Y124D01*
X1522Y124D01*
X1522Y128D01*
X1520Y128D01*
X1520Y138D01*
X1518Y138D01*
X1518Y166D01*
X1498Y166D01*
X1498Y168D01*
X1484Y168D01*
X1484Y170D01*
X1478Y170D01*
X1478Y172D01*
X1472Y172D01*
X1472Y174D01*
X1468Y174D01*
X1468Y176D01*
X1466Y176D01*
X1466Y178D01*
X1464Y178D01*
X1464Y180D01*
X1462Y180D01*
X1462Y182D01*
X1460Y182D01*
X1460Y184D01*
X1458Y184D01*
X1458Y186D01*
X1456Y186D01*
X1456Y188D01*
X1420Y188D01*
G37*
D02*
G36*
X1820Y188D02*
X1820Y168D01*
X1822Y168D01*
X1822Y158D01*
X1824Y158D01*
X1824Y140D01*
X1822Y140D01*
X1822Y130D01*
X1820Y130D01*
X1820Y124D01*
X1818Y124D01*
X1818Y120D01*
X1816Y120D01*
X1816Y116D01*
X1814Y116D01*
X1814Y114D01*
X1812Y114D01*
X1812Y112D01*
X1810Y112D01*
X1810Y110D01*
X1808Y110D01*
X1808Y108D01*
X1806Y108D01*
X1806Y106D01*
X1804Y106D01*
X1804Y104D01*
X1800Y104D01*
X1800Y102D01*
X1796Y102D01*
X1796Y100D01*
X1790Y100D01*
X1790Y98D01*
X1782Y98D01*
X1782Y96D01*
X1928Y96D01*
X1928Y188D01*
X1820Y188D01*
G37*
D02*
G36*
X1238Y186D02*
X1238Y184D01*
X1236Y184D01*
X1236Y164D01*
X1238Y164D01*
X1238Y162D01*
X1240Y162D01*
X1240Y160D01*
X1242Y160D01*
X1242Y158D01*
X1244Y158D01*
X1244Y154D01*
X1246Y154D01*
X1246Y152D01*
X1248Y152D01*
X1248Y148D01*
X1250Y148D01*
X1250Y144D01*
X1252Y144D01*
X1252Y140D01*
X1254Y140D01*
X1254Y132D01*
X1256Y132D01*
X1256Y114D01*
X1254Y114D01*
X1254Y108D01*
X1252Y108D01*
X1252Y102D01*
X1250Y102D01*
X1250Y98D01*
X1248Y98D01*
X1248Y96D01*
X1360Y96D01*
X1360Y98D01*
X1352Y98D01*
X1352Y100D01*
X1346Y100D01*
X1346Y102D01*
X1342Y102D01*
X1342Y104D01*
X1338Y104D01*
X1338Y106D01*
X1336Y106D01*
X1336Y108D01*
X1334Y108D01*
X1334Y110D01*
X1332Y110D01*
X1332Y112D01*
X1330Y112D01*
X1330Y114D01*
X1328Y114D01*
X1328Y116D01*
X1326Y116D01*
X1326Y120D01*
X1324Y120D01*
X1324Y124D01*
X1322Y124D01*
X1322Y128D01*
X1320Y128D01*
X1320Y138D01*
X1318Y138D01*
X1318Y166D01*
X1298Y166D01*
X1298Y168D01*
X1284Y168D01*
X1284Y170D01*
X1278Y170D01*
X1278Y172D01*
X1272Y172D01*
X1272Y174D01*
X1268Y174D01*
X1268Y176D01*
X1266Y176D01*
X1266Y178D01*
X1264Y178D01*
X1264Y180D01*
X1262Y180D01*
X1262Y182D01*
X1260Y182D01*
X1260Y184D01*
X1258Y184D01*
X1258Y186D01*
X1238Y186D01*
G37*
D02*
G36*
X1246Y96D02*
X1246Y94D01*
X1928Y94D01*
X1928Y96D01*
X1246Y96D01*
G37*
D02*
G36*
X1246Y96D02*
X1246Y94D01*
X1928Y94D01*
X1928Y96D01*
X1246Y96D01*
G37*
D02*
G36*
X1246Y96D02*
X1246Y94D01*
X1928Y94D01*
X1928Y96D01*
X1246Y96D01*
G37*
D02*
G36*
X1246Y96D02*
X1246Y94D01*
X1928Y94D01*
X1928Y96D01*
X1246Y96D01*
G37*
D02*
G36*
X1246Y94D02*
X1246Y92D01*
X1244Y92D01*
X1244Y90D01*
X1242Y90D01*
X1242Y88D01*
X1240Y88D01*
X1240Y86D01*
X1238Y86D01*
X1238Y84D01*
X1236Y84D01*
X1236Y82D01*
X1234Y82D01*
X1234Y80D01*
X1232Y80D01*
X1232Y78D01*
X1230Y78D01*
X1230Y76D01*
X1228Y76D01*
X1228Y74D01*
X1224Y74D01*
X1224Y72D01*
X1220Y72D01*
X1220Y70D01*
X1216Y70D01*
X1216Y68D01*
X1212Y68D01*
X1212Y66D01*
X1204Y66D01*
X1204Y64D01*
X1928Y64D01*
X1928Y94D01*
X1246Y94D01*
G37*
D02*
G36*
X40Y64D02*
X40Y62D01*
X1928Y62D01*
X1928Y64D01*
X40Y64D01*
G37*
D02*
G36*
X40Y64D02*
X40Y62D01*
X1928Y62D01*
X1928Y64D01*
X40Y64D01*
G37*
D02*
G36*
X40Y62D02*
X40Y40D01*
X1928Y40D01*
X1928Y62D01*
X40Y62D01*
G37*
D02*
G36*
X1303Y1148D02*
X1352Y1148D01*
X1352Y1108D01*
X1303Y1108D01*
X1303Y1148D01*
G37*
D02*
G36*
X1272Y1117D02*
X1312Y1117D01*
X1312Y1068D01*
X1272Y1068D01*
X1272Y1117D01*
G37*
D02*
G36*
X1278Y982D02*
X1317Y982D01*
X1317Y940D01*
X1278Y940D01*
X1278Y982D01*
G37*
D02*
G36*
X1238Y940D02*
X1278Y940D01*
X1278Y901D01*
X1238Y901D01*
X1238Y940D01*
G37*
D02*
G36*
X1503Y1148D02*
X1552Y1148D01*
X1552Y1108D01*
X1503Y1108D01*
X1503Y1148D01*
G37*
D02*
G36*
X1703Y1148D02*
X1752Y1148D01*
X1752Y1108D01*
X1703Y1108D01*
X1703Y1148D01*
G37*
D02*
G36*
X1116Y840D02*
X1158Y840D01*
X1158Y801D01*
X1116Y801D01*
X1116Y840D01*
G37*
D02*
G36*
X1178Y682D02*
X1217Y682D01*
X1217Y640D01*
X1178Y640D01*
X1178Y682D01*
G37*
D02*
G36*
X938Y840D02*
X978Y840D01*
X978Y801D01*
X938Y801D01*
X938Y840D01*
G37*
D02*
G36*
X1745Y136D02*
X1794Y136D01*
X1794Y96D01*
X1745Y96D01*
X1745Y136D01*
G37*
D02*
G36*
X1784Y175D02*
X1824Y175D01*
X1824Y126D01*
X1784Y126D01*
X1784Y175D01*
G37*
D02*
G36*
X1545Y136D02*
X1594Y136D01*
X1594Y96D01*
X1545Y96D01*
X1545Y136D01*
G37*
D02*
G36*
X1578Y304D02*
X1617Y304D01*
X1617Y260D01*
X1578Y260D01*
X1578Y304D01*
G37*
D02*
G36*
X1345Y136D02*
X1394Y136D01*
X1394Y96D01*
X1345Y96D01*
X1345Y136D01*
G37*
D02*
G04 End of Copper1*
M02*