G04 MADE WITH FRITZING*
G04 WWW.FRITZING.ORG*
G04 DOUBLE SIDED*
G04 HOLES PLATED*
G04 CONTOUR ON CENTER OF CONTOUR VECTOR*
%ASAXBY*%
%FSLAX23Y23*%
%MOIN*%
%OFA0B0*%
%SFA1.0B1.0*%
%ADD10C,0.088000*%
%ADD11C,0.080000*%
%ADD12R,0.088000X0.088000*%
%LNMASK0*%
G90*
G70*
G54D10*
X1200Y620D03*
X1300Y620D03*
X1800Y420D03*
X1700Y420D03*
X1600Y420D03*
X1500Y420D03*
X1400Y420D03*
X1300Y420D03*
X1800Y420D03*
X1700Y420D03*
X1600Y420D03*
X1500Y420D03*
X1400Y420D03*
X1300Y420D03*
X1300Y320D03*
X1400Y320D03*
X1500Y320D03*
X1600Y320D03*
X1700Y320D03*
X1800Y320D03*
X1300Y820D03*
X1400Y820D03*
X1500Y820D03*
X1600Y820D03*
X1700Y820D03*
X1800Y820D03*
X1300Y820D03*
X1400Y820D03*
X1500Y820D03*
X1600Y820D03*
X1700Y820D03*
X1800Y820D03*
X1800Y920D03*
X1700Y920D03*
X1600Y920D03*
X1500Y920D03*
X1400Y920D03*
X1300Y920D03*
G54D11*
X1700Y220D03*
X1771Y149D03*
X1500Y220D03*
X1571Y149D03*
X1300Y220D03*
X1371Y149D03*
X1800Y1020D03*
X1729Y1091D03*
X1600Y1020D03*
X1529Y1091D03*
X1400Y1020D03*
X1329Y1091D03*
G54D10*
X1800Y520D03*
X1700Y520D03*
X1600Y520D03*
X1500Y520D03*
X1400Y520D03*
X1300Y520D03*
X1300Y720D03*
X1400Y720D03*
X1500Y720D03*
X1600Y720D03*
X1700Y720D03*
X1800Y720D03*
X1000Y1020D03*
X1000Y920D03*
X1000Y820D03*
X1000Y720D03*
X1000Y620D03*
X1000Y520D03*
X1000Y420D03*
X1000Y320D03*
X1000Y220D03*
X1100Y1020D03*
X1100Y920D03*
X1100Y820D03*
X1100Y720D03*
X1100Y620D03*
X1100Y520D03*
X1100Y420D03*
X1100Y320D03*
X1100Y220D03*
X1197Y124D03*
X1197Y224D03*
X1197Y324D03*
X1197Y424D03*
X1197Y524D03*
G54D12*
X1200Y620D03*
G04 End of Mask0*
M02*